<svg width="128" height="128" viewBox="0 0 128 128" fill="none" xmlns="http://www.w3.org/2000/svg">
<g clip-path="url(#clip0_295_2862)">
<path d="M25.2778 116.389C42.8357 112.902 53.3704 98.9554 62.7346 78.0357C69.7578 86.8152 75.6104 90.2019 86.6617 86.8152C94.7038 84.3508 111.756 74.493 109.32 51.0808C106.884 27.6685 89.6567 11.79 72.7798 14.1141C55.9029 16.4381 46.9517 25.2041 40.3777 47.3841C33.8038 69.5641 40.4157 86.2337 25.2778 116.389Z" fill="#E33E46"/>
<path d="M18.4443 109.556C36.0022 106.069 46.5369 92.1224 55.9011 71.2026C62.9243 79.9822 68.7769 83.3689 79.8282 79.9822C87.8703 77.5178 104.922 67.66 102.486 44.2477C100.05 20.8355 82.8232 4.95704 65.9463 7.28106C49.0694 9.60509 40.1182 18.3711 33.5442 40.5511C26.9703 62.7311 33.5822 79.4007 18.4443 109.556Z" fill="#FAE3C6"/>
</g>
<defs>
<clipPath id="clip0_295_2862">
<rect width="128" height="128" fill="white"/>
</clipPath>
</defs>
</svg>
