<svg xmlns="http://www.w3.org/2000/svg" width="1000" height="1000"><g fill="none" fill-rule="nonzero"><path fill="#009B3A" d="M8 195.5c170.83-85.22 341.03-54.42 513.26-27.97C676.47 191.37 833.42 212.1 992 133v672c-170.83 85.22-341.03 54.42-513.26 27.97C323.53 809.13 166.58 788.4 8 867.5v-672"/><path fill="#FEDF00" d="M91.64 498.45C226.45 542.6 361.02 646.55 500 754.65c134.71-63.07 269.77-125.32 408.36-252.6C773.55 457.9 638.98 353.95 500 245.85c-134.71 63.07-269.77 125.32-408.36 252.6"/><path fill="#002776" d="M672.2 522.3c-.29 94.23-76.79 160.44-172.2 145.95-95.36-15.05-171.92-98.29-172.2-190.05.29-94.23 76.79-160.44 172.2-145.95 95.36 15.05 171.92 98.29 172.2 190.05"/><path fill="#FFF" d="M401.6 413.88c101.99 13.26 196.87 67.38 268.92 131.83-1.34 9.03-3.39 17.73-6.12 26.12-69.05-65.98-162.21-120.86-262.8-133.95-23.33-2.97-46.1-3.48-68.31-1.5 2.39-8.69 5.46-17.01 9.18-24.95 19.33-.94 39.04-.11 59.13 2.45Z"/><path fill="#009B3A" d="M659.38 541.1c3.16 3.12 3.41 7.22.67 10.8-3.16 3.19-7.35 3.5-10.88.8-3.15-3.15-3.4-7.26-.67-10.81 3.16-3.15 7.36-3.46 10.88-.79Zm-8.49 2.87c-1.72 2.27-1.66 4.68.18 6.58 2.14 1.56 4.56 1.3 6.6-.71 1.72-2.28 1.65-4.69-.18-6.58-2.14-1.54-4.56-1.28-6.6.71Zm-8.25-16.76.128.112.257.231.256.244.254.255.25.267.121.137.237.283c1.275 1.586 2.05 3.658.517 6.041l-2.91-2.31c.91-1.44.13-2.69-1.46-4.05l-.332-.25-.315-.226c-1.228-.853-2.092-1.077-3.043-.074-.248.643.213 1.491.956 2.48l.29.377.476.589.853 1.036.348.431.345.44c1.591 2.073 2.902 4.402 1.642 6.637-2.07 2.13-4.36 1.754-6.56.542l-.377-.216-.374-.23-.372-.243-.369-.254-.366-.262-.542-.407-.31-.271a19.532 19.532 0 0 1-.156-.14l-.31-.289a17.22 17.22 0 0 1-.153-.148l-.304-.304-.296-.315c-1.802-1.97-3.081-4.496-1.491-7.133l3 2.42-.084.145c-.708 1.301-.036 2.605 1.854 4.215 2.03 1.53 3.12 1.66 3.87.92.346-.824-.151-1.822-.959-2.94l-.297-.4-.317-.408-.334-.417-.691-.859-.348-.44-.343-.446c-1.522-2.024-2.723-4.23-1.471-6.39 2.072-1.992 4.296-1.553 6.18-.539l.338.19.33.202.321.208.312.214.302.216.29.217.415.32.742.592Zm-18.44-14.132.49.362.272.222.273.234.273.247c.09.084.18.17.27.258l.262.271c1.47 1.569 2.528 3.71 1.06 6.298l-3.01-2.21c.761-1.374.092-2.533-1.337-3.732l-.343-.278-.34-.238-.323-.214c-1.256-.808-2.126-1.004-3.017.042-.2.613.23 1.384.936 2.274l.297.361.32.374.516.582.727.812.37.42.365.43c1.692 2.023 3.119 4.314 1.989 6.607-1.947 2.217-4.245 1.934-6.498.805l-.386-.202c-.128-.07-.256-.142-.384-.216l-.383-.23-.38-.24-.378-.25-.375-.256a33.238 33.238 0 0 1-.186-.131l-.164-.132-.33-.273-.327-.285-.326-.296c-.107-.1-.214-.202-.32-.307l-.312-.317c-1.793-1.884-3.063-4.293-1.671-6.91l3.11 2.3c-.77 1.4-.04 2.71 1.99 4.32 2.1 1.46 3.19 1.54 3.89.77.322-.903-.337-1.975-1.314-3.168l-.336-.403-.537-.62-.747-.854-.374-.438-.368-.445c-1.573-1.943-2.808-4.07-1.704-6.242 2.088-2.239 4.497-1.675 6.507-.581l.331.187c.055.031.11.063.163.096l.319.197.31.201.444.304.686.494Zm-25.11-17.538 12.23 8.28-1.5 2.41-9.78-6.63-1.62 2.58 8.16 5.53-1.39 2.22-8.15-5.54-2.08 3.31 10.4 7.07-1.5 2.4-12.85-8.75 8.08-12.88Zm-19.11-12.03 8.38 5.21c2.59 1.87 3.44 4.47 2.32 7.06-1.078 1.592-2.607 2.323-4.373 2.142.647 1.423.272 3.019-.34 4.457l-.2.449c-.068.147-.139.292-.21.435l-.215.42-.422.787-2.51-1.57.194-.362.2-.382.2-.4c.66-1.367 1.21-3.024.607-4.75l-5.721-3.566-2.72 4.94-2.72-1.7 7.53-13.17Zm1.15 4.04-1.88 3.42 5.66 3.53c1.16.61 2.19.41 2.83-.54.46-1.06.11-2.12-.95-2.89l-5.66-3.52Zm-14.41-11.73h.01c2.97 1.94 4.33 4.73 4.2 8.12l-3.02-1.72c-.23-1.66-.98-2.94-2.4-3.85-2.44-1.12-4.64-.37-6.03 2.06-1.02 2.62-.31 5.05 1.92 6.57 1.72.8 3.326.653 4.614-.365l-2.424-1.375.94-1.96 5.69 3.22-.93 1.97-.005-.003-2.335 4.913-2.15-1.22.902-1.895c-1.686.447-3.583.22-5.522-.735-3.79-2.47-5.14-6.62-3.5-10.72 2.14-3.83 6-4.99 10.04-3.01Zm-20.1-10.86c3.88 2.3 5.45 6.41 4.04 10.62-1.91 3.97-5.67 5.32-9.78 3.51-3.89-2.31-5.45-6.43-4.04-10.63 1.91-3.96 5.67-5.3 9.78-3.5Zm-6.93 4.98c-.86 2.69-.03 5.1 2.25 6.53 2.48 1.01 4.61.16 5.87-2.36.86-2.69.03-5.1-2.26-6.52-2.47-1.02-4.61-.17-5.86 2.35Zm-20.38-18.11 8.93 4.12c2.8 1.54 4.04 4.06 3.37 6.82-.783 1.771-2.14 2.722-3.872 2.782.967 1.546.687 3.505.213 5.211l-.14.48-.145.463-.216.654-2.68-1.23.195-.598.13-.424c.45-1.519.785-3.37-.119-5.119l-6.086-2.799-1.83 5.38-2.91-1.34 5.16-14.4Zm1.76 3.93-1.27 3.73 6.04 2.79c1.21.45 2.17.11 2.64-.94.28-1.13-.23-2.17-1.37-2.79l-6.04-2.79Zm-22.71-12.64 9.08 3.69c2.85 1.41 4.21 3.89 3.7 6.7-1 2.65-3.28 3.61-6.28 2.64l-6.35-2.58-1.53 5.51-2.95-1.2 4.33-14.76Zm1.96 3.87-1.05 3.82 6.12 2.49c1.23.4 2.16 0 2.57-1.08.21-1.15-.35-2.17-1.51-2.74l-6.13-2.49Zm-34.93-13.67 11.83 3.79-.47 2.63-9.07-2.9-.43 2.41 7.62 2.44-.48 2.63-7.62-2.44-.63 3.51 9.35 3-.48 2.63-12.12-3.88 2.5-13.82Zm-35.05-10.64 4.08.93 2.29 11.54 4.25-10.04 4.08.95-1.43 15.73-2.8-.65.98-10.79-4.24 10.04-2.57-.59-2.29-11.54-.98 10.79-2.8-.63 1.43-15.74Zm-21.66-3.89 14.04 2.39-.1 2.95-11.24-1.91-.11 3.18 9.36 1.59-.1 2.73-9.36-1.59-.15 4.09 11.94 2.03-.1 2.96-14.76-2.5.58-15.92Zm-21.69-2.55 7.73.82c4.09.73 6.78 3.63 7.15 7.64l.05 2.29c-.23 3.99-2.8 6.25-6.91 6.1l-7.73-.81-.29-16.04Zm-21.4-1.14 9.34.38c3.02.38 5.05 2.34 5.51 5.3-.027 2.035-.858 3.498-2.353 4.25 1.29 1.01 1.82 2.762 2.078 4.46l.073.533.058.524.047.51.057.723-2.8-.14-.038-.47-.045-.496c-.17-1.688-.55-3.702-2.034-5.081l-6.373-.273.42 5.97-3.03-.12-.91-16.07Zm-14.46.09c4.26.18 7.49 3.25 8.33 7.88.31 4.67-2.12 7.8-6.33 8.19-4.25-.19-7.48-3.21-8.32-7.84-.32-4.66 2.11-7.83 6.32-8.23Zm38.96 4.35.18 10.08 4.45.47c2.62.08 4.21-1.33 4.38-3.87l-.03-1.37c-.25-2.56-1.93-4.35-4.53-4.84l-4.45-.47Zm-38.58-1.37c-2.5.31-3.84 2.19-3.68 5.17.57 2.94 2.4 4.76 4.93 4.94 2.5-.3 3.84-2.17 3.68-5.15-.57-2.95-2.4-4.78-4.93-4.96Zm17.09.03.3 4.13 6.31.27c1.23-.04 1.94-.76 1.95-1.97-.18-1.21-1.01-2.02-2.25-2.17l-6.31-.26Z"/><path fill="#FFF" d="m359.43 443.62-2.28 6.62 3.51 1.47-1.23-8.09"/><path fill="#FFF" d="m359.43 443.62 2.28 7.08-3.51.76 1.23-7.84"/><path fill="#FFF" d="m366.45 449.33-7.38-.77v3.6l7.38-2.83"/><path fill="#FFF" d="m366.45 449.33-5.97 3.6-2.17-3.13 8.14-.47"/><path fill="#FFF" d="m352.41 447.9 5.97 4.82 2.17-2.69-8.14-2.13"/><path fill="#FFF" d="m352.41 447.9 7.38.73v3.6l-7.38-4.33"/><path fill="#FFF" d="m363.77 457.09-2.28-7.08-3.51.75 5.79 6.33"/><path fill="#FFF" d="m363.77 457.09-5.97-4.84 2.16-2.69 3.81 7.53"/><path fill="#FFF" d="m355.09 456.21 5.97-3.63-2.17-3.13-3.8 6.76M374.66 515.88l2.28 7.1-3.51.72 1.23-7.82"/><path fill="#FFF" d="m381.68 521.66-7.38-.85v3.6l7.38-2.75"/><path fill="#FFF" d="m381.68 521.66-5.97 3.54-2.17-3.15 8.14-.39"/><path fill="#FFF" d="m367.64 520.08 5.97 4.89 2.17-2.67-8.14-2.22"/><path fill="#FFF" d="m367.64 520.08 7.38.81v3.6l-7.38-4.41"/><path fill="#FFF" d="m378.99 529.4-2.28-7.11-3.5.72 5.78 6.39"/><path fill="#FFF" d="m378.99 529.4-5.97-4.91 2.17-2.67 3.8 7.58"/><path fill="#FFF" d="m370.32 528.42 5.97-3.57-2.17-3.15-3.8 6.72M353.57 529.95l1.9 5.9-2.92.64 1.02-6.54"/><path fill="#FFF" d="m359.42 534.68-6.15-.61v3l6.15-2.39"/><path fill="#FFF" d="m359.42 534.68-4.97 3.03-1.81-2.6 6.78-.43"/><path fill="#FFF" d="m347.72 533.55 4.98 3.99 1.81-2.25-6.79-1.74"/><path fill="#FFF" d="m347.72 533.55 6.15.58v3l-6.15-3.58"/><path fill="#FFF" d="m357.19 541.16-1.9-5.89-2.93.64 4.83 5.25"/><path fill="#FFF" d="m357.19 541.16-4.98-4.01 1.81-2.25 3.17 6.26"/><path fill="#FFF" d="m349.96 540.46 4.97-3.05-1.81-2.6-3.16 5.65M391.53 511.35l1.08 3.39-1.67.33.59-3.72"/><path fill="#FFF" d="m394.87 514.13-3.52-.43v1.71l3.52-1.28"/><path fill="#FFF" d="m394.87 514.13-2.85 1.67-1.03-1.52 3.88-.15"/><path fill="#FFF" d="m388.18 513.31 2.85 2.36 1.03-1.26-3.88-1.1"/><path fill="#FFF" d="m388.18 513.31 3.52.43v1.71l-3.52-2.14"/><path fill="#FFF" d="m393.59 517.81-1.08-3.4-1.68.33 2.76 3.07"/><path fill="#FFF" d="m393.59 517.81-2.84-2.37 1.03-1.26 1.81 3.63"/><path fill="#FFF" d="m389.46 517.3 2.84-1.67-1.03-1.51-1.81 3.18M410.5 538.18l1.9 5.96-2.92.54 1.02-6.5"/><path fill="#FFF" d="m416.35 543.12-6.15-.83v3l6.15-2.17"/><path fill="#FFF" d="m416.35 543.12-4.97 2.85-1.81-2.67 6.78-.18"/><path fill="#FFF" d="m404.65 541.56 4.98 4.18 1.81-2.19-6.79-1.99"/><path fill="#FFF" d="m404.65 541.56 6.15.81v3l-6.15-3.81"/><path fill="#FFF" d="m414.12 549.52-1.9-5.96-2.93.54 4.83 5.42"/><path fill="#FFF" d="m414.12 549.52-4.98-4.19 1.81-2.19 3.17 6.38"/><path fill="#FFF" d="m406.89 548.56 4.97-2.87-1.8-2.67-3.17 5.54M405.35 555.39l1.52 4.76-2.34.44.82-5.2"/><path fill="#FFF" d="m410.03 559.32-4.92-.65v2.4l4.92-1.75"/><path fill="#FFF" d="m410.03 559.32-3.98 2.3-1.45-2.13 5.43-.17"/><path fill="#FFF" d="m400.67 558.1 3.98 3.34 1.45-1.76-5.43-1.58"/><path fill="#FFF" d="m400.67 558.1 4.92.64v2.4l-4.92-3.04"/><path fill="#FFF" d="m408.24 564.45-1.52-4.76-2.34.43 3.86 4.33"/><path fill="#FFF" d="m408.24 564.45-3.98-3.34 1.45-1.75 2.53 5.09"/><path fill="#FFF" d="m402.46 563.7 3.98-2.31-1.45-2.13-2.53 4.44M553.42 449.07l2.28 7.18-3.51.6 1.23-7.78"/><path fill="#FFF" d="m560.44 455.07-7.38-1.08v3.6l7.38-2.52"/><path fill="#FFF" d="m560.44 455.07-5.97 3.36-2.17-3.23 8.14-.13"/><path fill="#FFF" d="m546.4 453 5.97 5.12 2.17-2.59-8.14-2.53"/><path fill="#FFF" d="m546.4 453 7.38 1.1v3.6l-7.38-4.7"/><path fill="#FFF" d="m557.75 462.73-2.28-7.18-3.5.59 5.78 6.59"/><path fill="#FFF" d="m557.75 462.73-5.97-5.11 2.17-2.59 3.8 7.7"/><path fill="#FFF" d="m549.08 461.45 5.97-3.35-2.17-3.23-3.8 6.58M620.66 569.12l2.28 7.11-3.51.7 1.23-7.81"/><path fill="#FFF" d="m627.68 574.89-7.38-.84v3.6l7.38-2.76"/><path fill="#FFF" d="m627.68 574.89-5.97 3.56-2.17-3.17 8.14-.39"/><path fill="#FFF" d="m613.64 573.27 5.97 4.93 2.17-2.66-8.14-2.27"/><path fill="#FFF" d="m613.64 573.27 7.38.86v3.6l-7.38-4.46"/><path fill="#FFF" d="m624.99 582.64-2.28-7.11-3.5.71 5.78 6.4"/><path fill="#FFF" d="m624.99 582.64-5.97-4.92 2.17-2.66 3.8 7.58"/><path fill="#FFF" d="m616.32 581.64 5.97-3.54-2.17-3.16-3.8 6.7M644.55 575.68l1.52 4.71-2.34.51.82-5.22"/><path fill="#FFF" d="m649.23 579.44-4.92-.47v2.4l4.92-1.93"/><path fill="#FFF" d="m649.23 579.44-3.98 2.44-1.44-2.08 5.42-.36"/><path fill="#FFF" d="m639.88 578.53 3.98 3.22 1.44-1.8-5.42-1.42"/><path fill="#FFF" d="m639.88 578.53 4.92.49v2.4l-4.92-2.89"/><path fill="#FFF" d="m647.45 584.64-1.52-4.71-2.34.51 3.86 4.2"/><path fill="#FFF" d="m647.45 584.64-3.98-3.21 1.44-1.8 2.54 5.01"/><path fill="#FFF" d="m641.66 584.07 3.98-2.42-1.44-2.09-2.54 4.51M627.69 585.97l1.9 5.91-2.93.61 1.03-6.52"/><path fill="#FFF" d="m633.53 590.75-6.15-.67v3l6.15-2.33"/><path fill="#FFF" d="m633.53 590.75-4.97 2.99-1.81-2.63 6.78-.36"/><path fill="#FFF" d="m621.84 589.46 4.97 4.09 1.81-2.23-6.78-1.86"/><path fill="#FFF" d="m621.84 589.46 6.15.69v3l-6.15-3.69"/><path fill="#FFF" d="m631.3 597.22-1.9-5.91-2.92.6 4.82 5.31"/><path fill="#FFF" d="m631.3 597.22-4.97-4.07 1.8-2.23 3.17 6.3"/><path fill="#FFF" d="m624.07 596.42 4.98-2.97-1.81-2.63-3.17 5.6M586.22 616.05l1.9 5.96-2.93.53 1.03-6.49"/><path fill="#FFF" d="m592.07 620.97-6.15-.82v3l6.15-2.18"/><path fill="#FFF" d="m592.07 620.97-4.98 2.87-1.81-2.67 6.79-.2"/><path fill="#FFF" d="m580.37 619.4 4.97 4.2 1.81-2.18-6.78-2.02"/><path fill="#FFF" d="m580.37 619.4 6.15.84v3l-6.15-3.84"/><path fill="#FFF" d="m589.83 627.39-1.9-5.96-2.92.53 4.82 5.43"/><path fill="#FFF" d="m589.83 627.39-4.97-4.2 1.8-2.18 3.17 6.38"/><path fill="#FFF" d="m582.6 626.41 4.98-2.85-1.81-2.67-3.17 5.52M585.98 634.13l1.52 4.77-2.34.43.82-5.2"/><path fill="#FFF" d="m590.66 638.07-4.92-.65v2.4l4.92-1.75"/><path fill="#FFF" d="m590.66 638.07-3.98 2.29-1.44-2.13 5.42-.16"/><path fill="#FFF" d="m581.3 636.81 3.98 3.37 1.45-1.75-5.43-1.62"/><path fill="#FFF" d="m581.3 636.81 4.92.67v2.4l-4.92-3.07"/><path fill="#FFF" d="m588.87 643.2-1.52-4.77-2.34.43 3.86 4.34"/><path fill="#FFF" d="m588.87 643.2-3.98-3.35 1.45-1.75 2.53 5.1"/><path fill="#FFF" d="m583.09 642.42 3.98-2.28-1.44-2.14-2.54 4.42M603.32 606.22l1.52 4.76-2.34.45.82-5.21"/><path fill="#FFF" d="m608 610.12-4.92-.61v2.4l4.92-1.79"/><path fill="#FFF" d="m608 610.12-3.98 2.33-1.45-2.13 5.43-.2"/><path fill="#FFF" d="m598.64 608.94 3.98 3.33 1.45-1.76-5.43-1.57"/><path fill="#FFF" d="m598.64 608.94 4.92.63v2.4l-4.92-3.03"/><path fill="#FFF" d="m606.21 615.27-1.52-4.76-2.34.45 3.86 4.31"/><path fill="#FFF" d="m606.21 615.27-3.98-3.32 1.45-1.76 2.53 5.08"/><path fill="#FFF" d="m600.43 614.54 3.98-2.32-1.45-2.12-2.53 4.44M617.14 598.25l1.9 5.93-2.92.58 1.02-6.51"/><path fill="#FFF" d="m622.99 603.07-6.15-.71v3l6.15-2.29"/><path fill="#FFF" d="m622.99 603.07-4.97 2.96-1.81-2.64 6.78-.32"/><path fill="#FFF" d="m611.29 601.7 4.98 4.12 1.81-2.21-6.79-1.91"/><path fill="#FFF" d="m611.29 601.7 6.15.73v3l-6.15-3.73"/><path fill="#FFF" d="m620.76 609.53-1.9-5.93-2.93.58 4.83 5.35"/><path fill="#FFF" d="m620.76 609.53-4.98-4.11 1.81-2.22 3.17 6.33"/><path fill="#FFF" d="m613.53 608.68 4.97-2.94-1.8-2.64-3.17 5.58M585.51 600.7l1.52 4.77-2.33.42.81-5.19"/><path fill="#FFF" d="m590.19 604.64-4.92-.66v2.4l4.92-1.74"/><path fill="#FFF" d="m590.19 604.64-3.98 2.29-1.44-2.14 5.42-.15"/><path fill="#FFF" d="m580.84 603.38 3.98 3.36 1.44-1.75-5.42-1.61"/><path fill="#FFF" d="m580.84 603.38 4.92.67v2.4l-4.92-3.07"/><path fill="#FFF" d="m588.41 609.77-1.52-4.77-2.34.43 3.86 4.34"/><path fill="#FFF" d="m588.41 609.77-3.98-3.36 1.44-1.74 2.54 5.1"/><path fill="#FFF" d="m582.62 608.99 3.98-2.28-1.44-2.14-2.54 4.42M434.4 491.21l1.9 5.97-2.92.51 1.02-6.48"/><path fill="#FFF" d="m440.25 496.19-6.15-.88v3l6.15-2.12"/><path fill="#FFF" d="m440.25 496.19-4.98 2.81-1.8-2.68 6.78-.13"/><path fill="#FFF" d="m428.55 494.52 4.98 4.23 1.8-2.17-6.78-2.06"/><path fill="#FFF" d="m428.55 494.52 6.15.87v3l-6.15-3.87"/><path fill="#FFF" d="m438.01 502.58-1.9-5.98-2.92.51 4.82 5.47"/><path fill="#FFF" d="m438.01 502.58-4.97-4.24 1.81-2.17 3.16 6.41"/><path fill="#FFF" d="m430.79 501.54 4.97-2.81-1.81-2.69-3.16 5.5M546.86 494.15l1.52 4.8-2.34.39.82-5.19"/><path fill="#FFF" d="m551.54 498.17-4.92-.73v2.4l4.92-1.67"/><path fill="#FFF" d="m551.54 498.17-3.98 2.23-1.45-2.16 5.43-.07"/><path fill="#FFF" d="m542.18 496.77 3.98 3.42 1.44-1.73-5.42-1.69"/><path fill="#FFF" d="m542.18 496.77 4.92.74v2.4l-4.92-3.14"/><path fill="#FFF" d="m549.75 503.27-1.52-4.79-2.34.39 3.86 4.4"/><path fill="#FFF" d="m549.75 503.27-3.98-3.42 1.44-1.72 2.54 5.14"/><path fill="#FFF" d="m543.97 502.41 3.98-2.23-1.45-2.16-2.53 4.39M500 568.48l2.28 7.2-3.51.57 1.23-7.77"/><path fill="#FFF" d="m507.02 574.54-7.38-1.14v3.6l7.38-2.46"/><path fill="#FFF" d="m507.02 574.54-5.97 3.31-2.17-3.25 8.14-.06"/><path fill="#FFF" d="m492.98 572.37 5.97 5.15 2.17-2.57-8.14-2.58"/><path fill="#FFF" d="m492.98 572.37 7.38 1.14v3.6l-7.38-4.74"/><path fill="#FFF" d="m504.34 582.18-2.28-7.21-3.51.57 5.79 6.64"/><path fill="#FFF" d="m504.34 582.18-5.97-5.16 2.17-2.58 3.8 7.74"/><path fill="#FFF" d="m495.66 580.83 5.97-3.31-2.17-3.24-3.8 6.55M519.91 539.38l1.9 6-2.92.48 1.02-6.48"/><path fill="#FFF" d="m525.76 544.43-6.15-.95v3l6.15-2.05"/><path fill="#FFF" d="m525.76 544.43-4.97 2.76-1.81-2.7 6.78-.06"/><path fill="#FFF" d="m514.07 542.63 4.97 4.29 1.81-2.15-6.78-2.14"/><path fill="#FFF" d="m514.07 542.63 6.15.95v3l-6.15-3.95"/><path fill="#FFF" d="m523.53 550.79-1.9-6-2.93.48 4.83 5.52"/><path fill="#FFF" d="m523.53 550.79-4.98-4.29 1.81-2.15 3.17 6.44"/><path fill="#FFF" d="m516.3 549.68 4.97-2.76-1.8-2.71-3.17 5.47M500 521.22l1.9 6-2.92.48 1.02-6.48"/><path fill="#FFF" d="m505.85 526.27-6.15-.95v3l6.15-2.05"/><path fill="#FFF" d="m505.85 526.27-4.98 2.76-1.8-2.71 6.78-.05"/><path fill="#FFF" d="m494.15 524.46 4.98 4.3 1.8-2.15-6.78-2.15"/><path fill="#FFF" d="m494.15 524.46 6.15.95v3l-6.15-3.95"/><path fill="#FFF" d="m503.61 532.64-1.9-6.01-2.92.48 4.82 5.53"/><path fill="#FFF" d="m503.61 532.64-4.97-4.3 1.81-2.15 3.16 6.45"/><path fill="#FFF" d="m496.39 531.52 4.97-2.76-1.81-2.71-3.16 5.47M482.66 534.83l1.52 4.8-2.34.38.82-5.18"/><path fill="#FFF" d="m487.34 538.87-4.92-.76v2.4l4.92-1.64"/><path fill="#FFF" d="m487.34 538.87-3.98 2.2-1.44-2.16 5.42-.04"/><path fill="#FFF" d="m477.98 537.43 3.98 3.43 1.45-1.72-5.43-1.71"/><path fill="#FFF" d="m477.98 537.43 4.92.75v2.4l-4.92-3.15"/><path fill="#FFF" d="m485.55 543.96-1.52-4.8-2.34.38 3.86 4.42"/><path fill="#FFF" d="m485.55 543.96-3.98-3.44 1.45-1.72 2.53 5.16"/><path fill="#FFF" d="m479.77 543.07 3.98-2.21-1.44-2.17-2.54 4.38M491.33 549.19l1.09 3.43-1.67.27.58-3.7"/><path fill="#FFF" d="m494.67 552.08-3.51-.54v1.71l3.51-1.17"/><path fill="#FFF" d="m494.67 552.08-2.84 1.58-1.03-1.55 3.87-.03"/><path fill="#FFF" d="m487.99 551.05 2.84 2.45 1.04-1.23-3.88-1.22"/><path fill="#FFF" d="m487.99 551.05 3.51.54v1.71l-3.51-2.25"/><path fill="#FFF" d="m493.4 555.72-1.09-3.43-1.67.27 2.76 3.16"/><path fill="#FFF" d="m493.4 555.72-2.85-2.46 1.04-1.23 1.81 3.69"/><path fill="#FFF" d="m489.27 555.08 2.84-1.58-1.03-1.55-1.81 3.13M551.54 615.25l1.9 5.99-2.92.49 1.02-6.48"/><path fill="#FFF" d="m557.39 620.25-6.15-.9v3l6.15-2.1"/><path fill="#FFF" d="m557.39 620.25-4.97 2.8-1.81-2.69 6.78-.11"/><path fill="#FFF" d="m545.69 618.53 4.98 4.26 1.81-2.16-6.79-2.1"/><path fill="#FFF" d="m545.69 618.53 6.15.91v3l-6.15-3.91"/><path fill="#FFF" d="m555.16 626.64-1.9-5.99-2.93.5 4.83 5.49"/><path fill="#FFF" d="m555.16 626.64-4.98-4.26 1.81-2.16 3.17 6.42"/><path fill="#FFF" d="m547.93 625.57 4.97-2.79-1.8-2.7-3.17 5.49M566.3 603.74l1.52 4.78-2.34.41.82-5.19"/><path fill="#FFF" d="m570.98 607.72-4.92-.7v2.4l4.92-1.7"/><path fill="#FFF" d="m570.98 607.72-3.98 2.26-1.44-2.15 5.42-.11"/><path fill="#FFF" d="m561.62 606.38 3.98 3.4 1.45-1.74-5.43-1.66"/><path fill="#FFF" d="m561.62 606.38 4.92.71v2.4l-4.92-3.11"/><path fill="#FFF" d="m569.19 612.83-1.52-4.78-2.34.41 3.86 4.37"/><path fill="#FFF" d="m569.19 612.83-3.98-3.39 1.45-1.73 2.53 5.12"/><path fill="#FFF" d="m563.41 612.01 3.98-2.25-1.44-2.15-2.54 4.4M537.95 595.45l1.52 4.79-2.33.39.81-5.18"/><path fill="#FFF" d="m542.63 599.47-4.92-.74v2.4l4.92-1.66"/><path fill="#FFF" d="m542.63 599.47-3.98 2.22-1.44-2.16 5.42-.06"/><path fill="#FFF" d="m533.28 598.06 3.98 3.42 1.44-1.72-5.42-1.7"/><path fill="#FFF" d="m533.28 598.06 4.92.74v2.4l-4.92-3.14"/><path fill="#FFF" d="m540.85 604.57-1.52-4.8-2.34.39 3.86 4.41"/><path fill="#FFF" d="m540.85 604.57-3.98-3.42 1.44-1.73 2.54 5.15"/><path fill="#FFF" d="m535.06 603.69 3.98-2.22-1.44-2.16-2.54 4.38M430.89 571.79l2.28 7.17-3.51.62 1.23-7.79"/><path fill="#FFF" d="m437.9 577.77-7.38-1.06v3.6l7.38-2.54"/><path fill="#FFF" d="m437.9 577.77-5.97 3.38-2.16-3.22 8.13-.16"/><path fill="#FFF" d="m423.87 575.78 5.97 5.07 2.17-2.61-8.14-2.46"/><path fill="#FFF" d="m423.87 575.78 7.38 1.04v3.6l-7.38-4.64"/><path fill="#FFF" d="m435.22 585.43-2.28-7.17-3.51.61 5.79 6.56"/><path fill="#FFF" d="m435.22 585.43-5.97-5.08 2.17-2.6 3.8 7.68"/><path fill="#FFF" d="m426.55 584.2 5.97-3.38-2.17-3.23-3.8 6.61M500 629.28l.76 2.4-1.17.19.41-2.59"/><path fill="#FFF" d="m502.34 631.3-2.46-.38v1.2l2.46-.82"/><path fill="#FFF" d="m502.34 631.3-1.99 1.1-.72-1.08 2.71-.02"/><path fill="#FFF" d="m497.66 630.57 1.99 1.72.72-.86-2.71-.86"/><path fill="#FFF" d="m497.66 630.57 2.46.39v1.2l-2.46-1.59"/><path fill="#FFF" d="m501.45 633.84-.76-2.4-1.17.19 1.93 2.21"/><path fill="#FFF" d="m501.45 633.84-1.99-1.71.72-.86 1.27 2.57"/><path fill="#FFF" d="m498.55 633.4 1.99-1.11-.72-1.08-1.27 2.19"/><path fill="#FFF" d="m498.55 633.4.76-2.17 1.17.55-1.93 1.62"/><path fill="#1A1A1A" d="M8 195.5c170.83-85.22 341.03-54.42 513.26-27.97C676.47 191.37 833.42 212.1 992 133v672c-170.83 85.22-341.03 54.42-513.26 27.97C323.53 809.13 166.58 788.4 8 867.5v-672m31.25 19.39v604.5c306.56-128.26 611.18 96.04 921.5-33.78v-604.5c-306.56 128.26-611.18-96.04-921.5 33.78" opacity=".2"/></g></svg>