<svg width="128" height="128" xmlns="http://www.w3.org/2000/svg"><defs><radialGradient cx="37.403%" cy="107.303%" fx="37.403%" fy="107.303%" r="91.608%" gradientTransform="matrix(1 0 0 .92566 0 .08)" id="a"><stop stop-color="#FFA8A6" offset="66.2%"/><stop stop-color="#FFA8A6" stop-opacity="0" offset="91.4%"/></radialGradient></defs><g fill="none"><path d="M80.895 3.52c.07 1.44 1.35 120.61 1.2 121.22-.15.61-8.91.44-8.91.09 0-.77-1.55-120.44-1.52-121.22.03-.48 9.21-.63 9.23-.09Z" fill="#FFD51D"/><path d="M80.915 4.43s-3.04 4.12-4.94 6.59c-1.7 2.21-4.17 5.01-4.17 5.01l.08 6s3.84-4.3 5.78-6.61c2.1-2.49 3.32-4.47 3.32-4.47l-.07-6.52Zm.27 22.28s-1.94 3.41-4.46 6.64c-2.05 2.63-4.61 5-4.61 5l.13 11.86 9.23-1.73-.29-21.77Zm.6 58.17.03 4.17s-1.84 3.07-4.18 5.73c-1.95 2.21-4.76 5.2-4.76 5.2l-.19-15.1 3.78-1.85 5.32 1.85Zm.19 20.5s-2.95 3.85-5 6.15c-1.63 1.83-3.91 4.23-3.91 4.23l.08 5.73s3.83-3.87 5.56-5.73c1.73-1.86 3.33-3.72 3.33-3.72l-.06-6.66Z" fill="#FDA726"/><path d="M119.855 99.37s1.5-2.24.58-5.11c-.97-3.04-3.17-4.16-4.2-6.59-1.42-3.36-1.09-6.08-3.75-8.6-2.39-2.26-5.69-1.42-8.6-2.26-2.91-.84-4.14-2.59-4.14-2.59l-6.79 2.07s.9 7.56 3.62 7.43c2.72-.13 12.09 1.62 12.28 2 .19.39 8.53 13.51 8.53 13.51l2.47.14Zm-63.15-16.42c-.13.58-2.33 3.75-5.82 6.59s-8.66 4.91-10.41 6.21c-1.75 1.29-3.04 1.87-5.17 4.72-2.13 2.85-2.84 4.59-4.4 6.79-1.55 2.2-3.17 3.75-4.59 4.85-1.47 1.13-4.46 2.91-4.98 2.84-.52-.06-2.78-4.78-2.78-4.78s6.83-7.78 8.36-10.42c1.53-2.63 4.59-6.8 7.99-8.75 1.7-.98 12.81-14.83 12.81-14.83l8.99 6.78Z" fill="#8A867E"/><path d="M35.315 53.5s-1.11-1.3-1.83-1.8c-.91-.64-1.65-1.01-3.09-1.04-1.3-.02-5.3 3.46-5.3 3.46s-9.46 17.53-9.49 17.5c-.03-.03-6.15 6.98-6.04 6.84.11-.15-3.76 1.84-3.76 1.84s.66 4.36 8.38 4.13c7.55-.22 12.32-4.51 15-10.21 1.29-2.74 1.49-7.71 1.49-7.71l4.64-13.01Z" fill="#7A57BD"/><path d="M32.235 50.97s-.54 2.41-2.5 4.15c-1.96 1.73-3.68 3.25-5.04 5.43-1.36 2.18-4.43 10.13-8.37 14.77-3.94 4.64-5.43 4.94-6.96 5.5-1.29.47-2.54.42-3 .24-.71-.26-1.38-1.64 1.86-4.63s5.27-6.53 7.05-10.09c1.78-3.56 2.67-11.51 7.56-14.81 4.89-3.29 9.4-.56 9.4-.56Z" fill="#A47FCC"/><path d="M32.365 55.43s-3.1 4.03-2.97 9.55c.13 5.52 2.82 9.43 2.82 12.7 0 3.27-.71 5.52-3.91 6.48-3.21.96-4.94 1.54-5.52 2.89-.58 1.35-.45 4.75-1.92 7.57-1.47 2.82-2.59 3.47-3.27 4.94-.77 1.64-.9 4.36-.9 4.36s1.6 7.76 3.46 4.49c1.86-3.27 8.28-16.55 10.07-18.09 1.8-1.54 11.42-12.13 11.42-12.7 0-.57-9.28-22.19-9.28-22.19Z" fill="#ACA399"/><path d="m114.495 100.7-3.64.51-.17-2.63s-1.19-2.46-2.37-4.07c-1.19-1.61-2.29-3.39-4.57-3.73-2.29-.34-16.77 0-17.96-.68-1.19-.68-3.64-3.73-3.64-3.73s-8.75.76-17.79-1.1c-6.44-1.33-10.67-1.78-10.67-1.78l-6.35-.59s-6.69-2.96-6.52-3.56c.17-.59 5.17-9.66 5.68-9.4.51.25 38.71 3.81 39.3 4.49.59.68 7.54 7.79 7.54 7.79s15.25 3.98 15.5 4.07c.25.08 6.61 13.3 6.61 13.3l-.95 1.11Zm-10-34.8s.04-3.11-.45-6.99c-.47-3.76-1.34-7.93-1.43-11.15-.1-3.59.31-5.72.69-5.84.37-.12 2.18 4.16 2.18 4.16s-.11 1.94.72 3.85c.98 2.25 2.54 1.45 2.54 1.45l1.85-6.28-3.61-9.97-1.93-13.58-6.42 4.55-4.3 17.14 1.5 16.26 4.31 8.1 4.35-1.7Z" fill="#ACA399"/><path d="m46.905 48.43 4.21 10.12-4.71 21.61 4.03 3.14s-2.96 5.68-7.57 7.92c-4.62 2.24-8.73 1.88-10.1 1.8-1.37-.07-2.29.52-3.1 1.66-3.84 5.35-3.61 10.2-4.68 12.19-1.87 3.46-4.19 3.75-4.19 3.75s-4.18-1.52-4.04-1.8c.14-.29 1.95-3.54 1.95-3.54s.72-3.17 2.38-6.06c1.66-2.89 2.6-4.33 3.03-7.36.43-3.03.58-4.47 3.82-5.19 3.25-.72 7.43-2.74 7.14-6.85-.29-4.11-5.45-12.85-4.69-19.19.65-5.41 5.34-10.53 12.7-11.69 2.03-.32 3.82-.51 3.82-.51Z" fill="#F1EDEC"/><path d="M16.605 102.33c.45.08 1.59 2.81 2.45 4.26.68 1.14 2.45 3.75 2.31 4.11-.14.36-5.78 5.81-6.13 6.06-.51.36-1.52 0-1.95-1.59-.43-1.59-2.53-10.68-2.53-10.68s4.98-2.31 5.85-2.16Z" fill="#5E6367"/><path d="M42.215 52.54c.37 1.1-.65 1.88-2.45 3.61-1.8 1.73-2.89 3.82-3.1 6.28-.22 2.45-.63 4.27-1.95 4.33-1.59.07-3.35-3.61-.65-9.09 2.88-5.85 7.93-5.78 8.15-5.13Z" fill="#FFF"/><path d="m46.335 49.9.14 29.8s2.49.97 5.61 0 4.16-2.91 4.16-2.91 2.22 3.74 8.25 3.67c6.03-.07 7.55-2.91 7.55-2.91s1.05 2.34 5.47 2.91c2.5.32 4.63.32 5.05-.65.42-.97 7.41-22.65 7.41-22.65l-23.68-6.15-19.96-1.11Z" fill="#B0E4FE"/><path d="m79.385 57.87.21 18.98s-2.07.02-3.95-1.25c-1.96-1.33-2.84-2.66-3.19-2.63-.48.04-2.98 3.89-7.76 4.02-5.34.14-7.69-4.43-8.11-4.43-.55 0-1.72 1.98-2.91 2.63-2.15 1.18-3.74.62-3.74.62l-.07-21.55 29.52 3.61Z" fill="#34B6E2"/><path d="M120.545 27.76s.95-5.93-1.26-9.41c-2.21-3.48-5.61-4.43-5.61-4.43l-6.25-1.58s-2.42-1.01-7.04-.87c-4.56.14-8.47 2.48-10.59 3.72-2.45 1.42-4.74 4.51-3.95 5.85.79 1.34 2.92.4 2.92.4s-5.77 4.03-8.54 11.3c-2.3 6.05-2.61 12.17-2.61 12.17l-7.43 11.62-22.45-11.07s-1.51-.09-2.45.63c-1.34 1.03-1.59 2.67-1.59 2.67s1.45.4 3.02 2.63c4.35 6.17 6.88 21.03 18.89 20 10.44-.89 12.25-11.38 12.97-14.07.71-2.69 10.06-11.26 10.06-11.26l8.91-20.36 9.41-8.62 10.2 10.04 3.39.64Z" fill="#7A57BD"/><path d="M99.505 79.38s2.02 1.15 4.62 1.52c2.6.36 5.34-.07 7.43 2.16s1.23 5.41 2.89 7.86c1.66 2.45 3.03 3.97 4.4 5.48 1.37 1.51 1.66 3.25 1.59 4.69-.07 1.44-1.3 3.97-1.3 3.97l-6.93-.51.07-4.47s.93-1.61-.36-3.82c-.83-1.42-3.1-5.19-3.82-6.13-.72-.94-1.2-2.04-2.89-2.31-1.83-.3-16.45-.43-17.82-1.08-1.37-.65-4.33-3.82-4.55-6.2-.22-2.38-.36-21.72-.36-21.72l-1.35-10.65s.79-2.16 1.6-4.33c2.74-7.36 6.1-15.06 12.46-22.38 6.25-7.19 12.54-6.43 12.54-6.43s9.74-8.87 10.25-9.6c.51-.73 1.22-1.44 1.37-.87.15.57-.29 6.78-.29 6.78l-3.61 6.2s.72 2.96 1.95 5.92 3.15 4.29 3.15 4.29l.73 13.12s1.53 2.39 1.58 5.5c.05 3.06-12.15-.32-12.2-.58-.05-.26-4.17-11.48-4.12-12.05.05-.57-3.07-9.55-3.07-9.55s-5.54 7.96-4.66 17.21c.3 3.2.83 6.59 1.28 9.32 1.47 8.98 2.55 15.03 2.55 15.03l-3.13 11.23v2.4Z" fill="#F1EDEC"/><path d="M107.835 103.19c0 .43 1.31 2.67 4.05 6.35 2.74 3.68 3.72 4.88 4.75 3.42 1.03-1.46 1.41-3.94 1.8-5.25.35-1.18.94-3.08.94-3.08l-8.69-5.97c-.01 0-2.85 3.59-2.85 4.53Z" fill="#5E6367"/><path d="M114.355 34.05c.45.2.85 2.19-.71 4.15-1.56 1.96-3.35 2.9-3.35 2.9l-1.38-3.03s1.91-1.2 2.99-2.19c1.11-1.03 2.05-2.01 2.45-1.83Z" fill="#FFF"/><path d="M119.345 4.56c.28.13 1.95 2.29.8 6.66-.68 2.59-5.54 7.39-5.54 7.39l-2.9 2.03s.43-3.02 2.16-5.05c1.73-2.03 3.76-4.31 4.31-6.22.55-1.91.24-5.24 1.17-4.81Z" fill="#ACA399"/><path d="M1.622 37.683s-1.69 2.99-1.62 5.9c.06 2.66.91 4.09 2.55 5.54 1.63 1.44 4.45 2.49 6.21 1.78.24-.1.34-1.78.91-3.03.44-.95 1.97-2.48 1.97-2.48s.74 1.6.86 2.4c.12.8.2 2.39.49 2.46 1.11.28 2.64-.83 3.61-3.23 1.04-2.57.83-4.07.83-4.07l1.66-3.8s-.86-6.65-6.53-8.19c-5.67-1.54-10.63 1.3-10.63 1.3l-.31 5.42Z" fill="url(#a)" transform="matrix(-1 0 0 1 122.927 3.177)"/><path d="M118.925 43.14c1.58-.18 2.21 1.59 2.21 3.56s-1.06 2.79-2.07 2.79c-1.01 0-1.93-1.3-1.93-3.13.01-1.82.54-3.07 1.79-3.22Z" fill="#845B51"/><path d="M117.845 29.95c-.18.45-.72 1.17-1.49 1.44s-1.67.14-1.67.14-.23 1.94-1.62 1.99c-1.46.05-1.58-2.53-1.35-3.79.23-1.26.99-2.12.99-2.12s2.3-.32 3.75.68c1.06.72 1.39 1.66 1.39 1.66Z" fill="#464D50"/><path d="M110.585 12.43s-2.42 1.94-2.72 5.29c-.33 3.75-.32 4.6-.32 4.6l8.81-5.54s.42.97.44 2.05c.02 1.17-.15 2.38-.15 2.38l-9.15 5.62s.35 5.01 1.83 10.25c1.31 4.62 3.11 8.06 3.41 8.7.3.64 1.35 3.38-1.14 4-2.18.54-2.62-2.57-3.26-3.96-.64-1.39-2.19-5.3-3.11-8.75-2.52-9.44-2.03-15.08-1.48-18.98.58-4.17 1.86-4.97 3.39-5.62 1.1-.45 2.72-.75 3.45-.04Z" fill="#34B6E2"/><path d="M104.585 63.99s.23 2.8-.38 6.98c-.49 3.31-3.05 8.74-4.74 8.33-.41-.1.65-5.27-.98-7.33-1.11-1.41-3.13-1.66-8.32-4.6-4.34-2.46-8.19-7.27-8.19-7.27l.81-7.1 5.47 1.34s4 3.87 8.69 6.4c4.17 2.26 7.64 3.25 7.64 3.25Z" fill="#D853C9"/><path d="M85.065 52.69c.03.01 1.95-.77 3.19 1.31 1.53 2.57 1.54 7.22 1.69 7.57.15.35 1.08 1.46.15 1.65-.92.19-4.5-.12-6.8-1.77-2.31-1.65-2.73-3.92-2.73-3.92l4.5-4.84Z" fill="#34B6E2"/><path d="M46.645 45.58s1.39-.07 4.47 3.85c4.18 5.31 6.32 16.23 13.78 16.23 7.46 0 8.65-6.5 10.62-11.52 1.97-5.02 5.61-7.76 5.61-7.76s1.91-1.19.89-2.74c-.78-1.19-3.32-.12-4.75.54-1.43.66-4.01 2.33-5.63 2.97-4.47 1.77-8.6.67-10.93.14-2.33-.54-4.49-1.54-8-1.91-3.92-.43-6.06.2-6.06.2Z" fill="#A47FCC"/><path d="M83.345 47.99c1.95 1.35 4.05 4.44 1.61 8.39-2.23 3.6-6.97 2.45-8.33 1.09-1.71-1.71-2.39-5.02-.61-7.88 1.78-2.86 5.51-2.87 7.33-1.6Z" fill="#FFA6A3"/><path d="M81.145 50.58c1.03.26 2.01 1.73 1.49 3.31-.45 1.39-2.08 1.96-3.12 1.46-1.1-.53-1.8-2.01-1.18-3.33.51-1.11 1.62-1.74 2.81-1.44Z" fill="#F182A7"/></g></svg>