<svg width="128" height="128" xmlns="http://www.w3.org/2000/svg"><g transform="matrix(-1 0 0 1 124 4)" fill="none"><path d="M112 0H8C3.58 0 0 3.58 0 8v104c0 4.42 3.58 8 8 8h104c4.42 0 8-3.58 8-8V8c0-4.42-3.58-8-8-8Z" fill="#F77E00"/><path d="M105.7 0H7.5A7.555 7.555 0 0 0 0 7.5v97.9c-.01 4.14 3.34 7.49 7.48 7.5h98.12c4.14.01 7.49-3.34 7.5-7.48V7.5c.09-4.05-3.13-7.41-7.18-7.5h-.22Z" fill="#FF9800"/><path d="M35.7 8.9c0-2.3-1.6-3-10.8-2.7-7.7.3-11.5 1.2-13.8 4-2.3 2.8-2.9 8.5-3 15.3 0 4.8 0 9.3 2.5 9.3 3.4 0 3.4-7.9 6.2-12.3 5.4-8.7 18.9-10.6 18.9-13.6Z" fill="#FFBD52" opacity=".75"/><path d="M95.1 57.5H47.9a5.763 5.763 0 0 0-5.7 5.7v9.4l-21-14.7a3.798 3.798 0 0 0-5.5 3.4V99a3.842 3.842 0 0 0 3.9 3.78c.55-.01 1.1-.14 1.6-.38l21-14.7v9.4c0 3.15 2.55 5.7 5.7 5.7h47.2a5.763 5.763 0 0 0 5.7-5.7v-34c-.04-3.11-2.59-5.61-5.7-5.6Z" fill="#FAFAFA"/><circle fill="#FAFAFA" cx="54.8" cy="37.7" r="20.5"/><circle fill="#FAFAFA" cx="89.9" cy="43.9" r="14.4"/></g></svg>