<svg width="128" height="128" xmlns="http://www.w3.org/2000/svg"><defs><linearGradient x1="50.002%" y1=".173%" x2="50.002%" y2="47.921%" id="a"><stop stop-color="#FFCA28" offset="0%"/><stop stop-color="#FFB300" offset="100%"/></linearGradient><linearGradient x1="-.014%" y1="50.005%" x2="100%" y2="50.005%" id="b"><stop stop-color="#651FFF" offset="0%"/><stop stop-color="#5914F2" offset="70.5%"/><stop stop-color="#530EEB" offset="100%"/></linearGradient><linearGradient x1="23.55%" y1="32.171%" x2="55.84%" y2="51.553%" id="c"><stop stop-color="#651FFF" offset="0%"/><stop stop-color="#5914F2" offset="70.5%"/><stop stop-color="#530EEB" offset="100%"/></linearGradient></defs><g transform="matrix(-1 0 0 1 123.94 32.45)" fill="none"><path d="m17.24 10.16 11.72-2.09a2.913 2.913 0 0 0-1.25-5.69L16.1 5.61c-1.57.35-2.63 1.38-2.29 2.95.35 1.57 1.86 1.95 3.43 1.6Z" fill="#EDA600"/><path d="M85.59 38.34a36.583 36.583 0 0 1-13.14-10.5L55.7 6.4a7.14 7.14 0 0 0-4.49-3.26c-.08-.02-.16-.03-.24-.05l.01-.07L16.7.03c-1.07-.09-2.14.02-3.17.34L8.21 2.03c-.7.22-1.37.53-2 .93-1.24.79-3.47 2.26-4.5 3.16-.57.5-.95 1.01-.95 1.92 0 .74.3 1.4.86 1.86.61.51 1.47.71 2.35.55 1.11-.2 2.34-1.27 3.18-2.13.23-.24.53-.39.86-.43l5.63-.74c.43-.06.85-.04 1.25.05.75.17 1.63.32 2.66.51 1.33.24 2.99.53 4.93.96 2.4.53 20.25 6.29 20.42 6.34 1.21.42 2.27 1.23 2.98 2.3l6.72 10.1c2.53 3.8 2.5 8.81-.06 12.47l-.1.14c-2.71 3.91-5.94 10.83-7.19 15.43-2.69 9.87-1.06 16.29 4.87 19.09l22.85 10.79 12.62-46.99Z" fill="url(#a)"/><path d="m59.1 81.05 19.74 9.35 2.34 1.1h9.24l18.79-39.64-28.35-16.21c-7.7 8.28-25.37 1.56-26.76.88-.25.6-.61 1.13-.97 1.75 11.19 8.98 7.71 16.51 7.71 16.51-.03.06-3.67 7.47-17.64 4.52-.16.69-.3 1.38-.41 2.05 1.4.66 17.83 8.48 16.31 19.69Z" fill="url(#b)"/><path d="M57.2 55.47a6.19 6.19 0 0 0-1.74-8.58l-4.41-2.92-6.83 10.32 4.41 2.92c2.84 1.89 6.68 1.11 8.57-1.74Z" fill="#E59600"/><path d="M16.01 28.51s.13-.21.19-.3l.2-.3c8-10.58 15.78-8.85 20.52-6.69 5.14 2.33 8.71 4.42 8.71 4.42s-.31.06-.81.22c-.52.18-.95.47-.95.47l3.54 3.19-10.64-1.48a.148.148 0 0 0-.16.08l-1.26 2.46a79.334 79.334 0 0 1-4.2 7.19h.01c-.07.1-.13.2-.2.3-.07.1-.13.2-.2.3h-.01a78.76 78.76 0 0 1-4.98 6.68L24 47.17a.15.15 0 0 0-.01.18l5.52 9.22-4.32-2.02s-.11.51-.07 1.06c.04.52.11.83.11.83s-3.68-2.35-7.62-6.39c-3.73-3.83-8.05-10.36-1.6-21.54Z" fill="#6D4C41"/><path d="M48.16 26.26c-2.69-1.78-4.77.43-4.77.43l-.76 1.15-16.51 24.93-.76 1.15s-1.22 2.78 1.47 4.56c2.37 1.57 4.51.37 5.72-1.45l16.51-24.94c1.2-1.82 1.47-4.26-.9-5.83Z" fill="#E59600"/><path d="M16.77 28.65c7.12-10.76 17.33-8.05 29.04-.29 12.15 8.04 10.12 17.93 6.3 23.7-3.76 5.68-12.04 11.55-24.27 3.45-11.72-7.77-18.19-16.1-11.07-26.86Z" fill="#FFCA28"/><path d="M40.13 30.2s-2.06-.05-3.49 2.08c-1.43 2.13-.6 4.02-.6 4.02.05.14.15.28.29.37.35.23.82.14 1.06-.21.05-.07.12-.29.12-.31.33-1.63 1-2.63 1-2.63s.67-.99 2.05-1.91c.02-.01.19-.15.24-.22a.77.77 0 0 0-.21-1.06.738.738 0 0 0-.46-.13Zm-8.89 13.26s-2.06-.05-3.49 2.08c-1.43 2.13-.6 4.02-.6 4.02.05.14.15.28.29.37.35.23.82.14 1.06-.21.05-.07.12-.29.12-.31.33-1.63 1-2.63 1-2.63s.67-.99 2.05-1.91c.02-.01.19-.15.24-.22a.77.77 0 0 0-.21-1.06.738.738 0 0 0-.46-.13Z" fill="#6D4C41"/><path d="M36.27 43.73c1.84 1.24 2.3 3.78.17 6.93-2.1 3.11-4.66 3.68-6.5 2.44-1.84-1.24-2.77-3.92-.56-7.18 2.14-3.18 5.05-3.43 6.89-2.19Z" fill="#01579B"/><ellipse fill="#B3E5FC" transform="rotate(-55.779 33.11 48.412)" cx="33.111" cy="48.412" rx="3.94" ry="2.95"/><path fill="#FFF" d="m36.03 53.26-4.73-8.11.58-3.06 4.73 8.11z"/><path d="M44.5 31.56c1.84 1.24 2.3 3.78.17 6.93-2.1 3.11-4.66 3.68-6.5 2.44-1.84-1.24-2.87-3.87-.67-7.13 2.15-3.18 5.16-3.48 7-2.24Z" fill="#01579B"/><ellipse fill="#B3E5FC" transform="rotate(-55.779 41.342 36.235)" cx="41.342" cy="36.235" rx="3.94" ry="2.95"/><path fill="#FFF" d="m44.26 41.09-4.73-8.11.58-3.07 4.73 8.11z"/><path d="M39.55 41.15 37 44.92l-1.88-1.27 2.55-3.77 1.88 1.27Zm4.74-13.74c1.26 1.5 1.36 3.38.96 5.3l-1.88-1.26c.71-1.56.57-3.33-.96-5.3l1.88 1.26ZM26.02 54.46c1.87.6 3.65-.01 5.28-1.11l-1.88-1.26c-1.18 1.25-2.88 1.78-5.28 1.11l1.88 1.26Z" fill="#01579B"/><path d="M14.16 26.65s-.15.21-.21.3-.19.3-.19.3c-7.01 11.69-1.42 20 2.69 23.45 4.56 3.83 8.65 5.67 8.65 5.67s-.08-.32-.13-.84c-.06-.56.04-1.07.04-1.07s-1.44-5.54-.72-10.09c.74-4.65 5.79-12.21 9.3-14.43 3.72-2.35 5.87-3.38 10.24-3.63 0 0 .44-.29.98-.46.51-.16.83-.21.83-.21s-3.4-2.83-8.64-5.68c-3.98-2.16-14.33-4.43-22.84 6.69Z" fill="url(#c)"/><path d="M42.67 43.64c-.04.03-.08.07-.12.11l-1.84 2.9a.88.88 0 0 0-.05.15c-.06.33.12.65.49.71.37.06 1.55 0 2.29-1.17.74-1.16.29-2.26.08-2.57-.21-.3-.58-.33-.85-.13Z" fill="#E59600"/><ellipse fill="#795548" transform="rotate(-53.114 46.537 48.525)" cx="46.537" cy="48.525" rx="3.19" ry="1.93"/><path d="M108.06 49.53c-6.57 0-9.93 7.19-16 7.19-6.06 0-9.43-7.19-16-7.19s-9.93 7.19-16 7.19-9.43-7.19-16-7.19-9.94 7.19-16 7.19c-6.06 0-9.43-7.19-16-7.19-5.01 0-8.16 4.18-12.06 6.16v35.82h120V55.63c-3.83-2-6.97-6.1-11.94-6.1Z" fill="#039BE5"/><path d="M108.03 73.24c-6.57 0-9.93-7.19-16-7.19-6.06 0-9.43 7.19-16 7.19s-9.93-7.19-16-7.19-9.43 7.19-16 7.19-9.94-7.19-16-7.19c-6.06 0-9.43 7.19-16 7.19-5 0-8.14-4.16-12.03-6.15V91.5h120V67.11c-3.84 2-6.99 6.13-11.97 6.13Z" fill="#29B6F6"/></g></svg>