<svg width="128" height="128" xmlns="http://www.w3.org/2000/svg"><defs><linearGradient x1="107.105%" y1="47.193%" x2="12.532%" y2="84.558%" id="a"><stop stop-color="#0288D1" offset="1.7%"/><stop stop-color="#29B6F6" offset="100%"/></linearGradient><linearGradient x1="2.815%" y1="75.588%" x2="101.109%" y2="26.899%" id="b"><stop stop-color="#1C3AA9" stop-opacity="0" offset="1.3%"/><stop stop-color="#1C3AA9" offset="25.8%"/><stop stop-color="#1C3AA9" offset="72.4%"/><stop stop-color="#1C3AA9" offset="76.4%"/><stop stop-color="#1C3AA9" stop-opacity="0" offset="100%"/></linearGradient><linearGradient x1="-.019%" y1="50.079%" x2="99.996%" y2="50.079%" id="c"><stop stop-color="#1C3AA9" offset="0%"/><stop stop-color="#1C3AA9" stop-opacity=".089" offset="91.1%"/><stop stop-color="#1C3AA9" stop-opacity="0" offset="100%"/></linearGradient><linearGradient x1="-.02%" y1="49.941%" x2="99.948%" y2="49.941%" id="d"><stop stop-color="#1C3AA9" offset="0%"/><stop stop-color="#1C3AA9" stop-opacity=".089" offset="91.1%"/><stop stop-color="#1C3AA9" stop-opacity="0" offset="100%"/></linearGradient><linearGradient x1="50.105%" y1="56.09%" x2="93.037%" y2="32.385%" id="e"><stop stop-color="#E3F2FD" offset="0%"/><stop stop-color="#90CAF9" offset="100%"/></linearGradient><linearGradient x1="14.479%" y1="61.413%" x2="87.902%" y2="38.68%" id="f"><stop stop-color="#FFF176" offset="0%"/><stop stop-color="#FFEB3B" offset="100%"/></linearGradient><linearGradient x1="43.29%" y1="53.494%" x2="2.981%" y2="65.535%" id="g"><stop stop-color="#00BFA5" offset="0%"/><stop stop-color="#65EEAE" offset="45.7%"/><stop stop-color="#B9F6CA" offset="100%"/></linearGradient><linearGradient x1="89.185%" y1="33.417%" x2="15.951%" y2="60.5%" id="h"><stop stop-color="#B9F6CA" offset="0%"/><stop stop-color="#FFFDE7" offset="100%"/></linearGradient><linearGradient x1="1.074%" y1="68.469%" x2="125.117%" y2="21.649%" id="i"><stop stop-color="#1C3AA9" stop-opacity=".1" offset="0%"/><stop stop-color="#1C3AA9" offset="100%"/></linearGradient><linearGradient x1="50.77%" y1="82.616%" x2="44.733%" y2="9.643%" id="j"><stop stop-color="#F9DDBD" offset="60%"/><stop stop-color="#FFD29C" offset="100%"/></linearGradient><linearGradient x1="49.441%" y1="45.99%" x2="50.122%" y2="78.334%" id="k"><stop stop-color="#F9DDBD" offset="60.2%"/><stop stop-color="#FFD29C" offset="100%"/></linearGradient><linearGradient x1="0%" y1="49.998%" x2="100%" y2="49.998%" id="l"><stop stop-color="#F9DDBD" offset="59.8%"/><stop stop-color="#FFD29C" offset="100%"/></linearGradient><linearGradient x1="26.939%" y1="51.767%" x2="61.911%" y2="39.467%" id="m"><stop stop-color="#651FFF" offset="0%"/><stop stop-color="#5914F2" offset="70.5%"/><stop stop-color="#530EEB" offset="100%"/></linearGradient><radialGradient cx="50.004%" cy="49.944%" fx="50.004%" fy="49.944%" r="85.821%" gradientTransform="matrix(.45202 0 0 1 .274 0)" id="n"><stop stop-color="#454140" offset="0%"/><stop stop-color="#312D2D" offset="100%"/></radialGradient><radialGradient cx="49.993%" cy="50.018%" fx="49.993%" fy="50.018%" r="61.544%" gradientTransform="matrix(.88379 0 0 1 .058 0)" id="o"><stop stop-color="#454140" stop-opacity="0" offset="52.6%"/><stop stop-color="#454140" offset="100%"/></radialGradient><radialGradient cx="42.176%" cy="22.983%" fx="42.176%" fy="22.983%" r="116.004%" gradientTransform="scale(.48571 1) rotate(-4.209 .645 -5.846)" id="p"><stop stop-color="#454140" stop-opacity="0" offset="85%"/><stop stop-color="#454140" offset="100%"/></radialGradient><radialGradient cx="55.418%" cy="-16.374%" fx="55.418%" fy="-16.374%" r="160.275%" gradientTransform="matrix(.3207 0 0 1 .376 0)" id="q"><stop stop-color="#454140" offset="65.8%"/><stop stop-color="#454140" stop-opacity="0" offset="100%"/></radialGradient></defs><g transform="matrix(-1 0 0 1 124 4)" fill="none"><path d="M63.5 52.17C36.75 68.32 0 78.77 0 78.77V120h120V0c-3.17 4.5-22.83 31.83-56.5 52.17Z" fill="url(#a)"/><path d="M113.9 62.75c2.22-2.47 2.29-4.54 1.52-5.03-.42-.26-1.9-1.01-3.84-.34-3.03 1.04-7.81 3.1-7.81 3.1s3.68-5.79 6.04-11.01c2.27-5.03-2.03-5.94-9.38 1.13-1.79 1.73-7.73 7.6-7.73 7.6s2.65-5.48 3.04-7.24c.29-1.34-.63-2.29-2.53-.9-4.35 3.19-14.3 14.91-15.51 14.56-1.21-.35.43-5.31-1.37-5.09-1.74.21-3.46 3.32-4.24 4.48-1.3 1.92-2.15 3.03-4.16 4.17-.98.55-2.06.86-3.18.99-3.7.4-5-1.55-6.87-.82-3.25 1.26-2.53 4.79-4.95 4.52-.58-.07-1.68-.41-2.27-.41-2.42 0-7.98 6.35-12.68 11.75-18.19 11.3-25.26 21.91-21.05 28.03 5.57 8.09 23.2 3.5 39.18-6.16 5.66-3.42 11.86-8.06 17.67-12.84 2.96-.96 5.93-1.88 8.88-2.82 5.86-1.89 3.72-2.74 4.82-3.77 2.43-2.28 7.94.67 9.7-3.38.42-.97-1.25-1.2-.52-2.17.89-1.16 6.01-2.43 8.2-3.13 10.25-3.3 8.64-6.09 4.32-6.36-1.22-.08-5.87.3-5.87.3s7.14-5.33 10.59-9.16Z" fill="url(#b)" opacity=".65"/><path d="M107.46 52.15s4.25-9.01 8.16-8.63c7.79.77-8.16 8.63-8.16 8.63Z" fill="url(#c)" opacity=".65"/><path d="M99.42 80.99s10.43-2.25 13.43-1.06c3 1.18 1.13 3.62-3.34 3.48-4.47-.14-10.09-2.42-10.09-2.42Z" fill="url(#d)" opacity=".65"/><path d="M29.94 91.1s14.17-18.56 17.75-18.67c.58-.02 1.91.3 2.49.34 2.44.19 2.6-3.69 5.8-5.06 1.85-.79 2.21 1.49 5.89.96 1.11-.16 2.18-.51 3.14-1.09 1.97-1.21 2.79-2.35 4.02-4.31.74-1.18 2.35-4.35 4.08-4.62 1.79-.28.32 4.73 1.54 5.04 1.22.31 10.76-11.74 15-15.08 1.85-1.45 2.81-.54 2.56.81-.33 1.77-2.79 7.34-2.79 7.34s5.74-6.08 7.47-7.86c7.1-7.32 11.44-6.55 9.33-1.45-2.18 5.3-5.66 11.21-5.66 11.21s4.7-2.22 7.7-3.36c1.92-.73 3.43-.03 3.85.21.79.46.79 2.54-1.35 5.08-3.33 3.95-10.27 9.5-10.27 9.5s4.63-.54 5.85-.5c4.33.12 6.03 2.86-4.1 6.5-2.16.78-7.24 2.22-8.09 3.41-.7.99.98 1.16.59 2.15-1.62 4.1-7.23 1.34-9.58 3.7-1.07 1.07 1.11 1.85-4.69 3.94-6.83 2.46-13.85 4.69-20.32 7.97L29.94 91.1Z" fill="url(#e)"/><path d="M107.81 51.39s2.92-9.52 6.85-9.7c7.81-.37-6.85 9.7-6.85 9.7Zm-8.3 29.6s10.01-3.66 13.15-2.91c3.14.75 1.62 3.43-2.82 3.91-4.45.48-10.33-1-10.33-1Z" fill="#E3F2FD"/><path d="M13.56 109.17c5.25 8.3 23.37 4.26 40.05-4.93 17.41-9.59 40.04-29.64 42.65-33.23 2.75-3.79 3.26-7.69 2.29-8.91-1.46-1.83-6.95-2.73-12.45-.91-5.32 1.76-33.2 11.76-45.26 18.03-22.33 11.63-31.56 23.19-27.28 29.95Z" fill="url(#f)"/><path d="M99 64.25c.05-.96-.1-1.72-.44-2.15-.65-.81-2.14-1.42-4.02-1.71-11.02 5.47-58.1 28.47-77.64 37.5-1.38.64-2.53 1.37-3.16 3.17-1.42 3.36-1.72 5.68-.18 8.11 1.98 3.12 6.3 4.93 12.29 4.46 0 0 .45-1.34 1.61-2.11C28.62 110.76 99 64.25 99 64.25Z" fill="url(#g)"/><path d="M96.46 60.85c-8.06 4.26-63.04 32.77-81.3 42.28-1.11.58-2.62 2.17-2.62 2.17s-.23 1.91 1.02 3.88c.82 1.28 2.27 2.57 3.95 3.3 0 0 .79-1.45 1.52-1.89l79.53-48.48c-.41-.52-1.15-.94-2.1-1.26Z" fill="url(#h)"/><path d="M81.61 72.22c-2.06-3.71-12.95-1.59-24.32 4.72-11.37 6.32-18.92 14.45-16.86 18.16 2.06 3.71 12.95 1.59 24.32-4.72 11.37-6.31 18.93-14.45 16.86-18.16Z" fill="url(#i)" opacity=".53"/><path d="M46.03 83.66c-.28.75-1.5 2.19-1.39 4.21.13 2.45.4 7.25.53 7.61.31.86.83.85 1.14.75.62-.19.38-1.3.38-1.3s.07 1.47.9 1.28c1.08-.26.44-1.56.41-1.72.05.18.56 1.86 1.14 1.71 1.02-.27.44-1.93.44-1.93s.26 2.04 1.27 1.71c1.11-.37.53-1.93.53-1.93s.5 1.51.7 1.77c.53.69 1.78-.03 1.79-.81.01-.63-.76-1.76-1.08-2.98-.83-3.18-1.38-5.34-.97-6.72" fill="url(#j)"/><path d="M51.66 86.19c.28-2.94 7.3-10.63 7.3-10.63 2.05-2.65 2.22-4.59 2.02-6.98l-1.39-14.62-11.43.83 2.34 16.65C46.8 77 48 80.03 45.38 84.87" fill="url(#k)"/><path d="M81.08 60.23c.9-1.82 1.09-3.57.56-5.08a5.02 5.02 0 0 0-2.6-2.88c-1.4-.65-11.75-3.98-12.19-4.12a.384.384 0 0 0-.43.16l-4.75 8.14c-.06.1-.07.21-.03.31.04.1.12.18.22.22l10.73 3.62-4.16 10.35c-.39.99-.35 2.08.1 2.9.29.54.73.89 1.23 1 1.48.29 2.89.42 4.25.54 1.15.1 2.24.2 3.36.39 1.04.18 1.75.24 2.24.24.66 0 .93-.11 1.09-.24.1-.07.22-.21.24-.43.04-.45-.11-.77-.32-.99.09-.13.18-.33.13-.61-.07-.47-.35-.75-.63-.9.02-.09.02-.18 0-.29-.04-.31-.1-.69-5.51-2.76.65-1.06 1.6-2.38 2.61-3.77 1.53-2.05 3.07-4.18 3.86-5.8Z" fill="#EDBD82"/><path d="M49.1 45.94s-3.08 4.39-2.12 11.43c.38 2.76 2.77 12.01 2.77 12.01s10.69-.32 13.87-4.94c0 0-2.9-4.24-2.6-7.01l9.14 2.26s5.65-5.68 4.27-10.84c0 0-5.5-.35-8.43-3.71-1.06-1.22-16.9.8-16.9.8Z" fill="#7C7C7C"/><path d="M53.46 35.49c-.05.13-.15.22-.27.27l-13.28 5.55c-.6 1.2-1.8 3.15-2.97 5.04-1.11 1.8-2.16 3.5-2.43 4.14-.14.33-.03 1.09.08 1.81.07.41.13.84.17 1.28.12 1.22-.82 3.63-1.49 3.85-.27.09-.59.02-.89-.17-.37-.23-.61-.6-.66-.98-.04-.39.02-.84.07-1.26.03-.18.05-.36.07-.54-.95.96-1.52 1.72-2.02 2.41-.28.38-.48 1.08-.66 1.71-.29 1.04-.55 1.95-1.13 2.22-.28.14-.55.2-.8.2-.05 0-.1 0-.15-.01a1.06 1.06 0 0 1-.36-.09 1.45 1.45 0 0 1-.38-.25c-.14-.13-.28-.32-.39-.58l-.09-.06c-.2-.13-.47-.36-.68-.72-.15-.24-.27-.55-.33-.92-.07-.47.02-1.23.05-1.45-.02-.32-.04-1.73.91-3.57.49-.95 1.11-1.81 1.72-2.63.62-.84 1.25-1.71 1.73-2.66.38-.77 1.42-3.43 2.43-6 .47-1.2.93-2.38 1.32-3.36 1.01-2.52 2.79-3.64 2.87-3.69.26-.18 6.85-4.76 8.8-5.97 1.64-1.01 7.05-2.55 9.26-2.23.38.06.69.27.89.61.99 1.71-.99 7.01-1.39 8.05Z" fill="url(#l)"/><path d="M28.92 54.24c-1.29 1.66-1.7 4.71-1.82 6.77a1.06 1.06 0 0 1-.36-.09 1.45 1.45 0 0 1-.38-.25c.15-2.13.61-5.15 1.97-6.89a.39.39 0 0 1 .53-.07c.16.13.19.37.06.53Zm-1.38-.51c-.98.97-1.49 4.56-1.66 6.3-.2-.13-.47-.36-.68-.72.2-1.74.7-5.02 1.82-6.11.15-.15.39-.14.53 0 .14.15.14.39-.01.53ZM97.8 35c-1.05-.42-2.8-.81-3.88-.94-.53-.07-1.61.07-2.86.23-1.38.18-2.95.38-3.58.26-.09-.02-.44-.07-.94-.15-1.74-.26-6.29-.96-7.1-1.28-.49-.44-4.22-3.81-6-4.95-1.25-.8-2.84-1.61-5.76-.97a.38.38 0 0 0-.29.46c.04.19.22.31.41.3l.49 6.35c-.13.01-.25.08-.31.19-.1.19-.03.42.15.52.04.02 4.12 2.23 7.19 3.58 2.24.99 3.46.95 5.44.81 1.01-.08 4.42-.35 7.09-.75.27.28.89.74 2.21.9.04.01.1.01.18.01.85 0 3.54-.35 3.93-.42.56-.11.98-.6.96-1.13-.01-.37-.26-.8-.93-.88-.18-.02-.35-.05-.51-.08l.81-.21c.02 0 1.8-.04 2.33-.01.64.03 1.24-.04 1.46-.77A.89.89 0 0 0 97.8 35Z" fill="#EDBD82"/><path d="M77.43 29.84s-4.15-3.74-8.51-4.31c-1.3-.17-4.04-.82-4.95-.89 0 0 1.64 1.86.88 3.46-.7 1.47-2.49 3.36-5.26 1.72-2.78-1.64 1.14-5.49 1.14-5.49-1.73.14-7.13 1.36-9.39 1.86-3.74.82-9.46 2.58-9.46 2.58-.97 5.12 4.01 10.01 4.01 10.01l3.38-.86c.27 3.8-1.37 10-2.47 13.29 0 0 2.86 2.95 12-.73 4.38-1.76 7.56-5.06 8.92-7.14 1.45-2.22 2.68-4.21 3.57-7.57 4.85-.99 6.14-5.93 6.14-5.93Z" fill="url(#m)"/><path d="M67.48 21.96c-.76 1.07-1.81 2.38-2.07 4.22-.18 1.28-.61 3.64-2.65 4.31-3.48 1.15-4.68-1.87-4.68-1.87-.49 0-.97-.02-1.44-.09-3.12-.4-4.03-1.81-4.39-3.11-.11-.4-.17-.79-.22-1.14-.09-.5-.16-.91-.37-1.12-.17-.16-2.21-.67-2.06-1.64.2-1.29 2.39-2.56 2.15-3.7-.03-.31-.34-1.25-.38-1.38-.32-1.09-.44-2.64-.28-4.2.46-4.32 2.82-7.84 7.48-8.85 4.16-.9 9.37 1.66 11.79 5.17 1.54 2.25-.61 10.18-2.88 13.4Z" fill="#F9DDBD"/><path d="M54.47 24.71c-.57.47-1.49.69-2.22.71-.11-.4-.17-.79-.22-1.14.61.03 1.4-.1 1.81-.3.78-.38 1.31.18.63.73Z" fill="#444"/><ellipse fill="#312D2D" transform="rotate(-4.656 55.19 18.29)" cx="55.191" cy="18.29" rx="1.01" ry="1.55"/><path d="M54.4 16.24c-.92.46-1.26-.14-1.03-.71.17-.42.7-.84 1.87-.83 1.1.02 1.65.55 2.01.87.35.32.39.7.15.78-.33.1-1.87-.68-3-.11Z" fill="#454140"/><path d="M98.56 62.1c-.61-.76-1.92-1.36-3.63-1.67 0 0 2.06.81 2.43 2.7.37 1.89.07 3.17-2.71 6.7-2.46 3.12-24.85 23.21-42 32.65-10.45 5.75-21.06 9.19-28.39 9.19-4.47 0-7.92-1.53-9.43-3.89-1.12-1.74-1.43-4.26-1.1-6.69-1.5 3.1-1.57 5.85-.16 8.07 1.99 3.14 5.81 4.51 10.7 4.51 8.05 0 18.98-3.72 29.36-9.44C71.04 94.64 93.67 74.59 96.28 71c2.74-3.78 3.25-7.67 2.28-8.9Z" fill="#0D47A1" opacity=".28"/><path d="M70.52 7.05c.88-2.45 4-4.13 7.65-2.74 1.96.75 3.33 1.6 4.87 2.11 9.7 3.19 12.99-2.85 12.99-2.85s-.17 2.34-1.65 4.88c-1.99 3.41-6.07 7.22-12.65 6.58-6.43-.63-9.39-3.62-9.39-3.62l-1.82-4.36Z" fill="url(#n)"/><path d="M62.94 18.09c.11-.44.33-1.25.5-1.63.58-1.28 1.63-.88 1.64-.88 1.42.42 2.05 3.24-.16 5.01-.05.04-.18.14-.1.43.18.71.86 1.99 1.77 2.27.7.22 1.56-1.05 2.77-2.71 1.28-1.74 2.93-4.05 3.37-6.68C73.88 7 67.56 2.92 61.63 2.91c-5.34-.01-12.38 2.65-11.82 9.42.1 1.24 1.25 1.47 1.25 1.47s.79-2.72 4.26-1.98c3.49.75 4.98-.07 4.98-.07-1.04 2.77.06 4.22 1 5.03.54.46 1.04 1.02 1.33 1.34.14.18.26.16.31-.03Z" fill="#312D2D"/><path d="M62.94 18.09c.11-.44.33-1.25.5-1.63.58-1.28 1.63-.88 1.64-.88 1.42.42 2.05 3.24-.16 5.01-.05.04-.18.14-.1.43.18.71.86 1.99 1.77 2.27.7.22 1.56-1.05 2.77-2.71 1.28-1.74 2.93-4.05 3.37-6.68C73.88 7 67.56 2.92 61.63 2.91c-5.34-.01-12.38 2.65-11.82 9.42.1 1.24 1.25 1.47 1.25 1.47s.79-2.72 4.26-1.98c3.49.75 4.98-.07 4.98-.07-1.04 2.77.06 4.22 1 5.03.54.46 1.04 1.02 1.33 1.34.14.18.26.16.31-.03Z" fill="url(#o)"/><path d="M96.05 3.53s-.17 2.34-1.65 4.87c-1.99 3.42-6.07 7.22-12.64 6.58-6.43-.63-9.39-3.62-9.39-3.62l-.04-.1c19.99 2.74 23.49-7 23.7-7.69.02-.03.02-.04.02-.04Z" fill="url(#p)"/><path d="M96.03 3.57c-.21.69-3.71 10.43-23.7 7.69l-.95-2.25-.84-2c.89-2.45 4.01-4.13 7.66-2.74 1.96.75 3.33 1.6 4.86 2.11.02.01.05.02.07.02 9.17 2.99 12.58-2.3 12.9-2.83Z" fill="url(#q)"/></g></svg>