<svg width="128" height="128" xmlns="http://www.w3.org/2000/svg"><defs><linearGradient x1="-.012%" y1="49.997%" x2="100%" y2="49.997%" id="c"><stop stop-color="#EF5350" offset="17.1%"/><stop stop-color="#EA4643" offset="62%"/><stop stop-color="#E53935" offset="98.5%"/></linearGradient><linearGradient x1=".018%" y1="49.988%" x2="99.996%" y2="49.988%" id="d"><stop stop-color="#ED6D23" offset="3.4%"/><stop stop-color="#F37F21" offset="32.6%"/><stop stop-color="#F78C1F" offset="46%"/></linearGradient><linearGradient x1="50%" y1="20.152%" x2="50%" y2="94.164%" id="e"><stop stop-color="#ED6D23" offset="18.9%"/><stop stop-color="#F37F21" offset="56.9%"/><stop stop-color="#F78C1F" offset="79.6%"/></linearGradient><linearGradient x1="22.89%" y1="98.025%" x2="57.485%" y2="14.499%" id="f"><stop stop-color="#ED6D23" offset="18.9%"/><stop stop-color="#F37F21" offset="32.6%"/><stop stop-color="#F78C1F" offset="46%"/><stop stop-color="#ED6D23" offset="100%"/></linearGradient><linearGradient x1="38.995%" y1="30.358%" x2="70.273%" y2="74.629%" id="g"><stop stop-color="#EF5350" offset="17.6%"/><stop stop-color="#EA4643" offset="62.3%"/><stop stop-color="#E53935" offset="98.5%"/></linearGradient><linearGradient x1="-2.235%" y1="44.504%" x2="100.541%" y2="52.064%" id="h"><stop stop-color="#90CAF9" offset="36.5%"/><stop stop-color="#42A5F5" offset="98.7%"/></linearGradient><radialGradient cx="18.131%" cy="57.373%" fx="18.131%" fy="57.373%" r="132.829%" gradientTransform="scale(.76942 1) rotate(-24.62 .208 .45)" id="a"><stop stop-color="#E1F5FE" offset="33.4%"/><stop stop-color="#B3E5FC" offset="100%"/></radialGradient><radialGradient cx="40.645%" cy="59.591%" fx="40.645%" fy="59.591%" r="195.068%" gradientTransform="scale(.67458 1) rotate(-27.549 .504 .196)" id="b"><stop stop-color="#FFF" offset="21.4%"/><stop stop-color="#B3E5FC" offset="100%"/></radialGradient></defs><g fill="none"><path fill="#616161" d="m84.58 29.47.97 3.34-4.81.8 1.99-4.14z"/><path d="M98.16 46.72c-13.53 14.13-18.9 17.56-54.7 34.87-17.84 8.62-36.27 9.22-42.22 13.08-.43.28-.84.56-1.24.83v17.76c.22.04.35.06.35.06h46.38L120 84.38V20.99c-5.27 6.98-12.76 16.25-21.84 25.73Z" fill="url(#a)" transform="matrix(-1 0 0 1 123.96 4.57)"/><path d="m77.33 117.39 46.2.01c.01 0 .18-.03.43-.08v1.01c-.17.03-.31.05-.35.06H77.23c-.06 0-.12-.01-.18-.04L3.96 89.48v-1.07l73.37 28.98Z" fill="#B3E5FC"/><path d="M102.32 50.67c-30.62 30.03-58.27 31.81-77 42.81-10.5 6.17-20.14 12.03-25.32 15.2v10.57h120V38.3c-5.93 3.16-12.55 7.35-17.68 12.37Z" fill="url(#b)" transform="matrix(-1 0 0 1 123.96 4.57)"/><path d="M86.13 123.82h-.77c-3.21-.1-5.82-1.42-7.44-2.81 0 0-4.72-3.79-8.39-5.45l-34.74-14.53c-2.18-.91-5.88-1.49-9.32-2.24-13.22-2.9-9.56-10.93-7.71-13.63 1.82-3.35 6.68-4.22 10.58-2.84 5.39 1.91 10.17 6.17 12.4 7.11l31.78 13.29c4.39 1.28 10.24 1.28 14.9 2.62 5.65 1.61 7.26 4.69 7.33 9.36.07 4.9-3.78 8.92-8.62 9.12Z" fill="#B3E5FC"/><path d="M102.63 77.33c-2.01-3.67-7.26-4.43-11.17-3.05-3.49 1.24-6.76 3.46-9.15 5.09-1.34.92-2.51 1.71-3.27 2.03L47.3 94.67c-2.14.62-4.6.93-7.2 1.26-2.61.33-5.31.67-7.69 1.36-5.38 1.53-7.61 4.38-7.69 9.83-.04 2.57.94 4.99 2.74 6.82 1.8 1.82 4.2 2.83 6.76 2.83 4.26 0 7.12-2.06 8.14-2.94.05-.04 4.71-3.77 8.27-5.38l34.74-14.53c1.57-.66 3.98-1.14 6.53-1.65.9-.18 1.81-.36 2.7-.56 5.18-1.14 8.4-3.18 9.54-6.08 1.41-3.56-.78-7.23-1.51-8.3Z" fill="url(#c)" transform="matrix(-1 0 0 1 123.96 4.57)"/><path d="M41.27 66.12h.01c.02-.1.03-.21.06-.31a6.7 6.7 0 0 1 3.71-4.55l-.01-.02 17.6-7.86.05.11c.03-.01.06-.03.09-.05.87-.39 1.8-.57 2.71-.57 2.56 0 5 1.48 6.11 3.96.16.35.27.71.36 1.06 2.17-1.86 5.32-3.3 7.93-3.3.92 0 1.77.18 2.49.58 3.6 2 2.53 8.77.54 12.36-.02.03-.04.07-.06.1l.01.01-6.77 12.21a4.612 4.612 0 0 0-.36 3.65l5.02 15.7-.97 2.47-12.7-.1-6.13-19.78c-.08-.2-.16-.4-.22-.61-.06-.21-.11-.42-.16-.63l-.03-.1c-.46-2.23.32-4.15 1.46-6.18l4.3-7.74-10.95 4.89a3.58 3.58 0 0 0-2.04 2.47l-3.54 15.16-13.14-3.07 4.63-19.86Z" fill="#7C7C7C"/><path d="M89.95 33.91a.483.483 0 0 0-.4-.23l-12.64-.62c-1.26-.5-14.6-5.7-17.02-5.78-.27-.04-.44.14-.5.37l-3.05 11.13c-.06.24.05.49.28.59.5.23 12.41 5.53 16.54 6.43.59.13 1.31.19 2.12.19 5.03 0 13.28-2.21 13.68-2.32.09-.02.17-.07.24-.14 4-4.32.79-9.56.75-9.62Z" fill="url(#d)" transform="matrix(-1 0 0 1 123.96 4.57)"/><path d="M64.98 38.37c-.4-2.32-.8-4.71-1.06-7.04-.08-2.15-.89-3.87-2.35-4.97-1.39-1.05-3.29-1.54-5.65-1.45l-8.89.33c-4.13.03-8.29 3.91-8.13 8.33l.11 18.75c.14 3.63 1.18 6.21 3.1 7.69 1.19.92 2.7 1.37 4.52 1.37.95 0 1.99-.13 3.1-.38 10.62-2.42 16.53-5.73 16.63-9.32.12-4.56-.64-9.01-1.38-13.31Z" fill="url(#e)" transform="matrix(-1 0 0 1 123.96 4.57)"/><path d="M28.47 38.62c.06-.02 6.62-2.06 9.03 3.3.01.03.03.07.03.1l.05.23c.66 2.93-1.15 4.67-2.32 5.23-1.14.55-3.98.46-4.55.43-.43.1-.85.22-1.24.33-.77.22-1.56.44-2.29.44-1.03 0-1.97-.44-2.62-1.97l-.03-.09-.05-.23c-.64-2.82.52-6.39 3.99-7.77Zm65.64 23.69.85-.83c1.98-1.98 6.71.6 7.71 1.18 1.27-.04 3.54.52 4.11 2.91.43 1.8.09 3.38-.96 4.56-1.14 1.27-3.05 2-5.15 2-.37 0-.74-.02-1.12-.07-6.49-.81-5.85-6.86-5.58-9.45.01-.113.06-.22.14-.3Z" fill="#26A69A"/><path d="M47.66 36.17c0-.16 0-.31-.01-.47-.22-2.81-2.27-5.18-5.05-5.64-.94-.16-1.84-.09-2.68.13-.08 0-.17-.02-.26-.02-.79 0-1.55.16-2.21.52-5.7 2.12-15.79 6-16.44 11.63-.54 4.75-.16 16.6-.16 16.6 1.52 1.15 3.04 1.54 4.41 1.54 2.91 0 5.12-1.76 5.12-1.76l.21-.93.01-.01s.02-.08.04-.21l2.72-11.97s8.16-2.82 10.35-3.6c1.82-.67 4.16-3.23 3.95-5.81Z" fill="url(#f)" transform="matrix(-1 0 0 1 123.96 4.57)"/><path d="M65.73 5.62C62.56 2.31 57.44 0 52.27 0c-1.42 0-2.85.17-4.23.55-7.31 1.99-9.36 5.51-10.15 7.25-.39.85-.54 1.83-1.11 2.54-.77.96-2.09 1.63-2.92 2.62-.32.38-.63.88-.43 1.33.18.41.69.53 1.14.6 5.01.72 18.67-.34 21.15 1.65 1.37 1.1.62 6.98.66 9.02.04 1.9.1 1.67 1.81 2.5.57.27 1.08.4 1.54.4 2.22 0 3.42-2.78 5.14-4.9 4.02-4.96 6.57-12.03.86-17.94Z" fill="url(#g)" transform="matrix(-1 0 0 1 123.96 4.57)"/><path d="m66.36 96.88 13.31 1.81c.71.11 1.23.72 1.23 1.44v1.75c0 1.16-.7 2.2-1.78 2.63-1.84.73-4.71 1.8-6.66 2.22-.68.15-1.35.21-2.01.21-2.91 0-5.56-1.21-6.73-1.84-.4-.22-.68-.61-.73-1.06-.37-3.4-.04-6.7 3.37-7.16ZM37.5 84.12l12.98 2.15-.19 3.73c-.05.96-.77 1.74-1.72 1.86-2.6.31-7.62.89-9.9 1.01-.27.01-.54.02-.8.02-3.39 0-5.67-1.1-6.66-1.71a1.29 1.29 0 0 1-.61-1.13c.07-3.24 3.51-5.47 6.9-5.93Z" fill="#4568AD"/><path d="m66.89 23.37.97-2.06c.4-1.3 5.59-1.32 5.59-1.32l-.55 12.03-.05 1.01-.04.98s-3.79-.62-5.29-1.45c-.2-.12-.36-.23-.46-.35l-.18-.81-.66-2.94-7.6-1.64c-.21-.22-.42-.45-.66-.69-.12-.14-.26-.28-.4-.42-.8-.81-1.3-1.48-1.69-2.09-.12-.18-.23-.35-.33-.52l11.35.27Z" fill="#616161"/><path d="M48.43 26.73c5.95 3.62 5.18 6.21 10.61 10.87 4.85 4.16 10.35 6.21 17.6 3.11 11.85-5.08 10.09-10.87 10.09-10.87s-2.85 3.88-14.49 3.36c-8.27-.37-10.09-2.85-13.46-6.21-3.37-3.36-1.04-5.69-8.28-9.32-7.25-3.62-15.01-2.59-15.01-2.59l-9.57 8.02s16.56 0 22.51 3.63Z" fill="#039BE5"/><path d="M21.47 74.95c-.01-.01-.02-.01-.03-.03-1.23-1.08-.39-3.2 1.31-2.93.05 0 .09.01.13.02.98.24 1.63 1.08 1.91 2.01.14.48.26.96.36 1.45.05.24.11.49.13.73.01.14-.06.39-.22.42-.23.05-.65-.14-.87-.22-.97-.31-1.93-.76-2.72-1.45ZM9.45 63.04c-.01-.01-.01-.02-.03-.03-1.1-1.22-3.21-.35-2.91 1.35 0 .04.02.09.03.13.25.98 1.1 1.62 2.04 1.89.48.14.97.25 1.46.34.24.05.49.1.73.12.14.01.39-.07.42-.23.05-.23-.15-.65-.23-.86-.35-.97-.81-1.93-1.51-2.71Zm17.97-.75c-.01-.01-.01-.02-.01-.04-.68-1.69 1.22-3.38 2.77-2.25l.12.09c.85.72 1.09 1.89.9 2.96-.1.55-.22 1.09-.37 1.62-.08.26-.14.54-.24.79-.06.14-.26.35-.43.31-.26-.06-.57-.46-.75-.65-.83-.82-1.56-1.75-1.99-2.83ZM14.07 53c-.01-.01-.01-.02-.02-.03-1.1-1.16-.1-3.14 1.53-2.73.04.01.09.02.13.04.93.31 1.49 1.19 1.68 2.11.1.48.17.96.23 1.44.02.24.06.48.06.72 0 .13-.1.37-.25.39-.23.03-.61-.19-.82-.28-.94-.41-1.84-.93-2.54-1.66Zm1.26 9.13-.03-.03c-1.37-1.48-.07-3.96 1.97-3.41.05.01.11.03.16.05 1.16.41 1.86 1.53 2.08 2.7.11.6.2 1.21.25 1.82.03.3.07.61.07.91-.01.16-.13.46-.32.48-.29.04-.78-.25-1.03-.37-1.16-.54-2.28-1.21-3.15-2.15Z" fill="#FFF"/><path d="M82.05 32.89c.27-.46.65-1.09 1.12-1.9l1.34-.1c.15.57.83 2.44 1.34 2.73.32.18 1-.73 1.49-1.48.37-.58.44-1.29.19-1.94-.11-.29-.23-.59-.31-.79-.22-.58-.55-1.1-.75-1.68-.21-.61.16-1.29.33-1.9.2-.68.4-1.35.61-2.04.05-.18.63-2.56.76-2.56 0 0 .54-.01.62-.67.05-.4.07-1.12-1.06-1.13l-12.14.29c-1.62.04-3.35.07-4.68 2.45-1.01 1.82-.56 8.97-.08 9.91.23.46.56 1.4 1.98 1.91 1.06.37 5.3.14 7.41-.01.76-.02 1.43-.43 1.83-1.09Z" fill="#E3F2FD"/><path d="M45.87 26.81a4.088 4.088 0 0 1-3.25-2.44c-.57-1.31-1.25-2.82-1.51-3.04-.47-.41-2.3-.34-2.52.08-.22.43-.86 3.36-1.43 4.35-2.26-5-1.55-8.96-1.55-8.96s2.5-.01 3.39 0c1.59.02 3.18.05 4.77.08 2.53.05 5.06-.44 6.13 2.48.85 2.33.28 7.07-.63 7.36-.86.31-2.22.24-3.4.09Z" fill="url(#h)" transform="matrix(-1 0 0 1 123.96 4.57)"/></g></svg>