<svg width="128" height="128" xmlns="http://www.w3.org/2000/svg"><defs><linearGradient x1=".006%" y1="49.993%" x2="99.983%" y2="49.993%" id="a"><stop stop-color="#70534A" offset="0%"/><stop stop-color="#5C4037" offset="100%"/></linearGradient><linearGradient x1="22.367%" y1="31.428%" x2="55.713%" y2="51.477%" id="b"><stop stop-color="#00BFA5" offset="0%"/><stop stop-color="#00AB94" offset="100%"/></linearGradient></defs><g transform="matrix(-1 0 0 1 123.94 32.45)" fill="none"><path d="m17.24 10.16 11.72-2.09a2.913 2.913 0 0 0-1.25-5.69L16.1 5.61c-1.57.35-2.63 1.38-2.29 2.95.35 1.57 1.86 1.95 3.43 1.6Z" fill="#4A2F27"/><path d="M85.62 38.36c-5.78-3.45-9.55-5.88-13.17-10.52L55.7 6.4a7.14 7.14 0 0 0-4.49-3.26c-.08-.02-.16-.03-.24-.05l.01-.07L16.7.03c-1.07-.09-2.14.02-3.17.34L8.21 2.03c-.7.22-1.37.53-2 .93-1.24.79-3.47 2.26-4.5 3.16-.57.5-.95 1.01-.95 1.92 0 .74.3 1.4.86 1.86.61.51 1.47.71 2.35.55 1.11-.2 2.34-1.27 3.18-2.13.23-.24.53-.39.86-.43l5.63-.74c.43-.06.85-.04 1.25.05.75.17 1.63.32 2.66.51 1.33.24 2.99.53 4.93.96 2.4.53 20.25 6.29 20.42 6.34 1.21.42 2.27 1.23 2.98 2.3l6.72 10.1c2.53 3.8 2.5 8.81-.06 12.47l-.1.14c-2.71 3.91-5.94 10.83-7.19 15.43-2.69 9.87-1.06 16.29 4.87 19.09l22.64 10.69 26.58-15.87 9.89-17.48-23.61-13.52Z" fill="url(#a)"/><path d="M57.2 55.47a6.19 6.19 0 0 0-1.74-8.58l-4.41-2.92-6.83 10.32 4.41 2.92c2.84 1.89 6.68 1.11 8.57-1.74Z" fill="#3C2B24"/><path d="M16.01 28.51s.13-.21.19-.3l.2-.3c8-10.58 15.78-8.85 20.52-6.69 5.14 2.33 8.71 4.42 8.71 4.42s-.31.06-.81.22c-.52.18-.95.47-.95.47l3.54 3.19-10.64-1.48a.148.148 0 0 0-.16.08l-1.26 2.46a79.334 79.334 0 0 1-4.2 7.19h.01c-.07.1-.13.2-.2.3-.07.1-.13.2-.2.3h-.01a78.76 78.76 0 0 1-4.98 6.68L24 47.17a.15.15 0 0 0-.01.18l5.52 9.22-4.32-2.02s-.11.51-.07 1.06c.04.52.11.83.11.83s-3.68-2.35-7.62-6.39c-3.73-3.83-8.05-10.36-1.6-21.54Z" fill="#232020"/><path d="M48.16 26.26c-2.69-1.78-4.77.43-4.77.43l-.76 1.15-16.51 24.93-.76 1.15s-1.22 2.78 1.47 4.56c2.37 1.57 4.51.37 5.72-1.45l16.51-24.94c1.2-1.82 1.47-4.26-.9-5.83Z" fill="#3C2B24"/><path d="M16.77 28.65c7.12-10.76 17.33-8.05 29.04-.29 12.15 8.04 10.12 17.93 6.3 23.7-3.76 5.68-12.04 11.55-24.27 3.45-11.72-7.77-18.19-16.1-11.07-26.86Z" fill="#70534A"/><path d="M27.13 49.56s-.04-.11-.1-.29c-.01-.05-.03-.09-.05-.16-.01-.07-.02-.15-.04-.24l-.03-.28c-.01-.1-.01-.19-.01-.29v-.31l.03-.33c.01-.11.03-.23.06-.35.02-.12.05-.24.08-.36.08-.24.15-.48.27-.72.1-.24.25-.46.39-.69.16-.21.31-.43.5-.62.17-.2.37-.36.56-.52.1-.07.2-.15.3-.21.1-.07.2-.13.3-.18.1-.05.2-.11.29-.15.1-.04.19-.08.29-.12.09-.03.18-.07.27-.1.09-.02.17-.04.25-.06.08-.02.15-.04.22-.05.07-.01.13-.02.19-.03.23-.03.36-.03.36-.03.42-.01.77.32.79.74.01.26-.11.49-.3.63l-.12.09s-.08.06-.21.14c-.03.02-.07.04-.11.07l-.12.09c-.09.06-.19.13-.29.22-.05.04-.11.08-.16.12-.05.05-.11.1-.16.14-.03.02-.06.05-.08.07l-.08.08c-.05.06-.11.11-.17.16-.1.12-.22.24-.32.37-.11.12-.2.27-.3.4-.09.14-.19.28-.26.43-.09.14-.15.29-.22.44-.03.07-.06.15-.09.22-.01.04-.03.07-.05.11l-.03.11c-.03.07-.05.14-.07.2-.02.07-.03.13-.06.19-.02.06-.04.12-.05.18-.01.05-.03.1-.04.15-.01.05-.02.09-.04.13-.01.05-.01.11-.02.15-.02.19-.05.3-.05.3-.09.43-.5.7-.92.61a.735.735 0 0 1-.6-.45Zm13.46-17.89s-.09.06-.26.16c-.04.02-.09.05-.14.08-.03.03-.07.06-.11.09l-.12.09-.15.12c-.05.04-.11.08-.16.12-.05.05-.11.09-.16.14-.03.02-.06.05-.08.07l-.08.08c-.05.06-.11.11-.17.16-.1.12-.22.24-.32.37-.11.12-.2.27-.3.4-.09.14-.19.28-.26.43-.09.14-.15.29-.22.44-.03.07-.06.15-.09.22-.01.04-.03.07-.05.11l-.03.11c-.02.07-.05.14-.07.2-.02.07-.03.13-.06.19-.04.12-.07.24-.09.35-.01.05-.02.1-.04.15-.01.05-.01.09-.02.13-.03.16-.05.25-.05.25l-.04.14c-.11.41-.52.65-.93.54a.769.769 0 0 1-.52-.47s-.04-.12-.11-.34c-.01-.06-.03-.12-.05-.18l-.03-.22-.03-.25c-.01-.09-.01-.18-.01-.28v-.31l.03-.33c.01-.11.03-.23.06-.35.03-.12.05-.24.08-.36.08-.24.15-.48.27-.72.1-.24.25-.46.38-.69.16-.21.31-.43.5-.62.17-.2.37-.36.56-.52.1-.08.2-.15.3-.21.1-.07.2-.13.3-.18.1-.05.2-.1.29-.15.1-.04.19-.08.29-.12.1-.03.18-.07.27-.1.1-.03.18-.05.27-.07.08-.02.16-.04.23-.06.07-.01.11-.01.16-.02.19-.02.31-.02.31-.02.43 0 .79.35.79.78.01.26-.13.5-.34.65Z" fill="#1A1717"/><path d="M36.27 43.73c1.84 1.24 2.3 3.78.17 6.93-2.1 3.11-4.66 3.68-6.5 2.44-1.84-1.24-2.77-3.92-.56-7.18 2.14-3.18 5.05-3.43 6.89-2.19Z" fill="#01579B"/><ellipse fill="#B3E5FC" transform="rotate(-55.779 33.11 48.412)" cx="33.111" cy="48.412" rx="3.94" ry="2.95"/><path fill="#FFF" d="m36.03 53.26-4.73-8.11.58-3.06 4.73 8.11z"/><path d="M44.5 31.56c1.84 1.24 2.3 3.78.17 6.93-2.1 3.11-4.66 3.68-6.5 2.44-1.84-1.24-2.87-3.87-.67-7.13 2.15-3.18 5.16-3.48 7-2.24Z" fill="#01579B"/><ellipse fill="#B3E5FC" transform="rotate(-55.779 41.342 36.235)" cx="41.342" cy="36.235" rx="3.94" ry="2.95"/><path fill="#FFF" d="m44.26 41.09-4.73-8.11.58-3.07 4.73 8.11z"/><path d="M39.55 41.15 37 44.92l-1.88-1.27 2.55-3.77 1.88 1.27Zm4.74-13.74c1.26 1.5 1.36 3.38.96 5.3l-1.88-1.26c.71-1.56.57-3.33-.96-5.3l1.88 1.26ZM26.02 54.46c1.87.6 3.65-.01 5.28-1.11l-1.88-1.26c-1.18 1.25-2.88 1.78-5.28 1.11l1.88 1.26Z" fill="#01579B"/><path d="M14.16 26.65s-.15.21-.21.3-.19.3-.19.3c-7.01 11.69-1.42 20 2.69 23.45 4.56 3.83 8.65 5.67 8.65 5.67s-.08-.32-.13-.84c-.06-.56.04-1.07.04-1.07s-1.44-5.54-.72-10.09c.74-4.65 5.79-12.21 9.3-14.43 3.72-2.35 5.87-3.38 10.24-3.63 0 0 .44-.29.98-.46.51-.16.83-.21.83-.21s-3.4-2.83-8.64-5.68c-3.98-2.16-14.33-4.43-22.84 6.69Z" fill="url(#b)"/><path d="M42.67 43.64c-.04.03-.08.07-.12.11l-1.84 2.9a.88.88 0 0 0-.05.15c-.06.33.12.65.49.71.37.06 1.55 0 2.29-1.17.74-1.16.29-2.26.08-2.57-.21-.3-.58-.33-.85-.13Z" fill="#33251F"/><ellipse fill="#1A1717" transform="rotate(-53.114 46.537 48.525)" cx="46.537" cy="48.525" rx="3.19" ry="1.93"/><path d="M108.06 49.53c-6.57 0-9.93 7.19-16 7.19-6.06 0-9.43-7.19-16-7.19s-9.93 7.19-16 7.19-9.43-7.19-16-7.19-9.94 7.19-16 7.19c-6.06 0-9.43-7.19-16-7.19-5.01 0-8.16 4.18-12.06 6.16v35.63h120V55.63c-3.83-2-6.97-6.1-11.94-6.1Z" fill="#039BE5"/><path d="M108.03 73.24c-6.57 0-9.93-7.19-16-7.19-6.06 0-9.43 7.19-16 7.19s-9.93-7.19-16-7.19-9.43 7.19-16 7.19-9.94-7.19-16-7.19c-6.06 0-9.43 7.19-16 7.19-5 0-8.14-4.16-12.03-6.15v24.22h120v-24.2c-3.84 2-6.99 6.13-11.97 6.13Z" fill="#29B6F6"/></g></svg>