<svg width="128" height="128" xmlns="http://www.w3.org/2000/svg"><defs><linearGradient x1=".008%" y1="49.993%" x2="99.987%" y2="49.993%" id="a"><stop stop-color="#E0BB95" offset="0%"/><stop stop-color="#CCA47A" offset="100%"/></linearGradient><linearGradient x1="-.001%" y1="49.995%" x2="99.987%" y2="49.995%" id="b"><stop stop-color="#FFA000" offset="0%"/><stop stop-color="#FF9300" offset="34.1%"/><stop stop-color="#FF7100" offset="97.2%"/><stop stop-color="#FF6F00" offset="100%"/></linearGradient><linearGradient x1="23.55%" y1="32.171%" x2="55.84%" y2="51.553%" id="c"><stop stop-color="#FFA000" offset=".2%"/><stop stop-color="#FF6F00" offset="99.9%"/></linearGradient></defs><g transform="matrix(-1 0 0 1 123.93 32.45)" fill="none"><path d="m17.06 10.16 11.72-2.09a2.913 2.913 0 0 0-1.25-5.69L15.92 5.61c-1.57.35-2.63 1.38-2.29 2.95.35 1.57 1.86 1.95 3.43 1.6Z" fill="#BA8F63"/><path d="M84.96 39.22c-5.11-2.41-9.21-6.93-12.69-11.39L55.52 6.4a7.14 7.14 0 0 0-4.49-3.26c-.08-.02-.16-.03-.24-.05l.01-.07L16.52.03c-1.07-.09-2.14.02-3.17.34L8.03 2.03c-.7.22-1.37.53-2 .93-1.24.79-3.47 2.26-4.5 3.16-.57.5-.95 1.01-.95 1.92 0 .74.3 1.4.86 1.86.61.51 1.47.71 2.35.55 1.11-.2 2.34-1.27 3.18-2.13.23-.24.53-.39.86-.43l5.63-.74c.43-.06.85-.04 1.25.05.75.17 1.63.32 2.66.51 1.33.24 2.99.53 4.93.96 2.4.53 20.25 6.29 20.42 6.34 1.21.42 2.27 1.23 2.98 2.3l6.72 10.1c2.53 3.8 2.5 8.81-.06 12.47l-.1.14c-2.71 3.91-5.94 10.83-7.19 15.43-2.69 9.87-1.06 16.29 4.87 19.09l22.85 10.79 19.77-41.85-7.6-4.26Z" fill="url(#a)"/><path d="M109.03 51.86 85.41 38.34a36.583 36.583 0 0 1-13.14-10.5L55.52 6.4a7.14 7.14 0 0 0-4.49-3.26c-.19-.04-.37-.08-.55-.11a.603.603 0 0 0-.19-.06L31.09 1.3a.517.517 0 0 0-.37.12c-2.05 1.77-3.28 4.79-3.21 7.87 0 .2.02.4.04.6.02.2.16.36.35.42 6.06 1.87 14.74 4.67 14.82 4.7 1.21.42 2.27 1.23 2.98 2.3l6.72 10.1c2.26 3.4.81 12.06-1.97 16.3-.14.21-.1.49.1.66 4.23 3.56 6.2 6.9 5.26 8.94-.93 2.03-4.64 2.67-10.17 1.77a.49.49 0 0 0-.57.41c-.05.29-.19 1.01-.35 1.87-.45 2.33-.82 4.31-.85 4.87-.01.2.09.38.26.47 3.98 2.11 28.35 22.46 28.43 22.46.19 0 18.57-7.61 18.65-7.79 0 0 19.64-17.92 21.05-23.22.25-.98-1.99-1.64-3.23-2.29Z" fill="url(#b)"/><path d="M57.02 55.47a6.19 6.19 0 0 0-1.74-8.58l-4.41-2.92-6.83 10.32 4.41 2.92c2.84 1.89 6.68 1.11 8.57-1.74Z" fill="#C48E6A"/><path d="M15.83 28.51s.13-.21.19-.3l.2-.3c8-10.58 15.78-8.85 20.52-6.69 5.14 2.33 8.71 4.42 8.71 4.42s-.31.06-.81.22c-.52.18-.95.47-.95.47l3.54 3.19-10.64-1.48a.148.148 0 0 0-.16.08l-1.26 2.46a79.334 79.334 0 0 1-4.2 7.19h.01c-.07.1-.13.2-.2.3-.07.1-.13.2-.2.3h-.01a78.76 78.76 0 0 1-4.98 6.68l-1.77 2.12a.15.15 0 0 0-.01.18l5.52 9.22-4.32-2.02s-.11.51-.07 1.06c.04.52.11.83.11.83s-3.68-2.35-7.62-6.39c-3.73-3.83-8.05-10.36-1.6-21.54Z" fill="#AB872F"/><path d="M47.98 26.26c-2.69-1.78-4.77.43-4.77.43l-.76 1.15-16.51 24.93-.76 1.15s-1.22 2.78 1.47 4.56c2.37 1.57 4.51.37 5.72-1.45l16.51-24.94c1.2-1.82 1.47-4.26-.9-5.83Z" fill="#C48E6A"/><path d="M16.59 28.65c7.12-10.76 17.33-8.05 29.04-.29 12.15 8.04 10.12 17.93 6.3 23.7-3.76 5.68-12.04 11.55-24.27 3.45-11.72-7.77-18.19-16.1-11.07-26.86Z" fill="#E0BB95"/><path d="M39.91 30.25s-2.06-.05-3.49 2.07c-1.43 2.13-.6 4.01-.6 4.01a.756.756 0 0 0 1.34.16c.05-.07.11-.28.12-.31.33-1.63.99-2.63.99-2.63s.67-.99 2.05-1.91c.02-.01.19-.15.24-.22.23-.35.14-.82-.21-1.05a.684.684 0 0 0-.44-.12Zm-8.87 13.22s-2.06-.05-3.48 2.07c-1.43 2.13-.6 4.01-.6 4.01a.756.756 0 0 0 1.34.16c.05-.07.11-.28.12-.31.33-1.63.99-2.63.99-2.63s.67-.99 2.05-1.91c.02-.01.19-.15.24-.22.23-.35.14-.82-.21-1.05a.802.802 0 0 0-.45-.12Z" fill="#AB872F"/><path d="M36.09 43.73c1.84 1.24 2.3 3.78.17 6.93-2.1 3.11-4.66 3.68-6.5 2.44-1.84-1.24-2.77-3.92-.56-7.18 2.14-3.18 5.05-3.43 6.89-2.19Z" fill="#01579B"/><ellipse fill="#B3E5FC" transform="rotate(-55.779 32.93 48.412)" cx="32.931" cy="48.412" rx="3.94" ry="2.95"/><path fill="#FFF" d="m35.85 53.26-4.73-8.11.58-3.06 4.73 8.11z"/><path d="M44.32 31.56c1.84 1.24 2.3 3.78.17 6.93-2.1 3.11-4.66 3.68-6.5 2.44-1.84-1.24-2.87-3.87-.67-7.13 2.15-3.18 5.16-3.48 7-2.24Z" fill="#01579B"/><ellipse fill="#B3E5FC" transform="rotate(-55.779 41.162 36.235)" cx="41.162" cy="36.235" rx="3.94" ry="2.95"/><path fill="#FFF" d="m44.08 41.09-4.73-8.11.58-3.07 4.73 8.11z"/><path d="m39.37 41.15-2.55 3.77-1.88-1.27 2.55-3.77 1.88 1.27Zm4.74-13.74c1.26 1.5 1.36 3.38.96 5.3l-1.88-1.26c.71-1.56.57-3.33-.96-5.3l1.88 1.26ZM25.84 54.46c1.87.6 3.65-.01 5.28-1.11l-1.88-1.26c-1.18 1.25-2.88 1.78-5.28 1.11l1.88 1.26Z" fill="#01579B"/><path d="M13.98 26.65s-.15.21-.21.3-.19.3-.19.3c-7.01 11.69-1.42 20 2.69 23.45 4.56 3.83 8.65 5.67 8.65 5.67s-.08-.32-.13-.84c-.06-.56.04-1.07.04-1.07s-1.44-5.54-.72-10.09c.74-4.65 5.79-12.21 9.3-14.43 3.72-2.35 5.87-3.38 10.24-3.63 0 0 .44-.29.98-.46.51-.16.83-.21.83-.21s-3.4-2.83-8.64-5.68c-3.98-2.16-14.33-4.43-22.84 6.69Z" fill="url(#c)"/><path d="M42.49 43.64c-.04.03-.08.07-.12.11l-1.84 2.9a.88.88 0 0 0-.05.15c-.06.33.12.65.49.71.37.06 1.55 0 2.29-1.17.74-1.16.29-2.26.08-2.57-.21-.3-.58-.33-.85-.13Z" fill="#C48E6A"/><ellipse fill="#6D4C41" transform="rotate(-53.114 46.357 48.525)" cx="46.357" cy="48.525" rx="3.19" ry="1.93"/><path d="M107.88 49.53c-6.57 0-9.93 7.19-16 7.19-6.06 0-9.43-7.19-16-7.19s-9.93 7.19-16 7.19-9.43-7.19-16-7.19-9.94 7.19-16 7.19c-6.06 0-9.43-7.19-16-7.19-4.93 0-8.06 4.05-11.88 6.07v35.9h119.81V55.63c-3.82-2-6.96-6.1-11.93-6.1Z" fill="#039BE5"/><path d="M107.85 73.24c-6.57 0-9.93-7.19-16-7.19-6.06 0-9.43 7.19-16 7.19s-9.93-7.19-16-7.19-9.43 7.19-16 7.19-9.94-7.19-16-7.19c-6.06 0-9.43 7.19-16 7.19-4.92 0-8.04-4.03-11.85-6.06V91.5h119.81V67.11c-3.83 2-6.98 6.13-11.96 6.13Z" fill="#29B6F6"/></g></svg>