<svg width="128" height="128" xmlns="http://www.w3.org/2000/svg"><defs><linearGradient x1="14.217%" y1="50.012%" x2="59.852%" y2="50.012%" id="d"><stop stop-color="#FFCA28" offset="59.8%"/><stop stop-color="#FFB300" offset="100%"/></linearGradient><linearGradient x1="27.393%" y1="43.409%" x2="74.237%" y2="63.74%" id="f"><stop stop-color="#651FFF" offset="0%"/><stop stop-color="#5914F2" offset="70.5%"/><stop stop-color="#530EEB" offset="100%"/></linearGradient><linearGradient x1="37.425%" y1="76.746%" x2="99.971%" y2="-104.491%" id="g"><stop stop-color="#FFCA28" offset="59.8%"/><stop stop-color="#FFB300" offset="100%"/></linearGradient><linearGradient x1="35.07%" y1="111.017%" x2="51.877%" y2="32.822%" id="h"><stop stop-color="#FFCA28" offset="59.8%"/><stop stop-color="#FFB300" offset="100%"/></linearGradient><linearGradient x1="72.784%" y1="29.303%" x2="26.256%" y2="71.126%" id="i"><stop stop-color="#FFCA28" offset="50%"/><stop stop-color="#FFB300" offset="100%"/></linearGradient><linearGradient x1="27.091%" y1="84.503%" x2="81.13%" y2="24.687%" id="j"><stop stop-color="#FFB300" offset="0%"/><stop stop-color="#FFCA28" offset="13.8%"/><stop stop-color="#FFCA28" offset="83.1%"/></linearGradient><linearGradient x1="71.883%" y1="30.089%" x2="27.848%" y2="70.263%" id="k"><stop stop-color="#FFCA28" offset="50%"/><stop stop-color="#FFB300" offset="100%"/></linearGradient><linearGradient x1="30.917%" y1="36.912%" x2="91.98%" y2="74.919%" id="l"><stop stop-color="#FFCA28" offset="50%"/><stop stop-color="#FFB300" offset="100%"/></linearGradient><radialGradient cx="77.556%" cy="49.266%" fx="77.556%" fy="49.266%" r="113.311%" gradientTransform="scale(.71967 1) rotate(20.146 .927 1.343)" id="a"><stop stop-color="#6D4C41" stop-opacity="0" offset="56.2%"/><stop stop-color="#6D4C41" offset="100%"/></radialGradient><radialGradient cx="52.587%" cy="106.132%" fx="52.587%" fy="106.132%" r="126.739%" gradientTransform="scale(.5819 1) rotate(-43.574 .715 .589)" id="b"><stop stop-color="#6D4C41" stop-opacity="0" offset="58%"/><stop stop-color="#6D4C41" offset="100%"/></radialGradient><radialGradient cx="75.446%" cy="48.159%" fx="75.446%" fy="48.159%" r="76.88%" gradientTransform="scale(-.72544 -1) rotate(-51.443 -1.142 1.863)" id="c"><stop stop-color="#6D4C41" offset="0%"/><stop stop-color="#6D4C41" stop-opacity="0" offset="52.6%"/></radialGradient><radialGradient cx="49.71%" cy="49.199%" fx="49.71%" fy="49.199%" r="51.951%" gradientTransform="scale(.91895 1) rotate(3.113 .519 1.299)" id="e"><stop stop-color="#6D4C41" stop-opacity="0" offset="52.6%"/><stop stop-color="#6D4C41" offset="100%"/></radialGradient><radialGradient cx="54.199%" cy="28.963%" fx="54.199%" fy="28.963%" r="60.802%" gradientTransform="matrix(.99805 0 0 1 .001 0)" id="m"><stop stop-color="#FFB300" offset="0%"/><stop stop-color="#FFCA28" offset="100%"/></radialGradient></defs><g transform="matrix(-1 0 0 1 110.858 3.762)" fill="none"><path d="M58.564 17.688c-4.51-5.82-4.06-11.98-11.32-13.34-4.79-.9-8.55 4.27-8.46 6.08.16 3.49 3.39 3.31 4.91 3.85 0 0 1.31 6.32 8.88 9.76 11.87 5.39 16.94-.3 16.94-.3s-6.61-.45-10.95-6.05Z" fill="#543930"/><path d="M58.564 17.688c-4.51-5.82-3.89-11.9-11.32-13.34-4.72-.91-8.55 4.27-8.46 6.08.16 3.49 3.39 3.31 4.91 3.85 0 0 1.31 6.32 8.88 9.76 11.87 5.39 16.94-.3 16.94-.3s-6.61-.45-10.95-6.05Z" fill="url(#a)"/><path d="M56.754 14.658c-2.69-4.84-3.45-9.18-9.51-10.31-4.79-.9-8.47 4.13-8.39 5.94 0 0 2.53-3.26 8.4-1.86 5.86 1.4 9.5 6.23 9.5 6.23Z" fill="url(#b)"/><path d="M58.564 17.688c-1.13-1.45-2.02-3.06-2.83-4.71-.72-1.46-1.27-2.76-2.98-3.22-2.71-.73-6.47 2.74-5.89 6.11.36 2.08 3.01 6.14 10.5 9.1 8.1 3.2 12.14-1.24 12.14-1.24s-6.6-.44-10.94-6.04Z" fill="url(#c)"/><path d="m70.014 78.878-18.57 3.71-5.17-17.87-12.43 8.33 9.06 18.2.04-.03a6.01 6.01 0 0 0 3.49 2.8c.45.14.9.22 1.36.25v.02l.15-.01c.56.03 1.11-.01 1.64-.12l22.92-8.71-2.49-6.57Z" fill="#616161"/><path d="M73.994 75.068c-.32-.54-1.01-.71-1.55-.39l-2.37 1.42c-1.61.96-2.48 3.69-2.48 3.69l3.52 5.91 4.93 4.28c1.27.99 3.02 1.1 4.41.29l1.07-.63c.47-.28.63-.89.35-1.36l-7.88-13.21Z" fill="#325599"/><path d="m16.014 110.038 11.41-21.8s14.21-11.76 15.45-12.59c4.63-3.1 5.55-7.41 5.09-10.54-.36-2.43-1.97-5.66-1.97-5.66l-18.65 5.56.88 3.42s-5.71 7.38-7.04 8.92-3.61 3.69-5.38 9.76c-1.87 6.4-6.56 21.83-6.56 21.83l6.77 1.1Z" fill="#7C7C7C"/><path d="M16.004 116.828c.62.1 1.2-.32 1.3-.93l.44-2.73c.31-1.85-1.22-4.27-1.22-4.27l-6.79-1.12-6.45 1.01c-1.58.34-2.79 1.6-3.06 3.19l-.21 1.23c-.09.54.27 1.05.81 1.14l15.18 2.48Z" fill="#4568AD"/><path d="M41.694 9.248c-2.25-4.27-7.75-7.85-12.56-7.4-5.38.5-8.51 4.13-9.6 8.93-.4 1.74-.47 3.5-.26 4.76.03.15.24 1.25.24 1.6.11 1.32-2.52 2.45-2.92 3.87-.3 1.07 1.92 1.92 2.08 2.13.82 1.04-.91 5.55 5.28 6.49 2.09.31 2.25.13 2.98.29 1.91.42 2.85 4.69 2.85 4.69s.88 4.24 5.08 3.26c4.8-1.12 3.68-5.44 3.68-5.44s-3.18-4.75.03-9.64c2.47-3.73 4.57-10.79 3.12-13.54Z" fill="#FFCA28"/><path d="M19.144 25.788c.86.11 1.73-.03 2.49-.52.84-.53.34-1.24-.6-.91-.57.2-1.36.26-2.06.08l.17 1.35Z" fill="#795548"/><ellipse fill="#404040" transform="rotate(-87.799 23.326 18.14)" cx="23.326" cy="18.14" rx="1.76" ry="1.14"/><path d="m21.214 45.258-8.96-6.82-4.36 4.66 9.04 8.76.01-.01c1.77 1.85 5.92 3.11 9.37-.03 3.28-2.99 7.33-9.36 7.33-9.36l-7.01-5.62-5.42 8.42Z" fill="url(#d)"/><path d="M22.694 15.688c-1.1.36-1.39-.36-1.03-.97.26-.44.92-.83 2.23-.62 1.23.2 1.76.89 2.1 1.31.34.42.32.85.04.89-.38.08-1.97-1.05-3.34-.61Z" fill="#6D4C41"/><path d="M42.284 5.558c-2.21-3-5.95-5.05-10.02-5.46-3.54-.37-8.44.24-11.59 3.03-1.89 1.68-3.09 3.96-2.93 6.57.09 1.57 1.33 2.44 1.33 2.44s1.67-3.47 5.24-2.38c3.75 1.15 5.45.47 5.45.47-1.44 2.95-.41 4.67.53 5.67.54.57 1.03 1.24 1.31 1.63.14.2.28.2.35 0 .17-.48.5-1.34.73-1.75.78-1.35 1.88-.8 1.89-.79 1.51.62 1.88 3.81-.74 5.52-.06.04-.24.15-.16.47.82 3.25 4.6 3.58 4.84 3.47h.01l.06-.03c.52-.2.84-.61.96-1.19.43-2.11 1.39-2.67 2.11-3.56.83-1.02 1.77-2.18 2.45-5.5.65-3.14.02-6.11-1.82-8.61Z" fill="#543930"/><path d="M42.284 5.558c-2.21-3-5.95-5.05-10.02-5.46-3.54-.37-8.44.24-11.59 3.03-1.89 1.68-3.09 3.96-2.93 6.57.09 1.57 1.33 2.44 1.33 2.44s1.67-3.47 5.24-2.38c3.75 1.15 5.45.47 5.45.47-1.44 2.95-.41 4.67.53 5.67.54.57 1.03 1.24 1.31 1.63.14.2.28.2.35 0 .17-.48.5-1.34.73-1.75.78-1.35 1.88-.8 1.89-.79 1.51.62 1.88 3.81-.74 5.52-.06.04-.24.15-.16.47.82 3.25 4.6 3.58 4.84 3.47h.01l.06-.03c.52-.2.84-.61.96-1.19.43-2.11 1.39-2.67 2.11-3.56.83-1.02 1.77-2.18 2.45-5.5.65-3.14.02-6.11-1.82-8.61Z" fill="url(#e)"/><path d="M21.424 41.178c2.57 7.19 8.87 7.41 8.87 7.41l5.02-8.6a4.86 4.86 0 0 0-1.74-6.64l-.83-.49c-2.31-1.35-4.27-.69-7.38 3.85-2.79 4.09-3.94 4.47-3.94 4.47Z" fill="#3615AF"/><path d="M27.344 64.998c-2.48-9.84-2.94-16.75-2.38-22.29.72-6.98 4.05-11.15 7.79-12.47 4.62-1.63 7.82.72 9.11 4.9.88 2.85.71 5.04.64 6.4 0 0-.64 7.47 5.3 16.82 0 0-.57 4.06-10.05 6.29-4.22.99-10.41.35-10.41.35Z" fill="url(#f)"/><path d="M42.614 55.848s-4.34-2.16-4.39-2.18a1.12 1.12 0 0 0-1.52.46l-.93 1.74c-.15.29-.16.61-.06.9-.5.29-1.73 1.05-1.99 1.56-.3.58.04 1.19.36 1.33.37.16.54.68.43 1.07-.12.4-.11.81.08 1.14.19.33.43.46.89.55.22.04.45.32.45.54-.01.34-.01.93.16 1.15.34.45.9.31 1.19.64.11.13.12.7.35.91.68.64 2.89-.54 2.89-.54l4.22-3.91-2.13-5.36Z" fill="#EDA600"/><path d="m41.214 55.168 2.67.75 1.83 5.05s-5.71 5.62-6.68 4.05c-.31-.49.26-1.02-.57-1.33-.59-.22-1.03-.5-.86-1.41.07-.34-.2-.76-.44-.79-1.08-.13-1.36-.73-1.04-1.49.18-.42.14-1.13-.47-1.45-.22-.12-.53-.61-.39-1.31.23-1.09 5.95-2.07 5.95-2.07Z" fill="url(#g)"/><path d="m44.884 61.598 9.89-6.67v-.01c1.19-1.18 1.61-2 1.85-2.99.76-3.1-1.26-5.26-1.26-5.26l-9.15-10.23-5.64 5.83 8.04 8.04-6.01 5.55 2.28 5.74Z" fill="url(#h)"/><path d="M45.084 48.248s6.06-5.99 5.9-10.6c0 0-2.89-.01-7.19-3.26-2.71-2.04-6.31-2.21-7.76.17-1.29 2.1-1.08 4.69 1.4 7.66 1.86 2.21 7.65 6.03 7.65 6.03Z" fill="#3615AF"/><path d="m7.444 39.628-.03.02c-.43.54-1.17.69-1.65.32l-1.95-1.47c-.48-.36-.52-1.1-.09-1.64.43-.54 1.17-.69 1.65-.32l1.95 1.47c.49.37.56 1.08.12 1.62Z" fill="url(#i)"/><path d="M9.084 33.478c.03.02.04.04.04.04.89.95 1.68 1.74 2.02 1.95.9.57 1.74 1.29 2.26 2.3.97 1.89-.27 3.75-1.72 5.12-1.44 1.38-2.35 1.68-3.92 1.42-1.28-.21-3.99-3.08-3.99-3.08-.28-.33-.6-.67-.92-.99-.12-.12-.25-.24-.37-.37l-.01-.01c-.37-.36-.42-.84-.01-1.34.54-.66 1.07-.32 1.13-.27l.01.01c.25.23.52.54.72.69.58.43.9.51.9.51l2.74-3.48-.93-1.24s-.01-.02-.04-.05c-.1-.16-.49-.73.25-1.4.82-.7 1.67.03 1.84.19Z" fill="url(#j)"/><path d="M8.994 38.198c-.48.51-1.23.59-1.68.19l-2.07-1.85c-.45-.4-.43-1.14.05-1.65s1.23-.59 1.68-.19l2.07 1.85c.44.41.42 1.14-.05 1.65Z" fill="url(#k)"/><path d="M6.304 38.498c.45-.65 1-1.45 1.61-2.14.09-.1.17-.19.26-.28.84-.87 1.94-1.02 3.32-.27.05.03.09.05.14.08.08.05.16.1.25.15l.01.01c.12.08.24.16.36.25.41.3.72.67.91 1.03.76 1.21.54 2.36.54 2.36s-.88 2.68-2.18 2.21c-1.3-.47-1.97-2.32-1.97-2.32l.34-1.34c-.39-.04-.73.13-1.19.65-.15.17-.32.38-.52.63-.02.03-.27.34-.29.36-.3.33-.64.49-1.05.46-.53-.03-.98-.54-1.23-.74.19-.24.44-.75.69-1.1Z" fill="url(#l)"/><path fill="url(#m)" d="m5.714 41.588 1.62-1.33.86-.98 1.12-.98.39.17-.24 1.28.84 1.26.53.45-2.75 1.95z"/><path d="M5.824 40.858c-.03.62-.63.96-.59.97.17.07 1.01-.14 1.94-1.18.72-.81 1.41-1.86 2.25-2.11-.29 1.42.34 2.51 1.5 2.94-.89-.83-1.61-2.23-.8-3.35-.66-.4-1.43.26-1.82.74-.45.54-.85 1.38-1.68 1.27-.57-.07-.78-.43-.58-.97.5-1.32 1.67-2.67 2.87-3.42.44-.27 1.34-.34 2.5-.11-.85-.66-2.3-.45-2.85-.19-.47.22-.35.13-.77-.14-.21-.14-.42-.28-.62-.41.17.28.47.62.52.95.06.41-.33.76-.57 1.05-.62.74-1.16.1-1.8-.3.43.51.53.67.75 1.03.29.49-.15.89-.47 1.27-.65.78-1.99-.81-2.08-.71-.1.12 2.33 1.99 2.3 2.67Z" fill="#EDA600"/></g></svg>