<svg width="128" height="128" xmlns="http://www.w3.org/2000/svg"><defs><linearGradient x1=".788%" y1="47.75%" x2="65.814%" y2="50.12%" id="a"><stop stop-color="#A56C43" offset="59.8%"/><stop stop-color="#8D5738" offset="100%"/></linearGradient><linearGradient x1="27.393%" y1="43.409%" x2="74.237%" y2="63.74%" id="b"><stop stop-color="#F78C1F" offset="0%"/><stop stop-color="#F47F12" offset="48.2%"/><stop stop-color="#EF6C00" offset="100%"/></linearGradient><linearGradient x1="89.385%" y1="26.976%" x2="27.287%" y2="56.103%" id="c"><stop stop-color="#A56C43" offset="59.8%"/><stop stop-color="#8D5738" offset="100%"/></linearGradient><linearGradient x1="59.677%" y1="79.948%" x2="38.701%" y2="44.455%" id="d"><stop stop-color="#A56C43" offset="59.8%"/><stop stop-color="#8D5738" offset="100%"/></linearGradient><linearGradient x1="72.784%" y1="29.303%" x2="26.256%" y2="71.126%" id="e"><stop stop-color="#A56C43" offset="50%"/><stop stop-color="#8D5738" offset="100%"/></linearGradient><linearGradient x1="27.091%" y1="84.503%" x2="81.13%" y2="24.687%" id="f"><stop stop-color="#8D5738" offset="0%"/><stop stop-color="#A56C43" offset="13.8%"/><stop stop-color="#A56C43" offset="83.1%"/></linearGradient><linearGradient x1="71.883%" y1="30.089%" x2="27.848%" y2="70.263%" id="g"><stop stop-color="#A56C43" offset="50%"/><stop stop-color="#8D5738" offset="100%"/></linearGradient><linearGradient x1="30.917%" y1="36.912%" x2="91.98%" y2="74.919%" id="h"><stop stop-color="#A56C43" offset="50%"/><stop stop-color="#8D5738" offset="100%"/></linearGradient><radialGradient cx="54.199%" cy="28.963%" fx="54.199%" fy="28.963%" r="60.802%" gradientTransform="matrix(.99805 0 0 1 .001 0)" id="i"><stop stop-color="#8D5738" offset="0%"/><stop stop-color="#A56C43" offset="100%"/></radialGradient><radialGradient cx="-.369%" cy="58.008%" fx="-.369%" fy="58.008%" r="98.491%" gradientTransform="matrix(.93163 .30058 -.36341 .77054 .21 .134)" id="j"><stop stop-color="#554138" stop-opacity="0" offset="45%"/><stop stop-color="#554138" offset="100%"/></radialGradient><radialGradient cx="1.706%" cy="69.403%" fx="1.706%" fy="69.403%" r="104.376%" gradientTransform="matrix(.99321 -.06705 .1163 .57265 -.08 .298)" id="k"><stop stop-color="#554138" stop-opacity="0" offset="45%"/><stop stop-color="#554138" offset="100%"/></radialGradient><radialGradient cx="58.31%" cy="72.515%" fx="58.31%" fy="72.515%" r="103.016%" gradientTransform="matrix(.611 -.1353 .08344 .9908 .166 .086)" id="l"><stop stop-color="#554138" stop-opacity="0" offset="45%"/><stop stop-color="#554138" offset="100%"/></radialGradient><radialGradient cx="58.533%" cy="32.306%" fx="58.533%" fy="32.306%" r="116.531%" gradientTransform="scale(.71256 1) rotate(15.302 .703 1.202)" id="m"><stop stop-color="#554138" stop-opacity="0" offset="45%"/><stop stop-color="#554138" offset="100%"/></radialGradient></defs><g transform="matrix(-1 0 0 1 110.858 3.301)" fill="none"><path d="M38.554 32.889s1.12 4.32-3.68 5.44c-4.2.99-5.08-3.25-5.08-3.25s-.93-4.28-2.85-4.7c-.73-.16-.89.02-2.98-.29-3.57-.54-4.51-2.27-4.81-3.84-.1-.48-.14-.95-.17-1.36-.05-.57-.1-1.03-.3-1.29-.16-.21-2.38-1.06-2.08-2.13.4-1.42 3.02-2.55 2.91-3.87.01-.34-.21-1.45-.24-1.6-.21-1.26-.14-3.02.26-4.76 1.1-4.8 4.23-8.43 9.6-8.94 4.81-.44 10.31 3.14 12.56 7.41 1.44 2.74-.65 9.81-3.11 13.55-3.2 4.88-.03 9.63-.03 9.63Z" fill="#A56C43"/><path d="M21.634 25.719c-.76.49-1.62.63-2.48.53-.1-.48-.14-.95-.17-1.36.68.14 1.54.1 2.05-.07.94-.32 1.44.38.6.9Z" fill="#473530"/><ellipse fill="#42312C" transform="rotate(-87.799 23.324 18.599)" cx="23.324" cy="18.599" rx="1.76" ry="1.14"/><path d="M22.694 16.149c-1.1.36-1.39-.36-1.03-.97.26-.44.92-.83 2.23-.62 1.23.2 1.76.89 2.1 1.31.34.42.32.85.04.89-.39.08-1.98-1.05-3.34-.61Z" fill="#42312C"/><path d="m70.014 79.339-18.57 3.71-5.17-17.87-12.43 8.33 9.06 18.2.04-.03a6.01 6.01 0 0 0 3.49 2.8c.45.14.9.22 1.36.25v.02l.15-.01c.56.03 1.11-.01 1.64-.12l22.92-8.71-2.49-6.57Z" fill="#616161"/><path d="M73.994 75.529c-.32-.54-1.01-.71-1.55-.39l-2.37 1.42c-1.61.96-2.48 3.69-2.48 3.69l3.52 5.91 4.93 4.28c1.27.99 3.02 1.1 4.41.29l1.07-.63c.47-.28.63-.89.35-1.36l-7.88-13.21Z" fill="#325599"/><path d="m16.014 110.499 11.41-21.8s14.21-11.76 15.45-12.59c4.63-3.1 5.55-7.41 5.09-10.54-.36-2.43-1.97-5.66-1.97-5.66l-18.65 5.56.88 3.42s-5.71 7.38-7.04 8.92-3.61 3.69-5.38 9.76c-1.87 6.4-6.56 21.83-6.56 21.83l6.77 1.1Z" fill="#7C7C7C"/><path d="M16.004 117.289c.62.1 1.2-.32 1.3-.93l.44-2.73c.31-1.85-1.22-4.27-1.22-4.27l-6.79-1.12-6.45 1.01c-1.58.34-2.79 1.6-3.06 3.19l-.21 1.23c-.09.54.27 1.05.81 1.14l15.18 2.48Z" fill="#4568AD"/><path d="m21.214 45.719-8.96-6.82-4.36 4.66 9.04 8.76.01-.01c1.77 1.85 5.92 3.11 9.37-.03 3.28-2.99 7.33-9.36 7.33-9.36l-7.01-5.62-5.42 8.42Z" fill="url(#a)"/><path d="M21.424 41.639c2.57 7.19 8.87 7.41 8.87 7.41l5.02-8.6a4.86 4.86 0 0 0-1.74-6.64l-.83-.49c-2.31-1.35-4.27-.69-7.38 3.85-2.79 4.09-3.94 4.47-3.94 4.47Z" fill="#ED6D23"/><path d="M27.344 65.459c-2.48-9.84-2.94-16.75-2.38-22.29.72-6.98 4.05-11.15 7.79-12.47 4.62-1.63 7.82.72 9.11 4.9.88 2.85.71 5.04.64 6.4 0 0-.64 7.47 5.3 16.82 0 0-.57 4.06-10.05 6.29-4.22.99-10.41.35-10.41.35Z" fill="url(#b)"/><path d="M42.614 56.309s-4.34-2.16-4.39-2.18a1.12 1.12 0 0 0-1.52.46l-.93 1.74c-.15.29-.16.61-.06.9-.5.29-1.73 1.05-1.99 1.56-.3.58.04 1.19.36 1.33.37.16.54.68.43 1.07-.12.4-.11.81.08 1.14.19.33.43.46.89.55.22.04.45.32.45.54-.01.34-.01.93.16 1.15.34.45.9.31 1.19.64.11.13.12.7.35.91.68.64 2.89-.54 2.89-.54l4.22-3.91-2.13-5.36Z" fill="#875334"/><path d="m41.214 55.629 2.67.75 1.83 5.05s-5.71 5.62-6.68 4.05c-.31-.49.26-1.02-.57-1.33-.59-.22-1.03-.5-.86-1.41.07-.34-.2-.76-.44-.79-1.08-.13-1.36-.73-1.04-1.49.18-.42.14-1.13-.47-1.45-.22-.12-.53-.61-.39-1.31.23-1.09 5.95-2.07 5.95-2.07Z" fill="url(#c)"/><path d="m44.884 62.059 9.89-6.67v-.01c1.19-1.18 1.61-2 1.85-2.99.76-3.1-1.26-5.26-1.26-5.26l-9.15-10.23-5.64 5.83 8.04 8.04-6.01 5.55 2.28 5.74Z" fill="url(#d)"/><path d="M45.084 48.709s6.06-5.99 5.9-10.6c0 0-2.89-.01-7.19-3.26-2.71-2.04-6.31-2.21-7.76.17-1.29 2.1-1.08 4.69 1.4 7.66 1.86 2.21 7.65 6.03 7.65 6.03Z" fill="#ED6D23"/><path d="m7.444 40.089-.03.02c-.43.54-1.17.69-1.65.32l-1.95-1.47c-.48-.36-.52-1.1-.09-1.64.43-.54 1.17-.69 1.65-.32l1.95 1.47c.49.37.56 1.08.12 1.62Z" fill="url(#e)"/><path d="M9.084 33.939c.03.02.04.04.04.04.89.95 1.68 1.74 2.02 1.95.9.57 1.74 1.29 2.26 2.3.97 1.89-.27 3.75-1.72 5.12-1.44 1.38-2.35 1.68-3.92 1.42-1.28-.21-3.99-3.08-3.99-3.08-.28-.33-.6-.67-.92-.99-.12-.12-.25-.24-.37-.37l-.01-.01c-.37-.36-.42-.84-.01-1.34.54-.66 1.07-.32 1.13-.27l.01.01c.25.23.52.54.72.69.58.43.9.51.9.51l2.74-3.48-.93-1.24s-.01-.02-.04-.05c-.1-.16-.49-.73.25-1.4.82-.7 1.67.03 1.84.19Z" fill="url(#f)"/><path d="M8.994 38.659c-.48.51-1.23.59-1.68.19l-2.07-1.85c-.45-.4-.43-1.14.05-1.65s1.23-.59 1.68-.19l2.07 1.85c.44.41.42 1.14-.05 1.65Z" fill="url(#g)"/><path d="M6.304 38.959c.45-.65 1-1.45 1.61-2.14.09-.1.17-.19.26-.28.84-.87 1.94-1.02 3.32-.27.05.03.09.05.14.08.08.05.16.1.25.15l.01.01c.12.08.24.16.36.25.41.3.72.67.91 1.03.76 1.21.54 2.36.54 2.36s-.88 2.68-2.18 2.21c-1.3-.47-1.97-2.32-1.97-2.32l.34-1.34c-.39-.04-.73.13-1.19.65-.15.17-.32.38-.52.63-.02.03-.27.34-.29.36-.3.33-.64.49-1.05.46-.53-.03-.98-.54-1.23-.74.19-.24.44-.75.69-1.1Z" fill="url(#h)"/><path fill="url(#i)" d="m5.714 42.049 1.62-1.33.86-.98 1.12-.98.39.17-.24 1.28.84 1.26.53.45-2.75 1.95z"/><path d="M5.824 41.319c-.03.62-.63.96-.59.97.17.07 1.01-.14 1.94-1.18.72-.81 1.41-1.86 2.25-2.11-.29 1.42.34 2.51 1.5 2.94-.89-.83-1.61-2.23-.8-3.35-.66-.4-1.43.26-1.82.74-.45.54-.85 1.38-1.68 1.27-.57-.07-.78-.43-.58-.97.5-1.32 1.67-2.67 2.87-3.42.44-.27 1.34-.34 2.5-.11-.85-.66-2.3-.45-2.85-.19-.47.22-.35.13-.77-.14-.21-.14-.42-.28-.62-.41.17.28.47.62.52.95.06.41-.33.76-.57 1.05-.62.74-1.16.1-1.8-.3.43.51.53.67.75 1.03.29.49-.15.89-.47 1.27-.65.78-1.99-.81-2.08-.71-.1.12 2.33 1.99 2.3 2.67Z" fill="#875334"/><path d="M44.744 9.519c-1.26-3.34-3.93-4.39-4.8-4.65-.39-1.21-2.38-5.8-9.93-4.7-1.84.27-3.19 1.12-4.39 1.87-.51.32-1 .63-1.45.83-.37.17-1.02.32-1.55.13-1.21-.42-.78-2.25-.78-2.25s-4.46.8-2.62 5.13c-1.5.63-2.22 2.2-2.51 3.68-.4 2.02.56 3.98 2.49 4.88 0 0-.33-3.27 4.38-2.99 1.46.09 2.98.34 4.35-.18.52-.2 1.01-.52 1.52-.76h.18c1.77.99-.66 5.15 1.28 7.65.38.49.72.32.72.32l.82-1.15c.62-.79 1.18-1.48 1.93-1.3 2.21.53 1.74 4.48-.91 5.31-.26.08.27 4.51 5.73 4.61 2.82.05 3.86-2.27 3.86-2.27s-1.21.28-1.45-.75c-.13-.53.37-1.24 1.27-2.01 2.58-2.22 1.71-4.83 1.35-5.65.38-.74 1.49-3.14.51-5.75Z" fill="#3C2C23"/><path d="M44.214 15.279c.05-.09-.82 1.99-4.42 1.58-1.48-.03-3.61 3.51-1.49 5.91 1.88 2.12 4.74.92 4.74.92s-.39.11-.96-.1c-.37-.14-.49-.62-.49-.64-.13-.53.37-1.24 1.27-2.01 2.58-2.24 1.71-4.85 1.35-5.66Z" fill="url(#j)"/><path d="M44.744 9.519c-.66-1.76-1.91-3.25-3.57-4.13-.24-.13-.83-.43-1.24-.51.18.78.15 1.61-.2 2.45-.01.03-.41 1.29-1.52 2.29.77 1.11 1.15 2.45 1.5 3.77.31 1.15.6 2.41.08 3.48.69-.03 1.79.18 3.01-.34 1.17-.5 1.8-1.83 2.11-3.02.33-1.32.31-2.71-.17-3.99Z" fill="url(#k)"/><path d="M39.724 7.329c.91-2.22-.28-4.3-2.11-5.71-2.15-1.65-5.01-1.83-7.6-1.45-1.84.27-3.19 1.12-4.39 1.87-.51.32-1 .63-1.45.83-.37.17-1.02.32-1.55.13-1.21-.42-.78-2.25-.78-2.25s-4.46.8-2.62 5.13c-1.5.63-2.22 2.2-2.51 3.68-.4 2.02.56 3.98 2.49 4.88 0 0-.33-3.27 4.38-2.99 1.46.09 2.98.34 4.35-.18 1.21-.46 1.63-1.1 2.97-1 1.45.11 3.37.69 4.86.49 3.02-.41 3.95-3.39 3.96-3.43Z" fill="url(#l)"/><path d="M38.304 22.769c-.95-1.05-1.18-2.75-2.68-3.69-.3.98-1.03 1.91-2.16 2.26-.26.08.27 4.51 5.73 4.61 2.82.05 3.86-2.27 3.86-2.27s-2.83 1.2-4.75-.91Z" fill="url(#m)"/></g></svg>