<svg xmlns="http://www.w3.org/2000/svg" viewBox="0 0 128 128" style="enable-background:new 0 0 128 128" xml:space="preserve"><path style="fill:#546f7a" d="M40.46 35.24s-3.86-3.45-6.56-6.09c-4.12-4.03-4.95-5.41-4.86-6.25.09-.84 7.76 1.19 7.76 1.19l16.5-8.44 23.06-.75 17.16 8.91 4.65-.93s-.71 1.96-3.33 4.77c-2.46 2.63-7.31 8.34-7.31 8.34l-47.07-.75zM63.64 45.3l-20.05.35-17.85 2.15s-7.87-1.41-7.87-.75c0 .66.94 1.87 2.53 3.66 1.59 1.78 10.22 10.12 10.22 10.12l2.16 6.09 20.34 4.78 41.81-2.72.94-7.87s5.72-5.62 7.59-7.22 5.01-4.4 5.57-5.25c.56-.84.38-1.79.38-1.79l-11.29 1.41-32.42-2.68-2.06-.28zM28.27 71.71l-17.9 4.69-7.59-.47s-.02 1.42 1.83 3.25c2.72 2.69 8.86 8.28 9.8 9.03.94.75 1.41 1.12 2.44 1.12s92.69 2.21 93.25 2.02c.56-.19 5.12-4.37 7.94-6.86 1.56-1.38 6.3-5.05 6.45-6.5.12-1.15-.22-1.42-.22-1.42l-11.52.58-33.37-4.41-51.11-1.03z"/><path style="fill:#73a0a2" d="m16.21 81.25.06 15.86 48.75.38 45.37-.47V81.93zM30.15 66.93l.09-13.97 65.9-.1.19 14.07-36.84 3.56zM39.83 28.76l.08 12.75 23.61 1.74 24.09-1.73V28.86z"/><path style="fill:#b9ced3" d="m46.79 30.3 1.8-1.51s1.34.06 1.92-.31c.58-.36 5.2-5.94 6.29-6.38.89-.36 13.69-.2 14.42.09.73.29 5.46 5.59 6.6 6.34.68.45 1.93.4 1.93.4l2.24 1.81-35.2-.44zM34.21 55.11l30.18 2.9 28.22-3.2.03-1.94-58.42.07z"/><path style="fill:#fff" d="M20.31 81.27v15.71l86.11.64-.11-15.71z"/><path style="fill:#bcced2" d="M15.29 97.94s-.21-1.18.85-1.5 92.77.37 93.53.41c1.82.11 1.44 1.62 1.44 1.62l-50 1.29-45.82-1.82z"/><path style="fill:#fff" d="m34.2 67.17.01-12.06 58.4-.3-.19 15.03zM43.82 41.32l-.1-12.55 39.85.1-.01 12.56z"/><path style="fill:#385661" d="M29.39 23.59s4.7 2.56 7.26 2.78c2.56.21 10.47.43 11.75-.21s5.56-6.3 7.05-7.05c1.5-.75 15.28-.63 16.95-.01 1.36.5 6.13 6.53 7.3 6.96 1.18.43 12.93.22 14.42-.21 2.06-.6 3.25-1.54 3.89-2.68.53-.96-.26-1.7-1.22-1.59-.96.11-4.7.96-8.01-2.14-3.31-3.1-6.2-9.61-6.2-9.61H44.14s-1.71 6.94-3.63 8.97c-1.92 2.03-3.53 3.31-5.56 3.2-1.82-.1-2.59-.49-3.53-.75-1.92-.55-2.95 1.63-2.03 2.34zM35.06 40.25c-.48.4-3.25 4.51-8.12 5.46-4.38.85-6.52-1.3-8.44-.44-.98.43-.63 1.78-.63 1.78S20.48 49.7 26 50.1c1.63.12 32.34.73 37.79.52s39.89-.12 41.28-.31c1.98-.27 3.91-2.58 4.23-2.9.32-.32.19-1.48-1.41-1.9-1.6-.43-2.75.83-6.71.41-4.82-.52-6.84-5.56-7.37-5.56-.53 0-58.11-.64-58.75-.11z"/><path style="fill:#546f7a" d="M63.66 40.62c-2.07-.11-9.34 10.56-15.67 15.87-7.27 6.09-13.79 10.68-13.79 10.68l31.41 4.17 29.27-3.85s-10.9-6.84-16.45-11.86-12.11-14.86-14.77-15.01z"/><path style="fill:#fff" d="M41.14 66.96s7.05-4.81 12.18-9.4 9.4-10.47 10.36-10.58 6.23 7.03 11.22 11.32c5.34 4.6 14 10.48 14 10.48l-25.85 2.14-21.91-3.96z"/><path style="fill:#b9ced3" d="M46.68 67.36s3.37-1.86 7.83-6.08c2.79-2.64 5.99-5.43 5.99-5.43s1.35 1.69 3.07 1.69 3.19-1.64 3.19-1.64 4.84 4.44 7.41 6.55c2.93 2.41 8.19 5.86 8.19 5.86s-17.67 2.5-17.67 2.24-18.01-3.19-18.01-3.19z"/><path style="fill:#385661" d="M18.3 66.06c-.45.72-4.47 6.44-7.56 7.72s-5.72.26-6.8.56c-1.09.3-1.17 1.58-1.17 1.58s1.07 1.18 6.51 1.38c5.44.2 42.17.43 53.65.54s51.95 1.04 55.71.73c3.76-.31 5.81-1.56 5.81-1.56s-.23-1.58-1.9-1.58-4.08.11-7.11-1.46c-3.03-1.56-6.71-6.78-8.28-7.3-.77-.26-22.13.04-43.6-.1-22.22-.14-45.02-.9-45.26-.51z"/><path style="fill:#89837c" d="M15.29 97.94s-3.17 9.17-4.63 12.77c-1.77 4.38-5.42 11.89-5.42 11.89l3.96 1.36 103.59.83 10.22-3.03s-4.69-6.68-8.03-13.56c-2.91-6-3.87-9.73-3.87-9.73l-95.82-.53z"/><path style="fill:#2f2f2f" d="M33.66 86.02h5.11v7.79h-5.18zM42.1 86.02v7.86h4.65v-7.86s-4.71.06-4.65 0zM56.96 86.02v7.92h5.05v-7.86zM65.08 86.02h4.71v7.92h-4.71zM80.53 86.08h4.84v7.79h-4.84zM88.52 86.08v7.73h4.71v-7.66zM57.69 60.35h2.64l-.04 6.21-2.66-.03s.11-6.24.06-6.18zM62.27 60.35l.01 6.24h2.75l-.01-6.19zM66.94 60.4h2.75l.02 6.2h-2.75s.09-6.09-.02-6.2zM52.78 31.81h4.69v5.45h-4.69zM62.16 31.87h4.26v5.45H62.1c.01-.01.17-5.45.06-5.45zM70.96 31.87h4.2v5.39h-4.31z"/><path style="fill:#fcc01e" d="M79.34 9.81h1.74s-.24 1.1-.5 1.73c-.41.99-.6 1.78-.09 2.5s2.96 1.52 5.21-.59c2.24-2.12.68-7.37 1.1-8.22s1.44-1.1 1.74-1.57-.42-2.58-2.58-2.63c-1.61-.03-2.5 1.36-2.5 1.36S82.26.8 81 .99c-1.69.25-2.75 2.12-2.67 2.58s2.33.55 2.08 2.75c-.22 1.83-1.07 3.49-1.07 3.49zM47.46 9.81h-1.82s.04 2.46 0 3.43c-.04.97-1.06 2.07-2.84 1.82-2.16-.3-2.92-2.29-2.8-5.12s1.2-3.74.72-4.87c-.47-1.1-1.74-.34-2.12-.59-.57-.38.21-3.08 2.63-3.25 2.09-.15 2.71 1.43 2.71 1.43S45 1.07 46.91 1.42c2.24.42 2.67 2.8 2.33 3.13-.34.34-1.4-.3-2.03.85-1.19 2.17.25 4.41.25 4.41z"/><path style="fill:#afa59e" d="M9.26 113.97s1.3 1.44 1.42 5.09c.12 3.65-.92 4.9-.92 4.9s-3.81.08-4.72 0-1.54-1.33-.51-2.8c1.03-1.47 4.73-7.19 4.73-7.19zM12.74 107.4c-.33.77-.2 2.22-.08 3.25.12 1.03.08 2.18 1.03 2.93.95.75 2.3.87 4.84.79 2.54-.08 3.13-.2 3.61-1.03.48-.83.36-4.56.44-5.27.08-.71-2.8-2.89-3.29-3.05-.6-.2-5.88.79-6.55 2.38zM12.83 104.9s5.74-1.11 5.82-2.1c.1-1.19-1.39-1.86-2.02-2.46-.63-.59-1.58-1.69-1.58-1.69l-2.22 6.25zM21.58 100.02c-.56.52-.95 2.42-.04 4 .9 1.57 1.94 2.42 3.49 2.46s1.9-3.01 2.18-4c.28-.99.51-1.76-1.19-2.26-2.14-.63-4.01-.59-4.44-.2zM16.67 97.93s.87 1.43 2.3 1.47c1.43.04 2.46-1.43 2.46-1.43l-4.76-.04zM28.97 98.01s-.17 1.22.39 2.06c.56.83.36 1.98 2.18 2.14 1.82.16 5.95.36 6.82-.12.56-.31.54-4.02.54-4.02l-9.93-.06zM34.27 103.2c-2.5.08-4.64.56-5.59 1.67-.95 1.11-1.47 2.42-2.46 3.89-.99 1.47-2.06 3.85-1.9 5.27.16 1.43 2.65 3.93 3.97 3.97 1.35.04 2.66-1.42 3.33-1.47.63-.04 1.99.96 2.97.79 1.43-.24 2.93-2.1 3.69-5.75.84-4.08.24-5.83.16-6.15-.09-.32-.64-2.34-4.17-2.22zM12.58 118.46c.13 1.55 2.02 4.72 3.45 4.88 1.84.2 3.7-1.63 3.85-2.62.2-1.35-1.55-4.88-3.81-4.64-1.32.14-3.65.44-3.49 2.38zM22.25 122.47c.37.53 3.01-.08 3.53-.28s1.98-1.15 1.86-1.74-2.22-2.34-3.37-2.22c-1.14.11-2.57 3.44-2.02 4.24zM28.78 124.11l9.3.08s1.27-.46 1.42-1.53-5.43-3.93-7.06-3.69c-1.63.24-2.66 1.23-3.09 2.46-.43 1.24-.57 2.68-.57 2.68zM38 118.03c-.07.99 2.74 2.93 3.37 2.93s3.09-3.21 3.37-4.88c.34-2.06-2.69-3.71-3.53-3.41-1.11.4-3.13 4.29-3.21 5.36zM47.71 99.32c0 .5-.99 2.05-1.14 2.53-.16.48.59 3.97-.36 4.44-.95.48-2.7-1.03-3.57-1.9-.87-.87-2.26-2.26-2.34-2.78-.08-.52.99-1.78 2.06-2.42 1.07-.63 2.49-1.09 2.49-1.09l2.15.01s.71.22.71 1.21zM41.05 106.77c-.49.34-.67 2.54-.36 3.33.32.79 1.78 1.82 2.46 1.74s2.06-1.74 2.02-2.97c-.04-1.23-3.37-2.62-4.12-2.1zM44.97 112.16c.04.75 1.51 2.82 1.98 2.93s2.14-.91 2.62-1.11c.48-.2 2.7.16 3.29-.59.59-.75-.71-3.25-1.11-3.93-.4-.67-1.55-1.86-1.94-1.82s-2.22.75-2.93 1.39c-.72.63-1.94 2.41-1.91 3.13zM52.67 98.24c-.49-.11-2.1 1.27-2.78 2.38s-1.55 2.18-1.31 3.01 4.54 3.19 6.26.99c2.78-3.52-1.66-6.26-2.17-6.38zM56.93 98.18s-.3.42.3 1.17c.59.75 1.7 3.45 3.33 3.37 1.63-.08 3.09-1.67 3.81-2.54.71-.87.79-1.97.79-1.97l-8.23-.03zM53.78 108.35c-.17.41.24 1.59.95 1.47.71-.12 1.11-.52 2.46-.52 1.35 0 1.98 1.51 3.13 1.39 1.15-.12 2.34-.99 2.74-1.82.4-.83.44-1.98.32-2.3s-2.1-1.63-4.2-1.51c-2.11.12-4.85 1.98-5.4 3.29zM56.16 112.12c-.94.57-1.23 1.55-1.11 2.1.12.56-1.35 1.86-.75 3.25.59 1.39 2.82 4.08 3.41 4.72.59.63 2.93.67 3.37.44.44-.24 3.09-2.7 3.37-3.61.28-.91-1.23-4-2.06-5.04-.84-1.03-4.33-3.01-6.23-1.86zM66.07 108.07c-.94.47-2.42 2.78-2.54 3.57s.52 2.74 1.82 2.26c1.31-.48 2.58-2.34 2.97-2.7.4-.36 2.5-1.77 2.5-2.62.01-1.1-4.27-.74-4.75-.51zM68.09 99.19c-.62.45-4.32 4.08-4.16 4.6.16.52 1.82 1.98 2.58 2.38.75.4 2.22.08 3.69.2 1.47.12 2.93.67 3.61.52.67-.16 3.33-1.31 3.09-3.21-.24-1.9-3.93-3.81-5.71-4.24-1.79-.45-2.66-.57-3.1-.25zM73.67 98.26s1.01 1.36 2.63 2.47 3.13 1.39 4.16.71c1.03-.67 2.54-3.13 2.54-3.13l-9.33-.05zM81.3 102.48c-.75 0-2.06 1.27-2.46 1.63-.4.36-.79.91-.52 1.35s2.62.63 3.13.12c.52-.52.64-3.1-.15-3.1zM83.24 103.79c.26 1.14 3.89 3.13 5.08 2.82 1.19-.32 3.17-2.82 3.21-3.53s-2.93-3.41-3.33-3.73c-.4-.32-3.25-.4-3.49-.04s-1.75 3.29-1.47 4.48zM75.66 109.38c-.13.78 1.67 2.85 2.5 3.89s.95 2.3 1.82 2.5c.87.2 2.78-.79 3.69-2.89.91-2.1 1.39-3.13.24-4.72-1.15-1.59-3.57-1.19-4.48-.99-.91.19-3.57 1.06-3.77 2.21zM92.56 99.83c-.52.32-.24 3.05.52 3.41.75.36 1.55.04 2.26-.44.71-.48 1.67-1.55 1.43-2.02-.25-.48-3.66-1.29-4.21-.95zM42.48 124.22s.04-.78 1.53-2.74 3.06-4.62 5.33-4.44 3.16 1.46 4.55 3.34c1.39 1.88 2.99 3.95 2.99 3.95l-14.4-.11zM63.74 124.4s2.14-2.23 2.95-2.13c.82.11.5.53 1.14 1 .64.46 1.56 1.17 1.56 1.17l-5.65-.04zM66.41 115.16c-.77.69-.81 3.05.21 4.48 1.32 1.85 3.88 3.73 5.08 4.27 1.21.53 2.49-1.35 2.42-2.42-.07-1.07-2.06-3.66-3.24-4.73s-3.51-2.45-4.47-1.6zM68.89 113.52c-.01.44 3.03 2.97 3.82 3.82.8.85 2.97 2.68 4.25 2.5 1.27-.19 1.86-1.43 1.59-2.63s-2.2-3.77-3.19-4.73c-.98-.96-2.34-1.62-3.05-1.59-.71.03-3.39 1.62-3.42 2.63zM82.78 116.84c-.2.22-3.51 3.67-3.8 4.41-.29.74.03 2.68.16 2.95s.28.33.28.33l1.41.01s1.58-2.11 2.43-3.17c.85-1.06 1.33-2.26 1.25-2.6-.08-.36-1.49-2.19-1.73-1.93zM85.68 121.28c-.52-.02-1.73 1.38-1.99 1.7-.27.32-1.06 1.57-1.06 1.57l5.41.04c-.01 0-1.51-3.29-2.36-3.31zM85.07 114.37c-.25 1.53.48 3.49 1.67 5.26 1.46 2.18 4.25 4.25 5.98 4.06 1.73-.19 3.82-2.47 4.44-3.93.61-1.46.77-3.75-.56-4.73-1.33-.98-2.5-.61-3.24-1.06-.74-.45-3.78-3.18-4.86-3.11-1.15.08-3.11 1.57-3.43 3.51zM91.28 108.85c.12 1.11.56 2.68 2.84 3.59 2.28.9 3.53.82 4.06.72.53-.11 4.04-2.68 3.64-4.04-.4-1.35-.82-1.89-2.9-1.97-2.07-.08-3.67-1.86-4.97-1.49-1.28.37-2.82 1.75-2.67 3.19zM96.33 103.88c-.09 1.25 1.57 1.23 2.76 1.22 1.13-.01 3.27-1.98 3.48-3.69.08-.61-1.44-1.29-2.26-1.41-.9-.13-3.93 3.14-3.98 3.88zM102.75 98.42s.76 1.15 2.32 1.87c1.57.72 2.36 1.43 3.37.98 1.01-.45 1.86-2.82 1.86-2.82l-7.55-.03zM102.81 104.92c.11 1.38 1.12 3.16 1.49 3.43.37.27 3.16.37 3.67.21.5-.16 1.73-2.71 1.91-3.05.19-.35-.21-1.89-.58-2.07-.37-.19-2.18-.66-2.36-.88-.19-.21-1.59-.64-1.94-.45-.35.18-2.29 1.53-2.19 2.81zM113.14 104.12s-1.17 2.15-2.26 3.42c-1.09 1.27-1.86 1.27-2.07 3s1.12 4.25 2.34 4.2 2.52-1.73 3.08-2.52c.56-.8 1.39-2.76 1.39-2.76s-1.02-2.05-1.31-2.69-1.17-2.65-1.17-2.65zM101.06 112.88c-.42.44-1.73 4.06-1.59 4.67.13.61 1.97 1.89 2.52 1.89s3.04-1.62 3.67-2.07c.66-.48 2.1-1.91 2.07-2.47-.03-.56-1.2-4.46-2.39-4.62-1.2-.16-3.64 1.94-4.28 2.6zM101.47 124.7s-1.25-2.76-2.9-2.84c-1.12-.05-2.96 2.78-2.96 2.78l5.86.06zM104 124.72s-1.43-1.5-1.32-2.54c.19-1.73 3.75-3.77 4.28-3.85.53-.08 2.47 1.94 2.76 2.82.29.88.35 2.05-.21 2.55-.56.5-1.35 1.06-1.35 1.06l-4.16-.04zM110.2 117.66c.13.76.9 2.39 2.34 2.66 1.43.27 3.82-.37 5.23-.77s2.75-1.56 2.75-1.56l-.81-1.3s-3.16-2.05-5.61-1.42c-2.44.64-4.06 1.44-3.9 2.39zM116.82 111.75s-1.52 1.03-1.2 1.72c.32.69 2.04 1.27 2.28 1.38s.86.27.86.27l-1.94-3.37zM122.97 121.69s-1.85-1.11-3.05-.87c-1.2.24-4.83 1.41-5.76 1.94s-1.67 2.03-1.67 2.03 10.38.68 11.28-.06c.9-.74-.8-3.04-.8-3.04z"/><path style="fill:#dcd2c7" d="M13.63 108.75c.15.81 1.38.96 2.69 1.7s1.88 1.52 3.26 1.38c1.38-.14 1.42-1.91 1.35-2.83s-.46-2.48-1.88-2.8c-1.41-.32-5.66 1.24-5.42 2.55zM26.99 109.53c-.28.92.21 2.34 1.17 2.2s3.97-3.08 5.03-3.65c1.06-.57 4.29-1.31 4.18-2.55s-3.7-1.73-4.85-1.31c-1.18.42-4.99 3.54-5.53 5.31zM41.01 101.35c.04.78.81 1.98 1.95 1.49s.89-.81 1.42-1.06c.53-.25 2.02-.6 1.7-1.63s-2.13-1.03-3.22-.57c-1.11.46-1.88 1.06-1.85 1.77zM49.62 101.31c-.28 1.14 1.42 1.28 2.27 1.17.85-.11 2.59.18 2.44-1.06-.14-1.24-1.24-1.77-2.3-1.74-1 .04-2.09.32-2.41 1.63zM46.22 112.08c.37.58 1.31.6 3.08-.67 1.77-1.28 2.51-1.59 1.81-2.51-.71-.92-2.13-.43-3.26.43-1.14.84-2.34 1.65-1.63 2.75zM57.2 106.91c-.02.69.6 1.52 2.44 1.66s2.69-.32 2.8-1.2-.89-1.42-2.3-1.63-2.91.11-2.94 1.17zM70.34 100.07c-.67-.03-3.19 1.81-3.75 2.48-.57.67-.39 1.84.71 1.91 1.1.07 2.55.04 3.83.11 1.28.07 2.55.18 3.12.04.57-.14 1.24-1.28.53-2.16-.72-.89-3.52-2.34-4.44-2.38zM56.84 112.79c-1.18.98-.49 2.73.53 3.75 1.24 1.24 3.68 1.88 4.5.85.81-1.03.18-3.01-1.45-4.25-1.45-1.1-2.73-1.06-3.58-.35zM70.05 113.11c.1.74.5 1.38 2.2 1.31 1.7-.07 2.13-1.1 1.95-1.84-.18-.74-1.36-1.05-2.09-1.03-1.06.04-2.2.5-2.06 1.56zM77.28 110.1c.77.77 1.81.74 2.41 1.1.6.35.43 1.42 1.84 1.06 1.42-.35 2.41-1.13 2.16-2.34-.25-1.2-.99-2.48-2.3-2.62-1.31-.14-3.54.46-3.97 1.03-.42.56-.5 1.41-.14 1.77zM86.1 114.67c.32.91 2.98 2.62 4.57 3.01s3.68.71 4.85.07c1.17-.64 1.24-2.16.11-2.48-1.13-.32-2.69-.11-3.19-.46s-2.23-3.12-3.4-3.08c-1.17.03-3.4 1.63-2.94 2.94zM93.15 107.94c-.05.72 1.42 2.8 3.72 2.98 2.3.18 4.04-1.56 3.72-2.48-.32-.92-2.3-.92-3.36-1.1-1.06-.18-1.95-1.13-2.55-.96s-1.46.53-1.53 1.56zM84.96 100.43c-.31.78-.89 1.95 1.31 2.44 2.2.5 2.83.04 3.19-.74s-.71-1.45-1.98-2.02c-1.28-.57-2.3-.21-2.52.32zM104.13 104.29c-.09 1.09 1.06 1.74 2.3 1.74s1.88-.67 1.95-1.49c.07-.81-.89-1.56-2.02-1.59-1.14-.04-2.13.1-2.23 1.34z"/></svg>