<svg width="128" height="128" xmlns="http://www.w3.org/2000/svg"><g fill="none"><path d="M116.382 51.32c-10.07-4.17-26.12 1.74-29.42 1.22-3.3-.52-3.82-2.95-9.38-2.95-5.56 0-9.9 3.65-9.9 3.65s-1.57-1.41-4.69-1.56c-3.65-.17-8.16 2.43-11.81 5.38-3.62 2.95-7.79 6.94-11.61 7.46-3.82.52-7.47.69-10.94-5.03-3.47-5.72-.87-14.41.35-17.19 1.22-2.78 5.03-7.64 5.03-7.64v-6.94l-5.9 2.78s-8.68 6.6-11.81 10.59c-3.13 3.99-12.33 15.28-8.16 35.07s15.62 22.92 15.62 22.92l-13.37.52-4.69 2.26s1.39 3.47 4.51 5.21c3.26 1.81 8.68 4.51 18.06 2.26 9.38-2.25 62.33-2.08 62.33-2.08s3.99 5.03 12.85 5.38c8.85.35 13-1.19 13.35-2.58.35-1.39-3.1-3.32-3.1-3.32l-9.55-2.08-8.51-5.56 18.4-23.78 8.33-7.64s1.41-4.83-.37-10.27c-1.06-3.31-2.86-4.93-5.62-6.08Z" fill="#6BA4AE"/><path d="M30.192 33.79s-6.52-6.68-6.94-13.72c-.39-6.41 1.6-7.96 2.47-7.61.87.35 1.52 2.57 3.08 3.96 1.56 1.39 5.38 4.34 6.42 5.9 1.04 1.56.52 5.03.52 5.03s3.99-1.22 6.6-.35c2.61.87 5.03 3.65 6.77 4.34 1.74.69 4.34.87 4.34 1.91s-5.03 3.99-10.94 3.99c-5.89.02-12.32-3.45-12.32-3.45Zm-4.86 21.7s3.82-1.04 5.56 1.91c1.74 2.95-.35 6.08-.35 6.08l-5.21-7.99Z" fill="#6BA4AE"/><path d="M53.892 77.73c-.61 1.69.38 3.6 2.21 4.26 1.83.66 3.81-.17 4.42-1.87.61-1.69-.45-3.43-2.21-4.26-2.18-1.03-3.81.18-4.42 1.87Z" fill="#2E302F"/><path d="M123.002 63.92s-2.25-1.34-5.21-1.34-8.31 1.41-13.23 3.24c-4.92 1.83-20.98 9.01-24.35 10.7-3.38 1.69-7.21 3.01-8.73 3.52-2.53.84-6.9 1.41-6.9 1.41s12.81-10.14 25.2-16.05c12.39-5.91 19.43-8.73 27.59-8.59 5.23.09 4.72.7 4.72.7s.91 3.74.91 6.41Z" fill="#FEE9C6"/><path d="M120.332 66.11c-3.66 0-12.46 2.06-16.33 3.52-6.34 2.39-16.75 7.46-22.1 9.43-5.35 1.97-20.27 6.62-29.14 11.83-8.87 5.21-13.09 11.26-15.91 13.51-2.82 2.25-6.19 4.65-6.19 4.65s18.72 11.26 41.81 6.48c23.09-4.78 32.23-23.24 33.92-25.63 1.69-2.39 6.19-10.28 8.17-12.39 1.97-2.11 6.84-7.86 7.83-9.86.89-1.83-2.06-1.54-2.06-1.54Zm-80.3 24.49c1.15.34 1.03 2.91-5.26 6.01-6.29 3.1-15.04 3.57-20.39 3.57-5.35 0-7.98 2.78-8.67 1.67-.69-1.11 1.03-3.53 7.48-4.07 5.63-.47 10.89.23 17.36-2.21 7.55-2.84 7.89-5.44 9.48-4.97Z" fill="#A5D0D6"/><path d="M98.692 99.14s4.88 3.94 8.45 4.69c3.57.75 7.23 1.13 9.01 3.1 1.78 1.97.66 3.19.66 3.19s-1.69-2.16-4.79-2.53c-3.1-.37-7.6-1.31-9.85-2.53-2.25-1.22-7.41-4.32-7.41-4.32l3.93-1.6Z" fill="#A5D0D6"/><path d="M66.692 87.13s-.28 3.28-6.38 8.45c-6.1 5.16-14.43 7.25-17.62 9.31-3.19 2.06-7.53 6.55-7.53 6.55l-1.88-1.03s4.55-5.16 9.2-7.91c3.62-2.14 9.95-4.29 13.98-6.92 4.04-2.63 5.98-4.34 6.92-5.47.94-1.13 3.68-4.39 3.31-2.98Z" fill="#DBECF7"/><path d="M62.752 102.43c-7.19 4.16-9.25 3.44-13.85 5.41-4.6 1.97-6.92 5.99-6.92 5.99l-2.6-.92s3.83-5.66 9-7.54c5.16-1.88 11.56-3.13 14.84-5.95 3.28-2.82 6.19-7.56 9.95-12.06 3.76-4.5 5.73-5.21 5.44-4.46-.28.75-3.1 4.41-5.07 7.6-1.97 3.2-5.44 8.83-10.79 11.93Zm43.07-18.68c-4.69 6.32-7.88 5.91-12.2 11.64-4.32 5.73-6.66 11.17-8.35 13.14-1.69 1.97-3.71 3.82-6.62 4.95a84.55 84.55 0 0 1-5.21 1.83s6.48-.12 11.73-3.68c5.26-3.57 6.42-9.5 10.3-14.55 2.82-3.66 5.06-5.32 7.46-7.25 4.79-3.85 7.09-8.7 8.45-11.68 2.35-5.16 7.02-8.94 5.51-8.47-1.5.47-3.47 2.67-5.3 5.09-2.57 3.4-3.61 6.07-5.77 8.98Zm.29-11.17s-.47 6.29-5.26 11.07-9.2 3.57-12.01 7.13c-2.81 3.56-4.32 13.42-10.04 17.93-5.73 4.5-7.13 2.53-12.29 4.41-5.16 1.88-5.03 3.67-5.03 3.67l-3.17-.14s1.45-3.6 6.61-5.29 8.34-.86 12.37-4.71c4.04-3.85 6.29-12.67 9.48-16.99 3.19-4.32 9.67-4.32 12.76-7.79 4.41-4.93 6.01-10.91 6.58-9.29Z" fill="#DBECF7"/><path d="M81.702 88.72c-3.05 3.86-3.19 10.32-8.26 14.92s-10.57 4.26-14.51 5.95c-3.94 1.69-7.87 6.41-7.87 6.41l-3.24-.7s2.76-3.63 9.7-7.47c5.92-3.27 9.44-1.38 13.85-5.41 4.41-4.04 4.5-10.03 8.35-15.02 3.85-4.97 8.92-5.54 11.92-7.13 2.58-1.37 6.43-7.56 5.73-5.16-.43 1.45-1.88 5.07-4.88 7.23s-7.59 2.35-10.79 6.38Z" fill="#DBECF7"/></g></svg>