<svg width="128" height="128" xmlns="http://www.w3.org/2000/svg"><g fill="none"><path d="M117.107 56.62c.18 0 .37-.05.54-.15l5.83-4.1c.51-.3.68-.96.38-1.47-.3-.51-.96-.69-1.47-.38l-5.83 4.11c-.51.3-.68.96-.38 1.47.21.33.57.52.93.52Z" fill="#6BA3AB"/><path d="M126.127 57.47c.58 0 1.06-.46 1.07-1.04.02-.59-.45-1.09-1.04-1.1l-8.61 1.12c-.6-.03-1.09.45-1.1 1.04-.02.59.45 1.09 1.04 1.1l8.61-1.12h.03Zm-1.08 5.71a1.075 1.075 0 0 0-.11-2.02l-7.66-2.27a1.076 1.076 0 0 0-.62 2.06l7.66 2.27c.25.07.51.05.73-.04Z" fill="#6BA3AB"/><path d="M41.017 97.6s5.82-1.28 10.35 0c4.53 1.28 6.49 4.53 5.67 6.42-.76 1.74-6.19-.15-11.78-.15-5.59 0-15.26-.23-16.92-1.28-1.66-1.06-.3-7.18-.3-7.18l12.98 2.19Zm47.59-.22s1.28.6 2.64 1.74c1.44 1.2 3.17 2.87 2.04 4.31-1.13 1.44-3.4.6-3.4.6s.3 1.13-1.96 1.59c-2.27.45-7.18-2.42-7.18-2.42l7.86-5.82Z" fill="#FDD3B1"/><path d="M20.927 81.66s-4.76.45-10.5 4.53c-5.43 3.86-11.75 10.93-9.14 21.45 2.64 10.65 14.43 16.69 28.93 15.86 13.89-.8 28.28-9.4 35.81-8.84 12.16.91 15.79 7.86 16.85 7.33 1.06-.53-.53-8.91-10.65-11.94-8.37-2.5-15.41-1.06-24.85 1.89-9.44 2.95-29.16 7.95-35.96-2.79-7.4-11.71 4.83-16.39 8.61-18.21 3.77-1.8.9-9.28.9-9.28Z" fill="#FDD3B1"/><path d="M74.027 34.15s-.19-2.44 1.28-5.14c1.18-2.17 3.02-4.91 8.01-5.36 11.15-1.01 13.92 11.41 14.05 14.65.15 3.78-.98 8.38-.98 8.38l-16.69-1.81-5.67-10.72Zm11.33 43.59s.37 9.24.53 11.94c.3 5.14 3.85 5.51 4 7.86.23 3.52-5.44 1.74-5.44 1.74l-10.65-13.45 11.56-8.09Z" fill="#6DA3AF"/><path d="M71.007 91.63s14.43 9.37 13.14 10.42c-1.06.87-2.6 1.69-5.06 1.44-2.87-.3-9.9-3.02-12.46-5.44-1.67-1.57-3.25-4.23-3.25-4.23s-4.61 1.36-7.78 1.51c-3.17.15-7.86-.23-7.86-.23s-7.48 8.91-18.66 6.42-11.26-12.84-11.26-12.84l10.73-21.14 22.28-9.44 20.18 20.77v12.76Z" fill="#6DA3AF"/><path d="M67.607 54.92s-4.37-2.62-6.95-6.82c-2.19-3.56-2.93-8.35-.3-12.82 2.78-4.72 7.79-5.62 11.63-4.54 7.22 2.03 8.31 9.6 8.31 9.6s2.19-1.81 7.03-1.74c4.83.08 10.95 2.12 16.24 5.29 5.29 3.17 6.35 4.91 10.05 6.72 3.7 1.81 5.74 1.89 5.89 3.85.15 1.96-.6 4.76-3.55 7.71-2.95 2.95-8.84 4.83-10.95 5.51-2.11.68-4.83 1.89-7.78 2.12-2.95.23-5.06.23-5.06.23s-.98 3.1-4.23 7.1c-3.25 4-8.91 8.84-8.91 8.84s.83 5.59 1.89 7.1c1.06 1.51 6.42 5.14 4.31 8.01-2.11 2.87-7.18.68-11.1-1.13s-5.44-2.19-7.25-4.46c-1-1.25-2.42-4.15-2.42-4.15s-2.64.91-6.95 1.59c-4.31.68-7.71.38-7.71.38s7.4-8.76 6.87-16.39c-.53-7.63-5.14-13.52-9.44-14.13-4.31-.6 1.98 4.85 3.17 7.18 1.51 2.95 4.08 10.12-.53 17.45s-12.76 13.27-20.77 11.94c-7.71-1.28-11.41-6.27-11.71-13.14-.21-4.69.23-18.89 5.59-26.44 5.36-7.55 12.97-12.36 24.75-11 10.19 1.15 19.88 6.14 19.88 6.14Z" fill="#B5C2C8"/><path d="M65.797 37.17c3.59-3.05 8.86-.05 10.12 4.78 1.26 4.83-.44 8.92-6.95 6.3-5.49-2.22-6.2-8.51-3.17-11.08Zm52.52 22.21-4.13-4.03s.81-1.56 2.97-2.27 2.72.81 2.57 3.03c-.15 2.21-.95 3.12-1.41 3.27Z" fill="#FFD3B0"/><path d="M90.507 54.84c1.04 1.8 2.68 2.47 4.14 1.94 1.36-.49 1.43-2.76.39-4.56-1.04-1.8-2.39-2.63-4.17-2.01-1.36.48-1.39 2.83-.36 4.63Z" fill="#2D2B2E"/><path d="M76.567 63.91c-1.04 1.71 3.01 4.37 5.84 5.59 5.29 2.27 9.77 2.57 17.63.96 7.24-1.49 12.44-4.18 15.36-6.6 1.93-1.6 3.02-3.22 2.77-3.88-.66-1.71-2.75 1.37-4.08 2.37-2.97 2.22-6.06 3.09-7.72 3.16-3.21.12-6.43-2.15-7.44-1.09-1.91 2.01 3.83 3.02 3.83 3.02s-6.35 1.91-10.53 1.41-8.61-2.06-10.83-3.53c-2.21-1.46-4.12-2.57-4.83-1.41Z" fill="#6BA3AB"/><path d="M113.437 55.5c-.79 1.01 1.31 2.72 2.22 3.47.91.76 2.01 2.17 2.52 1.01.5-1.16.3-1.51-1.41-3.07-1.72-1.56-2.43-2.57-3.33-1.41Z" fill="#2D2B2E"/></g></svg>