<svg width="128" height="128" xmlns="http://www.w3.org/2000/svg"><g fill="none"><path d="M107.766 45.67c.04 0 .08 0 .12-.01.06-.01 1.56-.18 4.11-.64 2.78-.51 4.61-.72 4.63-.72.6-.07 1.04-.61.97-1.22-.07-.6-.62-1.04-1.22-.97-.08.01-1.92.22-4.78.74-2.47.45-3.95.62-3.96.62-.6.07-1.04.61-.97 1.22.07.56.55.98 1.1.98Zm8.92 4.41c.55 0 1.03-.41 1.09-.97a1.1 1.1 0 0 0-.97-1.22c-.03 0-2.81-.33-4.22-.56-1.46-.23-4.74-.75-4.74-.75l-.34 2.17 4.73.75c1.46.24 4.2.56 4.32.57.05 0 .09.01.13.01Zm-1.73 4.6c.48 0 .92-.31 1.06-.8.17-.58-.17-1.19-.76-1.36l-7.88-2.25a1.102 1.102 0 0 0-.6 2.12l7.88 2.25c.09.02.2.04.3.04Z" fill="#888071"/><path d="m74.176 84.41 10.84 8.31s-.42 17.32-.14 18.02c.28.7 4.08 5.07 3.66 7.6-.33 1.97-1.83 2.67-5.91 2.82-4.08.15-12.39-1.69-12.39-1.69l3.94-35.06Zm-31.82 6.61 8.02 4.5s-1.13 3.38-1.13 8.17.42 7.79.7 8.78c.28.99 2.63 2.86 2.39 5.58-.11 1.26-1.69 2.25-4.5 2.11-2.81-.14-6.9-.42-6.9-.42l-4.08-26.61 5.5-2.11Z" fill="#B85C3E"/><path d="M94.206 27.81s1.31-4.6.19-11.92c-1.13-7.32-3-11.17-4.79-11.36-1.78-.19-5.16 3.19-7.79 7.23-2.63 4.04-4.79 11.17-4.79 11.17l17.18 4.88Zm-30.59 69.45s-.09 8.45-.28 12.2c-.19 3.75-.01 12.08.75 13 1.17 1.41 2.35 1.45 4.88 1.55 1.51.06-.47-9.29-.47-9.67 0-.38-.09-22.81-.09-22.81l-4.79 5.73Z" fill="#FB8B02"/><path d="M88.676 68.08s2.25 7.13 1.69 12.48c-.56 5.35-3.66 12.11-6.76 14.83-3.1 2.72-5.91 4.13-6.19 4.79-.28.66-1.41 9.95-1.03 11.92.38 1.97 3.1 7.04 2.63 9.01-.47 1.97-2.33 3.21-7.13 3.1-6.24-.14-5.91-1.08-6.38-4.97-.32-2.62.09-20.74.09-20.74s-3.85.38-9.29 0c-5.44-.38-12.2-2.82-12.2-2.82s-3.85 12.01-2.53 15.67c1.31 3.66 3.47 5.73 3.1 8.26-.38 2.53-3.66 3.66-7.7 3.28-4.04-.38-7.13-3-7.32-6.48-.19-3.47-.09-22.71-.66-24.21-.56-1.5-2.63-6.66-2.44-11.83.19-5.17.56-7.23.56-7.23s-4.85-1.85-9.34-5.25c-3.42-2.59-5.99-6-7.36-11.08-2.25-8.35.84-16.61 7.04-19.43 5.96-2.71 11.83-1.69 12.01 2.63.18 4.32-3.66 3.38-6.57 4.5-2.91 1.13-6.19 6.29-2.72 11.36 3.47 5.07 9.57 6.66 11.45 6.85 1.88.19 5.35-2.72 12.58-2.91 7.23-.19 17.64 5.07 17.93 4.41.28-.66-10.32-7.51-11.07-16.42-.7-8.26 1.03-12.11 1.03-12.11s1.31-13.98 3.19-20.55 4.48-11.45 6.17-11.35c1.69.09 7.13 6.01 9.1 8.92 1.97 2.91 4.13 7.6 4.13 7.6s8.4-.31 12.11 1.03c3.38 1.22 7.23 3.28 9.67 7.13 2.44 3.85 3.19 6.1 4.32 6.66 1.13.56 6.48 1.69 6.95 2.35.47.66 1.69 9.39 1.41 10.7-.28 1.31-.5 4.37-2.06 6.1-1.78 1.97-6.71 5.3-10.61 7.79-3.77 2.4-7.43 4.32-7.8 6.01Z" fill="#FFB800"/><path d="M54.086 77.27c-3.47-.05-3.38-4.22-3.43-9.39-.04-4.52.14-7.18.14-7.18s1.99.27 3.75.94c1.74.66 3.24 1.27 3.24 1.27v7.27c.01 2.49-.27 7.14-3.7 7.09Zm-6.1-17.22s0 4.36-.05 8.07c-.05 3.99.33 8.31-3.66 8.26-3.43-.04-3.43-4.41-3.47-9.34-.02-2.58-.09-6.99-.09-6.99s1.69-.33 3.71-.28c1.59.04 3.56.28 3.56.28Z" fill="#FF9B31"/><path d="M82.656 41.02c.73 1.77 2.3 4.3 4.89 3.64 1.66-.42 1.78-3.99.81-6.11-1.15-2.5-2.68-3.63-4.47-3.42-1.97.24-2.16 3.62-1.23 5.89Zm17.14-.54c.05-1.13 2.96-1.92 5.21-2.77 1.91-.71 2.96-.75 3.47-.28.51.47 1.13 1.69 1.41 3.57s.18 5.06-.28 7.04c-.47 2.02-1.22 4.55-4.55 5.87-2.86 1.13-4.55-.42-5.77-1.27-1.55-1.07-.88-3.61 1.31-2.3 1.64.99 2.77 1.27 4.04.33 1.74-1.29 2.16-5.11 2.02-5.44-.61-1.43-3.05-1.78-4.04-2.16-.99-.38-2.87-1.6-2.82-2.59Z" fill="#2C312C"/><path d="M80.126 50.45h.08c.03 0 3.19-.23 5.16-.28l5.63-.14s1.18.1 1.18-1.06c0-1.23-1.23-1.04-1.23-1.04l-5.63.14c-2.02.05-5.13.27-5.26.28-.58.04-1.01.55-.97 1.12.04.56.5.98 1.04.98Zm1.79 6.85c.15 0 .31-.03.45-.1.02-.01 2.51-1.2 4.76-1.97 2.34-.79 4.96-1.64 4.96-1.64.55-.18.86-.77.68-1.32-.18-.55-.77-.86-1.32-.68 0 0-2.64.85-4.99 1.65-2.38.81-4.89 2.01-5 2.07-.52.25-.74.88-.49 1.4.18.37.56.59.95.59Zm5.11 3.9c.2 0 .41-.06.59-.18.02-.01 1.78-1.21 2.96-1.94 1.23-.75 3.44-2.17 3.44-2.17s.99-.58.35-1.5-1.48-.28-1.48-.28-2.2 1.4-3.41 2.15c-1.23.75-2.97 1.95-3.05 2-.48.33-.6.98-.27 1.46.21.3.54.46.87.46Z" fill="#888071"/><path d="M63.116 12.33c.48-.17 3.59 3.45 5.14 7.04 1.55 3.59 2.11 5.56 1.97 6.19-.06.28-1.85 1.83-4.5 3.94-2.75 2.18-4.5 3.52-5.28 3.45-.77-.07-.99-6.05-.35-11.47.64-5.42 2.25-8.87 3.02-9.15Z" fill="#FED0AB"/></g></svg>