<svg width="128" height="128" xmlns="http://www.w3.org/2000/svg"><g fill="none"><path d="M96.572 25c.28-.14-1.69-2.6-2.39-3.8-.7-1.2-1.27-3.1-2.75-2.96-1.48.14-1.62 2.75-1.55 3.87.14 2.25 1.41 4.79 1.41 4.79l5.28-1.9Z" fill="#FFBD16"/><path d="m37.372 73.92 41.91 7.72s-.45 2.7-1.22 5.73c-.77 3.03-3.66 11.68-3.52 15.27.14 3.59 2.89 10.84 1.9 12.39-.99 1.55-4.58 1.48-6.69.99-2.11-.49-4.32-2.02-4.6-2.93-.28-.91.38-9.03.31-10.93-.07-1.9-.49-5.56-1.2-8.38-.7-2.82-1.13-7.95-1.13-7.95l-10.21-5.21s-7.11 5.42-9.08 8.31c-1.97 2.89-3.45 9.08-3.38 11.61.07 2.53 1.74 9.79.66 11.1-1.34 1.62-4.56 1.83-6.66 1.64-2.58-.23-4.83-1.64-4.83-1.64V81.31l7.74-7.39Z" fill="#ADADB8"/><path d="M10.482 81.59c1.69-.07 3.23 6 2.75 8.66-.7 3.87-3.52 5.21-4.43 6.48-.92 1.27-1.45 2.84-2.53 3.31-1.13.49-2.44-4.92-2.32-9.08.13-5.15 4.25-9.27 6.53-9.37Z" fill="#4D4D4D"/><path d="m43.282 81.87 5.42 5.07s-2.49 2.8-4.5 4.22c-2.39 1.69-4.65 1.97-4.65 1.97s.49 4.01-1.9 4.36c-2.23.33-2.04-4.08-2.39-4.15-.35-.07-1.06 3.24-2.96 3.17-1.9-.07-5.42-7.46-5.42-7.46L31.252 78l12.03 3.87Z" fill="#FEA8A7"/><path d="M83.382 29.08c-.14-.35 1.41-1.69 2.89-2.67 1.48-.99 4.36-1.34 4.36-1.34l12.88 6.26 7.81 7.56s3.28 2.3 4.69 3.28c1.41.99 3.73 2.56 4.93 3.33 1.2.77 2.18 1.2 2.39 2.11.21.91-4.34 8.28-4.34 8.28l-2.39 1.76-5.7-.49s-7.6 3.52-11.12 4.79c-3.52 1.27-11.54 3.87-11.54 3.87s-1.48 4.01-2.46 6.26c-.99 2.25-2.98 5.37-2.98 5.37l-20.67 9.97s-1.97 7.81-2.32 9.85c-.35 2.04-.77 7.74-.63 10.49s.72 7.27.63 8.45c-.09 1.31-1.28 2.95-3.03 3.24-2.89.47-6.34-.56-7.81-2.6-1.47-2.04.35-7.67.56-10 .21-2.32 1.21-7.63.49-9.36-1.2-2.89-2.39-6.55-2.6-7.81-.21-1.27-.7-3.31-.7-3.31s-3.8.07-6.9-.35c-3.1-.42-6.19-1.06-6.19-1.06s-.99 4.15-1.13 6.69c-.14 2.53-.63 7.53-.56 11.47.07 3.94 1.41 8.73.99 9.71-.42.99-1.27 2.72-5.21 2.18-4.17-.57-5.16-2.75-5.58-3.73-.42-.98-.96-9.71-1.53-11.97-.56-2.25-2.39-11.12-3.38-14.15-.99-3.03-4.65-14.36-4.65-14.36s0 4.72-.28 6.62c-.28 1.9-.84 5.98-1.97 5.84-1.13-.14-.77-3.52-.84-5.77-.07-2.25.07-5.42-.77-8.09-.84-2.67-1.63-6.9-1.69-7.39-.52-3.99.07-8.66.14-9.43.07-.77 5.7-4.43 5.7-4.43s-.14-2.93.21-3.36c.35-.42 5.49-4.32 7.09-4.65 2.67-.55 5.37.4 5.37.4l14.91 11.06 27.17-11.12s2.67-.07 3.52-.07c.84 0 4.86-1.69 4.86-1.69l4.65-4.29 2.73-5.35Z" fill="#DFDFDF"/><path d="M20.412 60.83c.58-5.25-1.62-10.14-2.96-12.25-1.34-2.11-2.84-4.06-3.21-4.62-.35-.52-7.23 5.58-7.04 8.45.03.5.94 6.48 1.88 9.24.76 2.25 2.65 7.81 3.28 8.02.63.21 7.34-2.51 8.05-8.84Zm.21 6.96c1.88-.05 3.31 1.83 5 3.73s3.03 3.38 2.75 5.28c-.28 1.9-2.39 5-6.26 4.58-3.87-.42-4.93-4.36-5-6.76-.08-2.39.69-6.76 3.51-6.83Zm25.1-27.64c9.64.14 21 .09 22.2.38.7.16-1.76 8.61-5.91 12.98-4.15 4.37-17.07 19.94-26.61 15.84-6.55-2.82-5.28-12.04-6.34-16.82-1.06-4.79-5.87-12.27-5.87-12.27s14.72-.22 22.53-.11Zm21.5-14.73c-.84 1.15 3.66 7.67 5.14 9.36 1.48 1.69 4.43 3.66 4.43 3.66s-2.49.94-2.91 1.29c-.42.35-3.82 6.59-3.85 8.35-.05 3.05 6.48 10.84 9.5 10.77 3.03-.07 10.35-4.93 11.33-6.26.99-1.34 2.25-13.02.77-16.82-1.48-3.8-4.36-6.76-5.21-6.9-.85-.14-1.9.14-1.9.14s-3.38-2.46-8.45-3.38c-5.07-.92-8.29-.98-8.85-.21Z" fill="#4D4D4D"/><path d="M82.562 36.82c.49-.56-.71-4.59-4.01-6.97-3.52-2.53-7.25-2.46-7.88-1.97-.7.54 1.45 4.52 4.15 6.55 3.38 2.53 7.25 2.96 7.74 2.39Z" fill="#FFD1B3"/><path d="M111.142 44.78s-4.22-8.45-7.53-10.84c-3.31-2.39-6.73-3.28-9.64-4.29-4.43-1.55-6.12-4.86-6.12-4.86s5.91-1.34 10.84.14c3.63 1.09 7.32 3.45 8.87 5.35 1.55 1.9 2.56 5.32 3.66 7.11 1.34 2.18 4.55 4.58 4.55 4.58s-1.1.23-2.39 1.08c-.55.35-2.24 1.73-2.24 1.73Z" fill="#4D4D4D"/><path d="M90.022 26.41c-.16.57-.61 1.82-1.62 2.53-1.19.85-3.04 1.09-4.22.63-2.18-.84-2.93-5.7-3.1-7.18-.28-2.53.14-4.65 1.48-4.43.91.14 3.59 3.49 4.36 4.08 1.2.92 3.67 2.32 3.1 4.37Z" fill="#FFBD16"/><path d="M101.052 37.95c-.52-.23-1.27-1.88-2.77-1.74-1.5.14-2.68 1.9-2.21 3.89.47 1.97 1.7 2.57 3.05 2.3 1.17-.23 1.74-1.55 1.97-1.74.23-.19 2.58-.42 2.53-1.41-.04-.97-2.57-1.3-2.57-1.3Z" fill="#1B1B1B"/><path d="M120.242 55.59c.42.52-.43 2.18-2.25 2.82-2.23.77-3.73.73-5.37.31-1.32-.34-2.56-1.15-2.56-1.15s-2.64-1.01-1.48-2.37c1.6-1.88 3.59 1.1 3.59 1.1s1.34.82 3.78.49c1.9-.26 3.17-1.95 3.17-1.95l1.12.75Z" fill="#4D4D4D"/><path d="M114.572 50.2c-.19-.97-.49-1.66 2.11-2.44 2.67-.8 5.21-1.22 6.29-.7.55.26 1.22 3.1-.28 5.96-.85 1.62-2.49 4.41-3.28 4.08-.79-.33-2.23-2.75-2.67-3.33-.63-.8-1.85-1.93-2.17-3.57Z" fill="#FCA4A7"/><path d="M116.212 49.73c.04 1.36 2.11 2.77 4.55 2.06s2.86-2.49 2.72-3.52c-.14-1.03-2.02-.05-3.24.19-1.22.24-4.08-.19-4.03 1.27Z" fill="#FFD3AF"/><path d="M57.362 69.53c2.2.5 4.32 4.27 4.08 7.41-.21 2.77-2.51 6.18-6.19 6.57-3.52.38-6.1-2.86-6.01-5.77.07-2.16 2.46-3.32 3.8-4.93 2.16-2.58 2.87-3.61 4.32-3.28Zm24.59-.56c1.13.47 1.5 2.39 1.69 3.57.19 1.18 0 3.43-.56 4.6-.56 1.17-3.71 6.24-4.6 6.95-.89.7-4.93 2.44-9.48 3.1-4.55.66-6.95.42-6.95.42s1.27-2.58 2.25-4.97c.99-2.39 2.39-6.48 4.27-8.68 1.88-2.2 11.34-5.84 13.38-4.99Z" fill="#4D4D4D"/></g></svg>