<svg width="128" height="128" xmlns="http://www.w3.org/2000/svg"><g fill="none"><path d="M100.283 53.34s-1.67-18.16-23.03-28.02c-24.95-11.52-50.69 4.77-57.49 24.57-5.81 16.91.67 34.36 7.2 40.12 6.53 5.76 15.16 20.54 42.23 19.39 27.06-1.16 36.47-41.47 31.09-56.06Z" fill="#A05D43"/><path d="M78.783 102.48c-3.95 4.1-15.93 7.1-26.68 3.65-10.75-3.45-11.32-6.72-11.32-6.72s16.12 5.18 25.91.77 15.36-23.03 15.36-23.03 6.91 14.77-3.27 25.33Z" fill="#D27856"/><path d="M106.043 50.61c2.17 1.63 4.03 4.89 5.18 7.05 1.15 2.16 1.44 4.46 5.18 6.77 3.74 2.3 6.91 1.3 7.92 2.3 1.01 1-.43 4.75-5.04 5.33-4.61.58-6.62-.72-6.62-.72s-.43 10.65-.43 16.41-3.17 28.2-21.31 31.53c-14.64 2.69-22.89-.91-26.92-3.07-6.92-3.71-8.78-6.14-13.68-7.73-4.89-1.58-7.98.02-13.2-2.06-5.76-2.3-6.91-8.06-10.36-10.65-3.45-2.59-6.29-1.87-9.6-4.61-3.31-2.74-2.59-5.57-8.01-10.32-2.07-1.81-4.46-3.31-5.04-4.89-.58-1.58 7.77-2.02 9.79-2.02 2.02 0 4.82.07 4.82.07s1.08 4.39 2.38 7.13c1.3 2.74 10.51 15.12 13.39 16.41 2.88 1.3 4.8 1.3 6.29 1.87 1.49.58 9.41 4.61 12.72 5.04 3.31.43 13.93 2.9 20.01-3.41 5.09-5.28 6.33-12.28 6.62-16.17.29-3.89.29-14.11.29-14.11s-1.73 2.06-7.39 2.06c-3.46 0-6.14-3.62-5.47-4.89.86-1.63 4.77-1.13 6.62-2.21 2.3-1.34 4.61-4.89 5.18-6.53.54-1.52 1.87-5.33 4.22-7.49 2.42-2.22 5.85-4.03 11.52-3.93 5.18.09 8.06.68 10.94 2.84Z" fill="#E9BB91"/><path d="M84.303 54.21s-2.3-22.6-2.59-26.2c-.29-3.6-1.73-12.09-1.73-14.54 0-2.45.72-6.62 5.04-7.05 4.32-.43 5.76 4.89 5.9 8.49.14 3.6 1.73 34.55 1.73 34.55l6.19-.14s-.14-19.43-.29-23.46c-.14-4.03-.14-10.94-.14-12.38 0-1.44 0-7.49 5.47-7.2 5.47.29 4.89 6.62 5.04 8.64.15 2.02-.86 16.55-1.01 19.43-.14 2.88-1.44 18.86-1.44 18.86l-22.17 1Z" fill="#E9BB91"/><path d="M95.483 60.35s1.82 3.93 4.41 3.93 2.59-2.21 3.93-1.34c1.34.86.58 4.8-2.88 5.47-3.45.67-5.47-1.25-5.47-1.25s-2.07 1.44-4.03 1.44c-2.5 0-5.28-3.65-4.22-5.28 1.06-1.63 2.88 1.25 4.61 1.15 1.73-.09 3.65-4.12 3.65-4.12Zm-25.97-34.28c4.65 1.4 6.52 3.35 7.92 4.67 1.4 1.32 1.92 4.34.27 6.09s-4.57 1.18-6.12.08c-1.55-1.1-3.01-2.21-5.37-2.87-2.35-.66-5.89-.83-6.97-1.43-1.08-.59-1.86-2.31-1.49-4.12.37-1.82 1.36-2.86 4-3.32 1.96-.34 4.68-.03 7.76.9Zm-15.01 2.61c0 1.34-.38 2.4-2.88 2.69-2.79.32-3.84-1.06-3.74-2.5.1-1.46.77-2.3 2.78-2.69 2.02-.38 3.84.48 3.84 2.5Z" fill="#D27856"/><path d="M82.053 16.39c.49 4.1 1.75 7.14 3.84 6.91 3.02-.34 2.98-3.74 2.98-7.87 0-3.87-1.14-6.9-4.13-6.57-2.86.31-3.15 3.69-2.69 7.53Zm18.12-.38c.12 4.13 1.36 6.85 3.29 7.01 2.29.19 3.61-3.55 3.73-7.58.11-3.87-.71-6.39-3.53-6.57-3.31-.23-3.6 3.27-3.49 7.14Z" fill="#2E2C2F"/><path d="M39.723 92.59c5.94-.33 14.78-5.95 15.07-22.55.29-16.6-6.15-23.86-13.24-22.65-6.72 1.15-7.87 10.17-7.1 16.41.77 6.24 2.59 13.34 6.72 11.32 4.13-2.02 1.92-9.69 1.06-11.52-.86-1.82-2.11-3.93-.86-5.18 1.25-1.25 4.03.29 5.18 2.59 1.15 2.3 3.55 7.77 1.25 15.07-2.3 7.29-11.8 8.16-15.55.77-3.74-7.39-4.61-21.21-1.34-27.64 3.26-6.43 13.92-13.63 24.18-1.82 9.92 11.41 6.24 31.57 3.84 37.52-2.4 5.95-7.49 13.15-17.56 14.4-10.07 1.25-18.62-10.65-19.29-11.71-.67-1.06-3.26-4.51-.96-6.48 2.3-1.97 4.89 2.54 5.57 3.5.65.97 6.12 8.36 13.03 7.97Z" fill="#4F352E"/></g></svg>