<svg width="128" height="128" xmlns="http://www.w3.org/2000/svg"><defs><linearGradient x1="56.201%" y1="1.312%" x2="43.961%" y2="104.323%" id="a"><stop stop-color="#B3875D" offset="30.6%"/><stop stop-color="#A87C5B" offset="56.7%"/><stop stop-color="#916656" offset="92.6%"/></linearGradient><linearGradient x1="54.118%" y1="-2.246%" x2="46.006%" y2="102.803%" id="b"><stop stop-color="#B3875D" offset="47.6%"/><stop stop-color="#A4785A" offset="73.5%"/><stop stop-color="#916656" offset="98.5%"/></linearGradient><linearGradient x1="45.358%" y1="100.201%" x2="53.092%" y2="-1.906%" id="c"><stop stop-color="#865B52" offset="0%"/><stop stop-color="#FEAF5F" offset="54.5%"/></linearGradient><linearGradient x1="23.017%" y1="99.445%" x2="68.645%" y2="16.217%" id="d"><stop stop-color="#865B52" offset="0%"/><stop stop-color="#9F6C55" offset="13.6%"/><stop stop-color="#DD985B" offset="42.1%"/><stop stop-color="#FEAF5F" offset="56%"/></linearGradient><radialGradient cx="-11.311%" cy="119.996%" fx="-11.311%" fy="119.996%" r="145.188%" gradientTransform="matrix(1 0 0 .8992 0 .121)" id="e"><stop stop-color="#865B52" offset="22.6%"/><stop stop-color="#895D52" offset="28.5%"/><stop stop-color="#946554" offset="33.6%"/><stop stop-color="#A67255" offset="38.5%"/><stop stop-color="#C08358" offset="43.2%"/><stop stop-color="#E09A5C" offset="47.7%"/><stop stop-color="#FEAF5F" offset="51.2%"/></radialGradient></defs><g fill="none"><path d="M112.038 18.55s3.18-7.15 5.26-6.55c2.08.6.3 10.03.3 10.03l-5.56-3.48Z" fill="#FEAF5F"/><path d="M28.138 56.28s-3.77-1.29-6.45 2.38-1.6 7.93-5.19 12.87c-2.26 3.1-5.07 2.26-7.99 1.42-2.99-.85-5.26-.94-5.36.99-.03.58.73 4.22 3.97 7.55 3.57 3.67 8.39 6.25 15.58 3.43 6.58-2.58 8.42-11.17 8.42-11.17l-2.98-17.47Zm43.19-11.62s-7.8-4.65-6.25-9.23c1.64-4.85 7.64-.69 8.94-2.28 1.43-1.76-5.86-6.16-1.69-10.72 4.17-4.56 8.61 1.9 10.13.1 1.49-1.77-3.47-5.56-.3-9.43 3.17-3.87 8.54-.2 10.13.99 1.17.88 3.38 2.48 6.16 3.08 2.78.6 7.25-1.09 11.12-1.09 3.87 0 9.63 2.58 10.82 7.64 1.19 5.06 1.89 7.45 2.78 7.84.89.39 3.38 0 3.47 1.79.09 1.79-2.38 2.28-5.76 2.08-3.38-.2-8.14-2.58-10.13-5.06-1.99-2.48-3.67-6.25-3.67-6.25l-35.75 20.54Z" fill="#865B52"/><path d="M27.412 61.213s-5.26 3.28-7.94 4.07c-2.68.79-6.25-.3-8.74 2.18-2.48 2.48-1.09 4.77-2.08 7.25-.99 2.48-4.85 6.23-4.47 9.93.5 4.86 4.72 7.2 4.72 7.2s4.02-3.82 3.92-7.4c-.1-3.58-.1-5.26.4-6.95.5-1.69 2.48-4.67 3.97-5.16 1.49-.5 6.85-.3 9.23-.4 2.38-.1 6.85-.5 6.85-.5l-5.86-10.22Z" fill="url(#a)" transform="matrix(-1 0 0 1 126.64 9.167)"/><path d="m83.902 50.393-24.42 21.24-1.27 4.69s3.95-.67 5.24-1.07 3.13-.84 3.13-.84.63.83 1.04 2.88c.5 2.48.4 4.07.2 4.37-.55.82-4.37 2.38-5.86 2.48-1.49.1-5.26-.53-7.05 2.28-1.39 2.18-.66 3.15-.79 3.67-.2.79-1.84 1.24-1.24 2.73.6 1.49 8.09.65 8.09.65s.47-2.02.89-2.08c1.04-.15 2.78-.6 3.87-1.99 1.09-1.39 9.53-1.99 10.42-3.77 1.29-2.58-.2-5.96-.3-9.13-.1-3.17-.1-5.91.15-6.45 2.88-1.69 6.7-5.26 6.7-5.26l6.85-12.01-5.65-2.39Z" fill="url(#b)" transform="matrix(-1 0 0 1 126.64 9.167)"/><path fill="#B3875D" d="m100.818 47.94-2.76 5.31-13.43-10.67 12.32-10.62 5.36 9.03z"/><path d="M98.728 51.91c-.3 1.04-.69 2.38-.89 3.57-.2 1.19-.3 2.98-.3 2.98s3.92 2.28 4.47 5.96c.51 3.45-.12 9.11-1.71 11.99-1.59 2.88-4.1 5.14-6.7 6.03-2.82.97-6.24 2.85-12.81 3.43-4.57.4-10.92 1.29-18.76-2.68-7.84-3.97-14.22-13.6-15.31-15.59-1.09-1.99-3.28-5.16-4.37-4.27-1.09.89 1.99 2.98 2.78 7.05.79 4.07-.26 8.97-6.06 10.72-6.16 1.86-14.12-1.19-15.61-12.81-1.49-11.62 5.29-19.73 11.54-22.93 4.86-2.49 10.24-2.7 13.48-1.79 1.76.5 3.3 1.89 4.84 2.38 1.26.41 6.75.58 9.68.4 3.43-.21 2.66-1.5 5.73-3.49 3.08-1.99 4.02-1.41 5.19-2.57 1.51-1.49 7.48-10.22 15.69-15.69 7.15-4.77 11.17-5.11 11.17-5.11s-.67-1.94-.2-5.01c.3-1.94 1.99-5.21 3.08-5.31 1.04-.1 2.94 2.72 3.43 5.36.6 3.23-.3 5.36-.3 5.36s.22 6.55 3.95 11.02-11.91 2.23-14.07 3.2c-2.16.97-3.86 5.58-3.57 9.61.35 5.21 5.71 7.93 5.63 8.19Z" fill="#FEAF5F"/><path d="M38.482 72.903s-.74 2.01-1.12 2.31c-.37.3-2.83 3.05-3.95 4.17s-2.53 2.66-3.13 3.18c-.6.52-3.11 1.89-2.98 4.49.2 4 2.18 4.39 2.61 6.48.35 1.73.7 4.15 1.86 6.03 1.34 2.16 3.23 3.3 6.21 3.3s4.74-5.98 4.74-5.98-2.61-3.72-3.8-3.5c-1.19.22-1.39 1.39-2.08.97-.81-.49-1.07-2.28-1.29-3.25-.22-.97-.82-2.13-.45-2.58.37-.45 4.16-2.44 6.13-3.77 3.3-2.23 11.91-8.94 11.91-8.94s5.97-15.45-5.88-13.55c-10.19 1.63-8.78 10.64-8.78 10.64Z" fill="url(#c)" transform="matrix(-1 0 0 1 126.64 9.167)"/><path d="M92.742 50.193c-2.92-.49-10.97 3.8-11.81 14.84-.45 5.91-1.27 10.7-1.64 12.26-.37 1.56-1.04 3.65-1.41 3.95-.37.3-2.5 1.72-4.19 4.19-1.74 2.53-1.24 5.19-1.76 5.93-.52.74-2.51 2.41-4.19 4.1-1.14 1.14-4.96.97-6.45 2.68-1.49 1.71-1.27 3.57-1.27 3.57s-2.88.74-3.7 2.68c-.82 1.94 1.09 4.39 2.73 4.62 1.64.23 5.17.81 5.51.45 1.09-1.19.3-3.72.3-3.72s1.64 0 3.13-2.01 3.5-3.28 5.21-4.69c1.71-1.41 8.09-6.04 9.31-8.27 1.61-2.95 1.04-5.73 2.16-7.52 1.12-1.79 3.3-3.7 7.4-7.05 3.28-2.68 7.09-5.04 9.78-11.67 3.84-9.53-7.32-14.04-9.11-14.34Z" fill="url(#d)" transform="matrix(-1 0 0 1 126.64 9.167)"/><path d="M30.812 24.203c-1.19.45-2.01.37-1.94 1.34.07.97 2.98 3.35 2.23 7.89-.75 4.54-3.65 7-6.33 7.89-2.68.89-5.56.77-5.56.77l-3.82 4.37s.25 3.62-2.18 5.26c-1.8 1.21-2.88.84-2.88.84s-1.6 1.37-3.43.79c-2.38-.74-6.55-3.72-6.11-10.18.41-5.94 4.82-9.61 5.81-11.86.46-1.06.25-5.16.25-5.16s5.76-1.39 8.64-4.72c2.05-2.37 3.82-5.86 3.92-7.3.1-1.44 16.93 5.06 16.93 5.06l-5.53 5.01Z" fill="url(#e)" transform="matrix(-1 0 0 1 126.64 9.167)"/><path d="M106.898 35.24c-.74 1.37-.16 3 1.03 3.65.98.54 3.05-.06 3.58-1.4.62-1.58.26-2.87-.94-3.52-1.2-.64-2.93-.1-3.67 1.27Z" fill="#2F2927"/><path d="M122.808 53.55c.82.78.74 2.33-.15 3.87s-1.94 2.28-2.93 1.64c-.99-.64-.55-2.53.1-4.02.65-1.49 2.13-2.28 2.98-1.49Zm-7.44 1.79c0-.3 1.49-2.87-.22-3.8-1.13-.61-2.38.3-2.27 1.86.11 1.5.78 2.05.78 2.05s-.15.78.41 3.61c.42 2.15 1.23 2.42 1.75 2.83.39.31 2.35.97 2.05.48-.3-.48-1.79-2.31-2.12-3.98-.25-1.24-.38-3.05-.38-3.05Z" fill="#523226"/><path d="M113.848 93.83s1.17 2.2 1.86 3.4c.97 1.68 2.68 3.23 2.68 3.23s-1.9 2.72-4.24 3.69c-2.35.97-3.24-3.16-2.94-6.63.15-1.75.52-2.83 1.23-3.39.43-.34 1.41-.3 1.41-.3Zm-25.39 9.06c-.74 1.29-1.52 3.1-1.41 4.86.15 2.57 1.82 4.28 1.82 4.28s-2.02.61-5.08.48c-2.08-.09-3.34-.56-3.67-1.15-.34-.6.34-3.76 1.94-6.29 1.6-2.53 2.94-2.77 3.72-3.02 1.14-.35 2.68.84 2.68.84Zm-19.03-.9c2.23-.07 4.47-.74 4.47-.74s.48 1.45.63 3.61c.15 2.08.26 3.83-.6 4.13-.86.3-3.24-.19-5.66-1.82-1.26-.85-2.42-2.68-2.64-3.16-.22-.48-.22-2.08-.22-2.08s2.23.12 4.02.06Zm.23 10.64c.56.26 1.49 1.97 2.23 3.13.74 1.15 1.63 2.81 1.56 3.35-.11.89-1.34 1.45-4.88 1.38-3.54-.07-5.73-1.19-5.99-1.34-.26-.15-.67-.82-.67-.82s1.3-1.75 3.65-3.5c2.35-1.75 4.1-2.2 4.1-2.2Z" fill="#6B4733"/><path d="M89.998 83.78s1.24-1.17 1.96-2.31c1.04-1.64 1.41-2.76 1.71-5.29.21-1.76-.97-5.05 1.45-5.31 1.82-.2 2.76.87 2.57 4.12-.15 2.67-1.71 5.81-2.01 6.18-.3.37-.91.97-2.49 1.71s-3.19.9-3.19.9Z" fill="#B3875D"/></g></svg>