<svg width="128" height="128" xmlns="http://www.w3.org/2000/svg"><g transform="matrix(-1 0 0 1 123.12 7.553)" fill="none"><path d="m108.86 88.677-76.87 2.68s-3 13.81-2.25 16.05c.28.84 9.85-8.45 9.85-8.45s11.97 14.78 12.81 14.64c.84-.14 10-9.43 10-9.43s13.66 11.4 14.64 11.4c.98 0 9.29-12.11 9.29-12.11s10.56 7.6 11.26 7.46c.7-.14 7.88-11.54 7.88-11.54s11.22 3.33 12.34 3.05c1.14-.28-5.01-12.2-8.95-13.75Z" fill="#B1B1B1"/><path d="m28.05 47.427-.66-17.69 11.97-11.54 26.56.38s7.04 6.34 8.87 7.46c1.83 1.13 8.24 4.38 19.83 18.59 6.17 7.57 11.15 20.26 12.55 23.64 1.4 3.38 10.84 33.08 10.84 33.93 0 .85-11.54-9.43-12.25-8.87-.7.56-7.46 13.51-8.31 13.8-.84.28-10.28-9.15-11.26-8.73-.98.42-8.73 13.8-9.29 13.8-.56 0-12.1-14.37-13.51-14.65-1.41-.28-10 11.68-11.12 11.68-1.13 0-11.4-16.61-12.67-16.61-1.27 0-9.2 13.05-9.9 13.61-.7.56-2.21-20.51-2.49-23.04-.28-2.53.84-35.76.84-35.76Z" fill="#E0E0E0"/><path d="M54.33 75.507c-1.07 0-2.06-.69-2.39-1.77l-1.78-5.82a2.5 2.5 0 0 1 4.78-1.46l1.78 5.82a2.5 2.5 0 0 1-2.39 3.23Zm20.37 6.57c-.98 0-1.91-.58-2.31-1.54l-2.82-6.76c-.53-1.28.07-2.74 1.35-3.27 1.28-.53 2.74.07 3.27 1.35l2.82 6.76a2.497 2.497 0 0 1-2.31 3.46Zm13.51-8.45a2.5 2.5 0 0 1-2.26-1.43l-2.53-5.35a2.499 2.499 0 0 1 1.19-3.33c1.25-.59 2.74-.06 3.33 1.19l2.53 5.35a2.499 2.499 0 0 1-2.26 3.57Zm-16.14-17.27c-.79 0-1.57-.38-2.06-1.08l-4.6-6.66c-.78-1.14-.5-2.69.64-3.48 1.14-.79 2.69-.5 3.48.64l4.6 6.66c.78 1.14.5 2.69-.64 3.48-.43.3-.93.44-1.42.44Z" fill="#FFF"/><path d="M39.32 61.927c3 .23 29.14-4.04 19.8-24.68-7.22-15.97-27.5-1.97-31.25 3.57-.68 1.01-1.92 16.89-1.92 16.89s-9.02 12.95-6.06 20.13 11.74 8.54 17.03 2.39c4.37-5.06 2.82-15.9 2.4-18.3Z" fill="#FF615E"/><path d="M30.02 30.677c2.08-3.22 8.87-10 19.57-10.42 10.7-.42 16.19 1.69 18.16 2.53 1.97.84 7.6 3.66 7.6 3.66s10.58-5 10.16-15.98c-.42-10.98-11.7-11.75-16.07-9.35-4.37 2.4-5.07 5.91-8.31 6.05-3.24.14-5.77-7.74-15.91-3.8-8.63 3.36-5.85 11.63-9.01 13.66-3.52 2.25-11.12-2.53-16.47 4.93-5.35 7.46 1.27 14.22 2.67 15.35 1.41 1.13 6.05 3.71 6.05 3.71s-1.53-5.55 1.56-10.34Z" fill="#FF615E"/><path d="M36.31 57.517c1.3-.69.28-6.29-2.91-10.7-3.19-4.41-5.63-6.29-5.63-6.29s-11.54 2.63-18.96 6.76c-4.14 2.31-9.24 7.37-8.68 9.24.56 1.88 11.19 1.39 20.13 1.13 9.48-.28 14.46.71 16.05-.14Z" fill="#FBBB02"/><path d="M.08 55.787s10.75-.75 15.58-1.41c4.83-.66 7.96-1.11 9.81-1.55 1.97-.47 6.19-1.69 6.19-1.69l.28 1.97s-10.23 2.3-16.14 2.82c-5.2.45-13.7 1.08-14.41 1.08-.71 0-1.13-.33-1.31-.56-.18-.23 0-.66 0-.66Z" fill="#FE5F12"/><ellipse fill="#FE5F12" cx="32.72" cy="51.957" rx="1.62" ry="1.67"/><path d="M51.04 47.047c-.76 3.42-3.84 5.78-7.78 4.37-2.93-1.05-4.01-4.6-2.9-7.92 1.11-3.32 4.29-4.85 7.34-4.23 3.07.61 4.1 4.36 3.34 7.78Z" fill="#2C2B2C"/></g></svg>