<svg width="128" height="128" xmlns="http://www.w3.org/2000/svg"><g fill="none"><path d="M15.877 64.6s-11.48-1.47-11.83-.66c-.56 1.31 7.79 10.14 7.79 10.14l4.04-9.48Z" fill="#5C6063"/><path d="M57.637 68.08s-6.01-7.13-17.18-9.57c-11.17-2.44-24.77 2.06-27.77 9.66-3.24 8.21-2.07 17.42 3.38 24.03 5.73 6.95 14.55 14.36 29.38 13.23 11.77-.89 15.49-5.82 15.49-5.82l-3.3-31.53Z" fill="#FCD41E"/><path d="M28.637 76.34c-2.94 7.73-3.57 15.39-3.47 19.24.09 3.85.38 5.16.38 5.16s-3.94-2.53-6.38-4.88c-2.11-2.03-3.66-4.22-3.66-4.22s-1.03-11.17 3-20.55 12.38-13.1 12.38-13.1 2.86-.61 6.1-.23c3.2.37 7.13 1.78 7.13 1.78s-10.69 4.22-15.48 16.8Zm24.22-12.49s-6.85 3.66-11.26 14.08c-4.69 11.07-3.75 27.41-3.75 27.41s2.91.45 6.1.38c2.06-.05 5.73-.8 5.73-.8s-1.05-13.19 2.71-21.92c1.67-3.87 5.91-8.73 5.91-8.73l-.61-6.57-4.83-3.85Z" fill="#414340"/><path d="M87.767 89.57s4.97 2.16 9.48 3.1c4.5.94 8.26 1.03 9.57 1.13 1.31.09 3 .66 2.72 3.57-.24 2.53-3.94 2.27-6.19 2.16-3.66-.19-8.82-1.13-13.33-2.72-4.51-1.59-9.1-4.04-9.1-4.04l6.85-3.2Z" fill="#5A6066"/><path d="M61.437 65.26s-21.68-27.59-24.64-31.53c-2.96-3.94-7.32-10.98-12.25-11.12-4.93-.14-9.43 4.36-11.68 10.98s-2.39 13.29 1.13 17.74c4.79 6.05 18.02 15.35 28.44 18.02 10.42 2.67 16.47 3.38 16.47 3.38l2.53-7.47Z" fill="#6DA3AF" opacity=".7"/><path d="M62.287 63.29s-15.2-26.47-18.44-32.8c-3.24-6.34-6.19-12.25-5.35-16.26.68-3.22 7.04-6.55 15.77-5.28 8.73 1.27 16.25 4.84 17.31 12.95 1.13 8.59.56 33.22.56 33.22l1.27 12.11-11.26 1.69.14-5.63Z" fill="#A1C5CB" opacity=".7"/><path d="M113.597 47.45s5.84-4.08 7.95 4.65c2.45 10.09-5.06 8.3-5.06 8.3l-2.89-12.95Z" fill="#000"/><path d="M96.777 37.53s1.41-6.97 3.8-11.9c2.39-4.93 5.62-8.26 7.18-9.08 1.62-.84 5.95-1.35 10.21-1.48 2.89-.09 5.7-.14 5.7 2.04 0 2.54-3.24 2.87-5.49 3.1-3.24.33-6.67.75-7.88 1.06-2.25.56-5.14 6.19-6.05 8.73-.92 2.53-2.6 9.08-2.6 9.08l-4.87-1.55Z" fill="#848484"/><path d="m69.047 59.21-2.53 4.36s-4.22-3.52-4.86-3.45c-.63.07-1.76 5.91-1.76 5.91s-3.94-.99-4.5-.63c-.56.35-.28 4.58-.28 4.58s-4.93.28-5.07.7c-.14.42 2.18 4.36 2.18 4.36s-3.94 2.39-3.87 3.03c.07.63 3.38 3.24 3.38 3.24s-3.1 3.52-2.82 4.43c.28.91 4.72 1.13 4.72 1.13s-1.06 4.58-.77 5c.28.42 5.21.35 5.21.35s-2.39 3.87-2.04 4.29c.35.42 7.63 1.92 7.63 1.92s3.66 4.08 6.31 4.62c2.62.53 3.82-.07 3.82-.07l3.07-3.03s6.83.63 7.46.21c.63-.42.77-8.45.77-8.45s4.36.33 4.65-.21c.29-.54-.63-5-.63-5l-11.4-18.16-8.67-9.13Z" fill="#FE8D00"/><path d="M78.267 94.54c2.72-1.93 5.85 1.86 7.53 3.17 2.53 1.97 4.93 5.42 13.16 7.6 4.84 1.28 4.58 3.03 4.08 4.65-.62 2.04-3.59 1.83-7.18.84-3.59-.99-7.77-3.23-9.43-4.43-2.04-1.48-6.9-6.05-7.81-6.9-.92-.84-2.53-3.38-.35-4.93Zm-7.6 2.18c2.29-.93 3.8.7 5 4.08 1.2 3.38 3.45 9.64 4.5 12.04 1.06 2.39 3.77 6.88.77 8.38-3.24 1.62-4.72-1.27-5.63-3.24-.91-1.97-3.66-8.52-4.43-11.12-.77-2.6-1.2-4.01-1.55-5-.35-.98-1.27-4.08 1.34-5.14Zm-7.82-.35c3.2.43 2.6 4.22 2.39 6.97-.21 2.75-.63 11.61-.49 13.44s0 4.93-3.24 4.86c-3.24-.07-3.1-3.66-3.17-4.79-.07-1.13.49-11.97.56-13.66.08-1.68-.2-7.38 3.95-6.82Z" fill="#848484"/><path d="M111.977 43.51c5.04 5.23 8.46 20.64 5.28 29.63-3.24 9.15-9.85 15.42-21.68 15.91-11.83.49-22.17-6.9-25.9-19.64-3.57-12.2.97-27.23 13.94-31.82 10.34-3.65 20.9-1.82 28.36 5.92Z" fill="#FEBB00"/><path d="M83.117 59.35c0 5.33 4.19 9.65 9.36 9.65 5.17 0 9.36-3.38 9.36-9.65 0-5.33-4.19-9.71-9.36-9.65-5.77.07-9.36 4.32-9.36 9.65Z" fill="#000"/><path d="M114.447 74.67c-.74-.74-2.46-3.45-4.22-1.62-1.76 1.83 1.34 4.15 1.9 4.65.75.66 2.25 1.06 3.03-.07.53-.78.2-2.05-.71-2.96Z" fill="#FE8D00"/><path d="M100.437 12.75c.26 1.95-.73 2.55-3.31 3.24-2.34.62-7.1 1.75-8.24 2.53-.92.63-3.17 6.41-3.73 13.51-.29 3.68-.14 7.18 0 9.92.12 2.28-.35 3.8-2.18 4.08-1.66.26-3-.87-3.24-4.08-.28-3.87-.5-5.94 0-10.98.38-3.83 1.03-6.99 2.25-11.12 1-3.38 2.57-5.19 4.15-6.34 1.91-1.37 6.05-2.18 9.43-2.53 2.84-.28 4.59-.32 4.87 1.77Z" fill="#848484"/></g></svg>