<svg width="128" height="128" xmlns="http://www.w3.org/2000/svg"><defs><radialGradient cx="-2.551%" cy="98.019%" fx="-2.551%" fy="98.019%" r="128.938%" gradientTransform="matrix(.77386 0 0 1 -.006 0)" id="a"><stop stop-color="#8D5E50" offset="46.8%"/><stop stop-color="#5A7439" offset="67.5%"/><stop stop-color="#34642E" offset="82.1%"/><stop stop-color="#315427" offset="100%"/></radialGradient></defs><g fill="none"><path d="M80.9 29.41s-6.95-3.71-10.04-9.24c-3.09-5.53-4.13-11.41.61-13.85 5.67-2.92 11.83 4.22 11.83 4.22s-.56-4.46 3.57-4.93c9.21-1.05 10.61 9.71 10.61 9.71s2.34-1.96 5.26-.94c3.47 1.22 4.01 5.81 3.85 8.07-.23 3.24-2.21 7.41-2.21 7.41l-23.48-.45Z" fill="#A42E1A"/><path d="m67.06 95.11 24-5.21s-.92 8.59-.28 9.57c1.24 1.93 8.09 1.9 12.04 2.82 3.71.86 8.73 6.21 5.14 10.63-3.38 4.15-6.97-3.45-8.87-3.31-1.9.14-2.3 3.97-4.43 3.87-3.1-.14-1.27-4.43-2.75-5.98-1.48-1.55-7.04-1.27-8.17-3.1s-.7-7.95-.7-7.95l-7.18 2.53s-4.08 4.86-3.8 8.87c.28 4.01 2.39 6.57 3.8 6.9 4.93 1.13 11.4 2.53 10.98 5.49-.43 3.01-6.04 1.55-14.29 1.55-8.02 0-12.18.99-12.81-2.39-.63-3.38 5.42-3.45 5.49-4.65.07-1.2-1.9-6.62-1.55-9.08.35-2.47 3.38-10.56 3.38-10.56Z" fill="#FFB70C"/><path d="m40.197 45.172-25.58 2.44s-5.98 4.79-6.99 13.98c-.59 5.38 1.52 13.59 8.45 20.27 5.8 5.58 13.61 15.67 29.09 14.08 15.48-1.59 25.85-14.67 29.28-21.73 3.28-6.76 4.6-14.5 5.44-14.59.84-.09 8.69 11.29 11.36 10.7 1.69-.38 1.64-5.64 1.22-8.73-.66-4.79-2.44-7.79-2.44-7.79s7.79 5.73 8.92 4.08c.85-1.23.19-7.27-.99-11.83-1.29-5-3.33-8.12-3.33-8.12s8.26 8.21 8.96 5.87c.33-1.1.61-17.03-13.28-21.26-13.89-4.23-23.89 8.59-26.28 14.64-2.57 6.51-4.65 17.03-4.65 17.03l-19.18-9.04Z" fill="url(#a)" transform="matrix(-1 0 0 1 118.707 5.538)"/><path d="M91.84 22.84c6.84.32 12.39 6.85 12.39 6.85s6.03.38 7.98 1.03c2.86.96 4.88 3.2 5.07 4.32.47 2.77-10.32 3.94-10.32 3.94l-.84 15.96s-6.66 5.82-7.41 5.91c-.75.09-5.82-6.19-6.48-6.29-.66-.1-7.79 7.32-7.79 7.32l-18.7-6.05s2.6-4.79 4.5-8.09c1.88-3.28 2.96-13.8 8.66-19.78 3.74-3.95 8.9-5.31 12.94-5.12Z" fill="#FFB903"/><path d="M101.88 36.07s4.55.03 7.13-.09c1.97-.09 8.26-.94 8.26-.94s.23.66-.38.94c-.61.28-6.19 1.69-8.12 1.83-1.92.14-7.7.38-7.7.38l-.47-.94 1.28-1.18Z" fill="#FF732D"/><path d="M101.51 38.93s4.79.19 5.54.38 7.27 3.8 9.71 7.65c2.44 3.85 2.91 9.9-.47 12.2-2.9 1.97-8.87.94-11.97-4.83-2.61-4.86-4.55-9.53-4.55-9.53s-10.79-.19-11.22-9.24c-.42-9.06 7.98-9.95 11.03-9.24 2.42.56 4.88 3.33 4.88 3.33s-2.21 3.19-2.44 4.69c-.23 1.5-.51 4.59-.51 4.59Z" fill="#FF6157"/><path d="M94.03 35.64c.51 2.18 2.27 3.71 3.86 3.34 1.59-.37 2.48-2.79 1.97-4.97-.51-2.18-2.1-3.35-3.71-3.05-1.93.36-2.63 2.5-2.12 4.68Z" fill="#29292A"/><path d="M74.1 50.34s13.16 5.91 16.05 14.36c2.89 8.45.4 17.75-6.83 22.24-7.81 4.86-18.11 3.81-24.71 1.06-5.56-2.32-7.32-5.42-6.97-7.6.42-2.58 1.69-3.45 1.69-3.45s-4.15-2.75-4.08-5.84c.07-3.1 3.8-3.94 3.8-3.94s-3.31-2.04-3.03-5.07c.28-3.03 4.96-5.1 9.64-5.63 5.64-.64 14.44-6.13 14.44-6.13Z" fill="#D27856"/></g></svg>