<svg width="128" height="128" xmlns="http://www.w3.org/2000/svg"><g transform="matrix(-1 0 0 1 123.203 16.228)" fill="none"><path d="M83.68 25.382s31.49-5.44 33.32-3.05c1.83 2.39 2.29 9.59 1.31 13.66-.99 4.08-4.65 10.37-15.35 13.33-8.99 2.48-12.01 2.49-16.66 5.26-3.71 2.21-9.1 18.11-9.95 20.37-.85 2.26-7.04 11.12-19.99 9.29-12.65-1.8-20.41-13.67-17.73-25.35 2.68-11.68 45.05-33.51 45.05-33.51Z" fill="#A92813"/><path d="M60.73 54.522s-17.6.42-23.09-5.35c-5.49-5.77-11.26-18.58-12.81-28.86-1.55-10.28-6.62-16.33-9.01-17.88-2.39-1.55-4.86-1.97-5.14-.42-.28 1.55 4.07 6.73 4.86 9.15 1.97 6.05.88 20.13 2.53 26.61 1.69 6.63 3.03 8.9 6.76 13.23 2.78 3.23 7.18 6.34 7.18 6.34s-17.03 4.08-21.82-.99c-4.79-5.07-4.22-9.29-3.8-11.4.42-2.11 3.8-7.88 2.82-8.45-.99-.56-7.18 4.22-8.02 10.56-.84 6.34 1.25 11.62 4.79 15.49 4.61 5.03 13.34 5.88 18.41 5.46 5.07-.42 10.17-2.08 10.17-2.08s-.14 20.69-10 20.55c-7.46-.11-8.31-2.53-9.01-3.8-.7-1.27-1.43-2.32-1.06 1.72.25 2.67 3.38 10.91 13.2 8.8 8.32-1.79 13.47-9.44 15.17-11.79 1.87-2.57 6.19-8.45 6.19-8.45s-1.67 11.43-1.31 19.52c.15 3.38 1.03 11.31 7.23 13.98 6.19 2.67 14.11-.67 15.52-6.02 1.41-5.35-1.44-8.34-1.87-8.76-.43-.42-2.39 6.05-2.39 6.05s-5.07 3.38-7.04.99c-1.97-2.39.42-20.98.7-24.92.28-3.94 4.36-.14 5.77 1.83 1.41 1.97 3.7 6.86 7.18 10.28 5.74 5.65 11.97 8.1 20.82 7.42 9.22-.71 14.98-4.33 18.07-8.97 3.1-4.65 3.77-9.26 2.78-10.1-.99-.84-7.74 7.29-9.15 8.41-1.41 1.13-15.49 0-17.46 0-1.97 0-2.39-3.52-2.39-3.52s8.02-2.11 10.84-4.22c2.82-2.11 10.56-6.55 11.12-19.15.43-9.72 0-35.81.99-40.03.99-4.22 4.74-7.79 3.89-9.2-.85-1.41-4.6.94-5.16 1.36-.56.42-6.48 3.24-6.62 8.31-.14 5.07-1.83 41.25-4.65 44.2-2.82 2.96-11.97 8.87-17.03 8.17-5.07-.69-18.16-14.07-18.16-14.07Z" fill="#FFA8A8"/><path d="M114.09 74.092c-1.69-.14-3.1 2.11-4.79 3.38s-5.07 4.5-13.94 4.22c-8.87-.28-14.78-10-14.78-10s2.82.28 6.05-.56c3.24-.84 8.38-3.59 11.61-9.43 3.85-6.94 2.99-24.07 3.03-31.68.05-10.51 3.47-16.1 4.79-17.88 2.25-3.05 5.82-4.79 5.96-5.77.14-.99-4.46-.42-7.09 1.13-2.92 1.72-4.36 3.66-4.36 3.66s-6.76-.7-10.42-.7-10.69.54-16.82 1.97c-7.53 1.76-13.16 6.05-14.71 6.34 0 0-5-4.97-13.23.7-8.59 5.91-2.39 18.44-2.39 18.44s-.42 1.81-2.67 2.39c-3.24.84-8.09-2.32-9.85-7.95-1.48-4.75-1.13-11.33-2.53-18.93-1.41-7.6-5.49-10.98-9.15-12.67-3.66-1.69-8.31-.14-7.6.84.7.99 6.05 2.82 9.29 8.73 3.24 5.91 1.69 19.71 5.21 29.56 3.52 9.85 10 13.09 10 13.09s-3.66 1.69-5.63 2.11c-1.97.42-7.32 1.41-12.25.39-5.13-1.06-8.59-4.82-9.15-8.97-.48-3.53 1.83-9.71.56-10-1.27-.29-5.81 6.19-5.95 11.54-.14 5.35 3.98 11.54 10.17 14.5 6.19 2.96 19.15.28 19.15.28s-1.06 1.62-1.2 4.72c-.14 3.1-1.97 10.03-5.28 12.04-2.27 1.38-4.29 1.83-5 0-.7-1.83 2.89-2.53 2.75-4.36-.14-1.83-3.1-2.29-5.91-.56-1.9 1.16-5.07 5.35-3.1 9.85 1.97 4.5 6.86 6.09 12.25 4.65 8.04-2.15 17.32-17.03 20.27-19.57 2.96-2.53 4.93-1.83 4.93-1.83s-1.41 13.09-1.13 21.96c.28 8.87 5.95 14.66 12.25 13.66 7.04-1.13 7.46-6.9 6.34-10-.99-2.71-4.72-3.73-5.77-2.96-1.37 1.01-.46 2.67.07 3.13 1.27 1.09.21 3.63-1.76 3.06-1.97-.56-.14-7.18.7-10.42s2.82-10.84 5.07-11.4c2.25-.56 4.54 3.39 6.62 5.77 3.56 4.08 9.36 7.25 17.63 7.39 10.93.19 17.7-6.55 19.25-8.24 1.52-1.68 4.19-5.48 2.51-5.62Zm-25.35-29.42c3.24-2.25 6.01-3.28 6.01-3.28s.09 11.54-4.32 17.5c-3.65 4.93-7.18 3.8-7.18 3.8s3.63-1.98 3.94-5.77c.42-5.21-5.07-6.19-5.07-6.19s3.8-4.1 6.62-6.06Z" fill="#FF615E"/><path d="M107.7 37.702s11.59-3.45 10.46-11.9c-1.13-8.45-9.67-10.32-9.67-10.32s-1.22 4.41-1.03 10.18c.09 2.53.24 12.04.24 12.04Z" fill="#FF615E"/><path d="M83.14 59.372c-1.29 2.06-3.49 2.49-5.09 1.49-1.6-1-1.85-3.01-.56-5.07 1.29-2.06 3.93-2.99 5.54-1.99 1.61 1 1.4 3.51.11 5.57Zm-22.2-12.1c1.8-.11 1.2-1.9.84-4.29-.35-2.39-1.65-8.68 2.04-12.46 3.1-3.17 6.96-3.13 9.85-1.27 2.18 1.41 3.17 1.97 4.01.92.56-.7-.28-2.04-1.69-3.24-1.79-1.52-7.95-4.65-13.73.14-5.46 4.53-4.58 13.3-3.87 16.33.72 3.03 1.42 3.94 2.55 3.87Zm-17.67-28.37c-3.66 3.8-4.41 6.84-4.01 11.97.35 4.58 1.97 8.09 3.73 7.39 1.47-.59.84-3.31.35-4.72-.49-1.41-1.34-8.17 2.25-11.83s7.67-3.17 9.5-2.75c1.83.42 2.6.84 3.52-.21.92-1.05-.99-2.75-2.82-3.17-1.83-.42-7.68-1.7-12.52 3.32Z" fill="#A52914"/><path d="M77.62 41.432c0 2.92-2.19 5.85-5.07 5.7-2.82-.14-4.15-2.86-4.15-5.77 0-2.91 1.69-5.28 4.65-5.49 3.37-.24 4.57 2.64 4.57 5.56Z" fill="#2C2B2D"/><ellipse fill="#FCD4B0" transform="rotate(-80.881 104.379 31.245)" cx="104.379" cy="31.245" rx="2.21" ry="2.11"/><ellipse fill="#FCD4B0" transform="rotate(-69.403 106.298 17.268)" cx="106.298" cy="17.268" rx="2.16" ry="1.88"/><ellipse fill="#FCD4B0" cx="104.371" cy="46.922" rx="2.58" ry="2.67"/><ellipse fill="#FCD4B0" transform="rotate(-66.078 101.926 62.705)" cx="101.926" cy="62.705" rx="2.78" ry="2.62"/><ellipse fill="#FCD4B0" transform="rotate(-23.045 105.617 87.225)" cx="105.617" cy="87.225" rx="2.11" ry="1.89"/><ellipse fill="#FCD4B0" cx="93.191" cy="90.472" rx="2.39" ry="2.25"/><ellipse fill="#FCD4B0" cx="80.351" cy="88.022" rx="2.3" ry="2.39"/><ellipse fill="#FCD4B0" cx="56.511" cy="104.592" rx="2.49" ry="2.44"/><ellipse fill="#FCD4B0" transform="rotate(-3.887 49.19 90.54)" cx="49.19" cy="90.54" rx="1.74" ry="2.33"/><ellipse fill="#FCD4B0" transform="rotate(-42.739 36.237 86.34)" cx="36.237" cy="86.339" rx="2.58" ry="2.3"/><ellipse fill="#FCD4B0" cx="23.941" cy="92.022" rx="2.58" ry="2.35"/><ellipse fill="#FCD4B0" cx="21.311" cy="66.212" rx="2.3" ry="2.06"/><ellipse fill="#FCD4B0" transform="rotate(-60 9.53 62.822)" cx="9.531" cy="62.822" rx="2.16" ry="2.25"/><ellipse fill="#FCD4B0" transform="rotate(-21.009 2.51 54.103)" cx="2.511" cy="54.103" rx="1.86" ry="2.16"/><ellipse fill="#FCD4B0" cx="20.811" cy="35.262" rx="2.21" ry="2.3"/><ellipse fill="#FCD4B0" cx="19.581" cy="22.092" rx="2.16" ry="2.25"/><ellipse fill="#FCD4B0" transform="rotate(-21.199 17.779 10.372)" cx="17.779" cy="10.372" rx="1.92" ry="2.11"/></g></svg>