<svg width="128" height="128" xmlns="http://www.w3.org/2000/svg"><g fill="none"><path d="m87.757 89.66 12.58.56s-1.88 20.65-2.16 22.71c-.28 2.06-1.03 6.1-6.66 6.01-5.63-.09-5.44-5.73-5.35-7.04.09-1.31.56-9.95.56-9.95l-8.82 2.16s-.09 12.58-.19 14.36c-.1 1.78-1.31 5.54-6.57 5.35-5.26-.19-5.73-4.32-5.73-5.35 0-1.03-.66-14.45-.66-14.45l-10.89-.94s.15 3.94 0 6.66c-.09 1.69-2.72 4.5-7.41 4.22-4.69-.28-6.38-2.53-6.29-3.85.09-1.31-.38-11.92-.38-11.92l-5.07.56s.38 11.64.28 12.58c-.09.94-2.16 4.32-7.32 4.22-5.16-.09-6.46-2.45-6.57-3.57-.19-1.97-.94-13.23-1.22-16.05-.28-2.82-.38-13.7-.38-13.7l68.25 7.43Zm-67.01-47.21s-1.27-.28-3.1.42-5.63 6.9-7.46 7.88c-1.83.99-4.65 1.69-5.35 2.25-1.74 1.39-1.41 8.87 2.25 11.26 3.66 2.39 8.17 3.1 8.17 3.1l9.43-17.03-3.94-7.88Z" fill="#B1B1B1"/><path d="M79.877 4.58c16.4-3.31 22.52 11.27 22.52 11.27s11.83-4.5 15.77 9.01c3.2 10.98-9.01 17.18-9.01 17.18s13.66 1.21 13.23 15.71c-.27 9.15-6.48 11.45-6.48 11.45s5.72 7.44.84 17.6c-5.07 10.56-16.61 10-16.61 10s-1.42 9.49-14.5 13.23c-11.83 3.38-17.74-1.55-17.74-1.55s-4.93 4.36-13.51 1.97c-7.08-1.97-8.17-8.02-8.17-8.02s-8.16 3.93-17.03-.28c-8.31-3.94-9.29-12.39-9.29-12.39S8.357 86.1 8.067 71.04c-.26-13.79 8.31-19.01 8.31-19.01s-4.36-10.7 5.49-18.72c8.08-6.58 15.2-3.52 15.2-3.52s.99-5.49 7.18-6.9c6.19-1.41 9.43 1.97 9.43 1.97s.59-3.68 4.08-6.05c3.94-2.67 7.6-1.13 7.6-1.13s-.12-10.14 14.52-13.1Z" fill="#868686"/><path d="M79.027 7.68c15.86-2.96 21.12 11.28 22.24 11.4 1.27.14 9.24-6.08 13.94 5.91 4.09 10.43-10.56 16.2-10.13 17.89.37 1.47 14.79 1.05 14.41 14.31-.24 8.37-6.86 10.45-7.04 11.73-.14.99 6.3 7.02 1.69 16.24-4.41 8.82-14.99 8.02-16.61 9.1-1.63 1.09.19 7.41-10.32 11.83-12.83 5.38-17.62-1.26-19.05-1.5-1.84-.31-2.63 5.07-12.2 3.38-7.86-1.39-7.1-8.04-8.54-8.73-1.44-.69-6.1 5-16.14.94-7.88-3.19-7.98-10.23-8.82-11.4-1.1-1.52-10.62-4.39-11.12-18.16-.52-14.27 7.83-17.25 8.02-18.4.19-1.13-3.38-9.57 4.5-16.14 7.32-6.1 12.95-1.88 14.08-2.63.5-.33.19-6.1 7.04-7.6 5.68-1.24 9.39 3 10 2.67 1.36-.73 1.06-4.09 4.26-6.26 3.61-2.45 6.87-.5 7.85-1.06.84-.5-1.73-10.97 11.94-13.52Z" fill="#FFF"/><path d="M98.927 33.82s4.94 3.24 10.14 4.04c5.54.84 13.89-1.6 14.45.38.56 1.98-2.82 7.13-8.26 8.92-5.04 1.65-7.13.09-7.13.09s-1.08 1.92-.42 4.74c.66 2.82 2.72 7.17 2.3 11.5-.47 4.79-4.34 11.72-13.42 13.61-11.26 2.35-19.37-3.51-21.68-8.73-2.86-6.48-.99-11.03-4.46-14.12-3.47-3.1-7.93-3.43-11.78-3.24-3.85.19-7.6-1.92-8.73-2.96-1.13-1.03-1.69-3.05-1.41-3.43.28-.38 2.91-.19 5.63-1.5 2.72-1.31 7.32-3.94 7.32-3.94s3.24 3.33 8.02 2.67c4.79-.66 6.34-5.77 6.34-5.77s4.97 7.6 13.7 5.63c7.44-1.69 9.39-7.89 9.39-7.89Z" fill="#B1B1B1"/><path d="M74.117 48.73c.63 2.6 3.22 3.5 5.31 2.49 1.89-.91 2.81-3.18 1.94-5.36-.87-2.18-3.16-3.31-5.1-2.53-1.94.78-2.7 3.12-2.15 5.4Zm23.62-4.26c.62 2.48 2.9 3.91 4.79 2.99 1.69-.82 2.49-2.96 1.65-5.04-.84-2.08-2.83-2.94-4.58-2.24-1.75.7-2.41 2.12-1.86 4.29Zm-2.19 16.9s-6.34-3.1-7.04-1.22c-.7 1.88 1.88 3.33 2.91 3.99 1.03.66 3.38 1.22 3.38 1.22s-.19 3.66-2.06 3.75c-1.88.09-3.24-2.49-4.46-1.17-1.22 1.31.47 4.04 3.38 4.04s4.5-2.06 4.5-2.06 1.91 1.13 3.57.7c2.58-.66 3-3.57 2.16-4.22-.84-.65-1.45 1.41-2.91 1.31-1.45-.09-1.88-2.67-1.88-2.67s1.69-.8 3.1-2.49c.81-.97 2.61-3.36 1.69-4.32-1.51-1.56-6.34 3.14-6.34 3.14Z" fill="#2B2B2B"/></g></svg>