<svg width="128" height="128" xmlns="http://www.w3.org/2000/svg"><g fill="none"><path d="m30.236 56.06-1.31-12.67 3.85-17.46s-2.82-3.1-4.41-3.85c-1.59-.75-3.38-1.17-3.38-1.17s-4.13-.7-6.85-.8c-2.72-.09-5.82.38-5.73-.94.09-1.31 12.29-3.38 18.96-3.57 6.66-.19 28.91.84 44.96 8.63 16.05 7.79 20.27 14.75 20.27 14.75l5.35 10.61 5.35 2.16s4.88 8.17 6.48 12.86c1.6 4.69 3.28 8.35 4.13 9.29.84.94 5.07 4.22 5.07 4.88 0 .66-4.32 3.1-4.32 3.75 0 .66 3.47 1.5 3.47 2.25s-6.1 7.6-15.3 14.55c-9.2 6.95-20.55 12.01-28.91 14.08-8.35 2.06-19.52 3-19.99 2.63-.47-.38 8.73-7.6 8.73-7.6s-8.82 3.75-14.36 4.41c-5.54.66-6.41.7-11.83.49-5.42-.21-14.17-7.91-14.17-7.91l-4.69-15.49 2.11-10.11s2.84-4.55 2.96-5.49c.12-.94-1.17-.22-2.32.07-1.41.35-4.69 2.63-6.76 4.79-1.27 1.33-5.18 5.5-6.8 7.25-.77.84-2.15.52-2.49-.56l-1.53-8.8.84-27.78 3.18-10.93c.36-.94 1.63-1.11 2.22-.28 2.25 3.17 7.15 10.68 8.59 12.53 1.97 2.53 5.34 6.36 7.25 7.04 1.13.4 1.55.21 1.55.21l-.17-1.82Z" fill="#FFB800"/><path d="M41.876 113.13s-14.44-2.85-16.96-16.75c-1.97-10.84 2.11-22.1 2.11-22.1s-.15-1.54-1.83.56c-3.1 3.87-8.87 16.68-1.48 29.7 6.25 11.01 17.74 9.01 18.44 9.01.7 0-.28-.42-.28-.42Zm-16.89-92.22s8.8-.63 9.15 7.46c.28 6.41-3.24 10.91-3.1 17.81.14 6.9.9 11.89-.63 11.68-1.06-.14-3.38-3.45-3.45-10.56-.07-7.11 4.71-14.46 4.58-19.01-.15-4.7-6.55-7.38-6.55-7.38Z" fill="#B5D219"/><path d="M12.166 37.53c1.47.58-.07 5.07-.56 6.48-.49 1.41-1.94 9.08-2.04 20.34-.07 8.09.7 15.98 1.06 17.74.36 1.76 1.13 4.43-.77 4.86-1.9.43-3.79-3.52-4.86-10.21-.84-5.28-.77-10.07-.84-15.06-.15-10.5 2.39-17.25 3.31-19.5.9-2.26 2.73-5.43 4.7-4.65Zm37.22 1.73c1.69.19-1.12 6.42-1.88 10.98-1.22 7.32-1.22 12.01-1.06 18.04.15 5.59 1.53 15.27 5.91 23.51.96 1.81 1.55 3.38.21 3.52-2.67.28-7.7-6.22-10.28-13.23-2.9-7.89-3.45-14.92-2.39-23.3.85-6.74 2.42-11.19 3.47-13.51.96-2.1 3.11-6.33 6.02-6.01Zm23.39-12.78c2.6.73-1.06 6.12-2.65 10.25-2.49 6.45-7.65 18.11-7.79 30.43-.14 12.32 3.66 21.38 4.79 24.19 1.17 2.93 2.98 7.13 3.54 8.33.56 1.2.54 2.58-.07 2.75-1.41.38-3.78-1.24-6.19-3.66-1.6-1.6-4.6-4.79-8.05-14.71-1.89-5.44-3.68-14.95-2.37-25.46 1.56-12.48 7.1-20.88 9.08-23.89 2.93-4.46 6.68-9.08 9.71-8.23Z" fill="#2C2F30"/><path d="M89.106 38.44c2.11.58-3.87 6.78-6.69 13.96-2.82 7.18-3.68 13.16-4.04 19.43-.35 6.26.52 12.95 1.13 17.08.49 3.35 2.28 9.43 1.92 10.56-.35 1.13-2.44 1.17-3.99-1.36-1.55-2.53-4.88-8.07-6.92-20.04-.95-5.56-.49-18.6 5.56-27.94 5.22-8.05 10.57-12.37 13.03-11.69Zm18.18 13.31s-3.94-5.63-5.63-7.7c-1.69-2.06-6.29-6.76-6.29-6.76s-.19 13.42-.66 16.99c-.47 3.57-2.06 11.45-3.85 15.58-.93 2.15-2.71 7.4-2.44 9.57.47 3.85 4.8 9.63 6.66 9.85 3.94.47 7.79-7.02 9.57-11.92 2.55-6.94 4.52-19.61 2.64-25.61Z" fill="#2C2F30"/><path d="M92.976 75.54c-.1 2.69 2.09 4.41 4.41 4.41 2.32 0 4.08-2.22 4.08-4.55 0-2.33-1.97-4.08-4.29-4.08-2.32 0-4.1 1.68-4.2 4.22Z" fill="#FFB805"/><path d="M97.056 75.44c.61.7 2.32.69 2.93-.03.61-.72.53-2.18-.35-2.92-.88-.75-2.11-.89-2.84.22-.51.79-.49 1.86.26 2.73Z" fill="#FFEDC7"/></g></svg>