<svg width="128" height="128" xmlns="http://www.w3.org/2000/svg"><defs><radialGradient cx="52.355%" cy="-2.697%" fx="52.355%" fy="-2.697%" r="88.062%" gradientTransform="scale(-.64857 -1) rotate(-89.587 -.115 .67)" id="a"><stop stop-color="#F4D6B5" offset="62.2%"/><stop stop-color="#F1D2B2" offset="74.4%"/><stop stop-color="#E7C5AA" offset="87.3%"/><stop stop-color="#D8B19C" offset="100%"/></radialGradient></defs><g fill="none"><path d="M34.1 41.05s-8.92-7.88-9.1-7.7c-.18.18-3.66 4.97-3.66 7.41 0 3.05 2.72 6.38 2.72 6.38s-11.54-6.38-12.2-6.19c-.66.19-7.98 13.61-7.98 14.55 0 .94 6.85 15.11 7.51 15.3.66.19 11.07-4.79 11.07-4.79s-3.57 4.32-3.1 7.88c.47 3.57 2.72 9.01 3.28 9.29.56.28 11.36-6.76 11.36-6.76l.1-35.37Z" fill="#8A5A54"/><path d="M107.96 44.8s6.1-13.7 5.73-14.08c-.38-.38-13.33 6.95-13.33 6.95l7.6 7.13ZM95.01 33.63s-.09-16.61-.66-16.89c-.56-.28-11.17 12.86-11.17 12.86l11.83 4.03Zm-17.46-5.25s-5.82-15.39-6.38-15.39c-.56 0-7.32 17.55-7.32 17.55l13.7-2.16Zm-16.05.47s-8.82-13.05-9.67-12.86c-.85.19-2.35 16.99-2.35 16.99l12.02-4.13Zm-12.86 3.84s-12.95-9.1-13.51-8.82c-.56.28.94 17.74.94 17.74l12.57-8.92Z" fill="#CD7955"/><path d="M112.28 66.29s11.36 8.17 11.26 9.48c-.1 1.31-15.2 2.53-15.2 2.53l3.94-12.01Zm-6.76 17.37s8.35 11.07 7.88 11.83c-.47.75-15.49-3.28-15.49-3.28l7.61-8.55ZM94.44 95.58s2.06 16.33 1.13 16.71c-.93.38-12.39-11.17-12.39-11.17l11.26-5.54Zm-17.08 6.19s-7.51 15.02-8.07 15.02c-.56 0-5.16-16.05-5.16-16.05l13.23 1.03Zm-19.99-2.44s-10.79 9.39-11.83 9.01c-1.03-.38.84-15.39.84-15.39l10.99 6.38Zm-15.01-8.07s-14.83 5.16-15.3 4.6c-.47-.56 7.7-15.02 7.7-15.02l7.6 10.42Zm-12.53-36.6c-.42 1.9-8.17-2.11-10.28-3.1-2.11-.99-8.66-3.94-8.02-5.07.63-1.13 7.53 2.04 9.29 2.82 1.76.77 9.22 4.38 9.01 5.35Zm.09 2.53c.05 1.12-2.11 1.81-10.14 1.38-8.03-.43-11.76-1.81-11.68-2.93.07-1.13 9.08-.66 12.04-.45 2.96.21 9.71.52 9.78 2Zm-1.83 3.1c.28.61-5.63 3.07-9.78 4.27-4.15 1.2-7.41 2.37-7.77 1.31-.35-1.06 2.98-2.44 7.06-3.78 3.39-1.11 10-2.86 10.49-1.8Z" fill="#BA8D72"/><path d="M111.43 67.3s1.55-.77 1.76-2.18c.21-1.41.07-6.97-1.48-12.32-1.55-5.35-5-10.49-5-10.49l2.6-6.48-5.84 2.53s-3.45-3.03-5.84-4.36c-2.39-1.34-5.28-2.67-5.28-2.67L92 23.4l-4.79 5.96s-3.03-.84-6.83-1.13c-3.8-.28-6.62-.56-6.62-.56l-2.79-7.18-2.35 7.32s-2.53-.07-5.63.14c-3.1.21-5.44.52-5.44.52l-3.75-5.82-1.08 7.13s-2.35.84-4.32 1.69c-1.97.85-4.62 2.32-4.62 2.32l-5.56-4.36.77 7.39s-10.63 5.35-13.02 19.36c-2.39 14.01 2.77 18.65 2.77 18.65l82.69-7.53Z" fill="#F3A25C"/><path d="M33.84 41.46c-12.87 3.98-23.37 11.19-23.37 11.19l.77 3.45-5.77 5.35 7.32.99s.58 1.87 2.7 5.74 3.64 5.38 3.64 5.38l-3.78 5.39 7.02-1.45s2.56 2.92 4.39 4.33c1.83 1.41 4.77 3.76 4.77 3.76l-.92 7.46 6.05-5.14s2.75.99 6.12 1.62c3.38.63 6.97.7 6.97.7l3.87 7.32 2.67-7.53s4.29-.49 6.83-.99c2.53-.49 6.55-2.53 6.55-2.53l6.76 5-1.06-8.02s3.8-2.39 5.42-3.59c1.62-1.2 3.8-3.38 3.8-3.38l6.97 2.25-3.17-6.83s3.17-3.87 4.72-6.05c1.55-2.18 3.73-7.39 3.73-7.39S89 46.11 71.07 40.69c-15.13-4.58-29.49-1.62-37.23.77Z" fill="url(#a)" transform="matrix(-1 0 0 1 123.54 12.99)"/><path d="M99.33 78.59c-.91.61-9.85-9.57-9.85-9.57s.47-2.53 3-3.75c2.53-1.22 4.79-.19 4.79-.19s2.9 12.94 2.06 13.51Zm-22.9-14.83s-1.97-2.72-6.01-2.44c-4.04.28-5.73 2.25-5.73 2.25s4.13 14.45 5.07 14.45c.94 0 6.67-14.26 6.67-14.26Zm11.54 29.19c-.8.8-11.17-8.92-11.17-8.92s1.22-2.63 3.85-4.41c2.63-1.78 6.76-.66 6.76-.66s1.31 13.24.56 13.99Zm-24.68-12.3s-.7-2.96-3.94-4.04c-3.66-1.22-5.91.47-5.91.47s-.56 12.67.47 13.23c1.03.56 9.38-9.66 9.38-9.66Zm-10.8-13.04s.47-3-1.88-4.79c-2.35-1.79-4.88-1.22-4.88-1.22s-5.16 11.92-4.5 12.48c.66.57 11.26-6.47 11.26-6.47Z" fill="#FBFFFE"/><path d="M83.14 40.01c-.9.9-2.53-.84-3.19-1.6-.66-.75-2.02-2.16-2.02-2.16L75.53 38s-1.92 1.92-3.1.75c-.73-.73 1.74-3.71 2.77-4.83s2.3-2.39 3.1-2.25c.93.16 2.27 2.13 3.05 3.38 1.41 2.24 2.54 4.21 1.79 4.96Zm-28.68 2.68c-.51 1.69-3.44.23-4.22-.05-1.08-.38-2.49-.89-2.49-.89s-.19 1.36-.33 2.96c-.09 1-.28 3.05-1.64 3-1.41-.05-1.42-2.54-1.36-3.8.19-3.75 0-5.87.89-6.43.89-.56 5.68 2.06 6.66 2.63.98.57 2.78 1.64 2.49 2.58Z" fill="#CD7955"/><path d="M96.56 38.75c4.65 1.74 5.82 5.82 5.21 8.4-.61 2.58-3.14 6.52-10.18 5.3-6.35-1.1-6.72-7.23-5.3-10.23 1.59-3.38 5.57-5.23 10.27-3.47Z" fill="#FFDC1E"/><path d="M98.53 45.22c.14 2.91-2.54 4.06-5.07 3.89-1.45-.09-4.5-1.13-4.32-4.18.18-2.86 2.63-3.47 5.16-3.43 1.84.05 4.11 1.38 4.23 3.72Z" fill="#282F2F"/><path d="M104.25 53.01c-.17-4.31 3-7.09 7.46-6.34 4.32.73 3.46 5.94 3.33 6.52-.19.84-.66 1.97-.66 1.97s1.04.67 1.04 2.73-.78 4.05-4.5 3.52c-3.95-.56-6.53-4.92-6.67-8.4Z" fill="#F66"/><path d="M113.36 54.77c-.14.42.24 1.9-1.78 1.88-4.32-.05-5.19-2.63-5.23-3.19-.05-.56.56-2.06 4.93-1.97 3.29.07 2.27 2.71 2.08 3.28Z" fill="#A82612"/><path d="M78.4 52.78c-.24 2.38-3.97 3.53-8.35 4.13-4.79.66-8.21.47-8.21.47s-2.35-1.13-2.3-7.79c.05-6.48 2.58-7.32 2.58-7.32s6.43.47 11.5 4.22c2.8 2.08 4.96 4.41 4.78 6.29Z" fill="#885B52"/><path d="M67.27 46.44c3.51.92 11.31 3.99 11.12 6.34-.14 1.74-3.89 1.31-9.1 1.27-5.5-.05-9.16.53-9.16.53s-.17-.47-.26-.87c-.11-.48-.13-1.02-.13-1.02s4.39-.78 8.56-.66c3.28.09 7.79.7 6.8-.42-.35-.4-5.58-2.58-8.45-3.1-2.86-.52-7.04-.79-7.04-.79s.05-.6.14-1.2c.06-.4.21-1.04.21-1.04s4.26.17 7.31.96Z" fill="#BA8D72"/></g></svg>