<svg width="128" height="128" xmlns="http://www.w3.org/2000/svg"><defs><linearGradient x1="46.319%" y1="93.722%" x2="56.907%" y2="9.553%" id="a"><stop stop-color="#FFF" offset="36.2%"/><stop stop-color="#FFFAEF" offset="41.2%"/><stop stop-color="#FFEDC7" offset="51%"/><stop stop-color="#FFD985" offset="64.6%"/><stop stop-color="#FFC139" offset="78.8%"/><stop stop-color="#FFB92E" offset="81.7%"/><stop stop-color="#FF9700" offset="94.4%"/></linearGradient></defs><g fill="none"><path d="M57.432 112.75s6.69 4.63 7.32 5.44c.63.8.9 1.74-.32 2.11-1.22.37-3.16-.14-3.16-.14s.97 1.44-1.31 1.97c-1.53.35-4.5-1.2-4.5-1.2s.49 1.37-1.55 1.65c-2.94.41-8.02-5.9-9.06-7.87-1.04-1.97-.56-3.66-.56-3.66l13.14 1.7Zm17.6-4.16s8.21 4.92 8.87 5.2c.66.28 3.22 1.71 2.25 3.28-.75 1.22-3.66.28-3.66.28s.63 1.37-1.03 2.16c-1.67.79-5.16-1.13-5.16-1.13s.39 1.71-1.88 1.97c-2.91.34-9.39-8.54-9.39-8.54l10-3.22Z" fill="#ADADB7"/><path d="M42.232 38.37s-1.13-17.6 7.46-25.76 19.15-7.23 22.39-6.38c3.24.84 8.88 2.88 12.86 8.63 5.26 7.6 3.1 14.73 5.54 19.33 1.92 3.63 7.23 14.03 8.07 21.49.84 7.46 1.41 21.59.99 26.61-.41 4.91-.61 9.24-3.24 13.23-1.57 2.39-4.7 2.44-5.77 1.13-.63-.77-.42-1.9-.42-1.9s-4.28 6.38-6.01 8.52c-2.82 3.47-8.67 9.06-18.21 10.7-12.58 2.16-33.22-4.5-33.22-4.5s-1.77 1.2-4.58 1.34c-1.43.07-3.1-1.34-2.89-2.75.21-1.41 1.83-3.38 2.18-4.15.35-.77-.73-22.31 2.65-36.95 3.38-14.64 9.67-26.62 12.2-28.59Z" fill="#4D4D4D"/><path d="M14.596 32.68s-6.1 6.34-6.66 15.06c-.47 7.33-.52 20.69 3.71 32.66 4.23 11.97 12.25 21.87 23.93 24.21 12.64 2.54 26.65-1.92 27.08-2.06.42-.14-2.53-3.28-4.6-6.38-1.57-2.36-3.61-7.6-3.61-7.6s.14 4.04-2.46 4.36c-1.98.25-4.79-1.69-6.9-6.34-2.11-4.65-4.98-17.27-5.77-27.66-.7-9.29.25-15.27 1.2-17.88.57-1.57 1.72-2.64 1.72-2.64s3.2 3.89 8.27 2.57c4.88-1.27 6.1-6.62 5.26-10.98-1.01-5.21-3.1-10.84-10.18-9.29-8.04 1.76-5.24 12.14-5.24 12.14s-5.74 4.68-13.76 3.84c-8.05-.84-11.99-4.01-11.99-4.01Z" fill="url(#a)" transform="matrix(-1 0 0 1 102.018 5.69)"/><path d="M80.102 18.15s.97-3.62 3.43-4.08c4.74-.89 11.31 2.21 13.98 3.85 2.16 1.33 5.12 4.22 4.22 5.63-.9 1.41-5.77.05-9.95.75-2.89.49-6.9 1.69-8.59 1.64-1.35-.04-3.1-2.35-3.33-3.43-.23-1.08-.23-3 .24-4.36Z" fill="#ADADB7"/><path d="M79.872 18.52s3.99 1.74 12.39 2.3c3.56.24 9.57 1.97 9.57 1.97s.61.61-.38 1.13c-.99.52-6.01-.91-9.1-1.08-5.02-.28-14.22-.94-14.22-.94l1.74-3.38Z" fill="#4D4D4D"/><path d="M63.442 22c-.09 2.15 2 3.99 3.88 3.68 2.37-.4 3.53-2.66 3.28-4.9s-2.29-3.42-4.18-3.21c-1.9.2-2.89 2.18-2.98 4.43Z" fill="#000409"/></g></svg>