<svg width="128" height="128" xmlns="http://www.w3.org/2000/svg"><g fill="none"><path d="M112.064 49.21c1.8 4.64 5.62 6.83 6.48 10.56.99 4.32-3.1 8.73-7.18 8.59-4.08-.14-13.08-5.04-16.19-6.76-3.57-1.97-11.92-5.87-11.92-5.87l-23.28-5.96-16.04 15.63 1.41 12.95s.84 3.38 2.67 6.62 7.18 8.17 10.42 7.32c3.24-.84 4.83-6.49 9.71-8.87 5.77-2.82 14.5-3.1 14.78-.7.28 2.4-4.22 3.24-5.35 4.5-1.13 1.27-2.67 6.48-4.36 8.17-1.69 1.69-5.35 4.08-5.35 4.08s3.66 4.65 3.94 8.31c.28 3.66-.42 7.32.14 8.59.56 1.27 3.94 4.93 2.25 6.19-1.69 1.26-10.84-5.21-13.37-10.14-2.53-4.93-3.66-8.31-4.79-9.29-1.13-.98-16.33-3.52-26.89-17.03-10.56-13.51-10.7-29.99-10.42-37.03.28-7.04 3.28-13.47.75-17.41-2.53-3.94-5.27-4.75-6.71-5.21-1.92-.61-4.27-1.13-3.75-3.28.39-1.65 2.16-6.1 12.11-8.45 7.02-1.65 14.22.28 14.22.28s23.13-15.5 48.43-8.44c24.21 6.76 31.82 22.81 31.53 31.82-.16 5.2-4.22 8.3-3.24 10.83Z" fill="#36B4E1"/><path d="m65.754 49.49 9.57 5.35s-.48 6.24-3.38 10.7c-1.92 2.96-4.79 5.49-7.6 6.48-3.33 1.17-6.88 1.16-7.04.28-.28-1.55 2.2-3.48 3.38-6.76 1.03-2.86 1.13-13.23 1.13-13.23l3.94-2.82Z" fill="#006DA6"/><path d="M84.754 56.39s-12.81-13.94-27.45-11.97c-14.64 1.97-18.21 12.62-17.32 24.35.54 7.16 7.89 17.51 8.02 16.19.09-.94-2.44-16.28 2.35-21.49 5.52-6.01 12.15-7.79 18.49-8.07 6.34-.28 15.91.99 15.91.99Z" fill="#DDECF5"/><path d="M86.794 31.33c-1.35 2.09-.84 4.62 1.06 5.84 1.9 1.22 4.99.54 6.34-1.55 1.35-2.09.87-5.23-1.2-6.12-3.03-1.31-4.85-.26-6.2 1.83Z" fill="#2D2B30"/><path d="M118.404 63.08s-3.43.1-5.14-.49c-4.29-1.5-9.43-6.26-11.76-8.45-1.93-1.81-4.65-5-6.34-6.69-1.69-1.69-3.31-3.52-4.08-3.24-.77.28-1.55 2.25-1.34 3.1.21.84 5.91 5.91 8.66 8.45 2.75 2.53 7.32 6.69 10.56 8.31 1.41.71 3.94 1.81 6.83 1.55 1.76-.16 2.68-1.91 2.61-2.54Zm-51.46-33.01c-.68 1.05-3.1-.27-4.5-1.06-1.76-.99-8.66-5.14-15.35-5.7-6.69-.56-11.68 1.76-12.81 2.25-1.13.49-3.73 1.62-3.73 2.25 0 .63 6.35 3.6 9.01 5.35 2.67 1.76 7.04 3.87 9.92 4.5 2.35.52 6.9-.14 6.97 1.2.07 1.34.42 2.11-5.14 2.11s-15.13-5.77-17.25-7.18c-2.12-1.41-9.64-5.14-9.08-6.48.8-1.9 9.78-7.56 21.54-7.32 10.21.21 15.77 4.72 18.3 6.62.62.46 2.9 2.26 2.12 3.46Z" fill="#006DA6"/></g></svg>