<svg width="128" height="128" xmlns="http://www.w3.org/2000/svg"><g transform="matrix(-1 0 0 1 122.609 9.06)" fill="none"><path d="M52.943 40.57s-3.1-2.11-6.62-1.97c-3.52.14-7.88 2.82-7.88 2.82s-6.05.28-10.7.14c-4.65-.14-15.63-1.41-21.26 1.13-5.63 2.53-7.04 7.32-6.19 11.12.84 3.8 1.74 9.8 20.55 20.55 8.24 4.71 17.26 6.44 25.05 7.05.35 1.43 1.2 11.61 2.83 17.02 2.11 7.04 5.1 7.32 6.19 7.6 4.36 1.13 2.52-4.63 2.39-9.01-.21-7.3 1.41-14.21 2.25-14.22 1.64-.01 6.91 1.83 8.17 1.83 10.14 17.03 19.08 19.17 22.1 17.03 2.39-1.69-.14-5.07-2.67-11.12-1.58-3.78-2.6-5.56-.95-5.69 13.53-1.08 29.35-6.38 31.64-26.97 1.53-13.81-6.72-24.35-7.46-26.33.42-2.04 3.42-7.55 4.72-11.58 2.18-6.79 2.53-9.82 1.48-9.96-1.12-.15-5.07 3.24-9.29 5.91-3.51 2.23-4.82 8.31-4.82 8.31s-5.74-3.52-10.95-1.27c-6.19 2.68-9.43 3.24-9.57 4.22-.14.99 6.34 3.24 10.84 4.5 4.66 1.31 9.85 2.39 9.85 2.39s4.5 11.83-2.96 15.2c-7.46 3.38-12.95-.99-19.99-4.5-7.04-3.52-13.55-7.85-19.01-7.18-4.96.64-7.74 2.98-7.74 2.98Z" fill="#6BA4AE"/><path d="M56.673 16.47s-.42-2.99 3.1-3.98c3.52-.99 7.39-1.13 7.6-4.72.24-4.08-3.73-4.93-6.97-3.94-4.36 1.33-7.6 6.19-7.6 6.19s-3.8-7.32-9.85-7.32c-4.96 0-5.48 3.69-5.07 5.42.63 2.67 3.69 3.91 6.93 4.26 3.55.39 3.91 3.84 3.91 3.84s-6.14-4.04-6.9 0c-.77 4.15 6.19 3.24 7.74 7.04.93 2.28 1.2 14.22 3.8 14.08 2.67-.14 1.55-13.51 3.38-15.06 1.83-1.55 7.74-3.38 6.62-6.05-1.71-4.07-6.69.24-6.69.24Z" fill="#36B4E1"/><ellipse fill="#36B4E1" cx="72.113" cy="2.75" rx="2.2" ry="2.23"/><ellipse fill="#36B4E1" cx="72.043" cy="12.55" rx="1.55" ry="1.5"/><ellipse fill="#36B4E1" cx="31.243" cy="2.57" rx="2.54" ry="2.57"/><ellipse fill="#36B4E1" cx="29.343" cy="10.98" rx="1.91" ry="1.96"/><ellipse fill="#36B4E1" transform="rotate(-32.683 34.335 20.743)" cx="34.335" cy="20.743" rx="1.87" ry="1.83"/><path d="M56.323 65.77c.7 2.82-16.05 2.67-30.13.14-14.08-2.53-24.64-8.16-24.64-8.16-.02.23-1.47-3.34-1.55-5.91-.06-2.05.7-3.63.7-3.63s4.82 4.12 12.71 6.93c7.88 2.82 17.13 6.02 24.74 7.11 12.82 1.83 17.68 1.57 18.17 3.52Z" fill="#FDEACB"/><ellipse fill="#2C292A" transform="rotate(-8.773 57.752 61.312)" cx="57.752" cy="61.312" rx="3.52" ry="3.33"/><path d="M113.193 71.76s-5.35 5.7-17.74 5.56c-8.36-.1-21.4-1.55-21.4-1.55s4.5 2.11 7.04 4.93c2.53 2.82 5.95 9.57 5.95 9.57s11.68-3.34 17.18-7.99c5.49-4.65 8.97-10.52 8.97-10.52ZM4.833 62.68s11.09 6.9 21.79 8.87c10.7 1.97 20.41 3.1 26.19 3.38 5.78.28 11.4.14 11.4.14s7.18 10.98 9.01 14.08c1.83 3.1 5.35 9.71 9.29 11.26 3.94 1.55 7.5 1.13 7.5 1.13s-5.21 3.94-11.16-.14c-2.55-1.75-8.55-9.08-8.55-9.08s-7.32-.07-11.83-.53c-4.21-.43-8.9-1.37-8.9-1.37s-.27 4.59.07 6.97c.35 2.46 2.04 6.81 5.91 7.74.88.21 1.96.17 1.9.28-.46.92-4.46 2.6-8.17-1.06-4.82-4.76-3.8-14.43-3.8-14.43s-6.83-1.47-14.92-6.41c-4.61-2.82-14.04-8.73-18.37-12.85-3.42-3.24-7.36-7.98-7.36-7.98Z" fill="#A4CED5"/><path d="M50.053 77.81c3.12.82 7.21-.28 7.25.49.07 1.34-4.56 1.86-7.53 1.48-3.8-.49-6.37-3.17-6.34-4.01.08-1.55 2.75 1.02 6.62 2.04Z" fill="#D9EBF3"/><path d="M28.513 73.87c-.5.86 2.75 3.17 4.86 3.73 2.11.56 4.01 1.06 5.49 1.97 1.48.91 3.1 4.65 6.55 5.7 3.45 1.06 6.55-1.34 10.28-1.2 3.73.14 6.05.07 5.56-.49-.49-.56-3.31-1.48-5.63-1.62-2.32-.14-6.76 1.69-9.64.77-2.89-.92-3.45-4.22-6.34-5.42-2.89-1.2-5.28-1.13-6.62-1.62-1.34-.48-4.01-2.67-4.51-1.82Z" fill="#D9EBF3"/><path d="M20.423 72.39c-.69.15.53 3.41 4.89 5.88 4.36 2.47 7.92 2.93 9.82 4.05 2.75 1.62 3.26 4.51 7.6 6.19 5.63 2.18 10.28.7 14.08.63 3.8-.07 10.14 1.62 10.35.63.27-1.26-6.05-2.67-10.56-2.75-3.1-.05-6.69 1.41-11.83.07-5.14-1.34-5.07-4.58-9.08-6.69-3.23-1.7-6.62-2.53-9.36-3.8-2.74-1.25-4.93-4.42-5.91-4.21Z" fill="#D9EBF3"/></g></svg>