<svg width="128" height="128" xmlns="http://www.w3.org/2000/svg"><g transform="matrix(-1 0 0 1 123.99 4)" fill="none"><path fill="#C87D5E" d="M59.14 80.17h18.31V120H59.14z"/><path d="M77.45 90.23c-1.64-2.66-3.81-4.93-6.55-6.41-1.7-.92-3.58-1.45-5.49-1.64h-3.19c-1.04.1-2.08.3-3.08.6v20.13c.89-1.36 2.37-2.34 3.97-2.72 2.79-.65 5.75.42 8.01 2.17s3.95 4.13 5.6 6.46l.74 1.04V90.23h-.01Z" fill="#874D36"/><path d="M24.94 24.97c11.86 0 21.51 8.02 21.51 17.89v47.6H3.42v-47.6c0-9.87 9.65-17.89 21.52-17.89" fill="#4E342E"/><path d="M50.97 90.19H15.13c-2.13 0-3.93-1.57-4.22-3.68L5.87 49.88a2.915 2.915 0 0 1 2.89-3.31h42.21v43.62Z" fill="#FFF"/><path d="M93.55 21.09H24.94s23.58 2.89 23.58 22.78l.12 50.48h66.52c2.67 0 4.83-2.16 4.83-4.83V47.54c.01-14.61-11.83-26.45-26.44-26.45Z" fill="#1976D2"/><path d="m79.47 30.01-8.14.28-11.85 18.18V33.72c0-7.88-8-12.64-8-12.64h31.16l.16.16c3.27 3.11 1.18 8.61-3.33 8.77Z" fill="#0D47A1"/><ellipse fill="#0D47A1" cx="70.21" cy="50.06" rx="8.14" ry="9.16"/><path d="m62.89 6.11.03 41.56c0 1.4 1.13 2.53 2.53 2.53h5.11c1.4 0 2.53-1.13 2.53-2.53V0h-4.1a6.1 6.1 0 0 0-6.1 6.11Z" fill="#C62828"/><path d="m65.12 6.11.03 41.56h8.17V15.49H87.4c3.25 0 3.63-1.41 3.63-7.55S90.66 0 87.41 0H71.22a6.1 6.1 0 0 0-6.1 6.11Z" fill="#F44336"/><path d="M70.39 6.88c-.07 1.99-1.37 20.01-1.6 23.39-.28 4.09-2.64 4.51-2.64.79V6.7c.01-3.94 4.39-4.15 4.24.18Z" fill="#FF7555"/><path d="m69.4 38.44.07 18.31h-4.14c-4.05 0-7.33-4.1-7.33-9.16 0-5.06 3.28-9.16 7.33-9.16 4.05 0 4.07.01 4.07.01Z" fill="#82AEC0"/><ellipse fill="#E0E0E0" cx="69.4" cy="47.59" rx="7.33" ry="9.16"/><path d="M65.02 47.86c.44.22.97-.02 1.35-.34 1.16-.97 1.6-2.57 2.67-3.63.94-.94 2.37-1.86 1.25-3.25-.81-1-2.18-.83-3.25-.37-2.37.99-4.25 6.47-2.02 7.59Z" fill="#FFF"/><path d="M24.94 25.23c11.77 0 21.35 7.96 21.35 17.75V90.2H3.59V42.97c0-9.78 9.58-17.74 21.35-17.74m0-4.14C9.81 21.09 0 31.28 0 43.86v48.35c0 1.17.95 2.13 2.13 2.13h48.09c1.17 0 2.13-.95 2.13-2.13V43.86c-.02-12.58-12.28-22.77-27.41-22.77Z" fill="#4FC3F7"/><path d="M13.68 87.5c-.59-.31-.1-.9.23-1.44l13.37-23.29 2.63 1.6-14.88 22.38c-.38.58-.76 1.06-1.35.75Z" stroke="#6FBFF0" fill="#6FBFF0"/><path d="M35.89 70.93 8.15 49.63c-.34-.23-.63-.65-.28-1.07.28-.34.54-.16 1.03.13l26.88 18.52c.68.42 1.56.24 2.03-.4l8.02-10.86-.02 4.87-6.76 9.54a2.316 2.316 0 0 1-3.16.57Z" stroke="#6FBFF0" fill="#6FBFF0"/></g></svg>