<svg width="128" height="128" xmlns="http://www.w3.org/2000/svg"><g transform="matrix(-1 0 0 1 123.99 25.09)" fill="none"><path fill="#C87D5E" d="M59.13 59.08h18.31v39.83H59.13z"/><path d="M77.45 69.14c-1.64-2.66-3.81-4.93-6.55-6.41-1.7-.92-3.58-1.45-5.49-1.64h-3.19c-1.04.1-2.08.3-3.08.6v20.13c.89-1.36 2.37-2.34 3.97-2.72 2.79-.65 5.75.42 8.01 2.17s3.95 4.13 5.6 6.46l.74 1.04V69.14h-.01Z" fill="#874D36"/><path d="M93.55 0H24.94s23.58 2.89 23.58 22.78l.12 50.48h66.52c2.67 0 4.83-2.16 4.83-4.83V26.45C120 11.84 108.16 0 93.55 0Z" fill="#1976D2"/><ellipse fill="#0D47A1" cx="70.21" cy="28.97" rx="8.14" ry="9.16"/><path d="m103.81 24.95-37.63.03v8.17h28.25v14.08c0 3.25 1.41 3.63 7.55 3.63s7.94-.38 7.94-3.63V31.06c-.01-3.37-2.74-6.11-6.11-6.11Z" fill="#0D47A1"/><path d="m106.44 21.78-37.63.03v8.17h28.25v14.08c0 3.25 1.41 3.63 7.55 3.63s7.94-.38 7.94-3.63V27.89c0-3.37-2.74-6.11-6.11-6.11Z" fill="#C62828"/><path d="m108.76 21.78-41.56.03v8.17h32.18v14.08c0 3.25 1.41 3.63 7.55 3.63s7.94-.38 7.94-3.63V27.89c-.01-3.37-2.74-6.11-6.11-6.11Z" fill="#F44336"/><path d="M107.98 27.06c-1.99-.07-20.01-1.37-23.39-1.6-4.09-.28-4.51-2.64-.79-2.64h24.37c3.93 0 4.14 4.39-.19 4.24Z" fill="#FF7555"/><path d="m68.81 17.35.07 18.31h-3.55c-4.05 0-7.33-4.1-7.33-9.16 0-5.06 3.28-9.16 7.33-9.16 4.04.01 3.48.01 3.48.01Z" fill="#82AEC0"/><ellipse fill="#E0E0E0" cx="69.4" cy="26.5" rx="7.33" ry="9.16"/><path d="M65.02 26.77c.44.22.97-.02 1.35-.34 1.16-.97 1.6-2.57 2.67-3.63.94-.94 2.37-1.86 1.25-3.25-.81-1-2.2-.88-3.25-.37-2.49 1.19-4.25 6.47-2.02 7.59Z" fill="#FFF"/><path d="m22.17 0-.47 73.24 28.51.01c1.17 0 2.13-.95 2.13-2.13V22.77c0-12.29-7.66-22.3-21.15-22.76C30.87 0 22.5 0 22.17 0Z" fill="#4FC3F7"/><path d="M22.12 0C6.35 0 0 9.71 0 22.77v47.89a2.58 2.58 0 0 0 2.58 2.58l42.57.01c1.17 0 2.13-.95 2.13-2.13V22.77C47.27 9.71 37.89 0 22.12 0Z" fill="#1976D2"/><path d="M29.19 20.92H18.31a2.09 2.09 0 0 1-2.09-2.09v-6.65h15.07v6.65a2.104 2.104 0 0 1-2.1 2.09Z" fill="#0D47A1"/><path d="M30.54 10.96H14.82c-1.04 0-2.51.6-2.51 2.44v3.02c0 1.04.85 1.89 1.89 1.89h11.13c1.04 0 1.89-.85 1.89-1.89v-.75c0-1.01.82-1.83 1.83-1.83h1.5c.46 0 .83-.37.83-.83v-1.22c0-.45-.38-.83-.84-.83Z" fill="#4FC3F7"/><path d="M26.38 12.68c-.17.29-.47.49-.8.49H13.33s.09-1.63 1.47-1.63h12.48c.11 0 .15.15.06.21-.53.36-.81.68-.96.93Z" fill="#FFF" opacity=".57"/></g></svg>