<svg width="128" height="128" xmlns="http://www.w3.org/2000/svg"><g fill="none"><path d="m55.05 103.17 6.77 19.25s-14.23-.19-18.37-.61c-4.14-.42-11.81-3.11-13.05-7.25-1.24-4.14 1.04-20.51 1.04-20.51s-6.22-1.66-9.12-4.97c-2.9-3.31-2.07-8.7-1.86-12.43.21-3.73.36-34.63.83-38.33.71-5.52 2.69-10.57 6.01-14.29 3.32-3.72 7.17-5.48 8.55-6.17 1.76-.89 7.39-2.28 7.39-2.28l11.81 87.59Z" fill="#615555"/><path d="M93.24 26.02c.16.33 3.45 2.96 3.53 5.66.08 2.71-.41 4.89-.74 6.73-.31 1.74-.96 4.89-.96 4.89l-52.39-.29s-2.03-1.88-1.72-5.25c.49-5.42 2.79-8.13 4.84-10.59 2.05-2.46 28.48-6.48 28.48-6.48s18.88 5.17 18.96 5.33Z" fill="#4A4240"/><path d="M41.15 8.83s-1.95.63-4.56 4.03c-2.18 2.83-1.45 6.6-.22 10.35.99 3.03 3.25 7.42 6.34 6.75 2.51-.54 12.39-3.65 20.33-4.87 10.17-1.56 16.81-1.24 23.67 1.05 6.52 2.17 10.05 5.55 10.05 5.55s.28-3.9-.6-6.08-10.24-6.75-10.24-6.75L41.15 8.83Z" fill="#91837F"/><path d="M48.03 22.66c-3.69.37-6.32-2.29-7.52-6.54-1.2-4.25-.9-6.13-.35-6.78.54-.65 12.66-6.51 28.02-5.2 15.36 1.31 19.29 6.06 21.57 8.28 3.92 3.81 6.66 10.52 6.46 13.4 0 .06-2.28-4.37-17.03-6.1-16.77-1.96-26.8 2.51-31.15 2.94Z" fill="#BFB3B3"/><path d="M94.76 45.54s.76-2.94.11-3.81c-.65-.87-3.16-3.05-6.97-3.81-3.81-.76-7.73.22-7.73.22l-14.27-4.9s-.98 1.42-1.74 3.05-1.74 5.12-1.74 5.12-1.03-1.49-4.29-2.47c-3.27-.98-8.77.43-8.77.43L46.3 65.59s.76 7.19.54 21.68c-.22 14.49-.11 21.13.54 26.25.28 2.19 2.25 7.51 10.78 8.82 8.14 1.25 22.44 2.72 33.11 1.85 10.68-.87 13.65-5.05 14.71-7.08 1.09-2.1-.44-7.99-.44-7.99l-5.55-5.41s2.83-19.61 2.94-20.15c.11-.55-8.17-38.02-8.17-38.02Z" fill="#948585"/><path d="M42.12 42.99c1.35-1.67 7.15-5.09 11.92-3.27 4.98 1.91 7.51 8.2 5.88 13.43-1.11 3.57-4.38 7.01-7.13 10.02-2.95 3.24-4.31 5.71-5.58 5.71-1.27 0-2.54-11.36-3.5-15.41-.96-4.05-2.47-9.39-1.59-10.48Z" fill="#BFB3B3"/><path d="M61.03 40.21s.79.4 1.19.16c.4-.24 1-1.62 1-1.62S74.9 54.28 75.53 55.23c.64.95.41 1.34.09 1.74-.32.4-6.48-.89-10.21 1.88-3.89 2.9-4.04 8.55-2.53 10.7 1.51 2.14 6.13 2.29 9.16.05 1.49-1.1 7.94-4.47 16.05-4.47 3.38 0 9.35.58 9.35.58l3.62 3.32-3.57 5-14.35 5.12-2.12-3.4s-12.46 1.31-16.65.61c-4.19-.7-7.64-4.06-6.91-10.4.67-5.8 4.68-8.35 6.63-12.84 1.68-3.88-.03-7.76-.63-9.21-.49-1.16-2.43-3.7-2.43-3.7Zm18.58 41.03-8.34 3.62s-4.67 1.11-5.31 2.45c-.41.85.06 2.39 2.28 1.75 1.28-.37 7.23-2.02 8.99-2.45 2.16-.53 13.84-1.17 16.62-.45 2.09.54 4.82 2.69 6.34 2.32 1.46-.35 1.34-1.26 1.36-2.89.01-.94-3.14-3.01-3.14-3.01l-16.51-2.1-2.29.76Z" fill="#615654"/><path d="M95.89 89.41c.99 2.28-5.78 5.03-9.16 5.13-7.59.23-11.87-4.26-11.79-4.67.18-.82 7.35-.93 12.02-.99 4.27-.05 8.58-.29 8.93.53Z" fill="#615654"/><path d="M76.59 64.91c-1.22.45-4.51-.35-7.56-1.87-3.05-1.53-4.65-2.57-4.58-3.26.07-.69 2.08-2.36 4.72-2.64 2.76-.29 4.49.12 5.13.76.9.9 4.37 6.25 2.29 7.01Z" fill="#BFB3B3"/><path d="M84.65 67.56c1.83.25.89 2.86 0 4.25-.97 1.52-1.93 2.54-3.06 2.74-1.13.2-6.78.27-6.72-1.6.06-1.87 7.32-5.72 9.78-5.39Zm7.69.66c1.03-.34 3.25 1.56 3.49 2.32.24.79-1.44 3.46-4.01 2.85-1.81-.42-.39-4.87.52-5.17Z" fill="#4A4240"/><path d="M65.89 33.23c-.06 1.36 11.29 19.51 12.63 21.7 1.34 2.19 4.53 7.43 5.47 8.26 1.15 1.03 5.01 2.1 7.03 2.25 5.05.39 7.55 2.12 8.15 3.33.6 1.21-3.89 5.22-7.11 6.01s-10.08.55-11.36 1.09c-1.28.54-3.82 2.72-5.82 3.88-2 1.16-4.74 3.11-4.68 4.14.06 1.03.5 1.13 1.4.9 1.06-.27 5.53-1.62 8.19-1.93 4.83-.56 11.92-.81 15.97.23 2.23.57 6.28 2.6 5.71 4.44-.51 1.63-1.35 2.86-2.55 4.37-1.04 1.31-3.04 4.8-4.31 6.86-1.28 2.06-3.77 5.46-8.61 5.81-5.64.41-7.84-2.41-10.46-5.94-2.61-3.52-4.13-7.17-7.83-6.74-3.7.43-4.49 5.04-5.16 8.32-.67 3.28-2.73 12.15-1.7 14.21 1.03 2.06 2.73 2.25 5.77 2.79 3.04.55 16.76 2.49 25.02 1.34 8.26-1.15 13.42-3.82 13.91-6.59.49-2.77-.67-3.92-.85-9.26-.18-5.34.42-30.23-1.95-40.44-2.37-10.21-6.37-15.76-8.74-17.64-2.37-1.88-7.27-3.76-8.33-3.19-1.06.57 4.49 12.33 4.49 12.33s-3.51-.98-3.84-1.8c-.33-.82-9.39-20.42-11.11-21.4-1.72-.98-3.45-.81-5.49-.16-2.05.69-3.84 2.83-3.84 2.83Z" fill="#BFB3B3"/><path d="M92.53 45.79c1.16-.77 2.86.41 3.59 1.96s.16 2.94-.57 3.27c-.73.33-2.19-.01-3.19-1.55-.89-1.4-1.05-2.87.17-3.68ZM73.14 29.84c3.55.02 5.3 1.83 7.18 5.08 2.05 3.55 2.57 7.68 5.51 12.17s6.04 8.41 7.35 9.64c1.31 1.23 4.17 4.74 2.29 6.37s-4.49-.9-6.29-3.19c-1.8-2.29-5.55-9.23-7.43-12.17-1.88-2.94-9.15-12.5-10.37-14.7-.75-1.35-.22-3.21 1.76-3.2Zm20.54 46.25c1.23-.29 2.37-.25 3.27.9.9 1.14 1.08 2.67-.16 3.1-1.63.57-2.86 0-3.84-1.06-.76-.81-.99-2.53.73-2.94Zm-2.29 34.05c2.29.25 2.04 3.27 1.55 4.49-.49 1.22-1.88 1.96-3.51 1.47s-1.88-2.29-1.39-3.76c.49-1.47 1.24-2.42 3.35-2.2ZM50.85 40.3c2.41.08 3.31.76 4.13 2.34.92 1.76-.07 3.13-1.65 3.24-1.93.14-3.17-.41-4.34-2.34-.84-1.38-.21-3.31 1.86-3.24Zm4.55 7.23c1.1-.1 1.58.41 1.79 1.17.21.76-.34 1.38-1.1 1.45-.76.07-1.38-.41-1.65-1.03-.28-.62.2-1.52.96-1.59Zm32.59-36.79s-2.38-2.3-5.58-3.57c-4.5-1.79-8.07-2.25-8.07-2.25s-2.41-.25-3.03.51c-.79.96.62 2.27.62 2.27s-2.07-.28-2.62.76c-.55 1.03-.14 2.69 2.34 2.76 2.48.07 1.72-2.14 1.72-2.14s1.65.83 3.03 1.17c1.38.34 3.17-.07 3.17-.07s2.95 4.68 6.41 3.72c2.86-.78 2.01-3.16 2.01-3.16Zm3.26 8.08c-.85.81-2.53.43-3.43-.95-.91-1.38-.81-2.81 0-3.43.81-.62 2.34-.14 3.19.95.85 1.09 1.25 2.48.24 3.43Z" fill="#D4CCCD"/></g></svg>