<svg width="128" height="128" xmlns="http://www.w3.org/2000/svg"><defs><linearGradient x1="50%" y1=".989%" x2="50%" y2="82.838%" id="b"><stop stop-color="#651FFF" offset="0%"/><stop stop-color="#5914F2" offset="70.5%"/><stop stop-color="#530EEB" offset="100%"/></linearGradient><linearGradient x1="58.603%" y1="13.917%" x2="42.329%" y2="95.477%" id="d"><stop stop-color="#70534A" offset="50%"/><stop stop-color="#5C4037" offset="100%"/></linearGradient><linearGradient x1="49.994%" y1="85.743%" x2="49.994%" y2="238.794%" id="e"><stop stop-color="#651FFF" offset="0%"/><stop stop-color="#5914F2" offset="70.5%"/><stop stop-color="#530EEB" offset="100%"/></linearGradient><radialGradient cx="49.996%" cy="47.435%" fx="49.996%" fy="47.435%" r="59.247%" gradientTransform="matrix(1 0 0 .68494 0 .15)" id="a"><stop stop-color="#444140" stop-opacity="0" offset="79.4%"/><stop stop-color="#444140" offset="100%"/></radialGradient><radialGradient cx="50.427%" cy="93.345%" fx="50.427%" fy="93.345%" r="77.989%" gradientTransform="matrix(.79599 0 0 1 .103 0)" id="c"><stop stop-color="#444140" stop-opacity="0" offset="79.4%"/><stop stop-color="#444140" offset="100%"/></radialGradient></defs><g transform="matrix(-1 0 0 1 115.17 3.87)" fill="none"><path d="M60.457 0c-41.01 0-40.68 37.92-40.68 38.52 0 24.56 1.88 59.25 11.71 72.9 3.9 5.41 11.43 5.71 11.43 5.71l16.97-.03 16.97.03s7.54-.3 11.43-5.71c9.83-13.65 11.71-48.34 11.71-72.9 0-.6 1.47-38.52-39.54-38.52Z" fill="#232020"/><path d="M60.457 0c-41.01 0-40.68 37.92-40.68 38.52 0 24.56 1.88 59.25 11.71 72.9 3.9 5.41 11.43 5.71 11.43 5.71l16.97-.03 16.97.03s7.54-.3 11.43-5.71c9.83-13.65 11.71-48.34 11.71-72.9 0-.6 1.47-38.52-39.54-38.52Z" fill="url(#a)"/><path d="M111.027 120.13c-.26-7.29-6.17-16.97-13.82-20.99-10.06-5.29-22.94-7.01-37.36-7.01-8.9 0-15.98 2.62-24.35-.01-4.44-1.4-7.51-3.69-8.97-8.18l-1.32-4.05-24.13 6s5.02 21.89 7.57 34.24h102.38Z" fill="url(#b)"/><path d="M68.977 86.2h-18.16v9.98c0 4.51 3.7 8.17 8.26 8.17h1.65c4.56 0 8.26-3.66 8.26-8.17V86.2h-.01Z" fill="#3C2B24"/><path d="M59.897 12.16c-17.2 0-33.13 12.79-33.13 39.91 0 21.79 13.49 34.67 25.23 38.83 2.8.99 5.5 1.49 7.9 1.49 2.38 0 5.07-.49 7.85-1.47 11.76-4.14 25.28-17.03 25.28-38.84 0-27.13-15.93-39.92-33.13-39.92Z" fill="#70534A"/><path d="M63.707 64.17c-.1-.04-.21-.07-.32-.08h-6.99c-.11.01-.21.04-.32.08-.63.26-.98.91-.68 1.61.3.7 1.69 2.66 4.49 2.66 2.8 0 4.19-1.96 4.49-2.66.31-.69-.03-1.35-.67-1.61Z" fill="#33251F"/><path d="M60.457 0c-41.01 0-40.68 37.92-40.68 38.52 0 7.76.19 16.53.75 25.32l6.72-.02c-.06-2.92 1.99-20.97 8.08-22.34 22.36-5.03 35.01-16.89 35.01-16.89 3.29 7.18 13.58 14.19 17.27 16.86 3.03 2.19 4.03 18.55 3.97 22.38h7.63c0-.05.02-.1.02-.16.56-8.75.74-17.46.74-25.17.03-.58 1.5-38.5-39.51-38.5Z" fill="#232020"/><path d="M60.457 0c-41.01 0-40.68 37.92-40.68 38.52 0 7.76.19 16.53.75 25.32l6.72-.02c-.06-2.92 1.99-20.97 8.08-22.34 22.36-5.03 35.01-16.89 35.01-16.89 3.29 7.18 13.58 14.19 17.27 16.86 3.03 2.19 4.03 18.55 3.97 22.38h7.63c0-.05.02-.1.02-.16.56-8.75.74-17.46.74-25.17.03-.58 1.5-38.5-39.51-38.5Z" fill="url(#c)"/><path d="M68.217 72.26c-3.15 1.87-13.46 1.87-16.61 0-1.81-1.07-3.65.57-2.9 2.21.74 1.61 6.37 5.36 11.23 5.36s10.42-3.75 11.16-5.36c.75-1.64-1.08-3.29-2.88-2.21Zm-17.34-26.32c-.93-1.23-3.07-3.01-7.23-3.01s-6.31 1.79-7.23 3.01c-.41.54-.31 1.17-.02 1.55.26.35 1.04.68 1.9.39.86-.29 2.54-1.16 5.35-1.18 2.81.02 4.49.89 5.35 1.18.86.29 1.64-.03 1.9-.39.29-.38.39-1.01-.02-1.55Zm32.5 0c-.93-1.23-3.07-3.01-7.23-3.01s-6.31 1.79-7.23 3.01c-.41.54-.31 1.17-.02 1.55.26.35 1.04.68 1.9.39.86-.29 2.54-1.16 5.35-1.18 2.81.02 4.49.89 5.35 1.18.86.29 1.64-.03 1.9-.39.29-.38.39-1.01-.02-1.55Z" fill="#1A1717"/><ellipse fill="#1A1717" cx="43.647" cy="54.99" rx="4.87" ry="5.04"/><ellipse fill="#1A1717" cx="76.147" cy="54.99" rx="4.87" ry="5.04"/><path d="M40.187 27.56c-2.3.03-6.66 3.52-8.4 5.76-2.84 3.64-4.85 11.23-14.21 8.31-1.67-.51-8.34-1.63-9.49-2.3-.78-.45-2.85-4.14-1.54-11.69.49-2.87 1.66-9.81 1.66-9.81l1.65-10.87c.21-1.83 1.48-3.01 3.21-2.58 1.39.35 1.78 1.6 1.68 3.23l-.39 6.54v.04c0 .29.21.55.51.61.33.06.65-.15.72-.48.48-2.19 2.14-9.8 2.51-11.15.44-1.58 1.27-2.84 3.04-2.45 1.77.38 2.05 2.22 1.75 3.67-.29 1.44-2.18 11.47-2.18 11.47-.07.35.12.68.45.76h.01c.31.07.63-.14.72-.47l4.12-13.55c.49-1.78 2.01-2.87 3.64-2.14 1.3.59 1.59 2.09 1.18 3.58l-3.49 13.83c-.04.16.04.33.19.38h.01c.14.04.3-.04.35-.19l4.7-11.35c.56-1.43 1.8-2.43 3.18-2.07 1.76.44 2.28 2.23 1.62 3.94 0 0-4.49 12.27-5.91 16.05-.02.07-.05.14-.07.2-.01.02-.02.03-.02.04a.62.62 0 0 0 .57.84c.1 0 .2-.03.3-.07.09-.05.18-.09.26-.15l.09-.06c1.42-.88 2.77-2.81 4.97-3.1 2.4-.32 3.95.58 4.46 1.62.44.87.45 3.57-1.85 3.61Z" fill="url(#d)"/><path d="M24.977 79.19c-.48-1.94-.66-3.94-.54-5.93l.63-29.18c.05-.8-.37-1.52-1.03-1.88-.24-.15-.51-.26-.8-.3l-15.97-3.7c-1.03-.13-1.99.55-2.21 1.56 0 0-4.13 30.92-4.43 33.39-.3 2.47-1.08 5.44-.27 9.18l.72 3.55 25.79-.69-1.89-6Z" fill="url(#e)"/><path d="M31.687 25.65c-3.12.14-6.24.51-8.95 1.9-1.36.71-2.56 1.69-3.58 2.86-.82.93-1.48 1.98-2.08 3.11-.02.05-.07.08-.11.08-.07 0-.11-.05-.12-.11v-.01c0-.03.9-2.51 1.64-3.59.93-1.38 2.23-2.53 3.71-3.35 1.47-.82 3.08-1.35 4.71-1.62 1.52-.27 3.05-.35 4.56-.29-.02.07-.05.14-.07.2-.01.02-.02.03-.02.04-.12.33.04.65.31.78Z" fill="#4A2F27"/></g></svg>