<svg width="128" height="128" xmlns="http://www.w3.org/2000/svg"><defs><linearGradient x1="50%" y1=".989%" x2="50%" y2="82.838%" id="a"><stop stop-color="#00BFA5" offset="0%"/><stop stop-color="#00B29A" offset="70.5%"/><stop stop-color="#00AB94" offset="100%"/></linearGradient><linearGradient x1="58.603%" y1="13.917%" x2="42.329%" y2="95.477%" id="c"><stop stop-color="#A56C43" offset="50%"/><stop stop-color="#8D5738" offset="100%"/></linearGradient><linearGradient x1="49.994%" y1="85.743%" x2="49.994%" y2="238.794%" id="d"><stop stop-color="#00BFA5" offset="0%"/><stop stop-color="#00B29A" offset="70.5%"/><stop stop-color="#00AB94" offset="100%"/></linearGradient><radialGradient cx="49.999%" cy="71.65%" fx="49.999%" fy="71.65%" r="63.372%" gradientTransform="matrix(.81369 0 0 1 .093 0)" id="b"><stop stop-color="#554138" stop-opacity="0" offset="79.4%"/><stop stop-color="#554138" offset="100%"/></radialGradient></defs><g transform="matrix(-1 0 0 1 115.17 4.03)" fill="none"><path d="M111.027 119.97c-.26-7.29-6.17-16.97-13.82-20.99-10.06-5.29-22.94-7.01-37.36-7.01-8.9 0-15.98 2.62-24.35-.01-4.44-1.4-7.51-3.69-8.97-8.18l-1.32-4.05-24.13 6s5.02 21.89 7.57 34.24h102.38Z" fill="url(#a)"/><path d="M68.927 86.05h-18.16v9.98c0 4.51 3.7 8.17 8.26 8.17h1.65c4.56 0 8.26-3.66 8.26-8.17v-9.98h-.01Zm18.26-39.65h-54.66c-5.89 0-10.71 5.14-10.71 11.41 0 6.28 4.82 11.41 10.71 11.41h54.65c5.89 0 10.71-5.14 10.71-11.41.01-6.27-4.81-11.41-10.7-11.41Z" fill="#7A4C32"/><path d="M59.857 7.04c-17.4 0-33.52 18.61-33.52 45.39 0 26.64 16.61 39.81 33.52 39.81 16.91 0 33.52-13.17 33.52-39.81 0-26.78-16.12-45.39-33.52-45.39Z" fill="#A56C43"/><path d="M68.277 72.11c-3.19 1.89-13.63 1.89-16.81 0-1.83-1.09-3.7.58-2.94 2.24.75 1.63 6.45 5.42 11.37 5.42 4.92 0 10.55-3.79 11.3-5.42.75-1.66-1.09-3.33-2.92-2.24Z" fill="#473530"/><path d="M63.717 64.03c-.11-.04-.21-.07-.32-.08h-7.07c-.11.01-.22.04-.32.08-.64.26-.99.92-.69 1.63.3.71 1.71 2.69 4.55 2.69s4.25-1.99 4.55-2.69c.29-.71-.06-1.37-.7-1.63Z" fill="#875334"/><ellipse fill="#42312C" cx="43.417" cy="54.78" rx="4.93" ry="5.1"/><ellipse fill="#42312C" cx="76.297" cy="54.78" rx="4.93" ry="5.1"/><path d="M83.937 46.76c0-.01-2.29-3.61-7.6-3.61s-7.6 3.6-7.6 3.6v.01c-.19.26-.3.58-.3.92 0 .87.71 1.58 1.57 1.58.18 0 .62-.13.66-.15 3.18-1.31 5.67-1.32 5.67-1.32s2.47.01 5.65 1.32c.04.02.48.15.66.15.87 0 1.57-.71 1.57-1.58.03-.35-.09-.67-.28-.92Zm-33 0c.01-.01-2.29-3.61-7.59-3.61s-7.6 3.6-7.6 3.6l.01.01c-.19.26-.3.58-.3.92 0 .87.71 1.58 1.58 1.58.18 0 .62-.13.66-.15 3.18-1.31 5.67-1.32 5.67-1.32s2.47.01 5.65 1.32c.04.02.48.15.66.15.87 0 1.58-.71 1.58-1.58a1.67 1.67 0 0 0-.32-.92Z" fill="#42312C"/><path d="M59.867 0h-.04c-45.44.24-36.13 52.14-36.13 52.14s2.04 5.35 2.97 7.71c.13.34.63.3.71-.05.97-4.34 4.46-19.73 6.22-24.4a6.08 6.08 0 0 1 6.8-3.83c4.45.81 11.55 1.81 19.37 1.81h.16c7.82 0 14.92-1 19.37-1.81 2.9-.53 5.76 1.08 6.79 3.83 1.75 4.66 5.22 19.96 6.2 24.36.08.36.58.39.71.05l2.98-7.67c.02 0 9.32-51.9-36.11-52.14Z" fill="#3C2C23"/><path d="M95.997 52.14S105.307.24 59.867 0h-.04c-.71 0-1.4.02-2.08.05-1.35.06-2.66.16-3.92.31h-.04c-.09.01-.17.03-.26.04-38.24 4.81-29.83 51.74-29.83 51.74l2.98 7.68c.13.34.62.31.7-.05.98-4.39 4.46-19.71 6.22-24.37a6.08 6.08 0 0 1 6.8-3.83c4.45.81 11.55 1.81 19.37 1.81h.16c7.82 0 14.92-1 19.37-1.81 2.9-.53 5.76 1.08 6.79 3.83 1.76 4.68 5.25 20.1 6.21 24.42.08.36.57.39.7.05.94-2.36 3-7.73 3-7.73Z" fill="url(#b)"/><path d="M40.187 27.4c-2.3.03-6.66 3.52-8.4 5.76-2.84 3.64-4.85 11.23-14.21 8.31-1.67-.51-8.34-1.63-9.49-2.3-.78-.45-2.85-4.14-1.54-11.69.49-2.87 1.66-9.81 1.66-9.81L9.857 6.8c.21-1.83 1.48-3.01 3.21-2.58 1.39.35 1.78 1.6 1.68 3.23l-.39 6.54v.04c0 .29.21.55.51.61.33.06.65-.15.72-.48.48-2.19 2.14-9.8 2.51-11.15.44-1.58 1.27-2.84 3.04-2.45 1.77.38 2.05 2.22 1.75 3.67-.29 1.44-2.18 11.47-2.18 11.47-.07.35.12.68.45.76h.01c.31.07.63-.14.72-.47l4.12-13.55c.49-1.78 2.01-2.87 3.64-2.14 1.3.59 1.59 2.09 1.18 3.58l-3.49 13.83c-.04.16.04.33.19.38h.01c.14.04.3-.04.35-.19l4.7-11.35c.56-1.43 1.8-2.43 3.18-2.07 1.76.44 2.28 2.23 1.62 3.94 0 0-4.49 12.27-5.91 16.05-.02.07-.05.14-.07.2-.01.02-.02.03-.02.04a.62.62 0 0 0 .57.84c.1 0 .2-.03.3-.07.09-.05.18-.09.26-.15l.09-.06c1.42-.88 2.77-2.81 4.97-3.1 2.4-.32 3.95.58 4.46 1.62.44.87.45 3.57-1.85 3.61Z" fill="url(#c)"/><path d="M24.977 79.03c-.48-1.94-.66-3.94-.54-5.93l.63-29.18c.05-.8-.37-1.52-1.03-1.88-.24-.15-.51-.26-.8-.3l-15.97-3.7c-1.03-.13-1.99.55-2.21 1.56 0 0-4.13 30.92-4.43 33.39-.3 2.47-1.08 5.44-.27 9.18l.72 3.55 25.79-.69-1.89-6Z" fill="url(#d)"/><path d="M31.687 25.49c-3.12.14-6.24.51-8.95 1.9-1.36.71-2.56 1.69-3.58 2.86-.82.93-1.48 1.98-2.08 3.11-.02.05-.07.08-.11.08-.07 0-.11-.05-.12-.11v-.01c0-.03.9-2.51 1.64-3.59.93-1.38 2.23-2.53 3.71-3.35 1.47-.82 3.08-1.35 4.71-1.62 1.52-.27 3.05-.35 4.56-.29-.02.07-.05.14-.07.2-.01.02-.02.03-.02.04-.12.33.04.65.31.78Z" fill="#875334"/></g></svg>