<svg width="128" height="128" xmlns="http://www.w3.org/2000/svg"><defs><linearGradient x1="40.463%" y1="40.042%" x2="63.756%" y2="71.122%" id="a"><stop stop-color="#00BFA5" offset="0%"/><stop stop-color="#00B29A" offset="47%"/><stop stop-color="#009E89" offset="100%"/></linearGradient><linearGradient x1="50.417%" y1="67.598%" x2="46.324%" y2="14.688%" id="b"><stop stop-color="#F9DDBD" offset="46.1%"/><stop stop-color="#FFD29C" offset="100%"/></linearGradient><linearGradient x1="25.675%" y1="105.501%" x2="48.981%" y2="49.211%" id="c"><stop stop-color="#F9DDBD" offset="45.6%"/><stop stop-color="#FFD29C" offset="100%"/></linearGradient><radialGradient cx="47.726%" cy="63.434%" fx="47.726%" fy="63.434%" r="68.784%" gradientTransform="scale(.90935 1) rotate(6.667 .501 1.043)" id="d"><stop stop-color="#454140" stop-opacity="0" offset="52.6%"/><stop stop-color="#454140" offset="100%"/></radialGradient></defs><g transform="matrix(-1 0 0 1 89.988 5.705)" fill="none"><path d="M29.16 7.635c-2.51-4.06-8.2-7.22-12.91-6.44-5.28.87-8.11 4.67-8.86 9.49-.27 1.75-.22 3.49.08 4.72.04.15.33 1.22.35 1.56.2 1.3-2.32 2.59-2.61 4.02-.22 1.08 2.03 1.77 2.21 1.96.88.97-.51 5.58 5.66 6.04 2.37.18 1.91.03 2.61.3 1.09.42.99 3.32.99 3.32s.61 4.78 4.69 3.51c4.66-1.44 4.84-4.74 4.84-4.74s-1.73-4.6 1.05-9.38c2.21-3.82 3.52-11.75 1.9-14.36Z" fill="#F9DDBD"/><path d="M8.04 25.525c.86.05 1.7-.15 2.43-.69.79-.59.25-1.24-.66-.86-.55.23-1.32.35-2.02.22l.25 1.33Z" fill="#444"/><ellipse fill="#312D2D" transform="rotate(-1.812 11.64 17.685)" cx="11.64" cy="17.685" rx="1.13" ry="1.74"/><path d="M10.76 15.115c-1.12.26-1.34-.48-.94-1.04.29-.42.98-.74 2.25-.42 1.2.3 1.66 1.03 1.97 1.47.31.44.24.86-.04.89-.38.02-1.86-1.22-3.24-.9Z" fill="#454140"/><path d="m47.25 102.975-14.07-16.05c-.88-1-1.4-2.26-1.48-3.59l-1.38-22.46-15.5 1.71 4.88 23.17c.79 3.75 2.9 7.09 5.94 9.42l16.49 12.6 5.12-4.8Z" fill="#616161"/><path d="m30.14 57.175-17.58 1.61-4.53 20.39c-.83 3.76-1.12 7.63-.85 11.47l1.63 23.24h6.67l2.95-25.03s5.01-13.32 5.17-13.4c4.07-1.93 7.59-4.92 7.41-9.83-.09-2.82-.55-5.66-.87-8.45Z" fill="#7C7C7C"/><path d="M26.88 67.805h-11.9c-2.27 0-4.12-2.18-4.12-4.86l2.15-22.5c.44-4.11 2.53-8.09 4.63-9.59 1.97-1.41 4.82-1.64 4.82-1.64 1.53-.12 3.8.25 5.25 2.37.87 1.27 1.52 3.75 1.66 5.88l1.62 25.48c0 2.69-1.84 4.86-4.11 4.86Z" fill="url(#a)"/><path d="m28.79 54.585-2.25-13.83-6.97 1.13 2.15 13.19-3.57 9.84c-.23.45-3.46 1.91-3.66 2.01-.62.3-1.05.89-1.37 2.06-.19.72-.67 2.78.34 3.14-.34.95-.12 2.14.14 2.42.6.65 1.33.36 1.33.36s.1.83.76 1.06c.82.29 1.39-.16 1.39-.16.29.22.64.34 1.01.34.44 0 .83-.17 1.13-.39.19.08.71.39 1.37-.08.42-.3 1.74-2.03 2.15-3.14.28-.76.24-4.58.59-5.25.35-.67 5.14-10.2 5.14-10.2h-.01c.43-.79.53-1.68.33-2.5Z" fill="url(#b)"/><path d="M20.87 72.995c-.23-.6-.38-.64-.8-.53-.57.15-1.19.13-1.54-.57-.08-.17-.2-.23-.38-.17-.61.2-1.37.21-1.63-.71-.1-.34-.24-.38-.61-.38-.12 0-.47.15-.83-.23-.4-.43.14-1.29-.37-1.37-.15-.02-.87.06-1.09-.71-.14-.5.44-1.1.45-1.11-.4.35-.71.9-.94 1.78-.19.72-.67 2.78.34 3.14-.34.95-.12 2.14.14 2.42.6.65 1.33.36 1.33.36s.1.83.76 1.06c.82.29 1.39-.16 1.39-.16.29.22.64.34 1.01.34.44 0 .83-.17 1.13-.39.19.08.71.39 1.37-.08.35-.25 1.34-1.52 1.89-2.58-.49.39-1.45.34-1.62-.11Z" fill="url(#c)"/><path d="M16.59 118.275c.63 0 1.15-.51 1.15-1.15v-2.8c0-1.9-1.93-4.07-1.93-4.07H8.83l-6.28 2.07c-1.52.6-2.53 2.06-2.54 3.69l-.01 1.26c0 .55.45 1 1 1h15.59Z" fill="#4568AD"/><path d="M51.64 106.135c.45-.45.45-1.17 0-1.62l-1.98-1.98c-1.35-1.35-4.24-1.52-4.24-1.52l-4.93 4.93-2.97 5.91c-.65 1.5-.33 3.24.82 4.41l.89.9c.39.39 1.03.39 1.42 0l10.99-11.03Z" fill="#325599"/><path d="M20.36 73.685c.07.49-.06.86-.24 1.22-.2.34-.44.65-.89.86-.07-.49.06-.86.24-1.22.19-.34.44-.65.89-.86Zm-2.02-.91c.07.63-.07 1.19-.27 1.72-.22.52-.48 1.03-.97 1.44-.07-.64.07-1.19.27-1.72.22-.51.49-1.02.97-1.44Zm-2.4-1c.12.62.02 1.18-.13 1.72-.17.53-.4 1.05-.85 1.5-.12-.62-.02-1.18.13-1.72.18-.53.41-1.05.85-1.5Zm-.15-3.6c-.31.27-.61.55-.86.85-.27.3-.4.57-.49.96-.23.74-.46 1.51-1 2.22-.16-.87 0-1.69.33-2.47.17-.38.5-.82.86-1.04.37-.25.76-.42 1.16-.52Z" fill="#EDBD82"/><path d="m18.39 47.295 10.9-1.98-1.76-9.69a5.538 5.538 0 1 0-10.9 1.98l1.76 9.69Z" fill="#04A287"/><path d="M29.69 4.845c-2.3-2.82-6.5-4.66-10.51-4.83-2.69-.11-5.28.39-7.49 1.47-.04.02-4.25 2.11-5.18 4.16-1 2.19-.07 3.45.16 3.68.36.35 1.16.24 1.16.24 1.58-.14 6.6-.51 9.16-.02.4.08.85.2 1.04.56.08.16.16 1.18.17 1.36.2 2.3.03 3.76.75 5.2.12.23.59.53.59.53l.92-1.47c.58-.84 1.11-1.57 1.88-1.43 2.28.41 2.02 4.45-.62 5.45 0 0 .52 3.16 3.43 3.67 2.55.45 2.88-.12 3.1-1.08.49-2.08 1.05-2.99 1.65-3.95.71-1.14 1.44-2.31 1.93-5.35.49-3.04-.25-5.88-2.14-8.19Z" fill="#312D2D"/><path d="M29.69 4.845c-2.3-2.82-6.5-4.66-10.51-4.83-2.69-.11-5.28.39-7.49 1.47-.04.02-4.25 2.11-5.18 4.16-1 2.19-.07 3.45.16 3.68.36.35 1.16.24 1.16.24 1.58-.14 6.6-.51 9.16-.02.4.08.85.2 1.04.56.08.16.16 1.18.17 1.36.2 2.3.03 3.76.75 5.2.12.23.59.53.59.53l.92-1.47c.58-.84 1.11-1.57 1.88-1.43 2.28.41 2.02 4.45-.62 5.45 0 0 .52 3.16 3.43 3.67 2.55.45 2.88-.12 3.1-1.08.49-2.08 1.05-2.99 1.65-3.95.71-1.14 1.44-2.31 1.93-5.35.49-3.04-.25-5.88-2.14-8.19Z" fill="url(#d)"/></g></svg>