<svg width="128" height="128" xmlns="http://www.w3.org/2000/svg"><defs><radialGradient cx="30.409%" cy="87.388%" fx="30.409%" fy="87.388%" r="101.961%" gradientTransform="scale(1 .80758) rotate(-6.419 2.16 .978)" id="a"><stop stop-color="#6D4C41" stop-opacity="0" offset="52.6%"/><stop stop-color="#6D4C41" offset="100%"/></radialGradient><radialGradient cx="105.151%" cy="72.503%" fx="105.151%" fy="72.503%" r="114.737%" gradientTransform="matrix(-.9855 .08818 -.1697 -.51208 2.21 1.004)" id="b"><stop stop-color="#6D4C41" offset="0%"/><stop stop-color="#6D4C41" stop-opacity="0" offset="52.6%"/></radialGradient><radialGradient cx="90.383%" cy="41.916%" fx="90.383%" fy="41.916%" r="100.875%" gradientTransform="matrix(-.98494 .05632 -.1729 -.32082 1.867 .503)" id="c"><stop stop-color="#6D4C41" stop-opacity="0" offset="52.6%"/><stop stop-color="#6D4C41" offset="100%"/></radialGradient><radialGradient cx="49.984%" cy="49.96%" fx="49.984%" fy="49.96%" r="52.889%" gradientTransform="matrix(.89849 0 0 1 .05 0)" id="g"><stop stop-color="#6D4C41" stop-opacity="0" offset="52.6%"/><stop stop-color="#6D4C41" offset="100%"/></radialGradient><linearGradient x1="40.463%" y1="40.042%" x2="63.756%" y2="71.122%" id="d"><stop stop-color="#651FFF" offset="0%"/><stop stop-color="#5914F2" offset="70.5%"/><stop stop-color="#530EEB" offset="100%"/></linearGradient><linearGradient x1="50.417%" y1="67.598%" x2="46.324%" y2="14.688%" id="e"><stop stop-color="#FFCA28" offset="46.1%"/><stop stop-color="#FFB300" offset="100%"/></linearGradient><linearGradient x1="25.675%" y1="105.501%" x2="48.981%" y2="49.211%" id="f"><stop stop-color="#FFCA28" offset="45.6%"/><stop stop-color="#FFB300" offset="100%"/></linearGradient></defs><g transform="matrix(-1 0 0 1 89.988 5.35)" fill="none"><path d="M39.54 21.65c.26-7.36 4.54-11.81-.17-17.5-3.11-3.75-9.3-2.18-10.39-.74-2.11 2.79 1.49 5.3 2.32 6.69 1.22 2.05-1.03 10.41 2.66 16.39 5 8.08 10.12 6.82 10.12 6.82s-4.79-4.58-4.54-11.66Z" fill="#543930"/><path d="M39.94 18.22c1.03-5.43 3.36-9.32-.57-14.07-3.11-3.75-9.3-2.18-10.39-.74-2.11 2.79 1.49 5.3 2.32 6.69 1.23 2.05 8.64 8.12 8.64 8.12Z" fill="url(#a)"/><path d="M39.54 21.65c.07-1.84.4-3.64.84-5.43.39-1.58.79-2.93-.23-4.39-1.62-2.29-4.85-3.29-7.48-2.32-.79.29-1.28.7-1.17 1.51.08.59.2 1.12.21 1.73.02 1.38-.03 2.75-.01 4.13.06 3.3.49 6.73 2.25 9.59 5 8.08 10.12 6.82 10.12 6.82s-4.78-4.56-4.53-11.64Z" fill="url(#b)"/><path d="M39.34 32.18s-5.82-3.48-7.14-10.29c-.53-2.72-.57-5.02-.5-6.57.06-1.34.9-5.74-.21-7.24" fill="url(#c)"/><path d="M29.16 7.99c-2.51-4.06-8.2-7.22-12.91-6.44-5.28.87-8.11 4.67-8.86 9.49-.27 1.75-.22 3.49.08 4.72.04.15.33 1.22.35 1.56.2 1.3-2.32 2.59-2.61 4.02-.22 1.08 2.03 1.77 2.21 1.96.88.97-.51 5.58 5.66 6.04 2.37.18 1.91.03 2.61.3 1.09.42.99 3.32.99 3.32s.61 4.78 4.69 3.51c4.66-1.44 4.84-4.74 4.84-4.74s-1.73-4.6 1.05-9.38c2.21-3.82 3.52-11.75 1.9-14.36Z" fill="#FFCA28"/><path d="M8.04 25.88c.86.05 1.7-.15 2.43-.69.79-.59.25-1.24-.66-.86-.55.23-1.32.35-2.02.22l.25 1.33Z" fill="#795548"/><ellipse fill="#404040" transform="rotate(-1.812 11.64 18.04)" cx="11.64" cy="18.04" rx="1.13" ry="1.74"/><path d="M10.76 15.47c-1.12.26-1.34-.48-.94-1.04.29-.42.98-.74 2.25-.42 1.2.3 1.66 1.03 1.97 1.47.31.44.24.86-.04.89-.38.02-1.86-1.22-3.24-.9Z" fill="#6D4C41"/><path d="M47.25 103.33 33.18 87.28c-.88-1-1.4-2.26-1.48-3.59l-1.38-22.46-15.5 1.71 4.88 23.17c.79 3.75 2.9 7.09 5.94 9.42l16.49 12.6 5.12-4.8Z" fill="#616161"/><path d="m30.14 57.53-17.58 1.61-4.53 20.39C7.2 83.29 6.91 87.16 7.18 91l1.63 23.24h6.67l2.95-25.03s5.01-13.32 5.17-13.4c4.07-1.93 7.59-4.92 7.41-9.83-.09-2.82-.55-5.66-.87-8.45Z" fill="#7C7C7C"/><path d="M26.88 68.16h-11.9c-2.27 0-4.12-2.18-4.12-4.86l2.15-22.5c.44-4.11 2.53-8.09 4.63-9.59 1.97-1.41 4.82-1.64 4.82-1.64 1.53-.12 3.8.25 5.25 2.37.87 1.27 1.52 3.75 1.66 5.88l1.62 25.48c0 2.69-1.84 4.86-4.11 4.86Z" fill="url(#d)"/><path d="m28.79 54.94-2.25-13.83-6.97 1.13 2.15 13.19-3.57 9.84c-.23.45-3.46 1.91-3.66 2.01-.62.3-1.05.89-1.37 2.06-.19.72-.67 2.78.34 3.14-.34.95-.12 2.14.14 2.42.6.65 1.33.36 1.33.36s.1.83.76 1.06c.82.29 1.39-.16 1.39-.16.29.22.64.34 1.01.34.44 0 .83-.17 1.13-.39.19.08.71.39 1.37-.08.42-.3 1.74-2.03 2.15-3.14.28-.76.24-4.58.59-5.25.35-.67 5.14-10.2 5.14-10.2h-.01c.43-.79.53-1.68.33-2.5Z" fill="url(#e)"/><path d="M20.87 73.35c-.23-.6-.38-.64-.8-.53-.57.15-1.19.13-1.54-.57-.08-.17-.2-.23-.38-.17-.61.2-1.37.21-1.63-.71-.1-.34-.24-.38-.61-.38-.12 0-.47.15-.83-.23-.4-.43.14-1.29-.37-1.37-.15-.02-.87.06-1.09-.71-.14-.5.44-1.1.45-1.11-.4.35-.71.9-.94 1.78-.19.72-.67 2.78.34 3.14-.34.95-.12 2.14.14 2.42.6.65 1.33.36 1.33.36s.1.83.76 1.06c.82.29 1.39-.16 1.39-.16.29.22.64.34 1.01.34.44 0 .83-.17 1.13-.39.19.08.71.39 1.37-.08.35-.25 1.34-1.52 1.89-2.58-.49.39-1.45.34-1.62-.11Z" fill="url(#f)"/><path d="M16.59 118.63c.63 0 1.15-.51 1.15-1.15v-2.8c0-1.9-1.93-4.07-1.93-4.07H8.83l-6.28 2.07c-1.52.6-2.53 2.06-2.54 3.69L0 117.63c0 .55.45 1 1 1h15.59Z" fill="#4568AD"/><path d="M51.64 106.49c.45-.45.45-1.17 0-1.62l-1.98-1.98c-1.35-1.35-4.24-1.52-4.24-1.52l-4.93 4.93-2.97 5.91c-.65 1.5-.33 3.24.82 4.41l.89.9c.39.39 1.03.39 1.42 0l10.99-11.03Z" fill="#325599"/><path d="M20.36 74.04c.07.49-.06.86-.24 1.22-.2.34-.44.65-.89.86-.07-.49.06-.86.24-1.22.19-.34.44-.65.89-.86Zm-2.02-.91c.07.63-.07 1.19-.27 1.72-.22.52-.48 1.03-.97 1.44-.07-.64.07-1.19.27-1.72.22-.51.49-1.02.97-1.44Zm-2.4-1c.12.62.02 1.18-.13 1.72-.17.53-.4 1.05-.85 1.5-.12-.62-.02-1.18.13-1.72.18-.53.41-1.05.85-1.5Zm-.15-3.6c-.31.27-.61.55-.86.85-.27.3-.4.57-.49.96-.23.74-.46 1.51-1 2.22-.16-.87 0-1.69.33-2.47.17-.38.5-.82.86-1.04.37-.25.76-.42 1.16-.52Z" fill="#EDA600"/><path d="m18.39 47.65 10.9-1.98-1.76-9.69a5.538 5.538 0 1 0-10.9 1.98l1.76 9.69Z" fill="#3615AF"/><path d="M29.67 4.85C27.34 2.02 23.56.21 19.54.02c-3.49-.17-8.28.69-11.22 3.6-1.77 1.75-2.82 4.05-2.53 6.6.17 1.54 1.44 2.32 1.44 2.32s1.45-3.5 5.02-2.61c3.75.93 5.38.17 5.38.17-1.26 2.98-.15 4.61.83 5.54.56.53 1.08 1.16 1.37 1.53.15.19.28.18.34-.02.15-.48.42-1.35.63-1.75.69-1.37 1.81-.88 1.81-.88 1.51.53 2.05 3.64-.43 5.47-.06.04-.23.16-.13.47.98 3.15 4.71 3.26 4.94 3.15 0 0 .01 0 .01-.01.02-.01.04-.02.05-.03.5-.23.79-.64.88-1.22.31-2.09 1.22-2.7 1.88-3.61.76-1.05 1.62-2.24 2.11-5.53.46-3.12-.32-6.01-2.25-8.36Z" fill="#543930"/><path d="M29.67 4.85C27.34 2.02 23.56.21 19.54.02c-3.49-.17-8.28.69-11.22 3.6-1.77 1.75-2.82 4.05-2.53 6.6.17 1.54 1.44 2.32 1.44 2.32s1.45-3.5 5.02-2.61c3.75.93 5.38.17 5.38.17-1.26 2.98-.15 4.61.83 5.54.56.53 1.08 1.16 1.37 1.53.15.19.28.18.34-.02.15-.48.42-1.35.63-1.75.69-1.37 1.81-.88 1.81-.88 1.51.53 2.05 3.64-.43 5.47-.06.04-.23.16-.13.47.98 3.15 4.71 3.26 4.94 3.15 0 0 .01 0 .01-.01.02-.01.04-.02.05-.03.5-.23.79-.64.88-1.22.31-2.09 1.22-2.7 1.88-3.61.76-1.05 1.62-2.24 2.11-5.53.46-3.12-.32-6.01-2.25-8.36Z" fill="url(#g)"/></g></svg>