<svg width="128" height="128" xmlns="http://www.w3.org/2000/svg"><defs><radialGradient cx="50%" cy="50%" fx="50%" fy="50%" r="50.004%" gradientTransform="scale(.99979 1)" id="a"><stop stop-color="#78909C" offset="0%"/><stop stop-color="#617A86" offset="56.2%"/><stop stop-color="#546E7A" offset="100%"/></radialGradient><radialGradient cx="45.434%" cy="48.133%" fx="45.434%" fy="48.133%" r="54.197%" gradientTransform="matrix(.53725 .76401 -.63618 .6452 .517 -.176)" id="d"><stop stop-color="#6D4C41" stop-opacity="0" offset="64.4%"/><stop stop-color="#6D4C41" offset="100%"/></radialGradient><radialGradient cx="40.904%" cy="-26.248%" fx="40.904%" fy="-26.248%" r="254.031%" gradientTransform="scale(.72995 1) rotate(49.819 .485 -.1)" id="e"><stop stop-color="#6D4C41" offset="28.4%"/><stop stop-color="#6D4C41" stop-opacity="0" offset="40.9%"/></radialGradient><radialGradient cx="50%" cy="50%" fx="50%" fy="50%" r="50%" id="h"><stop stop-color="#78909C" offset="0%"/><stop stop-color="#617A86" offset="56.2%"/><stop stop-color="#546E7A" offset="100%"/></radialGradient><radialGradient cx="24.497%" cy="33.854%" fx="24.497%" fy="33.854%" r="62.376%" gradientTransform="matrix(.68804 0 0 1 .076 0)" id="j"><stop stop-color="#81D4FA" offset="0%"/><stop stop-color="#5EB3E7" offset="36%"/><stop stop-color="#3C92D3" offset="77.5%"/><stop stop-color="#2F85CC" offset="100%"/></radialGradient><linearGradient x1="8.963%" y1="50.041%" x2="98.602%" y2="50.041%" id="b"><stop stop-color="#D8EB21" offset="0%"/><stop stop-color="#D6E921" offset="44.1%"/><stop stop-color="#B8C721" offset="60.6%"/><stop stop-color="#ADBA21" offset="80.4%"/></linearGradient><linearGradient x1="75.23%" y1="-67.662%" x2="16.76%" y2="187.584%" id="c"><stop stop-color="#A47B62" offset="19.5%"/><stop stop-color="#BA8D68" offset="69.1%"/></linearGradient><linearGradient x1="0%" y1="50%" x2="100%" y2="50%" id="f"><stop stop-color="#651FFF" offset="0%"/><stop stop-color="#5914F2" offset="70.5%"/><stop stop-color="#530EEB" offset="100%"/></linearGradient><linearGradient x1=".043%" y1="50.031%" x2="99.976%" y2="50.031%" id="g"><stop stop-color="#BA8D68" offset="50%"/><stop stop-color="#A47B62" offset="100%"/></linearGradient><linearGradient x1="48.737%" y1="29.426%" x2="45.249%" y2="79.32%" id="i"><stop stop-color="#646464" offset="0%"/><stop stop-color="#262626" offset="99.5%"/></linearGradient></defs><g transform="matrix(-1 0 0 1 120.85 3.99)" fill="none"><path d="m73.14 76.99-1.63-2.34c-1.1-1.59-3.98-2.28-3.98-2.28l-5.85 4.06-4.06 5.4c-.93 1.39-.92 3.2.03 4.57l.73 1.06c.2.29.52.44.84.44.2 0 .4-.06.58-.18l13.05-9.1c.53-.37.66-1.1.29-1.63Z" fill="#4568AD"/><path d="M44.54 6.36c-3.24-3.37-9.33-5.24-13.7-3.56-4.89 1.88-6.85 6.07-6.6 10.81.09 1.72.49 3.37 1.03 4.49.06.13.56 1.1.65 1.42.45 1.2-1.7 2.93-1.7 4.36 0 1.07 2.31 1.28 2.51 1.43 1.04.75.63 5.39 6.66 4.62 2.03-.26 2.13-.47 2.86-.51 1.9-.12 7.26 1.63 7.26 1.63l2.12-4.44s-1.74-.8-.04-6.17c1.31-4.12 1.03-11.92-1.05-14.08Z" fill="#BA8D68"/><path d="M27.87 27.64c.83-.12 1.61-.48 2.19-1.14.64-.72-.01-1.23-.8-.69-.48.33-1.2.6-1.9.61l.51 1.22Z" fill="#5D4037"/><ellipse fill="#49362E" transform="rotate(-13.952 29.74 19.44)" cx="29.74" cy="19.44" rx="1.11" ry="1.69"/><path d="M28.51 17.35c-.93.64-1.39.05-1.23-.61.12-.48.63-1.02 1.91-1.19 1.2-.15 1.89.34 2.32.63.44.29.53.7.28.82-.34.17-2.13-.44-3.28.35Z" fill="#613E31"/><path d="M45.99 8.17c-.43-.58-.9-1.12-1.44-1.6-.76-.68-1.64-1.21-2.56-1.64-2.44-1.13-5.24-1.5-7.88-.96-2.64.54-5.08 2.02-6.73 4.15-1.27 1.65-2.05 3.91-1.25 5.83.99-.29 1.72-1.15 2.8-1.37 1.4-.3 2.93-.32 4.12-1.11.46-.3.85-.71 1.28-1.05.11-.03.18-.04.18-.04 1.91.55.5 5.03 2.91 6.98a8.9 8.9 0 0 0 1.04.71s-.41-3.16 1.61-3.19c2.1-.03 2.27 2.12 1.67 3.95-.62 1.9-1.69 1.23-1.31 1.86.62 1.03 3.81 1.33 4.81 1.12 1.34-.27 2.2-1.73 3-2.84.93-1.28.85-2.8.71-4.38-.16-1.74-.99-3.35-1.91-4.84-.33-.55-.68-1.08-1.05-1.58Z" fill="#543930"/><path d="m76.42 45.63-6.21-11.67-24.05 13.91v.01c-2.74 1.45-3.77 4.85-2.32 7.59.15.29.33.55.53.8l.04.05c.05.06.1.12.15.19l16.86 20.27 7.08-5.21-11.38-16.55 19.3-9.39Z" fill="#91674D"/><path d="M80.37 36.03c-1.4-2.64-4.13-4.16-6.94-4.16-1.25 0-2.51.3-3.69.92v-.01l-16.97 9.86 7.04 13.24 17.31-9.21c3.84-2.04 5.29-6.8 3.25-10.64Z" fill="#646464"/><path fill="#E0E0E0" d="m64.16 65.27-7.64 5.62 4.9 5.89 7.08-5.21z"/><path d="M90.38 72.42c-12.87 0-23.34 10.47-23.34 23.33 0 12.87 10.47 23.33 23.34 23.33 12.86 0 23.33-10.47 23.33-23.33 0-12.87-10.46-23.33-23.33-23.33Zm0 38.33c-8.26 0-15.01-6.73-15.01-15s6.74-15 15.01-15 15 6.73 15 15-6.73 15-15 15ZM23.34 72.42C10.47 72.42 0 82.89 0 95.75c0 12.87 10.47 23.33 23.34 23.33 12.86 0 23.33-10.47 23.33-23.33 0-12.87-10.46-23.33-23.33-23.33Zm0 38.33c-8.26 0-15.01-6.73-15.01-15s6.74-15 15.01-15 15 6.73 15 15-6.73 15-15 15Z" fill="url(#a)"/><path d="M92.78 94.08a2.59 2.59 0 0 0-.37-.67l-9.17-12.34-10.19-13.74 3.74-8.13c.08-.17.14-.35.18-.53.04-.18.07-.36.07-.54.01-.18-.01-.36-.04-.53-.06-.35-.18-.68-.37-.98a2.7 2.7 0 0 0-1.75-1.24l-.2-.03c-.12-.02-.24-.04-.36-.04h-.04c-.03 0-.06.01-.08.01-.2.01-.4.03-.59.08-.05.01-.1.02-.15.04-.22.07-.43.16-.63.28-.01.01-.03.02-.04.03-.18.12-.34.26-.49.41-.04.04-.08.09-.12.13-.15.18-.29.38-.39.6l-.02.04-3.61 7.85-31.97-4.62 1.07-4.05c.39-1.46-.49-2.96-1.96-3.35-.01 0-.03 0-.04-.01-.22-.06-.44-.09-.66-.09-1.21 0-2.32.81-2.65 2.04l-2.26 8.55-8.5 32.17c-.38 1.46.49 2.96 1.95 3.35.24.06.47.09.71.09h.01c1.21 0 2.32-.81 2.65-2.04l7.62-28.86 20.94 28.69c.05.07.12.13.18.19s.11.12.17.18c.06.06.12.11.19.16l.02.02c.01.01.03.02.04.03.06.05.12.09.19.13.03.02.05.04.08.05.03.01.06.03.09.05.01 0 .02.01.03.02l.06.03c.03.01.05.02.08.03.03.01.07.03.1.04.07.03.15.06.22.08.05.02.1.04.16.05.19.04.4.07.6.07H90.2c1.04 0 1.99-.58 2.45-1.51.36-.67.4-1.48.13-2.19ZM39.65 66.22l16.47 2.38 9.66 1.4-9.02 19.65-17.11-23.43ZM61.58 92.3l8.86-19.27L84.76 92.3H61.58Z" fill="url(#b)"/><path d="M63.9 95.49c-.47-1.02-1.33-1.74-2.25-1.89-1.18-.2-6.06 1.39-6.78 1.72-1.75.78-3.88 3-2.91 5.31.61 1.42 1.48 1.85 2.41 1.85.78 0 1.59-.3 2.33-.57l.56-.2c.37-.13.8-.26 1.25-.39 1.96-.58 4.4-1.31 5.4-2.99.45-.78.46-1.84-.01-2.84Z" fill="#504F4F"/><path d="m36.02 52.26-8.54-2.05a2.34 2.34 0 0 0-.64-.08 2.742 2.742 0 0 0-.64 5.41l8.54 2.05c.21.05.42.08.64.08 1.24 0 2.36-.84 2.67-2.1.35-1.47-.56-2.95-2.03-3.31Z" fill="#405966"/><path d="M81.3 52.78c-.13-.1-.27-.2-.41-.28-1.15-.65-2.44-.5-3.76-.56-1.6-.08-3.22-.15-4.82-.25-.88-.06-1.76-.07-2.64-.07-1.03 0-2.07.02-3.09.02-.78 0-1.55-.01-2.32-.05-.04-.01-.1-.01-.16-.01-1.47 0-2.86 1.11-3.37 2.43-.72 1.87.55 3.05 2.14 3.91 1.95 1.06 4.14 1.56 6.27 2.08 2.32.56 4.64 1.3 7.02 1.62.3.04.6.06.91.06 2.06 0 4.19-.91 5.36-2.62 1.4-2.04.82-4.76-1.13-6.28Z" fill="#504F4F"/><path d="m79.4 42.68-11.24-6.96-13.77 24.14h.01a5.572 5.572 0 0 0-.74 3.95l2.77 25.84 6.79-.09 1.48-24.9 14.7-21.98Z" fill="url(#c)"/><path fill="#E0E0E0" d="m55.45 82 .98 7.64 6.79-.09.59-7.64z"/><path d="M77.99 32.39a7.894 7.894 0 0 0-4.13-1.17c-2.63 0-5.21 1.32-6.7 3.73L57.03 52.36l12.75 7.89s9.56-14.8 10.76-17.03c1.93-3.6 1.15-8.54-2.55-10.83Z" fill="#7C7C7C"/><path d="M65.3 15.93c3.97-5.94.68-9.83.68-9.83s.26 5.96-6.88 7.47c-1.07.23-2.26.12-3.49 0-2.85-.31-5.86-.74-7.79 2.95-.83 1.56.75 4.73 4.06 5.69 1.28.37 2.85.39 4.62-.16 3.5-1.09 6.76-3.08 8.8-6.12Z" fill="#543930"/><path d="M65.3 15.91c3.97-5.94.68-9.83.68-9.83v.02c.12.38 2.34 8.24-8.78 12.42-4.94 1.86-7.58.01-9.01-2.68-.13.2-.26.42-.38.66-.83 1.56.75 4.73 4.06 5.69 1.28.37 2.85.39 4.62-.16 3.51-1.09 6.78-3.08 8.81-6.12Z" fill="url(#d)"/><path d="M65.98 6.09c.01.25.1 5.97-6.88 7.45-1.07.23-2.26.12-3.49 0-2.67-.3-5.48-.68-7.42 2.29 1.43 2.69 4.07 4.54 9.01 2.68 11.11-4.18 8.9-12.03 8.78-12.42Z" fill="url(#e)"/><path d="m66.97 93.53-.77-2.75c-.51-1.88-3-3.49-3-3.49l-6.86 1.9-5.61 3.75c-1.33 1-1.92 2.71-1.49 4.33l.34 1.25c.12.45.54.75.98.75.09 0 .18-.01.27-.04l15.33-4.26c.62-.17.99-.82.81-1.44Z" fill="#4568AD"/><path d="M53.96 19.55c-1.18-.25-2.36-.4-3.47-.4-2.52 0-4.63.78-5.53 2.82-.73 1.62-1.49 3.27-2.28 4.92-1.41 2.99-.26 7.58 3.24 8.68 9.09 2.89 8.84 5.59 14.12 8.04 1.53.71 2.98 1.02 4.34 1.02 6.66 0 11.37-7.4 14.15-12.12-6.11-6.23-14.25-10.69-24.57-12.96Z" fill="url(#f)"/><path d="m50.32 27.32-7.78-2.3-4.63 17.22-8.32 7.01c-1.44-.49-3.34-.75-4.69-.75h-.03c-.14 0-.27 0-.39.01-.06 0-.11.01-.16.01-.07.01-.14.01-.2.02-.07.01-.15.02-.21.03-.02 0-.04.01-.07.01-.18.03-.34.08-.44.14-.37.22-.94.72-1.48 1.21-.83.77-1.26 1.88-1.17 3.01l.06.82c-.07.25.31.83.88 1.17.03.02.07.04.1.06.03.02.07.03.11.05.44.21.97.26 1.49-.1.68-.45-.05-1.7.27-2.23.37-.63 1.01-1.27 1.01-1.27s1.98-.15 2.41.16c.76.63.98 1.19.55 2.39-.31.86-1.02 1.75-.66 2.04.13.11.26.2.38.28.01.01.02.01.03.02.09.06.18.12.27.16.05.03.11.04.16.07.04.02.08.03.13.04.08.02.16.03.24.03h.04c.46.01.96-.28 1.69-1.01 1.03-1.04 2.01-.69 2.8-1.48l9.9-6.65.12-.08c.19-.1.38-.22.55-.35l.04-.02c.57-.45.99-1.07 1.2-1.78h.01l5.82-17.95-.03.01Z" fill="url(#g)"/><path d="M25.8 49.72c-1.57 0-2.84 1.27-2.84 2.84 0 1.57 1.27 2.84 2.84 2.84 1.57 0 2.84-1.27 2.84-2.84 0-1.57-1.28-2.84-2.84-2.84Z" fill="url(#h)"/><path d="M47.97 22.24a5.318 5.318 0 0 0-6.62 3.59l-2.55 9.49 9.73 2.88 3.03-9.35c.83-2.82-.77-5.78-3.59-6.61Z" fill="#4300D9"/><path d="M38.79 23.81c.11 1.66-2.8 5.42-2.88 5.65-.16.38 1.43.44 1.78.08.35-.36 3.57-3.53 5.64-7.49.93-1.78 3.03-6.51 3.03-6.51l-2.93-1.43s-.86 8.22-2.93 8.19c-2.08-.03-2.04-7.99-2.04-7.99l-4.67 1.94s4.94 6.53 5 7.56Z" fill="url(#i)"/><path d="M46.5 3.64C43.9 1.2 40.42 0 36.92 0c-1.64 0-3.3.26-4.87.79-1.44.48-5.97 2.71-7.91 6.57-.81 1.62-1.45 3.39-1.61 5.19-.09.98-.1 2.73.69 3.59.35.38.77.5 1.17.5.21 0 .42-.03.62-.07 1.05-.23 3.7-1.35 4.49-1.43.11-.01.21-.01.32-.01 1.66 0 2.89 1.19 3.22 1.43.67.48 1.34.86 2.12.86.67 0 1.43-.27 2.36-.99 1.21-.93 1.48-1.65 2.56-1.84.12-.02.26-.04.4-.04.73 0 1.73.38 2.9 2.2.99 1.54 2.14 2.19 3.12 2.19.57 0 1.08-.21 1.47-.59 1.49-1.42 4.39-9.27-1.47-14.71Z" fill="url(#j)"/></g></svg>