<svg width="128" height="128" xmlns="http://www.w3.org/2000/svg"><defs><linearGradient x1="42.789%" y1="68.481%" x2="55.135%" y2="38.829%" id="a"><stop stop-color="#FFD29C" offset="0%"/><stop stop-color="#F9DDBD" offset="50%"/></linearGradient><linearGradient x1="59.543%" y1="28.633%" x2="39.599%" y2="70.792%" id="b"><stop stop-color="#FFA000" offset="0%"/><stop stop-color="#FF9300" offset="34.1%"/><stop stop-color="#FF7100" offset="97.2%"/><stop stop-color="#FF6F00" offset="100%"/></linearGradient><linearGradient x1="71.063%" y1="22.878%" x2="24.348%" y2="83.031%" id="e"><stop stop-color="#F9DDBD" offset="50%"/><stop stop-color="#FFD29C" offset="100%"/></linearGradient><radialGradient cx="35.347%" cy="33.925%" fx="35.347%" fy="33.925%" r="55.159%" id="c"><stop stop-color="#FFA726" offset="20.9%"/><stop stop-color="#B33F00" offset="79.2%"/></radialGradient><radialGradient cx="61.809%" cy="10.324%" fx="61.809%" fy="10.324%" r="50.513%" gradientTransform="matrix(.97995 0 0 1 .012 0)" id="d"><stop stop-color="#FB8C00" offset="0%"/><stop stop-color="#EF6C00" offset="100%"/></radialGradient></defs><g transform="matrix(-1 0 0 1 123.99 3.66)" fill="none" fill-rule="evenodd"><path d="M105.08 87.68c-.09.12-10.18 11.85-10.18 11.85l-7.23-5.65 5.12-7.68.41-.62s-.36-.15-.97-.4c-2.33-.94-8.28-3.3-10.97-3.93-3.5-.82-4.35 1.14-5.61 4.24-2.73 6.69-6.25 16.3-6.25 16.3-12.53-1.42-25.42-3.77-38.02-4.32 4.24-6.87 9.39-22.16 10.14-24.15 1.36-3.59-1.52-4.22-6.26-5.56-3.47-.98-7.74-2.08-11.76-3.74-5.25-2.17-5.24-7.69-4.25-10.5 2.09-5.95 8.86-15.24 9.2-16.1 1.13-2.9-2.37-2.9-4.25-7.06-.81-1.81-.02-3.47 1-5.17 1.25-2.08 3.77-3.01 6.17-3.38 2.42-.36 4.97-.29 7.19.72.47.22 1.1.42 1.5.77.36.33.41.71.87.91.58.25 1.17-.05 1.77.35.46.31.8.81.95 1.33.27.87.87 1.52.6 2.38-.83 2.67-3.04 4.72-4.6 7.62-.97 1.79-1.66 3.72-2.47 5.59-1.43 3.3-3.02 6.63-4.12 10.07-.08.24-.16.48-.23.72 0 0 .24.06.67.16 2.71.67 13.06 3.17 20 4.92 7.36 1.85 13.93 3.5 20.88 6.12 19.72 7.46 25.23 11.18 28.08 12.8 4.04 2.29 6.21 6.75 2.62 11.41Z" fill="url(#a)" fill-rule="nonzero"/><path d="M102.46 76.27c-2.85-1.62-8.36-5.33-28.08-12.79-6.94-2.62-13.51-4.27-20.88-6.12-8.04-2.03-20.67-5.06-20.67-5.08.87-2.9 2.11-5.72 3.35-8.51-.76-.01-1.52-.06-2.28-.19a14.61 14.61 0 0 1-7.19-3.41c-2.24 3.4-5.99 9.19-7.45 13.36-.99 2.82-1 8.33 4.25 10.5 4.02 1.66 8.29 2.76 11.76 3.74 4.74 1.34 7.62 1.97 6.26 5.56-.75 1.99-5.89 17.28-10.14 24.15 12.61.55 25.49 2.89 38.03 4.32 0 0 3.95-9.35 7.1-15.86 1.54-3.19 2.67-5.49 6.07-4.32 3.09 1.06 10.64 3.97 10.63 3.97l-5.53 8.3 7.23 5.65s10.09-11.72 10.18-11.85c3.57-4.67 1.4-9.13-2.64-11.42Z" fill="url(#b)" fill-rule="nonzero"/><path d="M108 88.52c-6.57 0-9.93 7.19-16 7.19-6.06 0-9.43-7.19-16-7.19s-9.93 7.19-16 7.19-9.43-7.19-16-7.19-9.94 7.19-16 7.19c-6.06 0-9.43-7.19-16-7.19-4.98 0-8.13 4.12-12 6.12v25.69h119.98V94.65c-3.85-2-7-6.13-11.98-6.13Z" fill="#039BE5" fill-rule="nonzero"/><path d="M107.99 108.24c-6.57 0-9.94-7.19-16-7.19-6.06 0-9.43 7.19-16 7.19s-9.94-7.19-16-7.19c-6.06 0-9.43 7.19-16 7.19s-9.94-7.19-16-7.19c-6.06 0-9.43 7.19-16 7.19-4.97 0-8.11-4.11-11.97-6.11v18.2H120v-18.21c-3.86 2-7.04 6.12-12.01 6.12Z" fill="#29B6F6" fill-rule="nonzero"/><path d="m33.5 52.43-4.64 2.58c-.04.02-.09.01-.12-.03-.02-.04-.01-.09.03-.11l4.29-3.32c-.08.24-.16.48-.23.72 0 0 .24.06.67.16Z" fill="#E66400" fill-rule="nonzero"/><path d="M62.81 68.92a5.21 5.21 0 0 1-4.11-6.11l.92-4.69 10.22 2-.92 4.69a5.21 5.21 0 0 1-6.11 4.11Z" fill="#EDC391" fill-rule="nonzero"/><circle fill="#FF9100" fill-rule="nonzero" cx="31.94" cy="16.35" r="16"/><circle fill="url(#c)" fill-rule="nonzero" opacity=".4" cx="31.94" cy="16.35" r="16"/><g stroke-width=".787"><path d="M31.93 16.36c-1-2.32-1.55-4.88-1.55-7.57 0-3.17.77-6.16 2.13-8.79" stroke="#6D4C41"/><path d="M31.02 3.83c.32-.02.65-.03.98-.03 6.49 0 12.22 3.22 15.69 8.15m-17.23-1.38c.51-.04 1.02-.06 1.54-.06 6.62 0 12.46 3.35 15.9 8.46" stroke="#5D4037"/><path d="M31.91 16.35c2.51.3 5.01 1.1 7.33 2.44 2.74 1.58 4.95 3.75 6.55 6.24" stroke="#4E342E"/><path d="M43.22 21.84c-.15.29-.3.58-.47.86-3.24 5.62-8.9 8.97-14.9 9.52" stroke="#3E2723"/><path d="M37.66 17.98c-.22.46-.46.92-.72 1.37-3.31 5.73-9.13 9.11-15.27 9.54m10.26-12.54a18.97 18.97 0 0 1-5.78 5.13 19.2 19.2 0 0 1-8.68 2.55" stroke="#4E342E"/><path d="M21.53 23.4c-.18-.27-.35-.55-.51-.83-3.24-5.62-3.32-12.19-.79-17.67" stroke="#6D4C41"/><path d="M27.65 20.51c-.29-.42-.56-.85-.82-1.31-3.31-5.73-3.32-12.47-.63-18" stroke="#795548"/></g><path d="M97.45 81.99c.02.02.01.04-.01.06l-4.65 4.15.41-.62s-.36-.15-.97-.4l5.15-3.21c.03-.01.06-.01.07.02Z" fill="#E66400" fill-rule="nonzero"/><path d="M72.45 21.53c-8.38-1.65-17.91 5.8-20.44 18.71-2.52 12.84 4.24 20.75 12.39 22.35 8.15 1.6 17.4-3.18 19.91-16.02 2.54-12.91-3.47-23.4-11.86-25.04Z" fill="#F9DDBD" fill-rule="nonzero"/><path d="M64.5 40.33c-.32-.68-1.17-1.74-3.16-2.15-1.99-.41-3.19.23-3.76.73-.25.22-.26.53-.16.74.09.19.43.43.87.37s1.33-.31 2.68-.04c1.34.29 2.06.87 2.44 1.09.38.22.79.15.95 0 .17-.15.28-.44.14-.74Zm15.54 3.21c-.32-.68-1.17-1.74-3.16-2.15-1.99-.41-3.19.23-3.76.73-.25.22-.26.53-.16.74.09.19.43.43.87.37s1.33-.31 2.68-.04c1.34.29 2.06.87 2.44 1.09.38.22.79.15.95 0 .17-.15.28-.44.14-.74Z" fill="#454140" fill-rule="nonzero"/><ellipse fill="#312D2D" fill-rule="nonzero" transform="rotate(-78.907 59.888 43.947)" cx="59.888" cy="43.947" rx="2.51" ry="2.42"/><ellipse fill="#312D2D" fill-rule="nonzero" transform="rotate(-78.907 75.73 47.053)" cx="75.731" cy="47.053" rx="2.51" ry="2.42"/><path d="M69.67 55.19c-1.71.61-6.75-.38-8.1-1.59-.78-.7-1.84-.07-1.63.8.21.86 2.59 3.22 4.97 3.69 2.38.47 5.44-.83 5.96-1.55.52-.73-.21-1.71-1.2-1.35Z" fill="#444" fill-rule="nonzero"/><path d="M68.49 50.15c-.05-.03-.1-.05-.15-.07l-3.41-.67c-.05 0-.11 0-.16.01-.33.06-.57.35-.49.72.08.37.57 1.46 1.94 1.73s2.23-.56 2.45-.87c.21-.31.1-.66-.18-.85Z" fill="#DBA689" fill-rule="nonzero"/><path d="M86.92 48.1c.41.68.6 1.35-.43 3.32-2.11 4.04-5.75 4.76-5.9 4.79-.03.01-.06.01-.09.01a.48.48 0 0 1-.4-.2.487.487 0 0 1-.04-.53c.03-.07 3.37-6.53.81-12.21-1.66-3.68-5.42-6.26-11.17-7.66-5.42-1.33-9.67-.77-12.61 1.67-5 4.14-4.64 12.35-4.64 12.43.01.18-.07.35-.22.45-.15.09-.34.11-.49.03-.16-.08-3.82-1.91-3.06-8.09.17-1.42.51-2.01.9-2.34.12-.11.26-.19.39-.27.17-.09.2-.11.21-.35v-.1c.19-7.7 3.33-14.63 8.38-18.53 4.21-3.24 9.56-4.22 15.48-2.83 5.57 1.32 9.62 4.19 12.03 8.54 4.4 7.95 1.72 17.5.79 20.24-.08.22-.12.4-.15.56h-.01c-.1.55.03.77.19 1.03.01.01.02.03.02.04h.01Z" fill="url(#d)" fill-rule="nonzero"/><path d="M51.78 44.85s-.35-1.73-.87-3.11c-.43-1.12-1.08-1.76-1.33-1.97.12-.11.26-.19.39-.27.17-.09.2-.11.21-.35.17.08.8.43 1.49 1.74.7 1.34.11 3.96.11 3.96Zm35.13 3.25c-.21 0-.79.09-1.73.8-1.17.89-2.62 2.92-2.62 2.92s.46-2.83 2.41-4.02c.91-.56 1.5-.72 1.73-.77-.1.55.03.77.19 1.03.01.01.02.03.02.04Z" fill="#DB6300" fill-rule="nonzero"/><path d="m87.87 101.92-2.1-1.49c-2.67-1.9-3.3-5.63-1.4-8.3l.26-.37c1.9-2.67 5.63-3.3 8.3-1.4l2.1 1.49c2.67 1.9 3.3 5.63 1.4 8.3l-.26.37c-1.9 2.66-5.63 3.29-8.3 1.4Z" fill="url(#e)" fill-rule="nonzero"/></g></svg>