<svg width="128" height="128" xmlns="http://www.w3.org/2000/svg"><defs><linearGradient x1="42.791%" y1="68.483%" x2="55.137%" y2="38.831%" id="a"><stop stop-color="#5C4037" offset="0%"/><stop stop-color="#70534A" offset="50%"/></linearGradient><linearGradient x1="71.191%" y1="11.013%" x2="48.328%" y2="75.4%" id="b"><stop stop-color="#651FFF" offset="0%"/><stop stop-color="#5914F2" offset="70.5%"/><stop stop-color="#530EEB" offset="100%"/></linearGradient><linearGradient x1="71.019%" y1="22.883%" x2="24.305%" y2="83.045%" id="e"><stop stop-color="#70534A" offset="50%"/><stop stop-color="#5C4037" offset="100%"/></linearGradient><radialGradient cx="35.35%" cy="33.928%" fx="35.35%" fy="33.928%" r="55.159%" id="c"><stop stop-color="#FFA726" offset="20.9%"/><stop stop-color="#B33F00" offset="79.2%"/></radialGradient><radialGradient cx="61.237%" cy="15.789%" fx="61.237%" fy="15.789%" r="61.441%" gradientTransform="matrix(.97965 0 0 1 .012 0)" id="d"><stop stop-color="#651FFF" offset="29.9%"/><stop stop-color="#5914F2" offset="74%"/><stop stop-color="#530EEB" offset="92.5%"/></radialGradient></defs><g transform="matrix(-1 0 0 1 124 3.65)" fill="none" fill-rule="evenodd"><path d="M105.08 87.68c-.09.12-10.18 11.85-10.18 11.85l-7.23-5.65 5.12-7.68.41-.62s-.36-.15-.97-.4c-2.33-.94-8.28-3.3-10.97-3.93-2.84-.67-3.94.5-4.92 2.63-.23.49-.45 1.03-.69 1.61-2.73 6.69-6.25 16.3-6.25 16.3-12.53-1.42-25.42-3.77-38.02-4.32 4.24-6.87 9.39-22.16 10.14-24.15.09-.23.16-.44.21-.64.78-3.03-2.03-3.66-6.47-4.92-3.47-.98-7.74-2.08-11.76-3.74-5.25-2.17-5.24-7.69-4.25-10.5 2.09-5.95 8.86-15.24 9.2-16.1 1.13-2.9-2.37-2.9-4.25-7.06-.81-1.81-.02-3.47 1-5.17 1.25-2.08 3.77-3.01 6.17-3.38 2.42-.36 4.97-.29 7.19.72.47.22 1.1.42 1.5.77.36.33.41.71.87.91.58.25 1.17-.05 1.77.35.46.31.8.81.95 1.33.27.87.87 1.52.6 2.38-.83 2.67-3.04 4.72-4.6 7.62-.97 1.79-1.66 3.72-2.47 5.59-1.43 3.3-3.02 6.63-4.12 10.07-.08.24-.16.48-.23.72 0 0 .24.06.67.16 2.41.6 10.88 2.64 17.61 4.32.83.21 1.63.41 2.39.6.27.07.53.13.8.2 7.04 1.77 13.38 3.4 20.08 5.92.05.02.09.04.14.05 1.03.39 2.01.77 2.96 1.14 17.21 6.67 22.29 10.08 24.98 11.61 4.04 2.29 6.21 6.75 2.62 11.41Z" fill="url(#a)" fill-rule="nonzero"/><path d="m33.5 52.43-4.64 2.58c-.04.02-.09.01-.12-.03-.02-.04-.01-.09.03-.11l4.29-3.32c-.08.24-.16.48-.23.72 0 0 .24.06.67.16Z" fill="#4A2F27" fill-rule="nonzero"/><path d="M77.48 64.66v.02c-.04.13-.14.39-.28.75-3.2 8.31-3.48 14.52-.86 18.45-.23.49-.45 1.03-.69 1.61-2.73 6.69-6.25 16.3-6.25 16.3-12.53-1.42-25.42-3.77-38.02-4.32 4.24-6.87 9.39-22.16 10.14-24.15.09-.23.16-.44.21-.64 3.86-1.91 6.96-7.08 9.23-15.39l.15-.54c.83.21 1.63.41 2.39.6.27.07.53.13.8.2-.39 11.18 4.47 12.98 6.3 13.67 6.54 2.43 11.17-2.85 13.92-7.7 1.03.39 2.01.77 2.96 1.14Z" fill="url(#b)" fill-rule="nonzero"/><path d="M62.81 68.92a5.21 5.21 0 0 1-4.11-6.11l.92-4.69 10.22 2-.92 4.69a5.21 5.21 0 0 1-6.11 4.11Z" fill="#3C2B24" fill-rule="nonzero"/><path d="M72.41 21.54c-8.39-1.64-17.91 5.8-20.44 18.71C49.45 53.09 56.21 61 64.36 62.6c8.15 1.6 17.4-3.18 19.91-16.02 2.53-12.91-3.48-23.4-11.86-25.04Z" fill="#70534A" fill-rule="nonzero"/><path d="M64.45 40.34c-.32-.68-1.17-1.74-3.16-2.15-1.99-.41-3.19.23-3.76.73-.25.22-.26.53-.16.74.09.19.43.43.87.37s1.33-.31 2.68-.04c1.34.29 2.06.87 2.44 1.09.38.22.79.15.95 0 .17-.15.28-.44.14-.74ZM80 43.55c-.32-.68-1.17-1.74-3.16-2.15-1.99-.41-3.19.23-3.76.73-.25.22-.26.53-.16.74.09.19.43.43.87.37s1.33-.31 2.68-.04c1.34.29 2.06.87 2.44 1.09.38.22.79.15.95 0 .17-.15.28-.44.14-.74Z" fill="#1A1717" fill-rule="nonzero"/><ellipse fill="#1A1717" fill-rule="nonzero" transform="rotate(-78.907 59.84 43.96)" cx="59.84" cy="43.96" rx="2.51" ry="2.42"/><ellipse fill="#1A1717" fill-rule="nonzero" transform="rotate(-78.907 75.674 47.065)" cx="75.674" cy="47.065" rx="2.51" ry="2.42"/><path d="M69.63 55.2c-1.71.61-6.75-.38-8.1-1.59-.78-.7-1.84-.07-1.63.8.21.86 2.59 3.22 4.97 3.69 2.38.47 5.44-.83 5.96-1.55.51-.73-.22-1.71-1.2-1.35Z" fill="#1A1717" fill-rule="nonzero"/><path d="M68.44 50.16c-.05-.03-.1-.05-.15-.07l-3.41-.67c-.05 0-.11 0-.16.01-.33.06-.57.35-.49.72.08.37.57 1.46 1.94 1.73s2.23-.56 2.45-.87c.21-.31.11-.66-.18-.85Z" fill="#33251F" fill-rule="nonzero"/><circle fill="#FF9100" fill-rule="nonzero" cx="31.94" cy="16.35" r="16"/><circle fill="url(#c)" fill-rule="nonzero" opacity=".4" cx="31.94" cy="16.35" r="16"/><g stroke-width=".787"><path d="M31.93 16.36c-1-2.32-1.55-4.88-1.55-7.57 0-3.17.77-6.16 2.13-8.79" stroke="#6D4C41"/><path d="M31.02 3.83c.32-.02.65-.03.98-.03 6.49 0 12.22 3.22 15.69 8.15m-17.23-1.38c.51-.04 1.02-.06 1.54-.06 6.62 0 12.46 3.35 15.9 8.46" stroke="#5D4037"/><path d="M31.92 16.35c2.51.3 5.01 1.1 7.33 2.44 2.74 1.58 4.95 3.75 6.55 6.24" stroke="#4E342E"/><path d="M43.22 21.84c-.15.29-.3.58-.47.86-3.24 5.62-8.9 8.97-14.9 9.51" stroke="#3E2723"/><path d="M37.66 17.98c-.22.46-.46.92-.72 1.37-3.31 5.73-9.13 9.11-15.27 9.55m10.26-12.55a18.97 18.97 0 0 1-5.78 5.13 19.2 19.2 0 0 1-8.68 2.55" stroke="#4E342E"/><path d="M21.53 23.4c-.18-.27-.35-.55-.51-.83-3.24-5.62-3.32-12.19-.79-17.67" stroke="#6D4C41"/><path d="M27.65 20.52c-.29-.42-.56-.85-.82-1.31-3.31-5.73-3.32-12.47-.63-18" stroke="#795548"/></g><path d="M73.88 18.19c-14.99-3.54-22.94 8.91-23.24 20.88-.04 1.5-1.13.03-1.51 3.11-.72 5.89 2.78 7.57 2.78 7.57s-.98-19.23 17.86-14.62c19.09 4.67 10.68 20.59 10.68 20.59s3.53-.66 5.55-4.53c1.81-3.47-.58-2.17.34-4.88 3.2-9.43 2.92-24.49-12.46-28.12Z" fill="url(#d)" fill-rule="nonzero"/><path d="M52.27 45.24s-.35-1.73-.87-3.1c-.53-1.4-1.42-2.05-1.42-2.05s.19-.02.42-.24c.24-.22.22-.33.22-.33s.72.22 1.53 1.76c.71 1.34.12 3.96.12 3.96Zm29.6 6.66s1.46-2.03 2.63-2.92c1.19-.91 1.82-.79 1.82-.79s-.18-.37-.2-.59c-.02-.22.02-.52.02-.52s-.63.06-1.85.79c-1.96 1.2-2.42 4.03-2.42 4.03Z" fill="#4000CC" fill-rule="nonzero"/><path d="M108 88.53c-6.57 0-9.93 7.19-16 7.19-6.06 0-9.43-7.19-16-7.19s-9.93 7.19-16 7.19-9.43-7.19-16-7.19-9.94 7.19-16 7.19c-6.06 0-9.43-7.19-16-7.19-4.98 0-8.13 4.12-12 6.12v25.69h120V94.65c-3.87-2-7.02-6.12-12-6.12Z" fill="#039BE5" fill-rule="nonzero"/><path d="M107.99 108.24c-6.57 0-9.94-7.19-16-7.19-6.06 0-9.43 7.19-16 7.19s-9.94-7.19-16-7.19c-6.06 0-9.43 7.19-16 7.19s-9.94-7.19-16-7.19c-6.06 0-9.43 7.19-16 7.19-4.97 0-8.11-4.11-11.97-6.11v18.2H120v-18.21c-3.86 2-7.04 6.12-12.01 6.12Z" fill="#29B6F6" fill-rule="nonzero"/><path d="M97.45 81.99c.02.02.01.04-.01.06l-4.65 4.15.41-.62s-.36-.15-.97-.4l5.15-3.21c.03-.01.06-.01.07.02Z" fill="#4A2F27" fill-rule="nonzero"/><path d="m88 101.92-2.1-1.49c-2.67-1.9-3.3-5.63-1.4-8.3l.26-.37c1.9-2.67 5.63-3.3 8.3-1.4l2.1 1.49c2.67 1.9 3.3 5.63 1.4 8.3l-.26.37c-1.9 2.66-5.64 3.29-8.3 1.4Z" fill="url(#e)" fill-rule="nonzero"/></g></svg>