<svg width="128" height="128" xmlns="http://www.w3.org/2000/svg"><defs><radialGradient cx="35.347%" cy="33.925%" fx="35.347%" fy="33.925%" r="55.159%" id="b"><stop stop-color="#FFA726" offset="20.9%"/><stop stop-color="#B33F00" offset="79.2%"/></radialGradient><radialGradient cx="49.998%" cy="50%" fx="49.998%" fy="50%" r="50.516%" gradientTransform="matrix(.97985 0 0 1 .01 0)" id="c"><stop stop-color="#00BFA5" offset="0%"/><stop stop-color="#00AB94" offset="100%"/></radialGradient><linearGradient x1="42.789%" y1="68.481%" x2="55.135%" y2="38.829%" id="a"><stop stop-color="#8D5738" offset="0%"/><stop stop-color="#A56C43" offset="50%"/></linearGradient><linearGradient x1="71.077%" y1="22.875%" x2="24.358%" y2="83.034%" id="d"><stop stop-color="#A56C43" offset="50%"/><stop stop-color="#8D5738" offset="100%"/></linearGradient></defs><g transform="matrix(-1 0 0 1 123.99 3.66)" fill="none" fill-rule="evenodd"><path d="M105.08 87.68c-.09.12-10.18 11.85-10.18 11.85l-7.23-5.65 5.12-7.68.41-.62s-.36-.15-.97-.4c-2.33-.94-8.28-3.3-10.97-3.93-3.5-.82-4.35 1.14-5.61 4.24-2.73 6.69-6.25 16.3-6.25 16.3-12.53-1.42-25.42-3.77-38.02-4.32 4.24-6.87 9.39-22.16 10.14-24.15 1.36-3.59-1.52-4.22-6.26-5.56-3.47-.98-7.74-2.08-11.76-3.74-5.25-2.17-5.24-7.69-4.25-10.5 2.09-5.95 8.86-15.24 9.2-16.1 1.13-2.9-2.37-2.9-4.25-7.06-.81-1.81-.02-3.47 1-5.17 1.25-2.08 3.77-3.01 6.17-3.38 2.42-.36 4.97-.29 7.19.72.47.22 1.1.42 1.5.77.36.33.41.71.87.91.58.25 1.17-.05 1.77.35.46.31.8.81.95 1.33.27.87.87 1.52.6 2.38-.83 2.67-3.04 4.72-4.6 7.62-.97 1.79-1.66 3.72-2.47 5.59-1.43 3.3-3.02 6.63-4.12 10.07-.08.24-.16.48-.23.72 0 0 .24.06.67.16 2.71.67 13.06 3.17 20 4.92 7.36 1.85 13.93 3.5 20.88 6.12 19.72 7.46 25.23 11.18 28.08 12.8 4.04 2.29 6.21 6.75 2.62 11.41Z" fill="url(#a)" fill-rule="nonzero"/><path d="m33.5 52.43-4.64 2.58c-.04.02-.09.01-.12-.03-.02-.04-.01-.09.03-.11l4.29-3.32c-.08.24-.16.48-.23.72 0 0 .24.06.67.16Z" fill="#875334" fill-rule="nonzero"/><path d="M62.81 68.92a5.21 5.21 0 0 1-4.11-6.11l.92-4.69 10.22 2-.92 4.69a5.21 5.21 0 0 1-6.11 4.11Z" fill="#7A4C32" fill-rule="nonzero"/><circle fill="#FF9100" fill-rule="nonzero" cx="31.94" cy="16.35" r="16"/><circle fill="url(#b)" fill-rule="nonzero" opacity=".4" cx="31.94" cy="16.35" r="16"/><g stroke-width=".787"><path d="M31.93 16.36c-1-2.32-1.55-4.88-1.55-7.57 0-3.17.77-6.16 2.13-8.79" stroke="#6D4C41"/><path d="M31.02 3.83c.32-.02.65-.03.98-.03 6.49 0 12.22 3.22 15.69 8.15m-17.23-1.38c.51-.04 1.02-.06 1.54-.06 6.62 0 12.46 3.35 15.9 8.46" stroke="#5D4037"/><path d="M31.91 16.35c2.51.3 5.01 1.1 7.33 2.44 2.74 1.58 4.95 3.75 6.55 6.24" stroke="#4E342E"/><path d="M43.22 21.84c-.15.29-.3.58-.47.86-3.24 5.62-8.9 8.97-14.9 9.52" stroke="#3E2723"/><path d="M37.66 17.98c-.22.46-.46.92-.72 1.37-3.31 5.73-9.13 9.11-15.27 9.54m10.26-12.54a18.97 18.97 0 0 1-5.78 5.13 19.2 19.2 0 0 1-8.68 2.55" stroke="#4E342E"/><path d="M21.53 23.4c-.18-.27-.35-.55-.51-.83-3.24-5.62-3.32-12.19-.79-17.67" stroke="#6D4C41"/><path d="M27.65 20.51c-.29-.42-.56-.85-.82-1.31-3.31-5.73-3.32-12.47-.63-18" stroke="#795548"/></g><path d="M108 88.52c-6.57 0-9.93 7.19-16 7.19-6.06 0-9.43-7.19-16-7.19s-9.93 7.19-16 7.19-9.43-7.19-16-7.19-9.94 7.19-16 7.19c-6.06 0-9.43-7.19-16-7.19-4.98 0-8.13 4.12-12 6.12v25.69h119.98V94.65c-3.85-2-7-6.13-11.98-6.13Z" fill="#039BE5" fill-rule="nonzero"/><path d="M107.99 108.24c-6.57 0-9.94-7.19-16-7.19-6.06 0-9.43 7.19-16 7.19s-9.94-7.19-16-7.19c-6.06 0-9.43 7.19-16 7.19s-9.94-7.19-16-7.19c-6.06 0-9.43 7.19-16 7.19-4.97 0-8.11-4.11-11.97-6.11v18.2H120v-18.21c-3.86 2-7.04 6.12-12.01 6.12Z" fill="#29B6F6" fill-rule="nonzero"/><path d="M97.45 81.99c.02.02.01.04-.01.06l-4.65 4.15.41-.62s-.36-.15-.97-.4l5.15-3.21c.03-.01.06-.01.07.02Z" fill="#875334" fill-rule="nonzero"/><path d="M72.18 21.53c-8.39-1.64-17.91 5.8-20.44 18.71-2.52 12.84 4.24 20.75 12.39 22.35 8.15 1.6 17.4-3.18 19.91-16.02 2.53-12.91-3.48-23.4-11.86-25.04Z" fill="#A56C43" fill-rule="nonzero"/><ellipse fill="#42312C" fill-rule="nonzero" transform="rotate(-78.907 59.608 43.948)" cx="59.608" cy="43.948" rx="2.51" ry="2.42"/><ellipse fill="#42312C" fill-rule="nonzero" transform="rotate(-78.907 75.442 47.053)" cx="75.442" cy="47.053" rx="2.51" ry="2.42"/><path d="M69.4 55.19c-1.71.61-6.75-.38-8.1-1.59-.78-.7-1.84-.07-1.63.8.21.86 2.59 3.22 4.97 3.69 2.38.47 5.44-.83 5.96-1.55.51-.73-.22-1.71-1.2-1.35Z" fill="#473530" fill-rule="nonzero"/><path d="M68.21 50.15c-.05-.03-.1-.05-.15-.07l-3.41-.67c-.05 0-.11 0-.16.01-.33.06-.57.35-.49.72.08.37.57 1.46 1.94 1.73s2.23-.56 2.45-.87c.21-.31.1-.66-.18-.85Z" fill="#875334" fill-rule="nonzero"/><path d="M86.62 48.06c.42.7.64 1.35-.41 3.36-2.11 4.04-5.74 4.76-5.9 4.79-.03.01-.06.01-.09.01a.48.48 0 0 1-.4-.2.487.487 0 0 1-.04-.53c.03-.07 3.37-6.53.81-12.21-1.66-3.68-5.41-6.26-11.17-7.66-5.42-1.32-9.66-.77-12.61 1.67-4.99 4.13-4.64 12.35-4.63 12.43 0 .18-.08.35-.23.45-.14.09-.33.11-.49.03-.16-.08-3.82-1.91-3.06-8.09.18-1.44.52-2.03.92-2.35.12-.11.25-.19.38-.26.17-.09.2-.11.2-.4v-.05c.2-7.7 3.33-14.63 8.38-18.53 4.21-3.24 9.56-4.22 15.48-2.83 5.57 1.32 9.62 4.19 12.03 8.54 4.41 7.95 1.72 17.5.79 20.23-.34 1-.17 1.26.04 1.6Z" fill="url(#c)" fill-rule="nonzero"/><path d="M51.43 44.77s-.34-1.73-.86-3.11c-.4-1.02-.97-1.64-1.25-1.9.12-.11.25-.19.38-.26.17-.09.2-.11.2-.4.23.12.8.52 1.43 1.71.7 1.34.1 3.96.1 3.96Zm30.76 7.05s1.46-2.03 2.63-2.92c1.19-.91 1.82-.79 1.82-.79s-.18-.37-.2-.59c-.02-.22.02-.52.02-.52s-.63.06-1.85.79c-1.95 1.2-2.42 4.03-2.42 4.03Z" fill="#009984" fill-rule="nonzero"/><path d="M79.98 43.41s-.76-1.95-3.31-2.45c-2.55-.5-3.99 1.01-3.99 1.01a.8.8 0 0 0-.23.41c-.08.42.19.82.61.9.09.02.31-.01.33-.01 1.65-.33 2.85-.1 2.85-.1s1.19.24 2.59 1.17c.02.01.22.12.3.13.42.08.82-.19.9-.61.04-.14.01-.3-.05-.45Zm-15.86-3.1s-.76-1.95-3.31-2.45c-2.55-.5-3.99 1.01-3.99 1.01a.8.8 0 0 0-.23.41c-.08.42.19.82.61.9.09.02.31-.01.33-.01 1.65-.33 2.85-.1 2.85-.1s1.19.24 2.59 1.17c.02.01.22.12.3.13.42.08.82-.19.9-.61a.65.65 0 0 0-.05-.45Z" fill="#42312C" fill-rule="nonzero"/><path d="m87.99 101.92-2.1-1.49c-2.67-1.9-3.3-5.63-1.4-8.3l.26-.37c1.9-2.67 5.63-3.3 8.3-1.4l2.1 1.49c2.67 1.9 3.3 5.63 1.4 8.3l-.26.37c-1.89 2.66-5.63 3.29-8.3 1.4Z" fill="url(#d)" fill-rule="nonzero"/></g></svg>