<svg width="128" height="128" xmlns="http://www.w3.org/2000/svg"><defs><radialGradient cx="72.982%" cy="34.561%" fx="72.982%" fy="34.561%" r="140.504%" gradientTransform="scale(.53566 1) rotate(4.083 1.046 9.22)" id="e"><stop stop-color="#BFA055" stop-opacity="0" offset="56.2%"/><stop stop-color="#BFA055" offset="100%"/></radialGradient><radialGradient cx="57.044%" cy="127.51%" fx="57.044%" fy="127.51%" r="163.297%" gradientTransform="matrix(.22091 -.86282 .37706 .50551 -.036 1.123)" id="f"><stop stop-color="#BFA055" stop-opacity="0" offset="58%"/><stop stop-color="#BFA055" offset="100%"/></radialGradient><radialGradient cx="71.1%" cy="32.943%" fx="71.1%" fy="32.943%" r="94.275%" gradientTransform="matrix(-.21081 .92391 -.50908 -.3826 1.028 -.2)" id="g"><stop stop-color="#BFA055" offset="0%"/><stop stop-color="#BFA055" stop-opacity="0" offset="52.6%"/></radialGradient><radialGradient cx="38.529%" cy="30.798%" fx="38.529%" fy="30.798%" r="50.086%" id="h"><stop stop-color="#CED7DB" offset="0%"/><stop stop-color="#BFCBD0" offset="30.3%"/><stop stop-color="#99ABB4" offset="88%"/><stop stop-color="#90A4AE" offset="100%"/></radialGradient><radialGradient cx="27.633%" cy="30.376%" fx="27.633%" fy="30.376%" r="64.66%" gradientTransform="matrix(.94268 .25753 -.3337 .72753 .117 .012)" id="k"><stop stop-color="#651FFF" offset="0%"/><stop stop-color="#530EEB" offset="100%"/></radialGradient><radialGradient cx="50.098%" cy="50.466%" fx="50.098%" fy="50.466%" r="53.309%" gradientTransform="matrix(.88962 -.0228 .0203 .99974 .045 .012)" id="l"><stop stop-color="#BFA055" stop-opacity="0" offset="52.6%"/><stop stop-color="#BFA055" offset="100%"/></radialGradient><linearGradient x1="83.028%" y1="85.709%" x2="26.375%" y2="29.307%" id="a"><stop stop-color="#E0BB95" offset="59.8%"/><stop stop-color="#CCA47A" offset="100%"/></linearGradient><linearGradient x1="22.526%" y1="81.249%" x2="56.745%" y2="38.078%" id="b"><stop stop-color="#E0BB95" offset="59.8%"/><stop stop-color="#CCA47A" offset="100%"/></linearGradient><linearGradient x1="-2.84%" y1="63.615%" x2="69.152%" y2="44.8%" id="c"><stop stop-color="#E0BB95" offset="59.8%"/><stop stop-color="#CCA47A" offset="100%"/></linearGradient><linearGradient x1="35.718%" y1="39.997%" x2="70.698%" y2="77.147%" id="d"><stop stop-color="#E0BB95" offset="59.8%"/><stop stop-color="#CCA47A" offset="100%"/></linearGradient><linearGradient x1="114.468%" y1="25.374%" x2="25.321%" y2="63.139%" id="i"><stop stop-color="#E0BB95" offset="59.8%"/><stop stop-color="#CCA47A" offset="100%"/></linearGradient><linearGradient x1="72.097%" y1="15.912%" x2="-51.115%" y2="173.473%" id="j"><stop stop-color="#E0BB95" offset="59.8%"/><stop stop-color="#CCA47A" offset="100%"/></linearGradient></defs><g transform="matrix(-1 0 0 1 106.972 3.43)" fill="none"><path d="m51.8 92.56-4.01-15.41-12.48 5.05s2.82 8.25 3.93 12.02c.92 3.12 2.47 6.31 7.53 8.79l22.24 9.26.6-7.71-17.81-12Z" fill="url(#a)"/><path d="M63.64 100.53c-3.13 4.29-2.36 8.54-2.36 8.54l8.51 3.8 1.06-8.25-7.21-4.09Z" fill="#E0E0E0"/><path d="M75.22 101.81c-.22-.64-1.33-1.24-2.64-.94l-2.24.64c-1.53.79-1.89 1.75-1.89 1.75-.44 5.15.57 9 .57 9l4.58 5.32a4.293 4.293 0 0 0 4.62 1.29l1.28-.43c.56-.19 1.15-1.18.87-2.29l-5.15-14.34Z" fill="#4568AD"/><path d="M34.25 79.86c-.24 1.62 4.22 11.84 4.22 11.84 7.18-.54 14.7-7.33 14.7-7.33s-3.92-4.44-3.56-12.59l-15.36 8.08Z" fill="#616161"/><path d="m17.58 105.17 8.51-.07s-2.84-15.54-3.59-18.37l19.8-6.54-4.35-13.53-22.74 10.28c-2.88 1.3-5.77 4.87-4.17 10.85.93 3.43 6.54 17.38 6.54 17.38Z" fill="url(#b)"/><path d="M24.93 98.21c-5.59-.47-9.09 2.58-9.09 2.58l3 9 7.75-2.82-1.66-8.76Z" fill="#E0E0E0"/><path d="M27.39 111.94c.64-.21 1.26-1.31.97-2.62l-.62-2.25c-.52-1.64-2.17-3.11-2.17-3.11-5.18-.53-8.62 2.96-8.62 2.96l-5.31 3.2a4.272 4.272 0 0 0-1.34 4.61l.42 1.29c.18.56 1.17 1.16 2.28.9l14.39-4.98Z" fill="#4568AD"/><path d="M20.64 111.66c-4.39 1.71-7.46 3.03-8.73 4.03-1.33.91-.17 1.54 1.13 1.18l12.3-3.7c2.33-.79 3.18-1.8 3.08-2.92-.1-1.11-3.66-.2-7.78 1.41Z" fill="#294B7C"/><path d="M20.01 74.76c5.26 1.05 11.65 11.62 11.65 11.62s10.21-4.63 13.86-6.79c6.72-3.97 4.87-11.79 2.72-15.62l-2.73-5.96-19.36 4.93-.26 4.18.8 4.18-6.68 3.46Z" fill="#7C7C7C"/><path d="M26.7 71.31c10.04-7.05 22.57-5.08 22.57-5.08-1.54-4.2-4.48-9.59-4.48-9.59s-18.82 4.97-19.18 7.55c-.37 2.58 1.09 7.12 1.09 7.12Z" fill="#000" opacity=".2"/><path d="m31.94 51.39-4.77-7.12L6.59 66.14s0 1.54 1.78 2.59c1.78 1.05 3.54.28 3.54.28l20.03-17.62Z" fill="url(#c)"/><path d="M6.5 68.57s-1.54 2.53-2.06 5.75c-.21 1.33.25 2.52.42 2.74.55.71 1.53.87 1.85.28.27-.51-.41-1.36-.41-1.86.01-.6.35-1.08.35-1.08.21.62 1.64 1.93 2.11 1.8 1.33-.38-.73-2.04-.64-3.14.24-2.86 1.33-4.73 1.33-4.73l-2.95.24Z" fill="#BA8F63"/><path d="M12.84 67.02c.2 1.81-.16 1.64-.53 3.93-.22 1.41.49 1.95.45 2.96-.02.6-.7 1.26-1.39.86-1.53-.89-.84-4.5-3.72-3.68-2.11.6-3.07 5.24-4.84 6.72-1.73 1.45-3.17.26-2.73-.28 0 0 .94-1.7 2.05-3.53 1.33-2.2 1.8-6.28 5.62-8.84l5.09 1.86Z" fill="url(#d)"/><path d="M34.38 36.62C26.68 43 21.66 49.38 21.66 49.38c4.27.28 8.09 6.48 8.09 6.48s10.42-24.04 4.63-19.24Z" fill="#3615AF"/><path d="M42.82 12.42c-2.18-4.7-9.46-7.14-14.49-5.92-5.63 1.37-8.4 5.71-8.82 10.98-.15 1.91.05 3.79.47 5.1.05.16.45 1.3.5 1.66.32 1.39-2.3 2.99-2.5 4.57-.15 1.18 2.34 1.74 2.55 1.94 1.03.97-.1 5.89 6.62 6.07 2.34.06 2.79-.22 2.79-.22l.47 7.63 11.18-8.24s-2.07-3.28-.43-6.58c2.12-4.3 4.44-11 1.66-16.99Z" fill="#E0BB95"/><path d="M21.42 33.48c.93-.02 1.83-.3 2.57-.94.81-.7.17-1.37-.78-.87-.57.3-1.4.49-2.17.4l.38 1.41Z" fill="#6D4C41"/><ellipse fill="#5D4037" transform="rotate(-6.102 24.68 24.71)" cx="24.68" cy="24.71" rx="1.23" ry="1.88"/><path d="M23.51 22.1c-1.12.55-1.53-.17-1.25-.87.21-.51.86-1.02 2.28-1 1.34.03 2.01.68 2.44 1.07.43.39.47.85.18.94-.41.14-2.27-.82-3.65-.14Zm38.03-4.86c-6.3-4.61-7.65-11.01-15.45-10.27-5.14.49-7.45 6.86-6.83 8.68 1.19 3.51 4.42 2.38 6.13 2.48 0 0 3.19 6.06 11.9 7.34 13.67 2.01 17.17-5.27 17.17-5.27s-6.86 1.47-12.92-2.96Z" fill="#AB872F"/><path d="M61.54 17.24c-6.3-4.61-7.45-10.99-15.45-10.27-5.08.45-7.45 6.86-6.83 8.68 1.19 3.51 4.42 2.38 6.13 2.48 0 0 3.19 6.06 11.9 7.34 13.67 2.01 17.17-5.27 17.17-5.27s-6.86 1.47-12.92-2.96Z" fill="url(#e)"/><path d="M58.8 14.68c-4.15-4.14-6.21-8.33-12.71-7.72-5.14.49-7.42 6.69-6.8 8.51 0 0 1.62-4.06 8.01-4.36 6.38-.28 11.5 3.57 11.5 3.57Z" fill="url(#f)"/><path d="M61.54 17.24c-1.57-1.15-2.95-2.52-4.26-3.97-1.16-1.28-2.1-2.44-3.98-2.41-2.97.05-5.79 4.69-4.21 7.95.97 2.01 4.87 5.38 13.37 6.19 9.19.89 12.01-4.82 12.01-4.82s-6.87 1.49-12.93-2.94Z" fill="url(#g)"/><circle fill="url(#h)" cx="67.02" cy="11.66" r="11.66"/><path d="M41.95 35.44c-5.57 2.65-.62 9.18-.62 9.18s10.75-1.8 15.12-2.83c6.21-1.44 7.15-3.58 8.66-5.46 1.21-1.51 7.22-10.4 7.22-10.4l-.34-3.15-5.51 1.2-9.28 8.52c0-.01-10.38.63-15.25 2.94Z" fill="url(#i)"/><path d="M66.65 24.44c-.14-2.83 3.46-4.27 3.46-4.27s-1.21-3.01-1.68-3.96c-.46-.95-.14-1.61.04-1.71.58-.33 1.17-.01 1.35.2.77.93 1.93 2.55 1.93 2.55.5-.2-.28-2.8-.67-4.55-.23-1.03.99-2.15 1.87-.32.73 1.51 1.67 4.35 1.67 4.35.17-1.16-.04-2.98-.27-5.27-.11-1.07.33-1.55 1.03-1.61.52-.05.97.09 1.33 2.23.11.64.29 4.25.29 4.25 1.01-.52 1.26-3.31 1.34-5.11.05-1.27 1.73-1.59 1.95.32.45 3.88-1.56 7.19-2.48 8.74-.48.81-5.78 5.83-5.78 5.83l-5.38-1.67Z" fill="url(#j)"/><path d="M52.47 62.2c-8.76-8.29-4.64-15.43-4.64-15.43s.08-1.22 4.63-2.14c0 0-.64-5.25 1.98-12.23 0 0-10.01.1-14.15 1.46-2.48.81-6.49 1.36-10.26 5.56-2.16 2.4-3.65 4.7-5.17 12.14-1.69 8.29 1.85 19.76 1.85 19.76 7.64-8.7 25.76-9.12 25.76-9.12Z" fill="url(#k)"/><path d="M43.41 10.26c-2.58-2.99-6.7-4.85-11.03-4.96-3.77-.1-8.9.94-12 4.15-1.87 1.93-2.94 4.44-2.56 7.18.23 1.65 1.61 2.47 1.61 2.47s1.48-3.8 5.34-2.94c4.06.91 5.8.05 5.8.05-1.28 3.24-.05 4.97 1.03 5.95.62.56 1.19 1.23 1.51 1.62.17.2.31.19.37-.03.15-.52.42-1.46.63-1.91.71-1.49 1.92-1 1.93-.99 1.64.54 2.3 3.87-.33 5.9-.06.05-.24.17-.13.51 1.13 3.37 5.16 3.4 5.4 3.27l.01-.01.06-.03c.53-.26.84-.71.92-1.33.29-2.26 1.25-2.94 1.94-3.93.79-1.15 1.69-2.45 2.14-6.01.41-3.38-.5-6.47-2.64-8.96Z" fill="#AB872F"/><path d="M43.41 10.26c-2.58-2.99-6.7-4.85-11.03-4.96-3.77-.1-8.9.94-12 4.15-1.87 1.93-2.94 4.44-2.56 7.18.23 1.65 1.61 2.47 1.61 2.47s1.48-3.8 5.34-2.94c4.06.91 5.8.05 5.8.05-1.28 3.24-.05 4.97 1.03 5.95.62.56 1.19 1.23 1.51 1.62.17.2.31.19.37-.03.15-.52.42-1.46.63-1.91.71-1.49 1.92-1 1.93-.99 1.64.54 2.3 3.87-.33 5.9-.06.05-.24.17-.13.51 1.13 3.37 5.16 3.4 5.4 3.27l.01-.01.06-.03c.53-.26.84-.71.92-1.33.29-2.26 1.25-2.94 1.94-3.93.79-1.15 1.69-2.45 2.14-6.01.41-3.38-.5-6.47-2.64-8.96Z" fill="url(#l)"/></g></svg>