<svg width="128" height="128" viewBox="0 0 128 128" fill="none" xmlns="http://www.w3.org/2000/svg">
<path d="M59.4001 40.8C59.4001 40.8 60.3 37.2 60 36.9C59.55 36.33 59.15 35.73 58.8 35.1C58.17 34.33 57.51 33.6 56.8 32.9C56.8 32.9 55.6001 33.7 53.7001 32.5C52.0001 31.4 52.3 27.9 54.6 27.4C57.7 26.7 58.2001 29.9 58.2001 29.9L59.5 30.7L59.3 28C58.04 27.65 57.1001 26.6 56.9001 25.3C56.5701 23.84 57.4501 22.38 58.9001 22C59.3355 21.8785 59.7937 21.8626 60.2365 21.9537C60.6793 22.0449 61.0939 22.2404 61.446 22.524C61.7981 22.8076 62.0774 23.1711 62.2607 23.5844C62.444 23.9976 62.5261 24.4487 62.5 24.9C62.58 25.79 62.33 26.68 61.8 27.4L62.6 29L63.6 26.3C62.93 25.46 62.6701 24.35 62.9001 23.3C63.017 22.9641 63.1991 22.6545 63.436 22.3891C63.6728 22.1237 63.9598 21.9077 64.2803 21.7535C64.6008 21.5993 64.9487 21.5099 65.3039 21.4904C65.659 21.4709 66.0146 21.5217 66.35 21.64C66.54 21.71 66.7301 21.8 66.9001 21.9C68.1001 22.58 68.5401 24.08 67.9001 25.3C67.5201 26.06 66.82 26.61 66 26.8L65.4001 29.7L66.5 28.8C66.54 27.95 66.94 27.15 67.6 26.6C68.48 25.8 69.8201 25.8 70.7001 26.6C71.6301 27.49 71.65 28.97 70.76 29.89C70.65 30 70.5301 30.11 70.4001 30.2C69.7201 30.73 68.83 30.91 68 30.7C67.43 31.77 66.8 32.81 66.1 33.8C65.73 34.36 65.4301 34.97 65.2001 35.6C65.3901 36.12 65.5601 36.66 65.7001 37.2C66.0701 38.95 66.3101 40.72 66.4001 42.5L59.4001 40.8ZM33.2 65.9L31.9 65.7C31.75 65.55 31.58 65.42 31.4 65.3C31.1 65.1 29.4 62.9 29.4 62.9C29.4 62.9 29.1 60.5 28.9 59.7C28.7 58.9 27.4 55.2 27.4 55.2C27.4 55.2 28.8 53 27.9 51.9C27.5311 51.4283 26.9901 51.1222 26.3957 51.0491C25.8014 50.976 25.2023 51.1417 24.73 51.51C24.4 51.77 24.15 52.11 24 52.5C23.63 53.67 24.03 54.95 25 55.7L25.5 58.4C25.5 58.4 23.1 55.8 23.1 55.7C23.1 55.6 23.3 53.9 22.4 53.1C21.51 52.37 20.24 52.33 19.3 53C18.8625 53.3978 18.6008 53.9532 18.5727 54.5439C18.5446 55.1347 18.7522 55.7124 19.15 56.15L19.2 56.2C19.65 56.69 20.25 57 20.9 57.1L23.2 60.1L20.6 59.7C20.6 59.7 19.8 57.2 17.5 57.8C15.2 58.4 15.6 62.4 17.8 62.6C18.67 62.76 19.56 62.5 20.2 61.9L22.5 63L20.8 63.6C19.82 63.15 18.65 63.44 18 64.3C17.7492 64.679 17.6058 65.119 17.5852 65.573C17.5646 66.0271 17.6675 66.4782 17.883 66.8784C18.0985 67.2786 18.4185 67.6129 18.8089 67.8456C19.1993 68.0783 19.6455 68.2008 20.1 68.2C20.6716 68.2384 21.235 68.0482 21.6663 67.6713C22.0976 67.2944 22.3616 66.7615 22.4 66.19V66.1C22.86 66.03 23.33 65.99 23.8 66H25.3C25.3 66 26.2 67.4 27.4 69.3C28.6 71.4 29.9 73.6 32 73.9C33.3 74 33.2 65.9 33.2 65.9ZM54.8 85.5L53.4001 86C53.4001 86 54.7 87.1 54.3 87.7C53.9 88.3 53.1001 88.5 51.4001 88.7C49.7001 88.9 48.5 89 48.5 89C48.5 89 47.3 87.2 45.7 87.6C44.9755 87.7329 44.3331 88.1473 43.9133 88.7526C43.4935 89.3579 43.3306 90.1048 43.46 90.83C43.47 90.89 43.48 90.94 43.5 91C43.664 91.733 44.0895 92.3812 44.697 92.823C45.3045 93.2648 46.0522 93.4699 46.8 93.4C47.161 93.3575 47.5056 93.2255 47.8025 93.0159C48.0994 92.8063 48.3392 92.5259 48.5 92.2L52.6 91.9L48.3 94.7C48.3 94.7 47.3 93.9 45.5 95C43.7 96.1 44.8 100.7 48.3 99.6C49.28 99.28 49.98 98.42 50.1 97.4L55 94.2L52 99C51.3959 99.1637 50.8503 99.4946 50.4257 99.9545C50.0012 100.414 49.715 100.985 49.6 101.6C49.47 103.03 50.5201 104.3 51.9501 104.43C52.6601 104.5 53.3701 104.27 53.9001 103.8C55.5001 102.7 54.7001 100.3 54.7001 100.3L57.1 96.1L57 100.3C56.34 100.73 55.91 101.42 55.8 102.2C55.8 103.3 56.1 104.7 58 104.7C58.6464 104.695 59.2644 104.434 59.7195 103.975C60.1747 103.516 60.4301 102.896 60.43 102.25C60.43 102.13 60.4201 102.02 60.4001 101.9C60.2601 101.42 60.0201 100.98 59.7001 100.6C59.7001 100.6 59.7 95 60 94.8C60.3 94.6 66.6001 93.4 66.9001 90.6C67.2001 87.2 59.2001 83.5 59.2001 83.5L54.8 85.5ZM86.3 53.4C86.3 53.4 90.4 53.8 90.5 53.5C90.6 53.2 88.5 50.8 88.5 50.8C87.33 51.06 86.11 50.68 85.3 49.8C83.7 48.1 85.2 44 88.5 45.1C88.8963 45.1901 89.2676 45.3669 89.5873 45.6178C89.9069 45.8686 90.167 46.1872 90.3487 46.5507C90.5304 46.9141 90.6293 47.3133 90.6382 47.7196C90.647 48.1258 90.5657 48.529 90.4 48.9L92.4 51.2L92.3 46C92.3 46 88.7001 45 90.6001 41.8C92.1001 39.2 95.9001 40.8 95.7001 43.1C95.7101 44 95.3001 44.84 94.6001 45.4L95.1001 48.3L96.5 45.5C95.57 44.23 95.75 42.47 96.9 41.4C97.1584 41.1602 97.4615 40.9739 97.7921 40.8516C98.1226 40.7294 98.4741 40.6736 98.8262 40.6875C99.1784 40.7015 99.5243 40.7849 99.8442 40.9329C100.164 41.0809 100.451 41.2906 100.69 41.55C101.46 42.38 101.62 43.6 101.1 44.6C100.915 45.103 100.571 45.5317 100.119 45.8206C99.6678 46.1095 99.1343 46.2427 98.6001 46.2L97 50.8L99.3 48.9C99.04 47.54 99.74 46.18 101 45.6C103.6 44.4 106.6 47.7 103.7 50.4C103 51.04 101.99 51.24 101.1 50.9C101.1 50.9 97.8 54.1 97.4 54.7C97 55.3 98 57.5 96 58.9C94 60.3 91.5 59.8 89.8 60C88.1 60.2 84.5 60.1 84.5 60.1L86.3 53.4Z" fill="#02AB47"/>
<path d="M75.9 59.3998C75.9 59.3998 75.1 55.5998 77.3 53.7998C79.5 51.9998 84 52.9998 85.3 53.0998C90.6 53.5998 89.8 54.9998 90 56.7998C90.2 58.2998 90.2 59.7998 87.5 59.8998C86.3 59.9998 84.2 60.1998 83.7 60.5998C82.5 61.4998 82.6 68.8998 82.6 68.8998L74.5 60.3998L75.9 59.3998ZM52.7 44.0998C54.5 43.4198 56.24 42.5798 57.9 41.5998C59.7 40.3998 60 38.0998 60 36.7998C60 35.4998 62.2 33.9998 64.5 37.4998C66.4 40.3998 66.4 42.4998 66.2 43.1998C65.9 44.3998 64.3 45.3998 62.5 46.3998C60.7 47.3998 56.2 49.2998 56.2 49.2998L52.7 44.0998ZM36.6 58.7998C36.6 58.7998 32.9 63.4998 32.1 64.2998C31 65.6298 30.24 67.2098 29.9 68.8998C29.7 70.5998 29.4 73.3998 31.8 73.6998C34.2 73.9998 39.6 68.0998 39.6 68.0998L42.3 64.9998L36.6 58.7998ZM56.9 76.2998C56.9 76.2998 54.5 77.8998 53.1 78.6998C51.7 79.4998 50.6 80.6998 50.6 81.7998C50.6 82.8998 52.6 85.2998 53.4 85.8998C54.2 86.4998 55.2 88.7998 58.6 87.7998C62 86.7998 59.8 84.3998 60.1 83.9998C60.4 83.5998 62.4 83.5998 64.2 83.3998C65.41 83.3298 66.58 82.9498 67.6 82.2998C67.9 81.8998 57.4 75.8998 57.4 75.8998L56.9 76.2998Z" fill="#00821D"/>
<path d="M18.3001 30.7999C16.9001 22.1999 20.0001 16.3999 22.9001 11.9999C25.8001 7.5999 27.4001 5.0999 30.3001 4.6999C33.2001 4.2999 36.5001 8.2999 39.1001 11.4999C41.0001 13.7999 45.9001 19.0999 46.7001 26.3999C47.5001 33.4999 45.9001 38.4999 46.9001 39.9999C49.3001 43.7999 59.1001 45.2999 67.7001 51.4999C76.3001 57.6999 84.7001 67.8999 88.0001 78.7999C91.3001 89.6999 90.9001 97.3999 91.3001 100.7C91.7001 104 93.2001 114.7 100.5 114.4C106.6 114.2 106.2 106.1 101.5 106.1C100 106.1 97.2001 106.5 98.0001 104.6C99.0001 102.1 103.7 100.6 107.7 102.7C112 105.1 113.2 109.7 111.8 114.7C110.2 120.6 103.1 124.5 96.5001 123C76.5001 118.4 78.3001 92.9999 67.9001 84.0999C57.3001 75.1999 52.9001 77.6999 44.7001 70.1999C32.6001 59.0999 32.8001 51.0999 31.3001 49.3999C29.8001 47.6999 20.0001 41.1999 18.3001 30.7999Z" fill="#02AB47"/>
<g filter="url(#filter0_f_897_9366)">
<path d="M39.1 44.3C39.0632 44.1647 39.0815 44.0204 39.1508 43.8986C39.2202 43.7768 39.3349 43.6874 39.47 43.65C39.66 43.6 39.86 43.66 40 43.8C42.97 47.5 46.22 50.98 49.7 54.2C51.65 55.92 53.72 57.49 55.9 58.9C56.96 59.58 58.06 60.18 59.2 60.7C59.5 60.8 59.8 61 60.1 61.1L61 61.5L63.1 62.4C68.62 65.0794 73.292 69.2323 76.6 74.4C78.21 76.98 79.36 79.83 80 82.8C80.33 84.51 80.47 86.26 80.4 88C80.38 88.42 80.01 88.75 79.59 88.73C79.4352 88.7208 79.2867 88.6654 79.1636 88.5709C79.0406 88.4765 78.9488 88.3472 78.9 88.2C77.4909 84.2173 75.3168 80.5485 72.5 77.4C69.0598 73.5381 64.8765 70.4091 60.2 68.2C59.62 67.89 59.02 67.62 58.4 67.4L57.4 66.9C57.1 66.7 56.7 66.6 56.4 66.4C55.03 65.68 53.72 64.85 52.5 63.9C50.0717 62.088 47.887 59.9706 46 57.6C44.1347 55.3001 42.5564 52.7815 41.3 50.1C40.4476 48.214 39.7128 46.2769 39.1 44.3Z" fill="#A8D154"/>
<path d="M39.1 44.3C39.0632 44.1647 39.0815 44.0204 39.1508 43.8986C39.2202 43.7768 39.3349 43.6874 39.47 43.65C39.66 43.6 39.86 43.66 40 43.8C42.97 47.5 46.22 50.98 49.7 54.2C51.65 55.92 53.72 57.49 55.9 58.9C56.96 59.58 58.06 60.18 59.2 60.7C59.5 60.8 59.8 61 60.1 61.1L61 61.5L63.1 62.4C68.62 65.0794 73.292 69.2323 76.6 74.4C78.21 76.98 79.36 79.83 80 82.8C80.33 84.51 80.47 86.26 80.4 88C80.38 88.42 80.01 88.75 79.59 88.73C79.4352 88.7208 79.2867 88.6654 79.1636 88.5709C79.0406 88.4765 78.9488 88.3472 78.9 88.2C77.4909 84.2173 75.3168 80.5485 72.5 77.4C69.0598 73.5381 64.8765 70.4091 60.2 68.2C59.62 67.89 59.02 67.62 58.4 67.4L57.4 66.9C57.1 66.7 56.7 66.6 56.4 66.4C55.03 65.68 53.72 64.85 52.5 63.9C50.0717 62.088 47.887 59.9706 46 57.6C44.1347 55.3001 42.5564 52.7815 41.3 50.1C40.4476 48.214 39.7128 46.2769 39.1 44.3Z" stroke="#A8D154" stroke-width="4"/>
</g>
<path d="M37.2 39.5999C37.0796 40.1713 36.7645 40.6831 36.3085 41.0479C35.8525 41.4127 35.2839 41.6078 34.7 41.5999C33.5 41.6499 32.46 40.7899 32.3 39.5999C32.372 39.0322 32.6635 38.5153 33.1122 38.16C33.5609 37.8048 34.131 37.6396 34.7 37.6999C35.89 37.6099 36.97 38.4299 37.2 39.5999ZM73.7001 70.1999C72.5001 70.3799 71.35 69.6599 71 68.4999C70.52 67.3999 71.01 66.1099 72.1 65.5999C73.25 65.3699 74.3801 66.0699 74.7001 67.1999C75.1001 68.4999 74.6001 69.8999 73.7001 70.1999ZM63.4001 70.6999C62.8775 70.3225 62.5225 69.7564 62.4105 69.1216C62.2985 68.4868 62.4382 67.8334 62.8 67.2999C63.25 66.2899 64.44 65.8399 65.44 66.2899C65.57 66.3499 65.69 66.4199 65.8 66.4999C66.75 67.2799 67.0101 68.6299 66.4001 69.6999C66.1016 70.1972 65.6351 70.5713 65.085 70.7547C64.5348 70.9381 63.9372 70.9186 63.4001 70.6999Z" fill="#EA7032"/>
<path d="M44.6985 50.5438C45.829 49.7512 46.2057 48.3388 45.5399 47.3891C44.8741 46.4395 43.4179 46.3122 42.2874 47.1048C41.1568 47.8975 40.7801 49.3099 41.4459 50.2595C42.1117 51.2092 43.568 51.3364 44.6985 50.5438Z" fill="#EF6C32"/>
<path d="M53.3001 55.3998C53.9401 56.5098 53.5601 57.9298 52.4501 58.5698C52.4301 58.5798 52.4101 58.5898 52.4001 58.5998C51.5301 59.3298 50.2401 59.2098 49.5101 58.3498C49.4701 58.2998 49.4301 58.2498 49.4001 58.1998C48.7401 57.1098 48.9901 55.6898 50.0001 54.8998C51.0301 54.1198 52.4901 54.3298 53.2601 55.3498C53.2801 55.3698 53.2901 55.3798 53.3001 55.3998ZM56.9001 62.8998C57.6601 64.1798 57.4101 65.8098 56.3001 66.7998C55.1001 67.5998 53.6001 67.5998 53.0001 66.6998C52.3801 65.4198 52.6601 63.8798 53.7001 62.8998C54.8001 62.0998 56.2001 61.9998 56.9001 62.8998ZM63.5001 57.1998C64.7901 57.8998 65.4401 59.3798 65.1001 60.7998C64.9225 61.3762 64.5245 61.8593 63.9927 62.1439C63.4609 62.4285 62.8382 62.4917 62.2601 62.3198C62.2401 62.3098 62.2201 62.3098 62.2001 62.2998C61.6008 61.9571 61.1241 61.435 60.8371 60.8072C60.55 60.1793 60.4672 59.4772 60.6001 58.7998C60.7001 57.6998 61.6701 56.8898 62.7701 56.9898C63.0301 57.0098 63.2701 57.0798 63.5001 57.1998Z" fill="#EF6C32"/>
<path d="M77.4 79.2999C78.7255 79.2999 79.8 78.3597 79.8 77.1999C79.8 76.0401 78.7255 75.0999 77.4 75.0999C76.0745 75.0999 75 76.0401 75 77.1999C75 78.3597 76.0745 79.2999 77.4 79.2999Z" fill="#EA7032"/>
<path d="M81.6994 88.4311C82.4414 87.6891 82.5363 86.5811 81.9115 85.9563C81.2866 85.3314 80.1786 85.4264 79.4366 86.1684C78.6946 86.9104 78.5997 88.0185 79.2245 88.6433C79.8494 89.2681 80.9574 89.1731 81.6994 88.4311Z" fill="#EA7032"/>
<path d="M28.2 24.8999C28.2724 25.8055 27.9824 26.7028 27.3936 27.3947C26.8049 28.0866 25.9655 28.5165 25.06 28.5899C24.91 28.5999 24.76 28.5999 24.6 28.5999C23.6752 28.5888 22.7915 28.2165 22.1375 27.5625C21.4835 26.9085 21.1112 26.0247 21.1 25.0999C21.0955 24.1772 21.4573 23.2904 22.106 22.6342C22.7547 21.978 23.6373 21.606 24.56 21.5999H24.6C26.37 21.3899 27.97 22.6699 28.18 24.4399C28.2 24.5899 28.2 24.7499 28.2 24.8999ZM42.8 23.3999C42.7379 23.874 42.5751 24.3293 42.3226 24.7352C42.07 25.1412 41.7336 25.4884 41.3358 25.7536C40.938 26.0188 40.488 26.1958 40.0162 26.2728C39.5443 26.3498 39.0615 26.3249 38.6 26.1999C37.7164 25.9666 36.9595 25.396 36.492 24.6107C36.0246 23.8253 35.8838 22.8879 36.1 21.9999C36.2796 21.1088 36.7951 20.321 37.5398 19.7997C38.2845 19.2784 39.2013 19.0636 40.1 19.1999C41.99 19.6399 43.18 21.4999 42.8 23.3999Z" fill="#0C090C"/>
<defs>
<filter id="filter0_f_897_9366" x="33.0814" y="37.6321" width="53.3362" height="57.0989" filterUnits="userSpaceOnUse" color-interpolation-filters="sRGB">
<feFlood flood-opacity="0" result="BackgroundImageFix"/>
<feBlend mode="normal" in="SourceGraphic" in2="BackgroundImageFix" result="shape"/>
<feGaussianBlur stdDeviation="2" result="effect1_foregroundBlur_897_9366"/>
</filter>
</defs>
</svg>
