<svg width="128" height="128" xmlns="http://www.w3.org/2000/svg"><defs><radialGradient cx="48.182%" cy="58.168%" fx="48.182%" fy="58.168%" r="43.368%" gradientTransform="matrix(-.28427 .9351 -.75006 -.3544 1.055 .337)" id="a"><stop stop-color="#B68D76" offset="26%"/><stop stop-color="#A87F6A" offset="41%"/><stop stop-color="#875B4E" offset="67.9%"/></radialGradient><radialGradient cx="53.042%" cy="46.96%" fx="53.042%" fy="46.96%" r="59.786%" gradientTransform="scale(-.8405 -1) rotate(-27.316 -1.983 2.39)" id="b"><stop stop-color="#FBE5CB" offset="27.1%"/><stop stop-color="#EFD7BE" offset="36.3%"/><stop stop-color="#CFB09B" offset="53.8%"/><stop stop-color="#9C7464" offset="77.6%"/><stop stop-color="#875B4E" offset="86.5%"/></radialGradient><linearGradient x1="15.86%" y1="80.19%" x2="75.813%" y2="29.511%" id="c"><stop stop-color="#875B4E" offset="20.8%"/><stop stop-color="#765247" offset="57.9%"/><stop stop-color="#6E4D44" offset="88.8%"/></linearGradient></defs><g fill="none"><path d="M48.462 76.12s-3.94-3.19-4.13-4.11c-.19-.92 1.69-3.94.7-10-.99-6.06-7.18-12.25-10-10.28-2.82 1.97-2.53 3.24-2.53 3.24l-2.82-.28-2.11 1.55-.56 3.1-3.38 1.55-3.38 4.08 2.39 8.66 10.7 4.43 15.06 5.42.06-7.36Z" fill="#6E4D44"/><path d="M39.132 52.52s-3.03-1.14-4.5.63c-1.06 1.27-.28 2.96.56 4.15.84 1.2 1.96 2.72 2.75 4.08.77 1.34 1.62 3.24 1.2 3.66-.68.68-2.25-1.27-3.17-2.6-1.6-2.34-2.99-4.09-3.59-4.79-.84-.99-2.12-1.7-3.59-.49-1.55 1.27.14 3.66.63 4.22.49.56 2.53 3.03 3.24 4.01.7.99 1.55 2.46 1.06 2.96-.42.42-1.83-.84-2.6-1.62-.77-.77-2.66-2.85-3.19-3.38-1.13-1.13-2.29-2.36-4.06-.92-1.55 1.27 4.29 10 4.29 10l-4.01-2.46s-5-7.46-1.67-10.23c1.95-1.62 4.13-.05 4.13-.05s-1.55-2.67.77-4.72c2.1-1.84 4.43-.63 4.43-.63s-.07-1.97 1.9-3.03c1.97-1.04 4.85.65 5.42 1.21Z" fill="#50362D"/><path d="m42.492 21.117-30.27 15.35s1.12 11.29 4.36 19.15c4.65 11.26 14.06 23.46 30.41 29.56 12.81 4.79 26.14 6.29 38.22 1.97 9.02-3.22 12.74-7.32 18.3-12.6 5.45-5.18 11.33-16.12 11.33-16.12s6.34-10.63 4.79-25.06c-1.53-14.24-11.47-26.68-22.31-29.21-9.44-2.21-9.52.28-5.56 5.42 3.8 4.93 7.88 9.15 9.57 14.36 1.69 5.21 3.38 15.77-6.34 20.13-9.72 4.36-20.84 3.8-28.72-1.41-7.88-5.21-13.37-11.4-15.91-15.2-2.54-3.8-3.94-8.31-3.94-8.31l-3.93 1.97Z" fill="url(#a)" transform="matrix(-1 0 0 1 124.204 27.953)"/><path d="M75.382 104.99c.42 0 .83-.22 1.05-.61l2.06-3.66c.33-.58.12-1.31-.46-1.63-.58-.33-1.31-.12-1.63.46l-2.06 3.66c-.33.58-.12 1.31.46 1.63.17.1.38.15.58.15Zm-9.58 3.99c.47 0 .91-.27 1.1-.73l1.6-3.75a1.201 1.201 0 0 0-2.21-.94l-1.6 3.75c-.26.61.03 1.31.64 1.57.16.07.32.1.47.1Zm-5.96-6.57c.37 0 .73-.17.96-.48l2.07-2.77c.4-.53.29-1.28-.24-1.68-.53-.4-1.28-.29-1.68.24l-2.07 2.77a1.198 1.198 0 0 0 .96 1.92Zm-9.71 7.88c.42 0 .83-.22 1.05-.61l1.69-3c.33-.58.12-1.31-.46-1.63-.58-.33-1.31-.12-1.63.46l-1.69 3a1.194 1.194 0 0 0 1.04 1.78Z" fill="#52322A"/><path d="M7.362 35.337c2.87 3.56 10.1 9.39 28.06-1.27 16.49-9.78 12.32-20.14 10.61-23.46-1.6-3.1-3.54-4.31-3.54-4.31s1.71-3.72-1.48-5.6c-3.62-2.13-5.53 1.3-5.53 1.3s-7.69-3.37-17.7 1.09c-12.86 5.74-13.42 15.68-13.42 15.68s-3.85-.07-4.32 4.32c-.56 5.24 4.69 6.01 4.69 6.01s.28 3.32 2.63 6.24Z" fill="url(#b)" transform="matrix(-1 0 0 1 124.204 27.953)"/><path d="M84.102 68.5c-2.32-1.48-2.46-5.33-2.53-7.81-.07-2.46.92-4.25 2.75-4.01 2.18.28 2.11 2.67 2.11 2.67s1.41-2.89 3.8-1.83c2.51 1.11 1.06 4.43 1.06 4.43s2.98-2.18 4.08.92c.56 1.58-1.27 4.29-4.01 5.84-2.75 1.55-7.26-.21-7.26-.21Z" fill="#E0DFE2"/><path d="M89.422 59.21c.54.24.63 1.41-.28 3.17-.81 1.55-1.79 1.9-2.32 1.55-.53-.35-.04-1.72.49-2.75.35-.68 1.16-2.4 2.11-1.97Zm-4.12 1.44c-.03.81-.11 2.39-1.09 2.43-.99.04-.88-1.97-.88-2.46s.04-1.94.92-2.01c.88-.07 1.09 1.05 1.05 2.04Zm7.89 3.84c-.87.97-1.72 2.04-2.5 1.48s.53-1.97.92-2.5 1.34-1.48 1.94-1.06c.59.42.23 1.41-.36 2.08Z" fill="#FEFCFE"/><path d="M76.502 59.91s-3.76-7.01-12.11-1.2c-8.87 6.17-1.97 13.3 2.67 13.23 4.64-.07 7.95.42 10.56-.42 2.61-.84 5-3.38 5-3.38l2.46 1.69s-.49 4.79 1.2 6.83c1.7 2.05-1.75 11.55.85 14.08 2.6 2.53 6.97 4.29 9.71 3.03 2.75-1.27 5.7-5.84 6.26-9.92.56-4.08-1.41-13.59-5.28-13.87-3.87-.28-4.36.07-4.36.07s-1.27-4.5-4.65-4.08c-3.38.42-4.79 1.97-4.79 1.97l-.92-.77s1.2-1.9-1.27-4.15c-2.46-2.25-5.28-.35-5.28-.35s-.05-2.13-.05-2.76Z" fill="#875B4E"/><path d="M102.082 81.97c-.43.9-1.36-.05-1.27-2.82.09-2.77-.52-5.58-2.53-7.23-2.02-1.64-4.13-.28-4.13-.28s.42 1.27-.05 2.86c-.47 1.59-1.41 2.16-1.17.42.23-1.74 0-8.73-4.46-8.02-4.46.7-3.53 6.44-1.69 8.96 1.27 1.74 3.38 1.45 3.38 1.74 0 .28-1.69 5.58-1.88 8.31-.19 2.72.05 6.34 3.05 6.76 3 .42 7.04-.94 6.8 0-.23.94-5.82 4.41-10.51 1.88-4.98-2.69-3.57-9.39-3.38-10.65.19-1.27 1.17-4.55 1.22-5.21.01-.09-1.97-1.81-2.44-4.04-.66-3.1-.09-4.6-.09-4.6s-1.83 2.3-4.46 3.05-5.77-.05-5.77-.05-5.4 1.74-9.24-.84c-3.85-2.58-3.93-5.77-3.71-6.52.61-2.06.98.24 1.55 1.22.84 1.45 2.86 3.38 6.19 3.89 3.33.52 4.74-.7 5.26-.66.52.04 3.28 1.55 6.19-.47 3.68-2.55 2.7-5.88.84-6.38-1.55-.42-4.3.47-5.4 2.06-1.03 1.5-1.88 3.85-2.21 3.33-.33-.52-.05-2.82 1.08-4.32 1.13-1.5 2.39-1.97 2.44-2.58.09-1.17-.38-2.21-1.17-3.1-.79-.89-2.77-1.41-2.02-1.97s3.28-.19 4.41 1.55c1.13 1.74.56 3.14.56 3.14s3.43-1.45 5.73 1.22c1.82 2.12 1.08 4.5 1.08 4.5s1.83-2.86 5.02-2.25c3.19.61 4.32 3.99 4.32 3.99s3-1.27 5.73.56c2.73 1.83 3.61 5.77 3.52 7.88-.09 2.13-.37 3.77-.79 4.67Z" fill="#6A493B"/><path d="M109.522 47.06c2.46.43 2.39 2.67 2.36 3.45-.04.77-.81 2.15-2.71 2.01-2.05-.15-2.71-2.08-2.57-3.31.14-1.23 1.51-2.39 2.92-2.15Zm-17.39-8.16c1.21 1.01 1.09 2.89-.14 3.98-1.17 1.03-3.31 1.05-4.19-.53-.85-1.52-.28-2.78.67-3.55.95-.77 2.78-.64 3.66.1Zm8.09 2.96c2.33 1.12 1.6 3.43 1.79 5.21.22 1.97 1.52 2.39 1.52 4.08 0 1.37-2.11.97-4.08 1.06-1.65.07-3.21 1.83-2.22 3.1.63.81 1.74.55 2.36-.04.63-.6 1.16-.6 1.44-.14.28.46-.46 2.91-3.34 2.67-2.57-.21-3.2-3.1-3.2-3.1s-2.33.97-4.05-.18c-1.9-1.27-1.44-3.77-.67-4.5.77-.73 1.38-.25 1.41.04.07.63-.35.81-.42 1.34s.14 1.3.77 1.65c.55.3 1.34-.11 1.65-.6.32-.49.35-1.45.28-1.97-.21-1.55-3.83-3.7-2.96-5.17.81-1.37 1.72.25 4.33-1.48 1.07-.71 2.47-3.38 5.39-1.97Z" fill="#27282D"/><path d="M108.112 67.59c.04 0 .09 0 .14-.01a.736.736 0 0 0 .6-.87c0-.03-.46-2.52-.88-5.19-.42-2.72-.98-4.81-1-4.9a.75.75 0 1 0-1.45.39c.01.02.56 2.11.97 4.74.42 2.69.88 5.2.88 5.23a.75.75 0 0 0 .74.61Zm-4.55.68s.03 1.07.84 1c.86-.07.66-1.11.66-1.11s-.25-3.51-.35-5.44c-.11-1.94-.35-5.09-.35-5.09s-.06-.84-.82-.79c-.76.05-.68.9-.68.9s.25 3.12.35 5.05c.1 1.95.35 5.48.35 5.48Zm-2.63-1.2c.4 0 .73-.32.75-.72 0 0 .1-2.51.17-3.39.07-.9.07-4.62.07-4.78 0-.41-.34-.75-.75-.75s-.75.34-.75.75c0 1.32-.01 3.98-.07 4.66-.07.88-.17 3.34-.18 3.44-.02.41.3.76.72.78.02.01.03.01.04.01Zm-21.01-12.85c.12 0 .25-.03.37-.1.02-.01 2.4-1.34 3.98-2.13 1.56-.78 3.9-1.61 3.93-1.62a.754.754 0 0 0 .46-.96.763.763 0 0 0-.96-.46c-.1.04-2.46.87-4.1 1.69-1.62.81-3.94 2.11-4.04 2.16-.36.2-.49.66-.29 1.02.13.26.38.4.65.4Zm-1.48-3.06c.12 0 .25-.03.36-.09.02-.01 2.34-1.29 4.17-2 1.8-.7 4.5-1.12 4.52-1.12a.747.747 0 1 0-.22-1.48c-.12.02-2.89.44-4.84 1.2-1.92.75-4.25 2.03-4.35 2.08-.36.2-.49.66-.29 1.02.13.25.39.39.65.39Zm.38-4.79c.04 0 .07 0 .11-.01.03 0 2.57-.39 4.12-.56 1.51-.17 4.19-.07 4.22-.07.41.03.76-.31.78-.72a.756.756 0 0 0-.72-.78c-.11 0-2.82-.11-4.44.07-1.58.18-4.08.55-4.18.57-.41.06-.69.44-.63.85a.76.76 0 0 0 .74.65Z" fill="#E2E2E4"/><path d="M78.602 78.767c-.14-3.17.42-6.26.84-7.81 1.12-4.12 2.11-6.62 4.36-7.95 5.96-3.54 9.95-3.11 12.11-4.65 2.46-1.76 7.34-9.46 10.91-8.05 2.5.99 2.39 5.3 2.39 5.3s3.87.07 4.5 2.39c.63 2.32-.84 4.72-.84 4.72s2.96 1.46 3.19 3.45c.23 2.06-.66 4.27-5.44 5.82-4.78 1.55-10.98 1.64-10.98 1.64s-1.4 8.34-11.05 10.84c-6.26 1.62-9.78-.91-9.99-5.7Z" fill="url(#c)" transform="matrix(-1 0 0 1 124.204 27.953)"/><path d="M45.302 103.27c.42.19 2.34-9.08-3.61-13.19-4.83-3.33-9.71-2.58-12.44-4.74-2.72-2.16-9.24-11.47-13.89-7.51-2.53 2.16-1.22 4.79-1.22 4.79s-2.97-.64-4.69 2.3c-1.74 2.96.75 5.63.75 5.63s-2.96.99-3 3.28c-.05 2.3.89 4.65 3.47 5.82 2.99 1.36 7.46 2.53 10 2.67 2.53.14 5.44-.61 3.28-.94-2.16-.33-10.14-2.86-11.87-3.38-2.96-.89-2.91-3.1-2.11-3.94 1.16-1.23 2.25-.94 5.73.09 2.92.87 6.57 2.58 6.71 1.5.14-1.08-3.33-2.25-5.68-3.57-2.35-1.31-6.24-2.72-5.21-5.11 1.03-2.39 3.28-1.92 5.82-.38 2.53 1.55 6.83 4.79 7.04 3.52.09-.56-4.13-3.99-5.35-4.83-1.22-.84-3.75-2.67-2.02-4.69 1.73-2.02 4.08.28 5.82 1.88 1.74 1.6 3.85 4.65 6.19 5.63 3.53 1.48 8.56 1.95 10.93 3.75 5.06 3.87 4.52 11.05 5.35 11.42Z" fill="#50362D"/></g></svg>