<svg width="128" height="128" xmlns="http://www.w3.org/2000/svg"><defs><radialGradient cx="6.093%" cy="-6.981%" fx="6.093%" fy="-6.981%" r="186.882%" gradientTransform="matrix(.54698 0 0 1 .028 0)" id="a"><stop stop-color="#F77EAE" offset="19.5%"/><stop stop-color="#F678AA" offset="35.4%"/><stop stop-color="#F568A1" offset="56.4%"/><stop stop-color="#F24C90" offset="80.1%"/><stop stop-color="#F2478D" offset="84.2%"/></radialGradient><linearGradient x1="35.76%" y1="32.648%" x2="62.844%" y2="72.883%" id="b"><stop stop-color="#F77EAE" offset="16.2%"/><stop stop-color="#F982A4" offset="37%"/><stop stop-color="#FC8A8F" offset="66.4%"/></linearGradient></defs><g fill="none"><path d="m60.462 64.7-4.5-.38s-.75 50.49 0 52.37c.75 1.88 8.26 9.76 12.95 4.32 4.69-5.44 0-6.19-3.75-6.57-3.75-.38-4.88.38-5.07-.94-.2-1.31.37-48.8.37-48.8ZM88.332 9s-5.73-6.05-13.8-3.8-8.63 12.53-3.85 20.46c4.09 6.78 12.45 18.76 12.29 25.34-.14 6.03-5.63 5.44-8.07.94-2.44-4.5-3.21-6.52-3.21-6.52l-9.71 23.65s14.62 9.07 27.38-2.58c11.92-10.89-2.11-32.01-4.97-37.26-1.69-3.1-2.86-5.68-2.53-8.54.19-1.68 2.42-3.12 3.94-3.73 1.46-.58 9.5-3.19 9.5-3.19L88.332 9Z" fill="#F77EAE"/><path d="M60.742 70.7s-19.23 10.88-18.21 11.36c1.41.66 9.1 2.25 13.14 3.1 3.21.67 7.79 1.22 9.57 2.25 1.78 1.03 4.6 5.07 5.16 6.38.56 1.31 1.03 3.85-2.72 5.63-3.75 1.78-5.91-.66-5.91-2.82 0-2.16.66-5.16 0-5.54-.87-.49-7.13-2.06-10.89-2.91-3.76-.85-11.36-2.91-12.48-3.19-1.13-.28-3.19-.38-3.57-2.16-.38-1.78 2.44-2.44 3.85-3.28 1.41-.84 5.73-3.75 7.6-4.88 1.88-1.13 7.88-5.73 7.88-5.73l6.19-.56.39 2.35Z" fill="#F2478D"/><path d="M88.332 7.54s-.56-.56-2.91-.56-6.48 1.88-8.54 2.82c-2.06.94-4.13 1.88-4.13 2.53 0 .66 4.97 1.6 7.41 2.16 2.44.56 6.85 1.97 6.85 1.97l6.01-5.35-4.69-3.57Z" fill="#FFD4AC"/><path d="M76.602 11.62c0 1.37 1.16 2.49 2.58 2.49 1.43 0 2.67-1.16 2.67-2.53 0-1.37-1.11-2.53-2.53-2.53-1.42 0-2.72 1.2-2.72 2.57Z" fill="#1A191E"/><path d="m85.752 6.95 5.16.21 7.09 7.88.19 3.1s-2.67-1.03-5.4-1.45c-2.72-.42-3.65-.43-4.27-.38-1.03.09-1.69.19-1.69.19s-1.8-2.68-1.88-4.5c-.14-3.15.8-5.05.8-5.05Z" fill="#F2478D"/><path d="M99.032 7.87c1.59 1.02 3.24 4.04 4.27 5.91 1.03 1.87 2.61 6.25.56 7.23-1.38.66-4.22-2.11-6.1-2.91-1.83-.78-3.12-1.03-3.12-1.03s-.19-.75-.49-.94c-.3-.19-5.63-1.17-5.63-1.17v-1.31s6.24 1.17 6.34.75c.09-.42-1.48-3.05-2.7-4.32-1.22-1.27-4.08-3-4.08-3s2.6-.23 5.47-.42c2.61-.18 3.79.13 5.48 1.21Z" fill="#5F6369"/><path d="m90.722 14.44-1.92-1.08s-1.27-1.13-2.11-.28c-.87.87.33 2.53 1.55 1.97.9-.42 2.48-.61 2.48-.61Z" fill="#1A191E"/><path d="M32.318 54.162c1.27 3.8 3.45 13.02 18.65 13.02 10.98 0 14.27-.17 17.53.56 2.18.49 4.58 2.04 6.62 2.6.63.17-.21-2.53-.63-4.01-.24-.85-.99-2.46-.99-2.46s1.9.49 3.52 1.2c1.33.58 3.03 1.34 4.08 1.97.69.41-.19-2.86-1.06-5-.61-1.49-2.67-4.08-2.67-4.08s1.97.77 2.82 1.13c.51.21 1.57.73 2.42.96.72.2-3.61-7.65-5.44-9.83-1.83-2.18-5.7-5.77-7.53-6.9-1.83-1.13-15.98-.84-15.98-.84l-20.98 1.06c-.01-.01-1.98 5.76-.36 10.62Z" fill="url(#a)" transform="matrix(-1 0 0 1 104.86 4.698)"/><path d="M43.938 33.182c8.55-1.06 16.26 3.38 20.98 6.12 4.72 2.75 10.49 8.94 10.49 8.94s-3.26.5-5.75.45c-2.3-.05-5.44-.52-5.44-.52s2.82 2.3 4.36 4.79c.59.94 2.11 3.87 2.11 3.87s-5.49.07-10.77-2.18c-3.22-1.37-8.09-4.43-8.09-4.43s1.69 4.43 2.11 5.49c.42 1.06 1.13 3.38 1.13 3.38s-5.35-.21-9.71-3.87c-4.36-3.66-4.22-4.55-4.22-4.55s1.27 4.62 1.62 5.82c.35 1.2.84 4.36.84 4.36s-5.8-.56-8.87-3.8c-2.02-2.13-3.38-5.35-3.45-7.95-.09-2.62.69-14.44 12.66-15.92Z" fill="url(#b)" transform="matrix(-1 0 0 1 104.86 4.698)"/></g></svg>