<svg width="128" height="128" xmlns="http://www.w3.org/2000/svg"><defs><radialGradient cx="57.967%" cy="-1.514%" fx="57.967%" fy="-1.514%" r="116.966%" gradientTransform="matrix(.06364 -.98557 .37062 .16925 .548 .558)" id="b"><stop stop-color="#FB6113" stop-opacity="0" offset="61%"/><stop stop-color="#D47755" offset="100%"/></radialGradient><radialGradient cx="-10.954%" cy="80.406%" fx="-10.954%" fy="80.406%" r="116.966%" gradientTransform="matrix(.06364 -.98557 .37062 .16925 -.4 .56)" id="c"><stop stop-color="#FB6113" stop-opacity="0" offset="61%"/><stop stop-color="#D47755" offset="100%"/></radialGradient><linearGradient x1="28.243%" y1="105.709%" x2="82.196%" y2="3.926%" id="a"><stop stop-color="#D47755" offset="0%"/><stop stop-color="#E66D37" offset="44%"/><stop stop-color="#FB6113" offset="89%"/></linearGradient><linearGradient x1="36.729%" y1="37.281%" x2="56.293%" y2="52.392%" id="d"><stop stop-color="#FB6113" stop-opacity="0" offset="1%"/><stop stop-color="#D47755" offset="83%"/></linearGradient></defs><g transform="matrix(-1 0 0 1 121.065 3.716)" fill="none"><path d="m14.926 88.984-12.8.1s-3.4 7.4-1.6 9.2c1.8 1.8 5.8 1.2 9.5 1.1 3.7-.1 6.1.2 6.9-.8.8-1 .1-7.9.1-7.9l-2.1-1.7Zm45-80.9s-1.3 3.2-2.5 4.1c-1.2.9-6.2 4.6-4.5 7.1 1.7 2.5 6.9 2.1 6.9 2.1l11.4-9.5-11.3-3.8Z" fill="#6B4D42"/><path d="M61.726 1.884a5.251 5.251 0 0 0-2.6 5.1c.2 3.6 3.2 5.9 8.4 7.7 5.2 1.8 10 5 13.5 6.3 2.91 1.02 5.93 1.69 9 2 2.34.18 4.7.05 7-.4 0 0-3.2 2.6-6.2 5.4a37.843 37.843 0 0 0-5.4 6.7l-.8 4.7s12.2-.6 12.3-1.1c.1-.5 11-21.5 11-21.5l-46.2-14.9Z" fill="#8D5F55"/><path d="M42.126 87.484c-.1-.3-2.5-4.1-1.4-8.6s4.5-9.2 5-10.2.3-14.2.3-14.2l40.7-8.9s1.9 10.3 4.3 15.8 8.4 14.4 9.5 18.9c.63 3.23.66 6.55.1 9.8l-18.2 8.7-10.3 14.7-11.3 4.5s-4.4-3.1-5.6-5.3c-.8-1.5-.2-4.1.9-4.5 1.1-.4 1.6.1 2.8 1.2 1.5 1.4 3.8 3.8 4.1 3.5.3-.3 3.5-4.9 3.5-4.9-.72-.69-1.53-1.3-2.4-1.8-.4 0-2.5 1.1-3.9.5-1.4-.6-1.5-2.6-1.5-2.6l-11.1-1.1-5.5-15.5Z" fill="#8D5E50"/><path d="M81.926 27.384s-3-6.9-6.7-10.1a15.51 15.51 0 0 0-9.9-3.6c-3.9.1-7.3 3-9 4.6-2.2 2.2-6.2 9.1-6.2 9.1h31.8Z" fill="#FF5D15"/><path d="M47.526 31.384a16.87 16.87 0 0 0-7.1 4.8c-3 3.3-5.6 11.2-5.9 12.6-.5 2.3-4.4 6.5-12.3 15.2-6.6 7.2-10.9 11.4-14.2 15.4-2.4 2.9-6.6 7.7-5.9 9.7.7 2 4.3 3.4 7.9 3.6 3.6.2 6.2.1 7.3-.8 1.1-.9 5.3-5.1 8.2-6.8 6.1-3.7 19-11.7 22-20.7 2.9-8.5 6.6-16.8 6.6-16.8l-6.6-16.2Z" fill="url(#a)"/><path d="M74.226 3.884s-7-7.1-12.7-2.1c-5.7 5 4.6 10.5 6.1 10.8 1.5.3 3.7.7 3.7.7s6.9 5.3 13.7 7c6 1.5 12.7.2 14.9-.4 2.2-.6 3.7-1.3 3.9-.2.2 1.1-1.2 1.5-3.6 2.5-2.4 1-12.5 12.5-12.5 12.5l-1.5 9.6s1.3 6.1 2.4 10.5a38.41 38.41 0 0 0 3.1 8.3s2.1.5 5.3-1.9c5.3-3.9 4.3-14.8 4.3-14.8s3 1 5.1-1c2.1-2 7.6-19 8.3-21.7.7-2.7 2.4-7.2.8-8.6a34.73 34.73 0 0 0-10.9-6.7c-3.7-1.3-12.7-3.1-18.5-3.9-4.5-.4-11.9-.6-11.9-.6Z" fill="#FB6113"/><path d="M115.526 15.184a34.73 34.73 0 0 0-10.9-6.7c-3.7-1.3-12.7-3.1-18.5-3.9-4.5-.5-12-.7-12-.7s-7-7.1-12.7-2.1c-5.7 5 4.7 10.5 6.2 10.8 1.5.3 3.7.7 3.7.7s6.9 5.3 13.7 7c6 1.5 12.7.2 14.9-.4 2.2-.6 3.7-1.3 3.9-.2l11.7-4.5Z" fill="url(#b)"/><path d="M115.526 15.184a34.73 34.73 0 0 0-10.9-6.7c-3.7-1.3-12.7-3.1-18.5-3.9-4.5-.5-12-.7-12-.7s-7-7.1-12.7-2.1c-5.7 5 4.7 10.5 6.2 10.8 1.5.3 3.7.7 3.7.7s6.9 5.3 13.7 7c6 1.5 12.7.2 14.9-.4 2.2-.6 3.7-1.3 3.9-.2l11.7-4.5Z" fill="url(#c)"/><path d="M103.926 19.684c.1 1.1-1.2 1.5-3.6 2.5-2.4 1-12.5 12.5-12.5 12.5l-1.6 9.6s1.3 6.1 2.4 10.5a38.41 38.41 0 0 0 3.1 8.3s2.1.5 5.3-1.9c5.3-3.9 4.3-14.8 4.3-14.8s3 1 5.1-1c2.1-2 7.6-19 8.3-21.7.7-2.7 2.4-7.2.8-8.6l-11.6 4.6Z" fill="url(#d)"/><path d="M48.826 47.084s-5.7-4-4.9-10.7c.8-6.7 5.6-9.9 8.1-11.5 2.5-1.6 7.3-3.1 9.6-4.1 2.3-1 3.1-2.8 4.2-2.8s3.1 2.5 6.3 3.8c3.2 1.3 10 3.2 13.8 7.3 3.8 4.1 4.7 8.2 3.3 12.4-1.4 4.2-3.1 5.5-3.1 5.5s.9 10-1.3 16.5c-2.5 7.1-11.6 14.4-22.5 10.8a17.635 17.635 0 0 1-9.4-6.6c-4.1-5.4-3.8-12-4-15.1-.18-1.83-.21-3.67-.1-5.5Z" fill="#50362D"/><path d="M65.926 20.084a68.743 68.743 0 0 1-8.9 4.9c-3.4 1.4-12.1 5.3-11 13.8 1 7.3 12.2 13.7 15 14.4 2.8.7 13.3-1 14.8-2s11-5.2 11.7-12.4c.7-7.2-7.7-12.4-13.5-14.3-6.6-2.4-7.4-4.5-8.1-4.4Z" fill="#8D5F55"/><path d="M56.726 31.584c.7.6 1.5-.1 2.1-.8.6-.7 2-2.6 3.2-2.8 1.4-.1 2.4 1.5 4.1 1.5 1.7 0 1.9-1.5 3.7-1.5 1.8 0 3.1 2.5 3.4 3 .3.5.9 1.4 1.7.8.8-.6.1-1.4-.1-1.7-.2-.3-2.4-4-4.9-4.1-2.5-.1-2.4 1.4-3.8 1.4s-1.2-1.6-3.8-1.5c-2.6.1-4 2.3-4.5 3-.5.7-1.9 2-1.1 2.7Z" fill="#BA957E"/><ellipse fill="#010103" transform="rotate(-87.599 70.272 31.492)" cx="70.272" cy="31.492" rx="2.5" ry="1.7"/><ellipse fill="#010103" transform="rotate(-5.062 62.626 31.483)" cx="62.626" cy="31.483" rx="1.8" ry="2.5"/><path d="M66.026 37.284c-1.6 0-6.6-.2-8.5 3.8-1.9 4-1.3 11.8-.9 12.9.7 1.8 4.7 4.8 10.8 4.5 6.1-.3 8.4-2.9 8.9-4.5.5-1.4-.5-12.5-2.5-14.5-3-3.1-7.8-2.2-7.8-2.2Z" fill="#FE5E12"/><path d="M65.726 35.484c-3.9 0-6.7 3.2-6.8 7.3-.1 5.3.4 6.8 2.8 8 2 1.1 7.6.9 9.7-.5 2.1-1.4 2.3-5.7 2-8.3-.3-2.6-1.2-6.5-7.7-6.5Z" fill="#BA957E"/><path d="M66.126 42.884c2.3 0 2.8 1.4 4.6 1.5 1.8.1 2.5-1.1 2.6.1.1 1.2-1.4 1.7-2.7 1.8-1.3.1-3-1.3-4.6-1.4-1.6-.1-2.4 1.6-4.4 1.5-2-.1-3.2-1.3-2.6-2.1.6-.8 1 .5 2.6.4 1.6-.1 2-1.8 4.5-1.8Zm-3.1-3.9c.42.61 1.2.86 1.9.6.5-.2.5-1.1-.2-1.9-.7-.8-1.2-1-1.7-.6s-.9 1 0 1.9Zm3.7-1.6c-.51.55-.59 1.36-.2 2 .3.4 1.2.3 1.8-.6.5-.7.7-1.4.2-1.8-.5-.4-1-.7-1.8.4Z" fill="#543527"/><path d="M51.826 89.384c-.7-2.7-6.9-8-11.3-8.7-5.1-.8-9.4 3.5-10.3 5.2-.89 1.43-1.47 3.03-1.7 4.7-.2 2 8.5 4.1 8.5 4.1l14.8-5.3Zm13.8 10.6c1.98-2 4.08-3.87 6.3-5.6 2.2-1.7 5.9-4.5 8.6-5.4 2.38-.6 4.85-.81 7.3-.6 4.5.5 9.3 1.5 10.3.7 1.8-1.4-.9 4.4-.9 4.4l-18.9 2.2-9 5.4-3.7-1.1Zm39.3-12.8c0-.1-2-3.1-7-3.2-3.3-.1-7.6 1.3-7.1 2.6 1.9.5 4.7 1.1 4.7 1.1l9.4-.5Z" fill="#FE5E12"/><path d="M71.626 104.584s-1.9 3.8 4.4 3.1c6.3-.7 8.6-1 13.2-1.6 4.89-.87 9.61-2.49 14-4.8 2.4-1.5 5.2-3.9 4.8-8.4-.12-3.85-3.07-7.02-6.9-7.4-5.1-.7-8.9 1.4-8.1 1.7 1.4.6 4.4.8 3.8 2.4-.6 1.6-3.4 1-6.3.8-2.9-.2-8.3-.2-10.9 1.1-2.6 1.3-11 8.7-11 8.7l3 4.4Zm-43.4-12.3c-.3 3.9.4 6.2 3.4 8.5s6.7 2.3 9.6 2.4c2.9.1 7.4.1 7.4.1s2.4-13.3 2.3-13.5c-.1-.2-7.6-6.3-11.4-6.6-3.8-.3-10.7 1.1-11.3 9.1Z" fill="#D27856"/><path d="M45.126 97.584c-.1 4.2 2.3 8 6.2 8.5 3.9.5 6.4 0 7.1-.5.62-.51 1.19-1.08 1.7-1.7-.99-.71-2.02-1.34-3.1-1.9-1.6-.8-3.6-.8-3.1-1.7.5-.9 2.8.3 3.5.7.7.4 3.2 2.4 3.2 2.4l.7.4 2.4-2.9s-3-1.9-4.2-2.6c-1.2-.7-4-1.8-3.5-2.5s2.9.7 4.2 1.4c1.3.7 4.8 3.4 4.8 3.4l1.8-1.8s-2-2.2-3.8-3.8c-1.8-1.6-5.2-1.8-4.9-2.7.5-1.5 4.8.6 5.9 1.5 1.1.9 4 3.9 4 3.9s2.2-1.7 2.2-1.8c0-.1-3.1-5.6-6-6.8-3.8-1.29-7.88-1.53-11.8-.7-2.8.7-7.2 5.1-7.3 9.2Z" fill="#6B4C42"/><path d="M74.826 115.684c-1.8 1.9-10.4 4.6-12.3 4-1.9-.6-6.2-4.9-6.1-5.5.1-.6 3.5 2.5 6 2.1 1.94-.35 3.76-1.17 5.3-2.4.3-.4 1.2-1.8-.9-.8s-4.8 2.4-5.8 1.8c-1-.6-4.1-2.4-4.5-3.3-.4-.9-.6-3.7.7-3.5 1.3.2 3.3 2.2 3.3 2.2s4.3-1.7 4.4-2.8c.1-1.1-.3-2.2-1.3-2.2s-2 .5-2.6 0c-.43-.37-.83-.77-1.2-1.2l4.4-3.7a5.211 5.211 0 0 1 5.3-.7c2.7 1.1 5.8 4.1 6.4 6.8.8 2.5.6 7.4-1.1 9.2Z" fill="#6B4C42"/></g></svg>