<svg width="128" height="128" xmlns="http://www.w3.org/2000/svg"><g fill="none"><path d="M98.658 61.37s-.26-4.98 4.23-4.57c4.52.41 2.88 6.55 2.88 6.55l-7.11-1.98Z" fill="#AFAFAF"/><path d="m79.488 93.79 5.99.7s-.3 12.08.5 13.38c.8 1.3 5.99 4.59 5.99 4.59s.5 1.8-2.3 2.8c-2.8 1-8.29.6-8.29.6l-7.89-19.28 6-2.79Zm-43.35.9c.6.1 8.39 2.8 8.39 2.8s-2.8 10.29-1.1 11.98c1.7 1.69 4.79 3.1 2.9 4.39-1.9 1.3-9.29 1.1-11.29-1s-2.2-3.8-2.3-5.89c-.1-2.1.2-12.68.2-12.68l3.2.4Z" fill="#171717"/><path d="M81.208 100.06s-.82 9.89.22 11.24c1.05 1.35 5.47 4.19 5.62 4.72.15.52.07 3.9-5.77 3.82-5.84-.08-9.74-.79-12.28-3.86-2.55-3.07-2.25-12.32-2.25-12.32s-10.71-.3-14.08-.67c-3.37-.37-7.57-.67-7.57-.67s-1.12 4.64-.52 6.37c.6 1.72 2.77 3.22 2.17 3.82-.6.6-3.52-.22-4.34-2.47-.82-2.25-.15-8.16-.15-8.16s-4.72-.67-7.64-1.27-4.42-.82-4.42-.82-1.2 6.89-.75 9.06c.45 2.17 5.84 7.19 3.9 7.64-1.95.45-5.58 1.16-9.14.3-2.81-.68-5.33-3.36-5.58-5.02-.11-.75-.2-2.24-.22-3.63-.04-2.1.41-17.19.41-17.19l53.71-23 7.72-1.27s2.4-1.05 4.19-1.87c1.8-.82 3.97-1.42 3.97-1.42s0-5.02 2.4-5.24c2.4-.22 3.97 2.85 3.97 2.85l6.44 1.27 10.78 5.13 4.49 8.16 4.34.52s5.84.94 6.52 3.67c.61 2.49-.97 3.3-.97 3.3s-.11 1.61-.79 2.66-1.84 1.24-1.84 1.24-1.07 1.74-2.4 2.32c-2.92 1.27-5.18.67-8.24.45-3.15-.22-6.97-.52-6.97-.52s-6.89 3-11.09 4.72c-4.2 1.72-8.69 3.82-8.69 3.82s-.07 7.72.52 9.89c.6 2.17 5.84 3.67 5.69 4.79-.15 1.12-2.85-.07-4.49-.97-1.64-.9-2.77-2.25-3.15-3.52-.37-1.27-.45-9.66-.45-9.66l-3.27 1.79Z" fill="#575A5B"/><path d="m14.768 88.55 2 5.37s-1.37 2.8-3.65 4.94c-2 1.89-3.29 2.73-5.39 2.7-3.1-.05-8.24-3.82-6.97-5.32 1.04-1.22 4.94-4.54 4.94-4.54l9.07-3.15Z" fill="#DFDFDF"/><path d="M46.898 56.77c-15.43.75-24.42 7.72-27.57 14.31-3.15 6.59-4.27 9.89-5.32 11.54-1.05 1.65-9.44 10.04-9.44 10.04s1.91 1.89 5.92 2.55c3.22.52 5.62-.15 5.62-.15s.62-.84 1.12-1.6c.35-.52.9-1.25 1.87-.6 1.26.84 4.19 5.34 9.21 5.64 6.03.36 11.76-1.8 11.76-1.8s-.22 2.77.37 2.92c.6.15 4.83-1.39 6.59-2.36 1.45-.8 4.87-3.18 4.87-3.18s-1.65 5.24-1.2 5.77c.45.52 3.71-.45 5.92-2.25 1.49-1.21 7.42-6.37 7.42-6.37s-1.8 5.47-1.35 6.07c.45.6 4.51-1.2 7.34-4.72 3.07-3.82 4.79-7.79 5.99-13.63 1.12-5.48 1.57-7.42 2.25-9.36.68-1.94 1.95-2.92 1.95-2.92s-3.45.15-4.72-.52c-1.25-.69-14.81-10.06-28.6-9.38Z" fill="#AFAFAF"/><path d="M78.738 84.78c.07.6 12.16.52 15.46.67 3.3.15 10.76 2.02 13.83 2.4 3.07.37 8.16 1.35 10.56.97 2.4-.37 2.62-.97 2.55-1.35-.07-.37-2.92.04-3.52-.82-.6-.86.04-1.8.9-1.31s2.72.79 3.92.64c1.2-.15 1.92-1.2 1.92-1.84 0-.64-1.8-.84-2.52-1.56-.96-.96-1.52-2.2-1.37-4.32.1-1.4.55-2.05.27-2.2-.4-.22-1.45-.3-2.37-2.67-.75-1.92-2.27-5.48-5.12-7.62-3.21-2.41-5.94-3.94-11.14-4.72-5.09-.76-5.51-.36-5.51-.36s-1.65-4.72-6.22-3.9c-4.57.82-3.11 6.88-3.11 6.88l2.05-.32s-.59-3.07 1.59-3.45c2.17-.37 3.11 2.51 3.11 2.51s8.01.79 11.27 2.73c3.6 2.15 11.24 8.54 9.14 13.15-2.1 4.61-11.87.07-13.56-1.05-1.69-1.12-6.69-4.7-9.7-3.96-3 .74-3.98 3.07-6.77 5.52-1.65 1.47-5.77 5.01-5.66 5.98Z" fill="#DFDFDF"/><path d="M103.978 74.78c.64 1.69 2.1 2.43 3.9 1.98 1.55-.39 2.4-3.07 1.35-5.02-.94-1.75-2.77-1.84-4.12-1.35-1.5.55-1.82 2.57-1.13 4.39Z" fill="#191919"/><path d="M106.618 73.24c.43.79 1.43 1.34 2.12.72.49-.44.28-1.52-.34-2.47-.62-.95-1.69-1.17-2.06-.7-.48.62-.13 1.71.28 2.45Z" fill="#E1E1E1"/><path d="M94.318 113.02c-.09.9-3.33 1.31-3.18-.45.15-1.76 3.29-.64 3.18.45Z" fill="#DFDFDF"/><path d="M92.408 115.83c-.44.86-4.04.04-3.18-1.72.86-1.76 3.78.56 3.18 1.72Zm-3.45 2.21c-.36.87-4.42-.49-3.67-1.8s4.35.19 3.67 1.8Z" fill="#DFDFDF"/><path d="M87.238 120.17c-.61 1.03-4.79-.71-3.56-2.1 1.23-1.39 4.2 1.02 3.56 2.1Z" fill="#DFDFDF"/><path d="M48.588 113.66c-.29.79-3.33.04-3-1.05.33-1.09 3.3.22 3 1.05Zm-2.58 1.87c-.59.44-3.41-1.35-2.1-2.06s2.99 1.39 2.1 2.06Zm-3 .52c-1.22.37-3.41-1.91-1.87-2.36 1.53-.45 2.73 2.1 1.87 2.36Zm-10.86-1.08c.87-.73 3.6.86 2.77 1.95-.82 1.08-3.93-.98-2.77-1.95Zm.05 3.68c-1.29.7-3.79-2.54-2.35-2.97 1.44-.42 3.38 2.41 2.35 2.97Zm-5.26-2.63c1.6-.23 3.52 2.73 1.8 2.85-1.72.12-3.33-2.63-1.8-2.85Z" fill="#E0E0E0"/><path d="M62.258 84.95c.31 0 .63-.14.84-.41l2.25-2.85c.36-.46.29-1.13-.18-1.49-.46-.36-1.13-.28-1.49.18l-2.25 2.85a1.064 1.064 0 0 0 .83 1.72Zm-11.98 1.27c.24 0 .48-.08.67-.24l3.75-3.07c.46-.37.52-1.04.15-1.5-.37-.45-1.04-.52-1.5-.15l-3.75 3.07a1.064 1.064 0 0 0 .68 1.89Zm-4.35-9.44c.21 0 .42-.06.61-.19l3.75-2.62c.48-.34.6-1 .26-1.48-.34-.48-1-.6-1.48-.26l-3.75 2.62c-.48.34-.6 1-.26 1.48.21.29.54.45.87.45Zm-11.38-3.17c.22 0 .44-.07.62-.2l3.82-2.77a1.07 1.07 0 0 0 .24-1.49c-.34-.48-1.01-.58-1.49-.24l-3.82 2.77a1.07 1.07 0 0 0-.24 1.49c.21.29.54.44.87.44Zm-2.1 9.61c.17 0 .34-.04.5-.12l3.37-1.8a1.07 1.07 0 0 0 .44-1.44 1.07 1.07 0 0 0-1.44-.44l-3.37 1.8c-.52.28-.71.92-.44 1.44.19.36.56.56.94.56Zm-9.42-6.56a.992.992 0 0 0 .48-.19l3.11-2.21a1.061 1.061 0 0 0-1.23-1.73l-3.11 2.21a1.06 1.06 0 0 0-.25 1.48c.23.33.62.49 1 .44Z" fill="#999"/></g></svg>