<svg width="128" height="128" xmlns="http://www.w3.org/2000/svg"><defs><radialGradient cx="38.24%" cy="37.129%" fx="38.24%" fy="37.129%" r="65.023%" gradientTransform="matrix(1 0 0 .64787 0 .13)" id="a"><stop stop-color="#F58B21" offset="36.7%"/><stop stop-color="#F17E22" offset="69.7%"/><stop stop-color="#EC6E24" offset="100%"/></radialGradient><radialGradient cx="-1.298%" cy="56.982%" fx="-1.298%" fy="56.982%" r="97.71%" gradientTransform="matrix(.92446 .31997 -.38128 .7758 .216 .132)" id="c"><stop stop-color="#6D4C41" stop-opacity="0" offset="45%"/><stop stop-color="#6D4C41" offset="100%"/></radialGradient><radialGradient cx=".307%" cy="68.868%" fx=".307%" fy="68.868%" r="104.818%" gradientTransform="matrix(.99527 -.05569 .0971 .57081 -.067 .296)" id="d"><stop stop-color="#6D4C41" stop-opacity="0" offset="45%"/><stop stop-color="#6D4C41" offset="100%"/></radialGradient><radialGradient cx="58.078%" cy="74.121%" fx="58.078%" fy="74.121%" r="104.952%" gradientTransform="matrix(.59832 -.1162 .07 .99323 .181 .073)" id="e"><stop stop-color="#6D4C41" stop-opacity="0" offset="45%"/><stop stop-color="#6D4C41" offset="100%"/></radialGradient><radialGradient cx="57.813%" cy="32.456%" fx="57.813%" fy="32.456%" r="115.332%" gradientTransform="scale(.72417 1) rotate(16.409 .688 1.088)" id="f"><stop stop-color="#6D4C41" stop-opacity="0" offset="45%"/><stop stop-color="#6D4C41" offset="100%"/></radialGradient><linearGradient x1="51.41%" y1="75.963%" x2="45.875%" y2="43.661%" id="b"><stop stop-color="#FFCA28" offset="50%"/><stop stop-color="#FFB300" offset="100%"/></linearGradient></defs><g transform="matrix(-1 0 0 1 104.264 5.991)" fill="none"><path d="M74.92 110.599s-4.03-1.6-6.04-3.14c-1.88-1.44-3.58-3.4-4.75-4.44-.76-.69-1.43-1-2.02-1-.6 0-1.13.31-1.58.86l-2.58 3.24c-1.08 1.78-.16 4.11-.16 4.11s-2.7 2.86 1.8 3.84c4.61 1.01 10.13 1.56 10.13 1.56.29.05.64.08 1.02.08 1.9 0 4.6-.69 5.46-2.66 0 0 1.29-1.43-1.28-2.45Z" fill="#4568AC"/><path d="m57.52 105.539-15.18-1.84c-.01 0 5.13-15.82 6.64-23.31 0 0-12.54 3.72-18.98 3.72 0 0-.78 13.4-1.05 19.78-.36 8.44 2.25 10.91 6.28 11.81.92.21 2.01.3 3.21.3 5.32 0 12.92-1.74 19.04-2.46 2.35-.28 1.72-6.91.04-8Z" fill="#616161"/><path d="M19.35 113.629c-.01-2.07-2.12-4.43-2.12-4.43l-7.62.01-6.85 2.28a4.365 4.365 0 0 0-2.76 4.04v1.38c0 .6.49 1.09 1.09 1.09l17.02-.05c.69 0 1.25-.56 1.25-1.26l-.01-3.06Z" fill="#4568AC"/><path d="M49.69 71.589c-.03-.27-.24-.47-.53-.44l-18.07 1.23c-.1.01-10.31 1.42-16.59 1.96-7.44.64-8.14 8.01-7.84 15.13.25 5.96 1.91 19.67 1.93 19.81.02.15.11.29.24.37.07.04 1.82 1.06 4.94 1.06 3.14 0 4.71-1.05 4.76-1.1.11-.08.19-.21.21-.35l2.57-20.71c1.31-.06 5.43-.25 8.76-.12 6.45.26 12.94-.08 16.78-4.26 2.57-2.79 3.53-7.03 2.84-12.58Z" fill="#7C7C7C"/><path d="M41.19 22.989c1.09-3.72 1.69-8.33 1.19-11.1-.11-.62-.27-1.16-.49-1.57-.63-1.11-1.47-2.18-2.46-3.14-.02-.02-.04-.04-.06-.05-.22-.22-.45-.43-.69-.63-.04-.03-.08-.07-.12-.1-.22-.19-.44-.37-.67-.54-.05-.04-.11-.08-.16-.12-.22-.17-.45-.33-.68-.48l-.18-.12c-.23-.15-.47-.3-.71-.44-.06-.04-.12-.07-.18-.11-.25-.14-.5-.27-.75-.4a20.958 20.958 0 0 0-.99-.46c-.03-.01-.07-.03-.1-.04-1.55-.63-3.17-1-4.74-1-.04 0-.08.01-.11.01-.35 0-.69.02-1.03.06-5.74.68-8.99 4.65-10.04 9.81-.38 1.87-.41 3.76-.15 5.1.03.16.29 1.34.3 1.7.15 1.41-2.63 2.68-3.02 4.22-.29 1.15 2.11 2.01 2.29 2.22.91 1.09-.83 6 5.82 6.8 2.56.31 2.8.24 3.6.35 1.59.23 1.12 6.68 1.12 6.68h.01l11.52-2.31s-1.53-7.45.12-10.7c.49-1 .96-2.26 1.36-3.64Z" fill="#FFCA28"/><path d="M18.19 28.639c.92.09 1.85-.08 2.66-.62.88-.6.33-1.33-.67-.96-.6.23-1.44.31-2.2.13l.21 1.45Z" fill="#795548"/><ellipse fill="#404040" transform="rotate(-89.209 22.468 20.337)" cx="22.468" cy="20.337" rx="1.88" ry="1.22"/><path d="M21.64 17.519c-1.22.23-1.42-.58-.96-1.17.34-.44 1.1-.75 2.46-.34 1.28.39 1.75 1.19 2.05 1.69.3.5.22.95-.09.95-.42.01-1.95-1.41-3.46-1.13Z" fill="#6D4C41"/><path d="M43.53 42.759c-1.86-6.37-5.03-8-7.8-8-2.88 0-5.32 1.78-5.32 1.78-4.9 3.37-4.91 8.51-5.36 15.42-.46 6.91-.79 20.99-.79 20.99s5.44 2.25 13.71 2.25h.65c8.64-.12 11.84-3.11 11.84-3.11s-4.6-21.37-6.93-29.33Z" fill="url(#a)"/><path d="M43.69 60.869c-.48-3.02-2.76-14.41-2.78-14.52a.504.504 0 0 0-.54-.4l-10.25.98a.504.504 0 0 0-.44.61l3.56 15.21c-1.75 1.05-10.38 6.15-12.85 6.67-1.67.35-4.53.75-7.83 1.19-2.64.36-5.28 3.82-6.62 5.85-.4.61-.36 1.4.08 1.96.33.43.83.65 1.33.65.33 0 .66-.1.94-.3l3.57-2.12c.51.07 2.01.25 4.05.16 2.52-.11 4.97-1.19 5.05-1.23.91-.35 5.26-1.12 9.47-1.87 3.14-.56 6.38-1.13 8.57-1.59 6.26-1.3 5.12-8.53 4.69-11.25Z" fill="url(#b)"/><path d="M41.94 46.879c-.5-2.91-2.88-6.55-6.78-6.55-.34 0-.7.03-1.07.09-4.53.74-5.87 5.57-5.32 8.73l1.92 9.63 13.17-2.27-1.92-9.63Z" fill="#EC6E24"/><path d="M45.84 10.589c-1.3-3.65-4.17-4.84-5.11-5.14-.4-1.32-2.46-6.34-10.67-5.3-2 .25-3.49 1.15-4.8 1.93-.56.34-1.1.66-1.6.87-.4.17-1.11.32-1.68.1-1.3-.48-.81-2.46-.81-2.46s-4.85.77-2.95 5.51c-1.64.65-2.46 2.34-2.81 3.94-.48 2.19.52 4.32 2.6 5.35 0 0-.29-3.55 4.81-3.16 1.58.12 3.23.43 4.72-.1.57-.21 1.11-.54 1.66-.79h.2c1.9 1.11-.82 5.58 1.24 8.33.41.54.77.36.77.36l.91-1.24c.69-.84 1.31-1.58 2.12-1.37 2.39.62 1.79 4.9-1.1 5.74-.29.08.19 4.9 6.11 5.12 3.06.12 4.23-2.39 4.23-2.39s-1.32.28-1.56-.84c-.13-.58.43-1.34 1.42-2.15 2.85-2.35 1.96-5.21 1.58-6.1.48-.78 1.74-3.36.72-6.21Z" fill="#543930"/><path d="M45.15 16.819c.05-.09-.93 2.15-4.83 1.63-1.61-.06-3.99 3.73-1.74 6.38 2 2.34 5.12 1.09 5.12 1.09s-.43.11-1.04-.13c-.39-.16-.52-.69-.52-.71-.13-.58.43-1.34 1.42-2.15 2.85-2.36 1.96-5.22 1.59-6.11Z" fill="url(#c)"/><path d="M45.84 10.589c-.68-1.92-2-3.57-3.79-4.56-.26-.15-.89-.48-1.34-.58.18.85.12 1.74-.27 2.66-.01.03-.47 1.39-1.7 2.45.82 1.22 1.2 2.69 1.55 4.12.31 1.25.6 2.63.01 3.77.75-.02 1.93.24 3.27-.3 1.28-.52 1.99-1.94 2.35-3.24.41-1.42.42-2.93-.08-4.32Z" fill="url(#d)"/><path d="M40.45 8.109c1.03-2.39-.21-4.67-2.17-6.24-2.3-1.83-5.4-2.09-8.22-1.73-2 .25-3.49 1.15-4.8 1.93-.56.34-1.1.66-1.6.87-.4.17-1.11.32-1.68.1-1.3-.48-.81-2.46-.81-2.46s-4.85.77-2.95 5.51c-1.64.65-2.46 2.34-2.81 3.94-.48 2.19.52 4.32 2.6 5.35 0 0-.29-3.55 4.81-3.16 1.58.12 3.23.43 4.72-.1 1.32-.48 1.79-1.16 3.24-1.03 1.57.15 3.64.82 5.27.64 3.31-.37 4.38-3.58 4.4-3.62Z" fill="url(#e)"/><path d="M38.58 24.819c-1.01-1.16-1.22-3.01-2.84-4.06-.34 1.06-1.16 2.05-2.39 2.41-.29.08.19 4.9 6.11 5.12 3.06.12 4.23-2.39 4.23-2.39s-3.07 1.25-5.11-1.08Z" fill="url(#f)"/></g></svg>