<svg width="128" height="128" xmlns="http://www.w3.org/2000/svg"><defs><radialGradient cx="38.233%" cy="37.122%" fx="38.233%" fy="37.122%" r="65.023%" gradientTransform="matrix(1 0 0 .64787 0 .13)" id="a"><stop stop-color="#00BFA5" offset="36.4%"/><stop stop-color="#00B29A" offset="81.2%"/><stop stop-color="#00AB94" offset="100%"/></radialGradient><radialGradient cx="47.75%" cy="63.44%" fx="47.75%" fy="63.44%" r="68.79%" gradientTransform="matrix(.9035 .1161 -.10561 .99324 .113 -.051)" id="c"><stop stop-color="#454140" stop-opacity="0" offset="52.6%"/><stop stop-color="#454140" offset="100%"/></radialGradient><linearGradient x1="51.402%" y1="75.954%" x2="45.867%" y2="43.652%" id="b"><stop stop-color="#F9DDBD" offset="50%"/><stop stop-color="#FFD29C" offset="100%"/></linearGradient></defs><g transform="matrix(-1 0 0 1 104.264 7.592)" fill="none"><path d="M74.92 109.008s-4.03-1.6-6.04-3.14c-1.88-1.44-3.58-3.4-4.75-4.44-.76-.69-1.43-1-2.02-1-.6 0-1.13.31-1.58.86l-2.58 3.24c-1.08 1.78-.16 4.11-.16 4.11s-2.7 2.86 1.8 3.84c4.61 1.01 10.13 1.56 10.13 1.56.29.05.64.08 1.02.08 1.9 0 4.6-.69 5.46-2.66 0 0 1.29-1.43-1.28-2.45Z" fill="#4568AC"/><path d="m57.52 103.948-15.18-1.84c-.01 0 5.13-15.82 6.64-23.31 0 0-12.54 3.72-18.98 3.72 0 0-.78 13.4-1.05 19.78-.36 8.44 2.25 10.91 6.28 11.81.92.21 2.01.3 3.21.3 5.32 0 12.92-1.74 19.04-2.46 2.35-.28 1.72-6.91.04-8Z" fill="#616161"/><path d="M19.35 112.038c-.01-2.07-2.12-4.43-2.12-4.43l-7.62.01-6.85 2.28a4.365 4.365 0 0 0-2.76 4.04v1.38c0 .6.49 1.09 1.09 1.09l17.02-.05c.69 0 1.25-.56 1.25-1.26l-.01-3.06Z" fill="#4568AC"/><path d="M49.69 69.998c-.03-.27-.24-.47-.53-.44l-18.07 1.23c-.1.01-10.31 1.42-16.59 1.96-7.44.64-8.14 8.01-7.84 15.13.25 5.96 1.91 19.67 1.93 19.81.02.15.11.29.24.37.07.04 1.82 1.06 4.94 1.06 3.14 0 4.71-1.05 4.76-1.1.11-.08.19-.21.21-.35l2.57-20.71c1.31-.06 5.43-.25 8.76-.12 6.45.26 12.94-.08 16.78-4.26 2.57-2.79 3.53-7.03 2.84-12.58Z" fill="#7C7C7C"/><path d="M41.19 21.388c1.09-3.72 1.69-8.33 1.19-11.1-.11-.62-.27-1.16-.49-1.57-.63-1.11-1.47-2.18-2.46-3.14-.02-.02-.04-.04-.06-.05-.22-.22-.45-.43-.69-.63-.04-.03-.08-.07-.12-.1-.22-.19-.44-.37-.67-.54-.05-.04-.11-.08-.16-.12-.22-.17-.45-.33-.68-.48l-.18-.12c-.23-.15-.47-.3-.71-.44-.06-.04-.12-.07-.18-.11-.25-.14-.5-.27-.75-.4a20.958 20.958 0 0 0-.99-.46c-.03-.01-.07-.03-.1-.04-1.55-.64-3.17-1.01-4.74-1.01-.04 0-.08.01-.11.01-.35 0-.69.02-1.03.06-5.74.68-8.99 4.65-10.04 9.81-.38 1.87-.41 3.76-.15 5.1.03.16.29 1.34.3 1.7.15 1.41-2.63 2.68-3.02 4.22-.29 1.15 2.11 2.01 2.29 2.22.91 1.09-.83 6 5.82 6.8 2.56.31 2.8.24 3.6.35 1.59.23 1.12 6.68 1.12 6.68h.01l11.52-2.31s-1.53-7.45.12-10.7c.49-.99.96-2.25 1.36-3.63Z" fill="#F9DDBD"/><path d="M18.19 27.048c.92.09 1.85-.08 2.66-.62.88-.6.33-1.33-.67-.96-.6.23-1.44.31-2.2.13l.21 1.45Z" fill="#444"/><ellipse fill="#312D2D" transform="rotate(-89.209 22.47 18.748)" cx="22.47" cy="18.748" rx="1.88" ry="1.22"/><path d="M21.64 15.928c-1.22.23-1.42-.58-.96-1.17.34-.44 1.1-.75 2.46-.34 1.28.39 1.75 1.19 2.05 1.69.3.5.22.95-.09.95-.42.01-1.95-1.41-3.46-1.13Z" fill="#454140"/><path d="M43.53 41.168c-1.86-6.37-5.03-8-7.8-8-2.88 0-5.32 1.78-5.32 1.78-4.9 3.37-4.91 8.51-5.36 15.42-.46 6.91-.79 20.99-.79 20.99s5.44 2.25 13.71 2.25h.65c8.64-.12 11.84-3.11 11.84-3.11s-4.6-21.37-6.93-29.33Z" fill="url(#a)"/><path d="M43.69 59.278c-.48-3.02-2.76-14.41-2.78-14.52a.504.504 0 0 0-.54-.4l-10.25.98a.504.504 0 0 0-.44.61l3.56 15.21c-1.75 1.05-10.38 6.15-12.85 6.67-1.67.35-4.53.75-7.83 1.19-2.64.36-5.28 3.82-6.62 5.85-.4.61-.36 1.4.08 1.96.33.43.83.65 1.33.65.33 0 .66-.1.94-.3l3.57-2.12c.51.07 2.01.25 4.05.16 2.52-.11 4.97-1.19 5.05-1.23.91-.35 5.26-1.12 9.47-1.87 3.14-.56 6.38-1.13 8.57-1.59 6.26-1.31 5.12-8.53 4.69-11.25Z" fill="url(#b)"/><path d="M41.94 45.288c-.5-2.91-2.88-6.55-6.78-6.55-.34 0-.7.03-1.07.09-4.53.74-5.87 5.57-5.32 8.73l1.92 9.63 13.17-2.27-1.92-9.63Z" fill="#04A287"/><path d="M42.67 5.388c-2.56-3.14-7.23-5.18-11.69-5.37-2.99-.13-5.88.44-8.33 1.63-.05.02-4.73 2.35-5.76 4.62-1.11 2.43-.08 3.84.18 4.09.4.39 1.29.26 1.29.26 1.75-.15 7.35-.57 10.18-.02.45.09.95.22 1.16.62.09.18.18 1.31.19 1.51.22 2.56.03 4.18.83 5.79.13.26.65.59.65.59l1.02-1.63c.65-.93 1.24-1.74 2.1-1.59 2.53.46 2.25 4.95-.69 6.06 0 0 .58 3.52 3.81 4.09 2.83.5 3.2-.13 3.45-1.21.54-2.32 1.17-3.33 1.83-4.4.79-1.26 1.6-2.57 2.14-5.95.56-3.37-.26-6.52-2.36-9.09Z" fill="#312D2D"/><path d="M42.67 5.388c-2.56-3.14-7.23-5.18-11.69-5.37-2.99-.13-5.88.44-8.33 1.63-.05.02-4.73 2.35-5.76 4.62-1.11 2.43-.08 3.84.18 4.09.4.39 1.29.26 1.29.26 1.75-.15 7.35-.57 10.18-.02.45.09.95.22 1.16.62.09.18.18 1.31.19 1.51.22 2.56.03 4.18.83 5.79.13.26.65.59.65.59l1.02-1.63c.65-.93 1.24-1.74 2.1-1.59 2.53.46 2.25 4.95-.69 6.06 0 0 .58 3.52 3.81 4.09 2.83.5 3.2-.13 3.45-1.21.54-2.32 1.17-3.33 1.83-4.4.79-1.26 1.6-2.57 2.14-5.95.56-3.37-.26-6.52-2.36-9.09Z" fill="url(#c)"/></g></svg>