<svg width="128" height="128" xmlns="http://www.w3.org/2000/svg"><defs><radialGradient cx="20.692%" cy="92.889%" fx="20.692%" fy="92.889%" r="103.701%" gradientTransform="matrix(0 -1 .56426 0 -.317 1.136)" id="a"><stop stop-color="#29B6F6" offset="14.4%"/><stop stop-color="#0277BD" offset="94.5%"/></radialGradient><radialGradient cx="50.003%" cy="50%" fx="50.003%" fy="50%" r="71.352%" gradientTransform="matrix(1 0 0 .57044 0 .215)" id="e"><stop stop-color="#F78C1F" offset="36.7%"/><stop stop-color="#F37F21" offset="68%"/><stop stop-color="#ED6D23" offset="100%"/></radialGradient><radialGradient cx="50.004%" cy="50%" fx="50.004%" fy="50%" r="60.32%" gradientTransform="matrix(1 0 0 .72342 0 .138)" id="f"><stop stop-color="#F78C1F" offset="36.7%"/><stop stop-color="#F37F21" offset="68%"/><stop stop-color="#ED6D23" offset="100%"/></radialGradient><radialGradient cx="57.51%" cy="51.848%" fx="57.51%" fy="51.848%" r="40.518%" gradientTransform="scale(.58613 1) rotate(-13.45 .778 -1.203)" id="h"><stop stop-color="#FEBC12" offset="27.2%"/><stop stop-color="#FEA709" offset="50%"/><stop stop-color="#FF9000" offset="80.9%"/></radialGradient><radialGradient cx="86.317%" cy="15.862%" fx="86.317%" fy="15.862%" r="65.359%" gradientTransform="matrix(.95964 .17187 -.28122 .58649 .08 -.083)" id="i"><stop stop-color="#FEBC12" offset="0%"/><stop stop-color="#FF8F00" offset="100%"/></radialGradient><radialGradient cx="51.432%" cy="46.093%" fx="51.432%" fy="46.093%" r="102.958%" gradientTransform="matrix(.345 .28122 -.1011 .95964 .384 -.126)" id="j"><stop stop-color="#FEF59F" offset="0%"/><stop stop-color="#FAC537" offset="90.4%"/><stop stop-color="#F9BF2C" offset="100%"/></radialGradient><radialGradient cx="14.326%" cy="15.071%" fx="14.326%" fy="15.071%" r="161.85%" gradientTransform="scale(.60186 1) rotate(-25.537 .19 -.058)" id="k"><stop stop-color="#00838F" stop-opacity="0" offset="61.1%"/><stop stop-color="#00838F" offset="100%"/></radialGradient><radialGradient cx="76.189%" cy="112.425%" fx="76.189%" fy="112.425%" r="180.559%" gradientTransform="scale(-.48316 -1) rotate(-14.678 -9.136 9.08)" id="l"><stop stop-color="#00838F" stop-opacity="0" offset="61.1%"/><stop stop-color="#00838F" offset="100%"/></radialGradient><radialGradient cx="3.339%" cy="-66.564%" fx="3.339%" fy="-66.564%" r="284.073%" gradientTransform="scale(.39414 1) rotate(11.157 .059 -.403)" id="m"><stop stop-color="#00838F" stop-opacity="0" offset="61.1%"/><stop stop-color="#00838F" offset="100%"/></radialGradient><linearGradient x1="65.972%" y1="32.243%" x2="32.736%" y2="81.722%" id="b"><stop stop-color="#005584" stop-opacity="0" offset="0%"/><stop stop-color="#005584" offset="84.1%"/></linearGradient><linearGradient x1=".002%" y1="50.007%" x2="100%" y2="50.007%" id="c"><stop stop-color="#FFD54F" offset="0%"/><stop stop-color="#FEC846" offset="9.5%"/><stop stop-color="#FAA630" offset="27.1%"/><stop stop-color="#F78C1F" offset="38.5%"/><stop stop-color="#F37F21" offset="68.9%"/><stop stop-color="#ED6D23" offset="100%"/></linearGradient><linearGradient x1="60.346%" y1="15.442%" x2="40.729%" y2="80.953%" id="d"><stop stop-color="#F78C1F" offset="36.7%"/><stop stop-color="#F37F21" offset="68%"/><stop stop-color="#ED6D23" offset="100%"/></linearGradient><linearGradient x1="47.892%" y1="49.214%" x2="37%" y2="64.058%" id="g"><stop stop-color="#EA6100" offset="0%"/><stop stop-color="#ED6D23" offset="100%"/></linearGradient></defs><g transform="matrix(-1 0 0 1 125.18 4.455)" fill="none"><path d="M105.554 82.775c-1.61 1.17-13.65 3.19-6.15-1.04 4.93-2.78 7.47-12.01-3.68-14.8-11.41-2.83-23.6 17.07-25.34 21.24-4.13 9.89-9.85 18.2-21.58 24.17-10.49 5.35-20.28 5.85-32.53-.08-9.98-4.83-13.16-13.96-11.79-25.88.231-2.09.558-4.17.98-6.23 1.39-6.75 2.75-7.67.64-16.95l18.23-2.03 3.12-.35 25.61-2.86c0 6.72-.77 11.82-10.54 21.28-3.88 3.76-10.54 6.96-11.9 11.89-.45 1.65-.75 3.41.72 5.6 1.68 2.52 13.54 8.51 24.79-7.46 1.15-1.63 7.52-11.3 9.25-13.91 4.26-6.43 8.9-12.1 16-15.64 25-12.48 36.92 13.78 24.17 23.05Z" fill="url(#a)"/><path d="M32.174 75.175c-3.48 3.22-7.56 5.71-11.37 8.54-3.81 2.83-7.45 6.11-9.57 10.35-2.12 4.24-2.46 9.63.15 13.59 1.16 1.76 4.5 5.43 13.12 7.74 0 0-13.46-6.56-5.76-17.6 2.44-3.5 12.48-9.35 15.72-12.12 3.24-2.77 2.52-1.64 5.48-4.71 3.37-3.49 7.68-8.67 9.43-13.19 1.23-3.18 2.97-8.37-2.41-8.37-5.38 0-11.71 12.93-14.79 15.77Z" fill="url(#b)"/><path d="M85.434 99.425c-.61-.2-1.31-.42-1.49-.78-2.36-4.79-.74-10.09 3.95-12.9 1.65-.98 4.67-1.87 6.88-2.51.53-.15 1.02-.3 1.45-.43 6.59-2.02 10.95-5.1 12.95-9.16.94-1.91 1.14-3.36 1.13-4.78.25 1.08.5 2.27.5 4.46 0 6.35-3.71 9.17-7.73 11.26-2.2 1.15-4.47 1.58-6.87 2.03-2.35.45-4.79.91-7.11 2.11-2.33 1.21-3.8 2.77-4.35 4.66-.52 1.76-.24 3.8.82 6.09-.05-.02-.09-.03-.13-.05Z" fill="url(#c)"/><path d="M43.614 114.605c3.15-3.02 10.55-10.57 13.37-18.86 6.64-19.59 9.45-22.73 13.71-27.5l.07-.08c4.77-5.57 10.3-9.01 16.02-10.62-5.02 3.77-8.31 10.41-11.19 18.28-2.86 7.84-6.11 16.74-12.89 26.01-4.28 5.85-11.66 10.64-19.09 12.77Z" fill="url(#d)"/><path d="M43.624 114.525c14.76-9.98 21.76-26.98 27.58-42.31 1.04-2.59 2.27-5.09 3.66-7.49 1.39-2.4 2.94-4.71 4.59-6.94.86-1.15 1.84-2.23 2.91-3.22 1.09-.97 2.28-1.85 3.56-2.58 2.58-1.44 5.53-2.26 8.49-2.29 2.97-.02 5.9.75 8.49 2.12 2.57 1.39 4.91 3.38 6.36 6.04.74 1.32 1.18 2.83 1.37 4.25.21 1.44.23 2.9.09 4.33-.32 2.86-1.28 5.63-2.9 7.99-.81 1.17-1.82 2.22-2.87 3.11-1.05.91-2.15 1.73-3.29 2.5-2.28 1.52-4.68 2.92-7.29 3.71 1.26-.52 2.43-1.21 3.55-1.96 1.13-.74 2.22-1.55 3.26-2.4 2.05-1.72 4.16-3.49 5.4-5.75 1.29-2.24 1.98-4.81 2.08-7.36.11-2.53-.31-5.18-1.54-7.2-1.26-2.08-3.24-3.75-5.47-4.87a15.477 15.477 0 0 0-7.21-1.63c-2.47.04-4.9.74-7.06 1.97-1.07.63-2.07 1.38-3.01 2.22-.91.87-1.77 1.8-2.55 2.81-1.6 2.12-3.1 4.32-4.47 6.6-.01.02-.03.05-.04.07-1.94 3.24-3.49 6.71-4.75 10.27-5.26 14.93-12.97 27.91-27.06 37.11-.58.38-1.19.75-1.88.9Z" fill="#FFD54F"/><path d="m58.364 64.265-6.28-.11-18.93-.33-1.24-.03h-.18l-2.04-.04-1.04-.01-1.22-.02-1.36-.03h-.49l-1.3-.03-1.21-.02-14.5-.26-4.09-.07c1.22-6.53 4.09-9.41 7.27-11 2.73-1.37 5.69-1.79 8.01-2.75.32-.12.62-.26.91-.42.42-.22.81-.47 1.17-.76.12-.1.24-.21.36-.33h.01c0-.01.01-.02.01-.02 1.04-1.02 1.7-2.49 1.77-4.77l11.74-.62c-.14 2.65.73 4.3 2.2 5.44.07.06.14.11.21.16.17.12.35.24.53.35.45.26.93.5 1.45.72.31.12.62.24.95.35.27.1.55.19.84.27.04.02.08.03.12.04.15.05.3.09.45.14.08.02.16.04.25.06 1.62.46 3.37.85 5.1 1.38.25.08.52.17.81.27.62.2 1.24.44 1.85.7.21.1.4.18.57.26.06.02.12.05.18.08 3.64 1.78 6.62 4.87 7.12 11.4Z" fill="#039BE5"/><path d="M41.254 82.845c-.51.74-1.12.97-1.66 1-.63.03-1.16-.23-1.28-.3-.01 0-.01-.01-.02-.01 0 0-11.78-7.36-9.64-19.79.78-4.57 3.45-9.83 9.28-15.66.07.06.14.11.21.16.17.12.35.24.53.35.45.26.93.5 1.45.72-.28.34-.96 1.14-1.78 2.2-3.15 3.99-5.66 8.04-6.43 12.28-.31 1.69-.34 3.41-.02 5.18 1.03 5.62 4.83 9.49 7.06 11.91.94.93 2.3 1.94 2.3 1.96Z" fill="#212121" opacity=".35"/><path d="M52.084 64.155c-.12 1.38-.34 2.69-.7 3.81-.12.39-.26.75-.42 1.09-.67 1.43-1.63 2.87-2.6 4.26-.17.24-.33.48-.5.72l-.32.46c-1.27 1.81-3.74 5.49-5.44 8.03l-1.25 1.86-.25.37c-.25-.21-.59-.52-1.01-.91-2.38-2.3-7.02-7.64-7.88-15.08v-.02c-.16-1.37-.18-2.74-.06-4.13.02-.27.05-.54.08-.82.57-5.01 2.89-10.11 6.94-15.2.45.26.93.5 1.45.72.31.12.62.24.95.35.27.1.55.19.84.27.04.02.08.03.12.04.14.05.29.1.45.14.08.02.16.04.25.06 1.62.46 3.37.85 5.1 1.38.25.08.52.17.81.27.75.25 1.36.5 1.85.7.21.1.4.18.57.26.06.02.12.05.17.07l.01.01c.44.86 1.27 6.46.84 11.29Z" fill="url(#e)"/><path d="m42.104 82.525-1.25 1.86-.25.37-.3.44c-.42-.31-1.13-.87-1.99-1.65-.01 0-.01-.01-.02-.01-3.6-3.26-9.8-10.36-8.6-19.78.6-4.67 3.01-9.89 8.45-15.51.17.12.35.24.53.35.45.26.93.5 1.45.72.31.12.62.24.95.35-.34.41-.87 1.06-1.49 1.85-3.15 4-5.67 8.06-6.43 12.31-.31 1.68-.34 3.39-.02 5.15 1.03 5.62 4.83 9.49 7.06 11.91.63.62 1.44 1.27 1.91 1.64Z" fill="#FCB316"/><path d="M27.434 63.725c-.12 1.18-.39 2.47-.87 3.88-1.88 5.47-5.07 14.59-21.52 14.79.01-.09.03-.17.04-.25.03-.17.06-.34.09-.5.1-.53.19-1.02.29-1.49a2.73 2.73 0 0 1 1.89-.94c10.99-1.15 14.41-6.8 16.12-11.8.45-1.31.7-2.56.81-3.75.09-.87.1-1.71.05-2.49-.08-1.53-.37-2.86-.69-3.93-.06-.21-.14-.51-.24-.87-.58-2.15-1.37-4.39-1.68-5.05-.35-.74-.78-1.62-1.05-2.18.42-.22.81-.47 1.17-.76.12-.1.24-.21.36-.33h.01c.01.01.03.02.04.04 2.44 2.08 3.83 6.86 4.26 8.29.37 1.24.79 2.7.94 4.44.08.89.09 1.85-.02 2.9Z" fill="#212121" opacity=".35"/><path d="M25.584 63.695c-.02.28-.06.57-.1.86-.16 1.13-.42 2.3-.84 3.51-.3.89-.67 1.82-1.12 2.76-2.33 4.86-7.01 10-18.35 10.82-1.04.08-2.13.12-3.29.12-.12-.01-.25-.01-.37-.01.51-.65 1.13-1.58 1.78-2.7h.01a46.95 46.95 0 0 0 3.1-6.42c.72-1.86 1.3-3.78 1.57-5.53l.02-.14.03-.16c.18-1.16.35-2.3.55-3.42.51-2.99 1.16-5.89 2.35-8.79.03-.08.09-.26.18-.51.12-.35.4-1.19.65-1.77 2.73-1.37 5.69-1.79 8.01-2.75.32-.12.62-.26.91-.42.42-.22.81-.47 1.17-.76 1.42 2.13 2.34 5.54 2.78 7.18.09.33.16.6.22.8a19.5 19.5 0 0 1 .74 7.33Z" fill="url(#f)"/><path d="M26.074 63.695c-.12 1.41-.42 2.93-.96 4.52-1.76 5.16-5.72 12.93-20.03 13.93-1.01.07-2.08.11-3.2.11-.29 0-.57 0-.86-.01.19-.21 1.62-2.03 2.27-3.19h.01c.55 0 1.44.11 2.85-.01 10.99-1.15 14.41-6.8 16.12-11.8.43-1.25.68-2.46.8-3.6.28-2.63-.13-4.92-.63-6.57-.06-.21-.14-.51-.24-.87-.58-2.15-1.37-4.39-1.68-5.05-.24-.51-.52-1.09-.76-1.59.32-.12.62-.26.91-.42.42-.22.81-.47 1.17-.76.12-.1.24-.21.36-.33h.01c0-.01.01-.02.01-.02l.03.06c1.74 2.59 2.7 6.91 3.06 8.11.53 1.78 1.06 4.39.76 7.49Z" fill="#FCB316"/><path d="M51.384 67.965c-.12.39-.26.75-.42 1.09-.67 1.43-1.63 2.87-2.6 4.26-5.95-.09-12.27-1.93-16-4.27l-.65-.28-.99-.43c-1.64.55-4.2 1.55-7.2 2.49-5.2 1.63-11.74 3.09-17.12 1.81.72-1.86 1.3-3.78 1.57-5.53l.02-.14c2.37-1.75 12.59-2.45 13.01-2.45.13 0 1.93.02 4.48.04 6.28.06 12.56.123 18.84.19l7.06 3.22Z" fill="#212121" opacity=".35"/><path d="M57.454 59.415c.38.45 2.66 2.58 2.64 4.76-.02 1.79-.76 4.07-3.25 5.28-6.59 3.22-18.85.65-24.47-2.9-6.99-4.4-11.74-6.99-11.74-6.99-6.14 1.3-11.25-1.74-11.25-1.74s-6.67 1.28-7.78 1.25c-1.75-.04-2.18-2.4-.73-2.9 2.86-.99 9.7-5.02 12.36-4.87 1.45.08 16.13 2.9 20.35 4.1 1.36.39 9.53 1.85 9.53 1.85" fill="#4FC3F7"/><path d="M33.874 55.485s12.81-4.24 15.7-3.6c7.22 1.6 10.66 7.25 10.77 8.28-.4 1.21-2.99 1.99-5.55 1.36-3.42-.84-7.29-3.35-11.7-4.27 0 0-9.02-1.59-9.22-1.77Z" fill="#4FC3F7"/><path d="M60.344 60.165c-.11.61-.65 1.09-1.19 1.4-.55.32-1.16.51-1.78.64-1.25.22-2.56.18-3.83-.28-1.29-.43-2.3-1.33-3.2-2.05-.89-.76-1.68-1.29-2.53-1.32l-.34-.01h-.46c-.31 0-.63.01-.93 0-.62-.02-1.23-.05-1.84-.12-1.21-.16-2.4-.33-3.57-.61-2.34-.55-4.66-1.21-6.8-2.34 2.37.32 4.72.55 7.05.8 1.17.09 2.32.22 3.48.26.57.02 1.15.06 1.71.05.29.01.56-.01.84-.02l.43-.01h.56c.75.06 1.5.32 2.1.69.61.37 1.11.79 1.55 1.2.87.84 1.64 1.56 2.57 2.04.91.46 2.03.72 3.13.74.56.02 1.12-.04 1.66-.17.51-.15 1.08-.37 1.39-.89Z" fill="#0277BD"/><path d="M31.114 65.775c-1.46 1.08-15.26 6.36-24.71 4.24-2.19-.49-5.15-1.1-5.84-3.69-.84-3.18 2.91-7.44 2.91-7.44l5.9-1.04 3.51 1.32c1.06.4 2.18.58 3.31.55l4.43-.14c0-.01 11.01 6.2 10.49 6.2Z" fill="#4FC3F7"/><path d="M15.184 36.215c-1.06-.23-2.92-.81-4.21-2.16-2.36-2.49-3.08-7.49-3.26-9.31 1.31.12 4.28.58 5.81 2.39l1.66 9.08Z" fill="#039BE5"/><path d="M12.424 33.965c-.14 1.64-.96 3.01-2.2 3.03-1.24.03-2.27-1.3-2.3-2.95-.02-1.25.53-2.33 1.34-2.79l.47.97c-.41.28-.76.95-.74 1.81.02 1.14.65 1.92 1.21 1.91.56-.01 1.16-.81 1.15-1.95-.01-.94-.14-1.23-.38-1.75-.39-.88.26-1.56.88-.7 0 0 .7.84.57 2.42Z" fill="#FCB316"/><path d="M45.664 27.135c1.53-1.82 4.5-2.27 5.81-2.39-.18 1.82-.9 6.82-3.26 9.31-1.29 1.36-3.15 1.94-4.21 2.16l1.66-9.08Z" fill="#039BE5"/><path d="m28.064 47.675 1.22.08h1.62c9.01-.6 15.04-8.94 15.23-22.14.19-13.13-7.9-19.75-16.23-19.87-8.33-.12-16.62 6.25-16.81 19.38-.2 13.22 6.42 21.86 14.97 22.55Z" fill="#4FC3F7"/><path d="M25.144 25.345c-.31.28-.79.09-1.23-.08-.98-.37-1.44-.66-2.53-.87-.91-.17-2.05-.22-2.94.05-.81.24-.72-.05-.17-.52 1.15-.98 2.14-1.15 3.63-1.09 2.19.1 4.28 1.57 3.24 2.51Zm8.94 0c.31.28.79.09 1.23-.08.98-.37 1.44-.66 2.53-.87.91-.17 2.05-.22 2.94.05.81.24.72-.05.17-.52-1.15-.98-2.14-1.15-3.63-1.09-2.18.1-4.27 1.57-3.24 2.51Z" fill="#01579B"/><path d="M31.494 33.735c-.05-.02-.1-.03-.15-.04l-3.42-.05c-.05.01-.1.02-.16.04-.31.12-.49.44-.35.78s.81 1.31 2.18 1.33c1.37.02 2.07-.93 2.22-1.27.15-.34-.02-.66-.32-.79Z" fill="#0277BD"/><path d="M33.694 37.675c-1.55.89-6.6.82-8.12-.12-.88-.54-1.79.25-1.44 1.06.35.79 3.08 2.67 5.46 2.7 2.38.03 5.13-1.76 5.5-2.54.37-.8-.51-1.61-1.4-1.1Z" fill="#4E342E"/><path d="M47.334 31.545c.62-.86 1.27-.18.88.7-.24.52-.37.81-.38 1.75-.01 1.14.59 1.94 1.15 1.95.56.01 1.19-.77 1.21-1.91.02-.86-.33-1.53-.74-1.81l.47-.97c.81.46 1.36 1.54 1.34 2.79-.03 1.65-1.06 2.98-2.3 2.95-1.24-.02-2.06-1.39-2.2-3.03-.13-1.58.57-2.42.57-2.42Z" fill="#FCB316"/><circle fill="#212121" cx="21.674" cy="29.145" r="2.38"/><circle fill="#212121" cx="37.554" cy="29.145" r="2.38"/><path d="M110.624 109.115c-5.58-.89-5.1-2.6-5.63-4.19l-5.33-1.56c-1.22 1.05-2.38 3.23-6.97.99-1.41-.69-6.17-4.72-6.17-4.72l-3.59-.91c.46.42 4.37 5.45 7.7 9.66 4.16 5.27 6.65 6.25 8.48 6.78 2.74.8 5.92.4 5.92.4s5.34.58 9-.76c3.8-1.39 5.53-4.9 5.53-4.9s-6.42-.55-8.94-.79Zm2.81 4.06c-1.38.5-3.06.7-4.54.76a9.639 9.639 0 0 0 2.66-2.98c1.02.09 2.51.23 4.71.42-.72.69-1.66 1.38-2.83 1.8Z" fill="url(#g)"/><path d="M116.264 111.385c-.72.69-1.66 1.37-2.83 1.8-1.38.5-3.06.7-4.54.76 1.08-.79 2.13-2.16 2.66-2.98-3 .16-6.87-.14-10.79-1.29-7.36-2.16-13.58-8.93-14.64-10.14l-3.19-.81c.46.42 4.37 5.45 7.7 9.66 2.81 3.55 4.85 5.15 6.45 5.98-3.41-.11-5.44 1.97-5.44 1.97l13.17 3.86s-.59-2.87-3.56-4.62c2.03.22 3.78 0 3.78 0s5.34.58 9-.76c3.8-1.39 5.53-4.9 5.53-4.9l-3.3 1.47Z" fill="url(#h)"/><path d="m102.724 100.485-3.27 3.12 5.65 1.66-1.5-4.48 1.16-.95c.33-.27.5-.68.46-1.1l-.21-2.42a.547.547 0 0 0-.96-.31l-1.61 1.85c-.31.35-.4.85-.23 1.29l.51 1.34Z" fill="url(#i)"/><path fill="url(#j)" d="m104.424 119.135-11.85-3.48 1.48-.78 9.51 2.79z"/><path d="M40.424 18.175c-3.84 0-7.52-1.38-10.94-4.11-3.87-3.09-6.95-3.74-8.84-3.74-1.03 0-1.86.18-2.49.4.38-3.46 2.4-6.75 5.31-8.54 2.31-1.43 4.89-2.15 7.68-2.15 2.19 0 4.02.47 4.92.87 3.22 1.44 5.28 2 7.34 2 1.34 0 2.72-.25 4.37-.79-.36 1.47-1.36 2.8-2.7 3.5l-1.08.57 1.18.36c.61.18 1.27.27 1.95.27 4.05 0 8.14-3.21 9.79-4.68.18 3.19-.29 13.06-12.46 15.57-.79.17-2.26.47-4.03.47Z" fill="#0F3B7C"/><path d="M56.914 2.135c-.07 1.06 1.16 12.6-12.42 15.54-8.95 1.94-13.99-2.8-14.17-2.97 0 0 5.39.1 5.81-1.08.54-1.52-.23-2.83-.23-2.83 11.27.18 17.03-5.4 21.01-8.66Z" fill="url(#k)"/><path d="M18.154 10.725c.21-.8.68-8.61 10.38-10.47.64-.12 1.43-.17 2.15-.23 2.21-.16 4.38.48 5.78 1.05 1.57.64 2.57 1.07 4.21 1.49 2.48.64-.49 3.37-3.29 3.68-1.29.14-2.53.23-3.21.16-.56-.06-6.38 6.05-9.55 4.74-2.98-1.22-5.81-.78-6.47-.42Z" fill="url(#l)"/><path d="M47.774 2.115c-.37 1.54-1.23 2.95-3.78 4.07-1.51.66-4.28.94-5.35.61-5.96-1.82-2-5.45.96-4.52 2.99.94 5 .83 8.17-.16Z" fill="url(#m)"/><path d="M56.834 69.455c-2.87 1.63-6.32 2.06-9.61 2-3.32-.07-6.62-.63-9.81-1.62-1.59-.51-3.17-1.11-4.67-1.93-.77-.42-1.45-.85-2.14-1.28l-2.08-1.26c-2.75-1.71-5.56-3.37-8.34-5l.62.09c-1.01.17-2.03.3-3.05.28-1.02-.01-2.03-.12-3.02-.31-.99-.19-1.97-.45-2.9-.82-.94-.36-1.83-.77-2.72-1.32l.36.06c-1.31.18-2.61.34-3.93.49l-1.97.19c-.66.04-1.32.1-1.98.06.65-.07 1.29-.24 1.93-.38l1.92-.45 3.83-.92.16-.04.21.1c.8.4 1.71.73 2.6.98.9.25 1.81.45 2.73.56.92.12 1.84.16 2.76.11.92-.01 1.82-.17 2.71-.35l.32-.06.3.15c2.92 1.52 5.72 3.19 8.52 4.87l2.08 1.3c.69.44 1.38.88 2.04 1.25 1.36.74 2.81 1.38 4.3 1.92 1.5.52 3.03.96 4.59 1.33 1.56.34 3.14.63 4.73.8 3.15.31 6.42.31 9.51-.8Z" fill="#0277BD"/></g></svg>