<svg width="128" height="128" xmlns="http://www.w3.org/2000/svg"><defs><radialGradient cx="43.71%" cy="26.375%" fx="43.71%" fy="26.375%" r="136.594%" gradientTransform="matrix(.42837 0 0 1 .25 0)" id="a"><stop stop-color="#00838F" stop-opacity="0" offset="61.1%"/><stop stop-color="#00838F" offset="100%"/></radialGradient><radialGradient cx="75.705%" cy="88.908%" fx="75.705%" fy="88.908%" r="89.135%" gradientTransform="matrix(.55178 .51542 -.33188 .85694 .634 -.263)" id="b"><stop stop-color="#00838F" stop-opacity="0" offset="61.1%"/><stop stop-color="#00838F" offset="100%"/></radialGradient><radialGradient cx="85.744%" cy="32.484%" fx="85.744%" fy="32.484%" r="72.303%" gradientTransform="matrix(.98828 .0177 -.0175 .99984 .016 -.015)" id="c"><stop stop-color="#FFEB3B" offset="0%"/><stop stop-color="#FBAA19" offset="100%"/></radialGradient><radialGradient cx="21.732%" cy="86.719%" fx="21.732%" fy="86.719%" r="101.861%" gradientTransform="matrix(.56426 0 0 1 .095 0)" id="d"><stop stop-color="#29B6F6" offset="0%"/><stop stop-color="#0277BD" offset="100%"/></radialGradient><radialGradient cx="57.507%" cy="51.841%" fx="57.507%" fy="51.841%" r="40.518%" gradientTransform="scale(.58613 1) rotate(-13.45 .778 -1.203)" id="k"><stop stop-color="#FEBC12" offset="27.2%"/><stop stop-color="#FEA709" offset="50%"/><stop stop-color="#FF9000" offset="80.9%"/></radialGradient><radialGradient cx="86.313%" cy="15.865%" fx="86.313%" fy="15.865%" r="65.359%" gradientTransform="matrix(.95964 .17187 -.28122 .58649 .08 -.083)" id="l"><stop stop-color="#FEBC12" offset="0%"/><stop stop-color="#FF8F00" offset="100%"/></radialGradient><radialGradient cx="51.43%" cy="46.099%" fx="51.43%" fy="46.099%" r="102.958%" gradientTransform="matrix(.345 .28122 -.1011 .95964 .384 -.126)" id="m"><stop stop-color="#FEF59F" offset="0%"/><stop stop-color="#FAC537" offset="90.4%"/><stop stop-color="#F9BF2C" offset="100%"/></radialGradient><linearGradient x1="65.972%" y1="32.243%" x2="32.736%" y2="81.724%" id="e"><stop stop-color="#005584" stop-opacity="0" offset="0%"/><stop stop-color="#005584" offset="84.1%"/></linearGradient><linearGradient x1=".002%" y1="50.007%" x2="100%" y2="50.007%" id="f"><stop stop-color="#54CCBE" offset="0%"/><stop stop-color="#45CABA" offset="23.4%"/><stop stop-color="#1FC4AE" offset="68.1%"/><stop stop-color="#00BFA5" offset="100%"/></linearGradient><linearGradient x1="39.995%" y1="84.607%" x2="58.955%" y2="19.015%" id="g"><stop stop-color="#00AB94" offset="0%"/><stop stop-color="#00BFA5" offset="70.6%"/></linearGradient><linearGradient x1=".001%" y1="50%" x2="100.001%" y2="50%" id="h"><stop stop-color="#00AB94" offset="9.6%"/><stop stop-color="#00BFA5" offset="44.9%"/></linearGradient><linearGradient x1="99.687%" y1="50%" x2="-.311%" y2="50%" id="i"><stop stop-color="#00AB94" offset="9.6%"/><stop stop-color="#00BFA5" offset="44.7%"/></linearGradient><linearGradient x1="47.892%" y1="49.216%" x2="37%" y2="64.059%" id="j"><stop stop-color="#00AB94" offset="0%"/><stop stop-color="#00BFA5" offset="57.9%"/></linearGradient></defs><g transform="matrix(-1 0 0 1 125.18 3.894)" fill="none"><path d="M48.984 4.306s-1.2 1.7-3.5 1.7c-1.3 0-3-.6-5-2.2-2-1.7-2.86-2.58-5.3-3.4-2.17-.73-5.05-.52-6.7 1-3.5 3.6-2 7-1.7 7.9 0 0 3.5 4.6 12.6 4.6 1.9 0 3.8-.3 5.5-1.2 5.7-3.1 4.1-8.4 4.1-8.4Z" fill="#2D2D2D"/><path d="M48.984 4.306s-1.2 1.7-3.5 1.7c-1.3 0-3-.6-5-2.2-2-1.7-2.86-2.58-5.3-3.4-2.17-.73-5.05-.52-6.7 1-3.5 3.6-2 7-1.7 7.9 0 0 3.5 4.6 12.6 4.6 1.9 0 3.8-.3 5.5-1.2 5.7-3.1 4.1-8.4 4.1-8.4Z" fill="#0F3B7C"/><path d="M48.984 4.306s-1.2 1.7-3.5 1.7c-1.3 0-19 2.4-18.7 3.3 0 0 3.5 4.6 12.6 4.6 1.9 0 3.8-.3 5.5-1.2 5.7-3.1 4.1-8.4 4.1-8.4Z" fill="url(#a)"/><path d="M40.484 3.806c-2-1.7-2.86-2.58-5.3-3.4-2.17-.73-5.05-.52-6.7 1-3.5 3.6-2 7-1.7 7.9 0 0 15.7-3.9 13.7-5.5Z" fill="url(#b)"/><path d="M30.084 2.606h.4c2.2 0 3.9 1.8 3.8 4v.4c0 2.2-1.8 3.9-4 3.8h-.4c-2.2 0-3.9-1.8-3.9-4v-.4c.1-2.1 1.9-3.9 4.1-3.8Z" fill="url(#c)"/><circle fill="#FFF" cx="31.484" cy="5.506" r="1.2"/><path d="M105.554 83.336c-1.61 1.17-13.65 3.19-6.15-1.04 4.93-2.78 7.47-12.01-3.68-14.8-11.41-2.83-23.6 17.07-25.34 21.24-4.13 9.89-9.85 18.2-21.58 24.17-10.49 5.35-20.28 5.85-32.53-.08-9.98-4.83-13.16-13.96-11.79-25.88.231-2.09.558-4.17.98-6.23 1.39-6.75 2.75-7.67.64-16.95l18.23-2.03 3.12-.35 25.61-2.86c0 6.72-.77 11.82-10.54 21.28-3.88 3.76-10.54 6.96-11.9 11.89-.45 1.65-.75 3.41.72 5.6 1.68 2.52 13.54 8.51 24.79-7.46 1.15-1.63 7.52-11.3 9.25-13.91 4.26-6.43 8.9-12.1 16-15.64 25-12.48 36.92 13.78 24.17 23.05Z" fill="url(#d)"/><path d="M32.174 75.736c-3.48 3.22-7.56 5.71-11.37 8.54-3.81 2.83-7.45 6.11-9.57 10.35-2.12 4.24-2.46 9.63.15 13.59 1.16 1.76 4.5 5.43 13.12 7.74 0 0-13.46-6.56-5.76-17.6 2.44-3.5 12.48-9.35 15.72-12.12 3.24-2.77 2.52-1.64 5.48-4.71 3.37-3.49 7.68-8.67 9.43-13.19 1.23-3.18 2.97-8.37-2.41-8.37-5.38 0-11.71 12.93-14.79 15.77Z" fill="url(#e)"/><path d="M85.434 99.986c-.61-.2-1.31-.42-1.49-.78-2.36-4.79-.74-10.09 3.95-12.9 1.65-.98 4.67-1.87 6.88-2.51.53-.15 1.02-.3 1.45-.43 6.59-2.02 10.95-5.1 12.95-9.16.94-1.91 1.14-3.36 1.13-4.78.25 1.08.5 2.27.5 4.46 0 6.35-3.71 9.17-7.73 11.26-2.2 1.15-4.47 1.58-6.87 2.03-2.35.45-4.79.91-7.11 2.11-2.33 1.21-3.8 2.77-4.35 4.66-.52 1.76-.24 3.8.82 6.09-.05-.02-.09-.03-.13-.05Z" fill="url(#f)"/><path d="M43.614 115.166c3.15-3.02 10.55-10.57 13.37-18.86 6.64-19.59 9.45-22.73 13.71-27.5l.07-.08c4.77-5.57 10.3-9.01 16.02-10.62-5.02 3.77-8.31 10.41-11.19 18.28-2.86 7.84-6.11 16.74-12.89 26.01-4.28 5.85-11.66 10.64-19.09 12.77Z" fill="url(#g)"/><path d="M43.624 115.086c14.76-9.98 21.76-26.98 27.58-42.31 1.04-2.59 2.27-5.09 3.66-7.49 1.39-2.4 2.94-4.71 4.59-6.94.86-1.15 1.84-2.23 2.91-3.22 1.09-.97 2.28-1.85 3.56-2.58 2.58-1.44 5.53-2.26 8.49-2.29 2.97-.02 5.9.75 8.49 2.12 2.57 1.39 4.91 3.38 6.36 6.04.74 1.32 1.18 2.83 1.37 4.25.21 1.44.23 2.9.09 4.33-.32 2.86-1.28 5.63-2.9 7.99-.81 1.17-1.82 2.22-2.87 3.11-1.05.91-2.15 1.73-3.29 2.5-2.28 1.52-4.68 2.92-7.29 3.71 1.26-.52 2.43-1.21 3.55-1.96 1.13-.74 2.22-1.55 3.26-2.4 2.05-1.72 4.16-3.49 5.4-5.75 1.29-2.24 1.98-4.81 2.08-7.36.11-2.53-.31-5.18-1.54-7.2-1.26-2.08-3.24-3.75-5.47-4.87a15.477 15.477 0 0 0-7.21-1.63c-2.47.04-4.9.74-7.06 1.97-1.07.63-2.07 1.38-3.01 2.22-.91.87-1.77 1.8-2.55 2.81-1.6 2.11-3.1 4.32-4.47 6.6-.01.02-.03.05-.04.07-1.94 3.24-3.49 6.71-4.75 10.27-5.26 14.93-12.97 27.91-27.06 37.11-.58.38-1.19.75-1.88.9Z" fill="#5CEAD6"/><path d="m58.364 64.826-6.28-.11-18.93-.33-1.24-.03h-.18l-2.04-.04-1.04-.01-1.22-.02-1.36-.03h-.49l-1.3-.03-1.21-.02-14.5-.26-4.09-.07c1.22-6.53 4.09-9.41 7.27-11 2.73-1.37 5.69-1.79 8.01-2.75.32-.12.62-.26.91-.42.42-.22.81-.47 1.17-.76.12-.1.24-.21.36-.33h.01c0-.01.01-.02.01-.02 1.04-1.02 1.7-2.49 1.77-4.77l11.74-.62c-.14 2.65.73 4.3 2.2 5.44.07.06.14.11.21.16.17.12.35.24.53.35.45.26.93.5 1.45.72.31.12.62.24.95.35.27.1.55.19.84.27.04.02.08.03.12.04.15.05.3.09.45.14.08.02.16.04.25.06 1.62.46 3.37.85 5.1 1.38.25.08.52.17.81.27.62.2 1.24.44 1.85.7.21.1.4.18.57.26.06.02.12.05.18.08 3.64 1.78 6.62 4.87 7.12 11.4Z" fill="#039BE5"/><path d="M41.254 83.406c-.51.74-1.12.97-1.66 1-.63.03-1.16-.23-1.28-.3-.01 0-.01-.01-.02-.01 0 0-11.78-7.36-9.64-19.79.78-4.57 3.45-9.83 9.28-15.66.07.06.14.11.21.16.17.12.35.24.53.35.45.26.93.5 1.45.72-.28.34-.96 1.14-1.78 2.2-3.15 3.99-5.66 8.04-6.43 12.28-.31 1.69-.34 3.41-.02 5.18 1.03 5.62 4.83 9.49 7.06 11.91.94.93 2.3 1.94 2.3 1.96Z" fill="#212121" opacity=".35"/><path d="M50.964 69.616c-.67 1.43-1.63 2.87-2.6 4.26-.17.24-.33.48-.5.72l-.32.46c-1.27 1.81-3.74 5.49-5.44 8.03l-1.25 1.86-.25.37c-.25-.21-.59-.52-1.01-.91-2.38-2.3-7.02-7.64-7.88-15.08v-.02c-.16-1.37-.18-2.74-.06-4.13.02-.27.06-.54.08-.82.53-6.76 2.89-10.11 6.94-15.2.45.26.93.5 1.45.72.31.12.62.24.95.35.27.1 5.03 1.36 6.76 1.89.25.08 3.35 1.28 3.4 1.3l.01.01c3.55 8.66-.12 15.85-.28 16.19Z" fill="url(#h)"/><path d="m42.104 83.086-1.25 1.86-.25.37-.3.44c-.42-.31-1.13-.87-1.99-1.65-.01 0-.01-.01-.02-.01-3.6-3.26-9.8-10.36-8.6-19.78.6-4.67 3.01-9.89 8.45-15.51.17.12.35.24.53.35.45.26.93.5 1.45.72.31.12.62.24.95.35-.34.41-.87 1.06-1.49 1.85-3.15 4-5.67 8.06-6.43 12.31-.31 1.68-.34 3.39-.02 5.15 1.03 5.62 4.83 9.49 7.06 11.91.63.62 1.44 1.27 1.91 1.64Z" fill="#FCB316"/><path d="M27.434 64.286c-.12 1.18-.39 2.47-.87 3.88-1.88 5.47-5.07 14.59-21.52 14.79.01-.09.03-.17.04-.25.03-.17.06-.34.09-.5.1-.53.19-1.02.29-1.49a2.73 2.73 0 0 1 1.89-.94c10.99-1.15 14.41-6.8 16.12-11.8.45-1.31.7-2.56.81-3.75.09-.87.1-1.71.05-2.49-.08-1.53-.37-2.86-.69-3.93-.06-.21-.14-.51-.24-.87-.58-2.15-1.37-4.39-1.68-5.05-.35-.74-.78-1.62-1.05-2.18.42-.22.81-.47 1.17-.76.12-.1.24-.21.36-.33h.01c.01.01.03.02.04.04 2.44 2.08 3.83 6.86 4.26 8.29.37 1.24.79 2.7.94 4.44.08.89.09 1.85-.02 2.9Z" fill="#212121" opacity=".35"/><path d="M25.584 64.256c-.03.28-.07.57-.1.86-.32 2.88-1.51 5.33-1.96 6.27-2.33 4.86-7.01 10-18.35 10.82-1.04.08-2.13.12-3.29.12-.12-.01-.25-.01-.37-.01.51-.65 1.13-1.58 1.78-2.7h.01a46.95 46.95 0 0 0 3.1-6.42c.72-1.86 1.3-3.78 1.57-5.53l.02-.14.03-.16c.18-1.16.35-2.3.55-3.42.51-2.99 2.93-10.49 3.18-11.07 2.73-1.37 5.69-1.79 8.01-2.75.32-.12.62-.26.91-.42.42-.22.81-.47 1.17-.76 1.42 2.13 4.32 9.74 3.74 15.31Z" fill="url(#i)"/><path d="M26.074 64.256c-.12 1.41-.42 2.93-.96 4.52-1.76 5.16-5.72 12.93-20.03 13.93-1.01.07-2.08.11-3.2.11-.29 0-.57 0-.86-.01.19-.21 1.62-2.03 2.27-3.19h.01c.55 0 1.44.11 2.85-.01 10.99-1.15 14.41-6.8 16.12-11.8.43-1.25.68-2.46.8-3.6.28-2.63-.13-4.92-.63-6.57-.06-.21-.14-.51-.24-.87-.58-2.15-1.37-4.39-1.68-5.05-.24-.51-.52-1.09-.76-1.59.32-.12.62-.26.91-.42.42-.22.81-.47 1.17-.76.12-.1.24-.21.36-.33h.01c0-.01.01-.02.01-.02l.03.06c1.74 2.59 2.7 6.91 3.06 8.11.53 1.78 1.06 4.39.76 7.49Z" fill="#FCB316"/><path d="M50.964 69.616c-.67 1.43-1.63 2.87-2.6 4.26-5.95-.09-12.27-1.93-16-4.27l-.65-.28-.99-.43c-1.64.55-4.2 1.55-7.2 2.49-5.2 1.63-11.74 3.09-17.12 1.81.72-1.86 1.3-3.78 1.57-5.53l.02-.14c2.37-1.75 12.59-2.45 13.01-2.45.13 0 1.93.02 4.48.04 1.79.02 3.95.04 6.17.06 6.14.06 19.47 4.1 19.31 4.44Z" fill="#212121" opacity=".35"/><path d="M57.454 59.976c.38.45 2.66 2.58 2.64 4.76-.02 1.79-.76 4.07-3.25 5.28-6.59 3.22-18.85.65-24.47-2.9-6.99-4.4-11.74-6.99-11.74-6.99-6.14 1.3-11.25-1.74-11.25-1.74s-6.67 1.28-7.78 1.25c-1.75-.04-2.18-2.4-.73-2.9 2.86-.99 9.7-5.02 12.36-4.87 1.45.08 16.13 2.9 20.35 4.1 1.36.39 9.53 1.85 9.53 1.85" fill="#4FC3F7"/><path d="M33.874 56.046s12.81-4.24 15.7-3.6c7.22 1.6 10.66 7.25 10.77 8.28-.4 1.21-2.99 1.99-5.55 1.36-3.42-.84-7.29-3.35-11.7-4.27 0 0-9.02-1.59-9.22-1.77Z" fill="#4FC3F7"/><path d="M60.344 60.726c-.11.61-.65 1.09-1.19 1.4-.55.32-1.16.51-1.78.64-1.25.22-2.56.18-3.83-.28-1.29-.43-2.3-1.33-3.2-2.05-.89-.76-1.68-1.29-2.53-1.32l-.34-.01h-.46c-.31 0-.63.01-.93 0-.62-.02-1.23-.05-1.84-.12-1.21-.16-2.4-.33-3.57-.61-2.34-.55-4.66-1.21-6.8-2.34 2.37.32 4.72.55 7.05.8 1.17.09 2.32.22 3.48.26.57.02 1.15.06 1.71.05.29.01.56-.01.84-.02l.43-.01h.56c.75.06 1.5.32 2.1.69.61.37 1.11.79 1.55 1.2.87.84 1.64 1.56 2.57 2.04.91.46 2.03.72 3.13.74.56.02 1.12-.04 1.66-.17.51-.15 1.08-.37 1.39-.89Z" fill="#0277BD"/><path d="M31.114 66.336c-1.46 1.08-15.26 6.36-24.71 4.24-2.19-.49-5.15-1.1-5.84-3.69-.84-3.18 2.91-7.44 2.91-7.44l5.9-1.04 3.51 1.32c1.06.4 2.18.58 3.31.55l4.43-.14c0-.01 11.01 6.2 10.49 6.2Z" fill="#4FC3F7"/><path d="M56.834 70.016c-2.87 1.63-6.32 2.06-9.61 2-3.32-.07-6.62-.63-9.81-1.62-1.59-.51-3.17-1.11-4.67-1.93-.77-.42-1.45-.85-2.14-1.28l-2.08-1.26c-2.75-1.71-5.56-3.37-8.34-5l.62.09c-1.01.17-2.03.3-3.05.28-1.02-.01-2.03-.12-3.02-.31-.99-.19-1.97-.45-2.9-.82-.94-.36-1.83-.77-2.72-1.32l.36.06c-1.31.18-2.61.34-3.93.49l-1.97.19c-.66.04-1.32.1-1.98.06.65-.07 1.29-.24 1.93-.38l1.92-.45 3.83-.92.16-.04.21.1c.8.4 1.71.73 2.6.98.9.25 1.81.45 2.73.56.92.12 1.84.16 2.76.11.92-.01 1.82-.17 2.71-.35l.32-.06.3.15c2.92 1.52 5.72 3.19 8.52 4.87l2.08 1.3c.69.44 1.38.88 2.04 1.25 1.36.74 2.81 1.38 4.3 1.92 1.5.52 3.03.96 4.59 1.33 1.56.34 3.14.63 4.73.8 3.15.31 6.42.31 9.51-.8Z" fill="#0277BD"/><path d="M15.184 36.776c-1.06-.23-2.92-.81-4.21-2.16-2.36-2.49-3.08-7.49-3.26-9.31 1.31.12 4.28.58 5.81 2.39l1.66 9.08Z" fill="#039BE5"/><path d="M12.424 34.526c-.14 1.64-.96 3.01-2.2 3.03-1.24.03-2.27-1.3-2.3-2.95-.02-1.25.53-2.33 1.34-2.79l.47.97c-.41.28-.76.95-.74 1.81.02 1.14.65 1.92 1.21 1.91.56-.01 1.16-.81 1.15-1.95-.01-.94-.14-1.23-.38-1.75-.39-.88.26-1.56.88-.7 0 0 .7.84.57 2.42Z" fill="#FCB316"/><path d="M45.664 27.696c1.53-1.82 4.5-2.27 5.81-2.39-.18 1.82-.9 6.82-3.26 9.31-1.29 1.36-3.15 1.94-4.21 2.16l1.66-9.08Z" fill="#039BE5"/><path d="m28.064 48.236 1.22.08h1.62c9.01-.6 15.04-8.94 15.23-22.14.19-13.13-7.9-19.75-16.23-19.87-8.33-.12-16.62 6.25-16.81 19.38-.2 13.22 6.42 21.86 14.97 22.55Z" fill="#4FC3F7"/><path d="M31.494 34.296c-.05-.02-.1-.03-.15-.04l-3.42-.05c-.05.01-.1.02-.16.04-.31.12-.49.44-.35.78s.81 1.31 2.18 1.33c1.37.02 2.07-.93 2.22-1.27.15-.34-.02-.66-.32-.79Z" fill="#0277BD"/><path d="M33.694 38.236c-1.55.89-6.6.82-8.12-.12-.88-.54-1.79.25-1.44 1.06.35.79 3.08 2.67 5.46 2.7 2.38.03 5.13-1.76 5.5-2.54.37-.8-.51-1.61-1.4-1.1Z" fill="#4E342E"/><path d="M47.334 32.106c.62-.86 1.27-.18.88.7-.24.52-.37.81-.38 1.75-.01 1.14.59 1.94 1.15 1.95.56.01 1.19-.77 1.21-1.91.02-.86-.33-1.53-.74-1.81l.47-.97c.81.46 1.36 1.54 1.34 2.79-.03 1.65-1.06 2.98-2.3 2.95-1.24-.02-2.06-1.39-2.2-3.03-.13-1.58.57-2.42.57-2.42Z" fill="#FCB316"/><circle fill="#212121" cx="21.674" cy="29.706" r="2.38"/><circle fill="#212121" cx="37.554" cy="29.706" r="2.38"/><path d="M110.624 109.676c-5.58-.89-5.1-2.6-5.63-4.19l-5.33-1.56c-1.22 1.05-2.38 3.23-6.97.99-1.41-.69-6.17-4.72-6.17-4.72l-3.59-.91c.46.42 4.37 5.45 7.7 9.66 4.16 5.27 6.65 6.25 8.48 6.78 2.74.8 5.92.4 5.92.4s5.34.58 9-.76c3.8-1.39 5.53-4.9 5.53-4.9s-6.42-.55-8.94-.79Zm2.81 4.06c-1.38.5-3.06.7-4.54.76a9.639 9.639 0 0 0 2.66-2.98c1.02.09 2.51.23 4.71.42-.72.69-1.66 1.38-2.83 1.8Z" fill="url(#j)"/><path d="M116.264 111.946c-.72.69-1.66 1.37-2.83 1.8-1.38.5-3.06.7-4.54.76 1.08-.79 2.13-2.16 2.66-2.98-3 .16-6.87-.14-10.79-1.29-7.36-2.16-13.58-8.93-14.64-10.14l-3.19-.81c.46.42 4.37 5.45 7.7 9.66 2.81 3.55 4.85 5.15 6.45 5.98-3.41-.11-5.44 1.97-5.44 1.97l13.17 3.86s-.59-2.87-3.56-4.62c2.03.22 3.78 0 3.78 0s5.34.58 9-.76c3.8-1.39 5.53-4.9 5.53-4.9l-3.3 1.47Z" fill="url(#k)"/><path d="m102.724 101.046-3.27 3.12 5.65 1.66-1.5-4.48 1.16-.95c.33-.27.5-.68.46-1.1l-.21-2.42a.547.547 0 0 0-.96-.31l-1.61 1.85c-.31.35-.4.85-.23 1.29l.51 1.34Z" fill="url(#l)"/><path fill="url(#m)" d="m104.424 119.696-11.85-3.48 1.48-.78 9.51 2.79z"/><path d="M25.184 25.906c-.3.3-.8.1-1.2-.1-1-.4-1.8-.7-2.9-.8-.8 0-2 .1-2.9.4-.8.2-.3-1 .7-1.7.7-.5 1.4-.7 2.9-.7 1.3 0 2.7.5 3.4 1 .5.6.5 1.5 0 1.9Zm8.9 0c.3.3.8.1 1.2-.1 1-.4 1.8-.7 2.9-.8.8 0 2 .1 2.9.4.8.2.3-1-.7-1.7-.7-.5-1.4-.7-2.9-.7-1.3 0-2.7.5-3.4 1-.5.6-.5 1.5 0 1.9Z" fill="#01579B"/></g></svg>