<svg width="128" height="128" xmlns="http://www.w3.org/2000/svg"><defs><linearGradient x1="50.004%" y1="1.151%" x2="50.004%" y2="86.652%" id="b"><stop stop-color="#FFD29C" offset="7.3%"/><stop stop-color="#F9DDBD" offset="43.9%"/></linearGradient><linearGradient x1="14.659%" y1="8.626%" x2="69.093%" y2="90.57%" id="d"><stop stop-color="#FFA1DE" offset="0%"/><stop stop-color="#F99DE0" offset="8.5%"/><stop stop-color="#E691E6" offset="20.4%"/><stop stop-color="#C87DF1" offset="34.3%"/><stop stop-color="#9F62FF" offset="49.6%"/><stop stop-color="#9E61FF" offset="50%"/><stop stop-color="#B98AFF" offset="81.1%"/><stop stop-color="#CBA6FF" offset="100%"/></linearGradient><linearGradient x1="54.474%" y1="19.515%" x2="46.204%" y2="76.941%" id="e"><stop stop-color="#DE8BE9" offset=".5%"/><stop stop-color="#C36DD5" offset="100%"/></linearGradient><linearGradient x1="47.973%" y1="20.372%" x2="51.723%" y2="77.138%" id="f"><stop stop-color="#DE8BE9" offset=".5%"/><stop stop-color="#C36DD5" offset="100%"/></linearGradient><radialGradient cx="31.859%" cy=".314%" fx="31.859%" fy=".314%" r="30.091%" gradientTransform="scale(1 .97157)" id="a"><stop stop-color="#D777E0" offset=".5%"/><stop stop-color="#B346BD" offset="100%"/></radialGradient><radialGradient cx="52.002%" cy="-3.062%" fx="52.002%" fy="-3.062%" r="72.24%" gradientTransform="scale(1 .99434)" id="c"><stop stop-color="#D777E0" offset=".5%"/><stop stop-color="#B346BD" offset="100%"/></radialGradient></defs><g transform="matrix(-1 0 0 1 109.88 4.206)" fill="none"><path d="M72.046 55.794c-3-3 .82-9.51 1.74-12.26 1.11-3.32-.36-6.04-2.74-7.74-2.46-1.75-5.88-2.44-7.48-3.38-4.52-2.62-.09-9.98.67-14.35.67-3.85-.6-7.28-2.4-10.69-5.19-9.84-20.34-9.84-25.52.05-1.17 2.24-1.88 4.83-2.08 7.35-.09 1.1-.04 6.4-2.55 10.94-2.06 3.71-4.86 6.46-3.99 12.21 1.78 11.73 14.37 14.48 18.42 14.14 1.89-.16 4.64-.69 6.31.28 4.25 2.47 4.38 6.16 6.45 10.37 2.59 5.27 9.42 8.01 14.93 5.98 3.8-1.4 6.99-4.08 10.15-6.61 4.09-3.29 10.97.96 10.97.96s-3.88-11.25-14.73-7.53c-4.11 1.41-5.15 3.28-8.15.28Z" fill="url(#a)"/><path d="M12.066 69.224c-.21-.34-.67-.47-1.36-.61-.16-.03-.4-.09-.46-.11-1.15-.54-3.24.12-4.07.52-2.59 1.26-2.7 5.45-2.64 7.19.04 1.04.85 1.69 1.62 1.72h.05c.67 0 1.17-.47 1.25-1.18.09-.83.4-2.23.91-4.12.19-.38 2-1.29 2.87-1.73 1.51-.76 1.79-.93 1.88-1.25.04-.14.02-.32-.05-.43Zm71.24-35.22c-.13-.08-.27-.15-.41-.21-.17-.08-.33-.15-.48-.26-.53-.4-.61-1.24-.46-1.84.11-.42.39-.92.68-1.45.24-.44.49-.89.7-1.38.28-.66.06-1.32-.54-1.63-.66-.34-1.66-.18-2.19.68-.87 1.42-2.74 4.96-1.16 7.23a3.694 3.694 0 0 0 2.97 1.58c.39 0 .73-.08 1.01-.24.48-.27.77-.77.73-1.27-.02-.48-.33-.91-.85-1.21Z" fill="#EDC391"/><path d="M88.666 36.174c-2-2.38-3.67-3.99-4.71-5.29-1.04-1.3-3.89-.33-1.83 2.46 1.17 1.59-.28 1.31-1.58.14s-.82-5.55-1.95-6.12c-.79-.4-1.57-.01-1.75.44-.6 1.52-.56 4.59.43 6.96.88 2.11 4.98 4 5.2 6.26.26 2.74-9.11 12.28-9.11 12.28s-4.06-8.94-5.56-12.25c-.6-1.33-1.71-5.25-14.64-6.4v-3.91h-8.5v3.84c-13.14.96-12.67 3.32-15.87 8.72-2.54 5.78-5.75 12.74-5.75 12.74s-8.69 11.21-10.52 11.43c-1.84.23-5.32-.14-7.65 1.9-1.33 1.17-3.49 3-4.42 4-1.67 1.79 1.43 4.9 6.38-.62 1.42-1.58 4.29-1.18 4.58-.5.62 1.46-.21 2.73-2.38 2.5-2.33-.25-2.75 2.04-.33 2.54 2.03.42 5.02 1.08 8.58-2.62 2.25-2.34 12-13.25 12-13.25s5.59-8.44 8.19-13l-.77 18.71 3.34 4.66c1.99 1.12 9.87 5.81 12 5l9.5-7.67.17-19.67c3.19 6.02 6.9 15.71 10.9 15.27 2.88-.32 11.27-11.85 16.08-20.25 1.81-3.15 1.54-6.44-.03-8.3Z" fill="url(#b)"/><path d="M49.196 4.254c6.08.08 11.65 4.67 11.53 14.25-.1 7.7-4.92 12.19-9.09 13.61-.99.34-1.95.5-2.8.49-.84-.01-1.79-.2-2.77-.56-4.14-1.51-8.86-6.13-8.76-13.84.13-9.57 5.82-14.02 11.89-13.95Z" fill="#F9DDBD"/><path d="M34.406 22.644c1.04-5.33.53-7.24.88-9.18.3-1.65 1.92-12.53 13.93-12.38 13.72.17 13.26 12.74 13.26 12.74l-.12 4.48s-.36 2.65-1.87 5.75c-1.51 3.1-3.01 5.26-3.01 5.26s1.99-4.69 2.04-9.15c.01-1.03.39-4.85-1.76-5.36-7.88-1.87-12.3-6.12-12.3-6.12-1.19 2.52-4.86 4.96-6.18 5.88-1.08.76-.97 3.95-.97 5.3l.41 6.2c-1.25-.84-3.64-2-4.31-3.42Z" fill="url(#c)"/><path d="M47.626 22.624c.04-.01.08-.02.11-.03l2.47.03c.04 0 .07.01.11.03.22.09.34.33.23.57-.11.24-.61.93-1.6.92a1.75 1.75 0 0 1-1.58-.96c-.09-.24.03-.47.26-.56Z" fill="#DBA689"/><path d="M45.996 25.464c1.1.67 4.75.72 5.87.07.64-.37 1.29.22 1.02.8-.27.57-2.27 1.87-3.99 1.85-1.72-.02-3.67-1.37-3.92-1.94-.26-.6.39-1.17 1.02-.78Z" fill="#444"/><ellipse fill="#312D2D" transform="rotate(-89.284 54.76 19.47)" cx="54.76" cy="19.47" rx="1.78" ry="1.72"/><ellipse fill="#312D2D" transform="rotate(-89.284 43.268 19.332)" cx="43.268" cy="19.332" rx="1.78" ry="1.72"/><path d="M52.236 16.234c.33-.43 1.1-1.05 2.57-1.03 1.47.02 2.22.66 2.54 1.1.14.19.1.42 0 .55-.1.12-.37.24-.67.13-.3-.11-.89-.42-1.89-.44-.99 0-1.59.29-1.9.39-.31.1-.58-.02-.67-.15a.467.467 0 0 1 .02-.55Zm-11.48-.14c.33-.43 1.1-1.05 2.57-1.03 1.47.02 2.22.66 2.54 1.1.14.19.1.42 0 .55-.1.12-.37.24-.67.13-.3-.11-.89-.42-1.89-.44-.99 0-1.59.29-1.9.39-.31.1-.58-.02-.67-.15-.1-.14-.13-.36.02-.55Z" fill="#454140"/><path d="M90.286 101.854c-.2.06-.4.11-.61.15-1.56.31-3.16.12-4.75.04-2.23-.12-4.47-.03-6.68.26-1.09.14-2.23.29-3.29.59-.26.08-2.72 1.09-2.75 1.06-.3-.43-.19-1.42-.29-1.98-.13-.76-.34-1.51-.61-2.23-1-2.65-3.3-4.41-4.44-6.95-.53-1.18-.78-2.54-.5-3.81.15-.68.7-2.44 1.07-2.84-.19.2-.59.29-.83.41-.65.32-1.26.72-1.82 1.18-1.32 1.11-2.24 2.61-3.01 4.13-1.59 3.13-2.56 7.04-2 10.55.49 3.05 2.24 5.85 4.04 8.32-2.08 1.65-4.61 3.16-7.17 2.87-3.72-.43-5.76-1.93-5.76-7.93 0-19.75 12.74-16.44 10.7-37.56-.1-1.01-6.73 3.31-15.2 2.94-8.73-.39-9.42-5.25-9.77-4.62-2.1 3.82-3.27 9.12-4.08 13.38-3.31 17.46-.8 33.46 10.06 39.12 7.49 3.9 20.05 1.49 24.97-5.25 18.01 6.81 25.31-9.58 25.72-14.36-.44 1.26-1.67 2.12-3 2.53Z" fill="url(#d)"/><path d="M36.016 73.814c.16.75.49 1.18.84 1.57.37.38.77.72 1.2.98.35.24.8.38 1.32.46.53.06 1.11.05 1.84-.16l.08.07c-.94 1.02-2.6 1.28-3.82.55-.58-.38-1.07-.89-1.39-1.51-.32-.61-.42-1.36-.18-2.01l.11.05Zm7.22 3.34c.62.35 1.13.56 1.61.72.48.15.92.26 1.35.28.43.05.87.01 1.37-.05.5-.09 1.02-.22 1.68-.48l.09.06a3.703 3.703 0 0 1-3.23 1.57c-1.26-.12-2.4-.94-2.96-2.04l.09-.06Zm2.01 3.76c.56.44 1.02.73 1.47.96.45.22.87.39 1.29.48.41.12.86.15 1.36.15.5-.01 1.04-.07 1.74-.22l.08.08c-.86.9-2.2 1.33-3.44 1.05-1.23-.31-2.23-1.29-2.61-2.47l.11-.03Zm5.05-2.79c.69.17 1.23.24 1.74.26.5.01.96-.01 1.38-.11.42-.07.84-.23 1.29-.44.44-.23.9-.51 1.43-.98l.11.03c-.32 1.21-1.36 2.2-2.6 2.47-1.25.24-2.58-.22-3.42-1.15l.07-.08Zm-16.33 2.22c.1.81.48 1.22.86 1.64.39.39.87.76 1.34 1.04.43.27.96.44 1.55.55.59.1 1.22.13 2-.03l.07.08c-1.14.95-2.86 1.04-4.16.33-.63-.38-1.18-.9-1.56-1.54-.37-.63-.52-1.45-.2-2.13l.1.06Zm6.26 3.26c.54.47.98.78 1.42 1.04.44.24.85.44 1.26.55.41.14.85.19 1.35.23.5.02 1.05-.01 1.75-.12l.07.08c-.9.86-2.27 1.21-3.49.87-1.21-.38-2.16-1.41-2.48-2.61l.12-.04Zm6.85 2.04c.59.38 1.06.61 1.51.78.46.15.87.27 1.27.29.4.06.82.02 1.3-.05.48-.09.98-.22 1.63-.49l.09.06c-.65 1.02-1.88 1.67-3.12 1.57-1.24-.14-2.32-1-2.78-2.12l.1-.04Zm-14.14 3.7c.14.71.45 1.1.75 1.47.32.35.67.68 1.05.93.29.23.68.38 1.15.5.47.09 1 .14 1.71 0l.08.08c-.91.9-2.47 1.06-3.56.32-.52-.38-.95-.88-1.21-1.46s-.33-1.28-.07-1.87l.1.03Zm4.84 3.01c.53.42.95.7 1.35.92.41.21.78.38 1.15.48.36.13.76.18 1.22.23.46.03.96.02 1.63-.06l.07.08c-.83.79-2.1 1.12-3.23.81-1.12-.35-2-1.31-2.29-2.42l.1-.04Zm5.52 1.75c.55.37.98.59 1.39.76.41.15.77.27 1.13.31.35.07.73.06 1.17.04.44-.04.92-.12 1.55-.32l.09.07c-.65.91-1.82 1.45-2.97 1.3-1.14-.19-2.1-1.04-2.46-2.11l.1-.05Zm-3.33-22.14c.56.53 1.05.9 1.54 1.2.49.29.97.51 1.45.63.47.15.99.19 1.56.2.57-.01 1.18-.09 1.93-.28l.08.08c-.98.98-2.49 1.41-3.86 1.06-1.36-.39-2.43-1.53-2.8-2.86l.1-.03Zm9.15 1.86c.72.08 1.29.23 1.79.29.5.05.93.06 1.43.04.47-.01.89-.07 1.34-.19.44-.13.92-.37 1.5-.78l.1.04c-.23.57-.61 1.09-1.13 1.45-.51.36-1.14.54-1.76.57-.62.03-1.25-.07-1.82-.32-.57-.25-1.07-.62-1.53-1.01l.08-.09Zm-11.42 5.2c.56.53 1.05.9 1.54 1.2.49.29.97.51 1.45.63.47.15.99.19 1.56.2.57-.01 1.18-.09 1.93-.28l.08.08c-.98.98-2.49 1.41-3.86 1.06-1.36-.39-2.43-1.53-2.8-2.86l.1-.03Zm5.32 9.93c.56.44 1.02.73 1.47.96.45.22.87.39 1.29.48.41.12.86.15 1.36.15.5-.01 1.04-.07 1.74-.22l.08.08c-.86.9-2.2 1.33-3.44 1.05-1.23-.31-2.23-1.29-2.61-2.47l.11-.03Zm-7.36-3.17c.52.57.97.98 1.44 1.33.47.33.92.6 1.39.75.46.19.97.28 1.54.33.57.04 1.18.01 1.94-.11l.07.08c-1.06.9-2.6 1.2-3.93.72-1.32-.51-2.29-1.73-2.56-3.09l.11-.01Zm5.33 12.17c.56.44 1.02.73 1.47.96.45.22.87.39 1.29.48.41.12.86.15 1.36.15.5-.01 1.04-.07 1.74-.22l.08.08c-.86.9-2.2 1.33-3.44 1.05-1.23-.31-2.23-1.29-2.61-2.47l.11-.03Zm-7.37-2.17c.52.57.97.98 1.44 1.33.47.33.92.6 1.39.75.46.19.97.28 1.54.33.57.04 1.18.01 1.94-.11l.07.08c-1.06.9-2.6 1.2-3.93.72-1.32-.51-2.29-1.73-2.56-3.09l.11-.01Zm3.72 4.7c.63.44 1.17.74 1.7.97.53.21 1.03.38 1.53.43.49.09 1.01.06 1.58-.01.56-.09 1.15-.24 1.87-.54l.09.07c-.83 1.11-2.28 1.74-3.68 1.56-1.4-.21-2.62-1.18-3.18-2.45l.09-.03Zm32.15 10.36c.79-1.2 1.91-2.09 3.11-2.81 1.22-.69 2.54-1.21 3.98-1.3-1.12.9-2.28 1.56-3.43 2.25-1.18.66-2.32 1.33-3.66 1.86Zm6.24-.34c.98-.87 1.92-1.55 2.83-2.32.93-.74 1.78-1.53 2.82-2.32-.32 1.28-1.14 2.35-2.13 3.17-1 .81-2.21 1.41-3.52 1.47Zm5.96-.36c.83-.95 1.58-1.75 2.26-2.65.69-.89 1.26-1.82 1.95-2.89.17 1.27-.32 2.54-1.07 3.55-.79.99-1.88 1.79-3.14 1.99Zm-15.88-1.15c.41-1.33.8-2.51 1.05-3.75.28-1.24.4-2.47.56-3.85.7 1.23.79 2.71.51 4.08-.3 1.36-.99 2.68-2.12 3.52Zm-1.06-2.45c-.86-.67-1.31-1.8-1.42-2.89-.13-1.11.06-2.21.27-3.23.45-2.04 1.05-3.93.39-5.98.75.79 1.05 1.95 1.08 3.03.04 1.11-.19 2.17-.4 3.18-.23 1.01-.45 1.98-.49 2.96-.03.98.08 1.97.57 2.93Z" fill="#983BA1"/><path d="M32.916 47.484c.44-.51 1.11-.77 1.78-.68-.15-.44-.13-.92.04-1.35.19-.49.57-.88 1.06-1.1a2.008 2.008 0 0 1 2.34.57c.29-.87 1.16-1.44 2.11-1.34.95.1 1.66.87 1.76 1.78a1.989 1.989 0 0 1 2.4-.02 1.988 1.988 0 0 1 .52 2.64c.04 0 .08.01.12.01.66.08 1.24.47 1.54 1.06.25.47.29 1.01.14 1.52-.16.51-.51.92-.98 1.17l-3.93 2.06c-.06.35-.21.67-.44.94-.09.1-.22.16-.36.14l-3.97-.47a.395.395 0 0 1-.32-.22 1.87 1.87 0 0 1-.22-1.01l-3.37-2.88c-.84-.72-.94-1.98-.22-2.82Z" fill="url(#e)"/><path d="M38.306 53.414c-1.05-.85-1.76-1.89-2.38-2.98-.59-1.11-1.1-2.26-1.26-3.6v-.01c0-.02.01-.04.03-.04.01 0 .03.01.04.02l1.85 3.27 1.79 3.31c.01.02 0 .04-.01.05-.02 0-.04-.01-.06-.02Zm.57.05c-.63-1.38-.88-2.79-1.03-4.21-.11-1.42-.13-2.86.24-4.33v-.01c.01-.02.03-.03.04-.03.01 0 .03.02.03.03l.43 4.26.35 4.27c0 .02-.01.04-.03.04-.02 0-.03-.01-.04-.02h.01Zm3.16-8.09c.04 1.51-.28 2.9-.7 4.27-.46 1.35-1 2.67-1.91 3.88l-.01.01c-.01.02-.03.02-.05.01-.01-.01-.02-.03-.01-.04l1.27-4.08 1.34-4.06c.01-.02.03-.03.05-.02.01.01.03.02.03.03h-.01Zm2.91 2.62c-.45 1.27-1.19 2.28-2 3.23-.84.92-1.76 1.78-2.96 2.38l-.01.01c-.02.01-.04 0-.05-.02-.01-.01 0-.03.01-.04l2.45-2.83 2.51-2.78c.01-.01.04-.02.05 0 .01.01.01.03.01.04l-.01.01Z" fill="#903EB3"/><path d="M49.906 48.614c.35-.58.97-.94 1.65-.96-.22-.41-.28-.88-.18-1.34.11-.52.42-.97.86-1.26a2 2 0 0 1 .98-.32c.52-.03 1.03.16 1.42.49.15-.9.91-1.62 1.86-1.66a2 2 0 0 1 2.02 1.46c.35-.38.84-.61 1.36-.64.35-.02.7.06 1.01.22.47.24.82.65.99 1.16.14.45.13.92-.05 1.35.04 0 .08-.01.12-.01.66-.03 1.29.26 1.69.79.32.42.46.95.38 1.48-.07.53-.35.99-.77 1.31l-3.54 2.67c0 .35-.1.69-.29 1a.42.42 0 0 1-.33.2l-3.98.2a.393.393 0 0 1-.35-.16c-.21-.28-.35-.61-.39-.96l-3.79-2.29a1.986 1.986 0 0 1-.67-2.73Z" fill="url(#f)"/><path d="M56.196 53.574c-1.17-.67-2.04-1.58-2.83-2.55-.76-1-1.45-2.05-1.83-3.35v-.01c-.01-.02 0-.04.02-.04.01 0 .03 0 .04.01l2.36 2.93 2.31 2.97c.01.02.01.04-.01.05a.03.03 0 0 1-.04 0l-.02-.01Zm.57-.04c-.85-1.25-1.32-2.61-1.7-3.98-.34-1.39-.59-2.8-.47-4.31v-.01c0-.02.02-.03.04-.03s.03.01.03.03l1.12 4.13 1.05 4.15c0 .02-.01.04-.03.04-.01 0-.03 0-.04-.02Zm1.79-8.5c.29 1.48.2 2.91.01 4.33-.23 1.41-.55 2.8-1.25 4.14l-.01.01c-.01.02-.03.03-.05.01-.01-.01-.02-.02-.02-.04l.59-4.24.66-4.23c0-.02.02-.03.04-.03s.03.01.03.03v.02Zm3.31 2.11c-.24 1.33-.8 2.44-1.45 3.51-.68 1.05-1.44 2.04-2.53 2.83l-.01.01c-.02.01-.04.01-.05-.01a.03.03 0 0 1 0-.04l1.96-3.19 2.02-3.15c.01-.02.03-.02.05-.01.01.01.02.02.02.04l-.01.01Z" fill="#903EB3"/></g></svg>