<svg width="128" height="128" xmlns="http://www.w3.org/2000/svg"><defs><radialGradient cx="-1.398%" cy="59.202%" fx="-1.398%" fy="59.202%" r="100.258%" gradientTransform="scale(1 .77637) rotate(20.262 -.491 .677)" id="a"><stop stop-color="#444140" stop-opacity="0" offset="45%"/><stop stop-color="#444140" offset="100%"/></radialGradient><radialGradient cx="8.008%" cy="72.382%" fx="8.008%" fy="72.382%" r="99.712%" gradientTransform="matrix(.96438 -.18737 .26452 .68308 -.189 .244)" id="b"><stop stop-color="#444140" stop-opacity="0" offset="45%"/><stop stop-color="#444140" offset="100%"/></radialGradient><radialGradient cx="60.347%" cy="66.188%" fx="60.347%" fy="66.188%" r="92.503%" gradientTransform="matrix(.682 -.29189 .20813 .95645 .054 .205)" id="c"><stop stop-color="#444140" stop-opacity="0" offset="45%"/><stop stop-color="#444140" offset="100%"/></radialGradient><radialGradient cx="55.287%" cy="26.24%" fx="55.287%" fy="26.24%" r="129.094%" gradientTransform="matrix(.61771 .1064 -.0661 .99432 .229 -.057)" id="d"><stop stop-color="#444140" stop-opacity="0" offset="45%"/><stop stop-color="#444140" offset="100%"/></radialGradient><radialGradient cx="26.707%" cy="59.871%" fx="26.707%" fy="59.871%" r="69.968%" gradientTransform="matrix(1 0 0 .98219 0 .01)" id="e"><stop stop-color="#F78C1F" offset="0%"/><stop stop-color="#F47F12" offset="48.2%"/><stop stop-color="#EF6C00" offset="100%"/></radialGradient><linearGradient x1="49.999%" y1="25.4%" x2="49.999%" y2="109.778%" id="f"><stop stop-color="#5C4037" offset="0%"/><stop stop-color="#70534A" offset="50.6%"/></linearGradient></defs><g fill="none"><path d="M37.695 33.53c-2.46-10.18 3.27-21.55 11.55-25.01 6.1-2.53 13.15-2.03 19.26.2 9.44 3.28 13.51 11.67 12.77 20.79-.3 4.7-1.58 7.34-3.32 10.98-.81 2.45 3.08 5.51 2.99 8.2-.04 2-4.32 2.3-4.71 2.58-.43.27-.82 1.13-1.08 1.79-1.88 4.62-3.51 7.63-11.43 6.61-2.68-.43-5.24-1.64-5.77-.85-.43.65-.74 3.29-.82 3.95-.11.86 2.72 5.59 2.72 5.59l-19.88-2.28-1.53.31.24-3.61s5.45-9.2 1.92-20.56c-.47-1.51-2.59-7.52-2.91-8.69Z" fill="#70534A"/><path d="M68.585 42.81c-1.77.04.76 2.27 3.16 2.4 1.74.1 3.79-.71 3.06-3.34-.31-1.12-1.03.87-2.55 1.1-1.53.22-3.67-.16-3.67-.16Zm5.82-5.3c2.08.43 2.56-.58 1.95-1.71-.45-.83-2.05-1.31-4.43-.84-2.45.48-3.39 1.45-4.04 2.19-.65.75-.63 1.53-.12 1.63.7.15 3.12-1.99 6.64-1.27Z" fill="#1A1717"/><path d="m35.045 26.45.03.03c-2.54-3.34-2.05-9.4.85-12.4 4.1-4.25 9.07-4.02 9.86-4.03 3.34-6.17 11.81-7.3 18.77-4.84 2.84.93 5.49 3.01 7.63 4.91.56.43 1.11.8 1.7 1.07.05.02.11.05.16.07.08.03.15.06.23.08 3.7 1.05 5.62-.86 5.49-3.91 0 0 7.97 3.03 3.26 10.52 2.6 1.62 3.97 4.46 4.06 7.3.13 3.88-2.65 7.31-6.52 8.41.33-.97 1.29-6.07-7.6-6.53-3.08-.15-6.2-1.77-8.44-3.67l-.31-.05c-3.58 1.3.1 9.01-4.26 13.07-.86.8-1.42.38-1.42.38l-1.17-2.39c-.91-1.66-1.75-3.09-3.19-2.99-4.27.31-4.58 7.81.09 10.14.46.23-2.89 8.61-13.06 7.15-5.26-.75-6.49-5.38-6.49-5.38.38.15 1.22.3 2.03.02.1-.04.19-.1.28-.17.25-.2.43-.46.52-.63.59-1.09-.18-2.49-1.66-4.29-4.14-4.91-1.76-10.47-.84-11.87Z" fill="#232020"/><path d="m61.285 22.451-.03.03c-2.24 3.37-6.11 4.25-7.09 4.45 0 0-1.13.1-1.72.28-4.28.61-5.82 7.06.1 11.9 4.13 3.37 9.08.27 9.08.27s-.69.32-1.81.1c-.72-.14-1.1-1.01-1.11-1.05-.4-.95.32-2.42 1.75-4.11 4.13-4.91 1.75-10.47.83-11.87Z" fill="url(#a)" transform="matrix(-1 0 0 1 96.33 3.999)"/><path d="M61.035 10.831c-2.99-3.69-6.89-4.76-10.49-4.78.56 1.29.39 5.88-2.48 9.07 1.75 1.69 3.95 3.66 4.97 5.83.89 1.89 1.8 3.99 1.13 5.98 1.28-.26 7.46-1.66 8.56-8.22.39-2.35-.08-5.9-1.69-7.88Z" fill="url(#b)" transform="matrix(-1 0 0 1 96.33 3.999)"/><path d="M50.545 10.001c.39-1.7.35-3.05-.08-4.18 0 0-.57-.99-1.53-1.99-.85-.88-2.02-1.74-3.13-2.33-4.49-2.41-11.54-1.57-15.46.29-3.16 1.5-4.09 2.71-6.2 4.33-1.53 1.18-3.01 1.94-5.44 1.26-2.32-.65-2.14-3.95-2.14-3.95s-7.97 3.03-3.26 10.52c-2.6 1.62-3.97 4.46-4.06 7.3-.13 3.88 2.65 7.31 6.52 8.41 0 0-1.74-5.74 6.54-6.49 2.74-.25 4.5-.46 6.88-1.84 2.11-1.22 3.24-3.09 5.77-3.31 2.72-.23 6.53.37 9.25-.45 5.49-1.68 6.32-7.49 6.34-7.57Z" fill="url(#c)" transform="matrix(-1 0 0 1 96.33 3.999)"/><path d="M52.535 39.111c-2.09-1.66-4.06-5.06-7.14-6.34-.26 1.92-1.34 3.85-3.33 4.85-.46.23 2.89 8.61 13.06 7.15 5.26-.75 6.49-5.38 6.49-5.38s-4.88 3.06-9.08-.28Z" fill="url(#d)" transform="matrix(-1 0 0 1 96.33 3.999)"/><path d="M75.115 53.2c-.39 0-.78-.03-1.16-.1-.92-.13-1.77-.42-2.42-.9-1.44-1.05-2.66-.11-1.5 1.24.8.93 1.8 1.56 2.9 1.92.37.12.73.22 1.11.28l1.07-2.44Z" fill="#1A1717"/><path d="M4.495 120.001h57.51s-2.29-7.91-1.67-14.68c.95-10.22 4.33-13.44 4.33-29.56 0-11.58-6.34-21.93-14.61-21.59-10.51.44-14.05 5.53-21.82 10.33-10.51 6.5-11.6 11.33-10.77 16.89.26 1.78-.75 2.25-2.08 3.09-9.18 5.88-16.01 11.97-15.34 24.53.36 6.82 4.45 10.99 4.45 10.99Z" fill="url(#e)" transform="matrix(-1 0 0 1 96.33 3.999)"/><path d="M56.575 66.961c-2.65-5.96-12.42-2.8-13.47 4.75-.88 6.33 1.97 28.11 1.97 28.11s-7.27 3.99-15.61 5c-1.99.24-5.81.43-6.4.14-1.06-.52-1.45-1.65-1.95-2.31-.62-.81-1.26-1.63-2.08-2.26-.62-.47-1.34-.82-2.04-1.16-1.17-.56-2.35-1.12-3.52-1.69-.29-.14-.63-.28-.92-.16-.15.07-.27.2-.36.34-.38.66-.04 1.53.51 2.06s1.27.84 1.89 1.28c.62.44 1.17 1.13 1.1 1.89-1.72.26-4.26.3-5.92.09-1.61-.21-2.26-.45-3.45-.69-.61-.13-1.78-.51-2.14.37-.29.69.08 1.14.46 1.49.03.03.06.05.09.08-.16-.11-.38-.25-.64-.4-.14-.08-.32-.21-.93-.14-.58.07-.77.54-.81.89-.13 1.18 1.03 1.85 1.09 1.84 0 0-.72-.06-.9.86-.1.53.23 1.09.62 1.62s1.26 1.19 1.26 1.19-.6.05-.73.55c-.2.76.37 1.41 1.37 1.99 0 0 1.53 1.06 3.11 1.64 3.66 1.33 6.9 1.31 8.33 1.17 3.65-.37 31.92-2.68 37.3-4.55 5.02-1.75 5.13-5.71 5.42-8.97.34-3.96 0-29.06-2.65-35.02Z" fill="url(#f)" transform="matrix(-1 0 0 1 96.33 3.999)"/><path d="M84.635 109.88c-.56-.01-1.02.21-.54.71.26.27 2.43-.14 3.73-.45 1.56-.37 3.17-1.01 3.94-1.9.26-.31.17-.29.17-.29-1.21.52-2.54 1.14-3.91 1.38-1.38.24-2.83.56-3.39.55Zm-.2 3.97c.02.49.68.37.94.35 1.73-.11 3.31-.68 4.7-1.32 2.88-1.32 3.15-2.6 3.15-2.6s-2.12 1.35-3.39 1.84-2.97.95-4.68 1.18c-.21.03-.74.06-.72.55Zm-.07 3.01c.01.51.69.43 1.21.38 0 0 1.97-.35 3.94-1.25 2.03-.93 3.1-2.35 3.1-2.35s-2.27 1.24-3.21 1.57c-.84.29-2.66.8-4.07 1.05-.23.05-.98.15-.97.6Z" fill="#4A2F27"/><path d="m50.915 91.31-12.6-.79c-2.55-.16-4.44-1.03-4.4-3.32l1.4-14.7c.99-6.96 5.19-8.47 11.22-8.09 6.03.37 9.42 4.94 9.32 10.37l-.45 13.93c-.05 2.29-1.94 2.76-4.49 2.6Z" fill="#ED6D23"/></g></svg>