<svg xmlns="http://www.w3.org/2000/svg" viewBox="0 0 128 128" style="enable-background:new 0 0 128 128" xml:space="preserve"><path style="opacity:.3;fill:#edb20f" d="M63.6 117.34c-27.17 0-56.48-17.04-56.48-54.44S36.43 8.46 63.6 8.46c15.09 0 29.02 4.97 39.34 14.02 11.2 9.93 17.14 23.96 17.14 40.42s-5.94 30.38-17.14 40.32c-10.32 9.05-24.34 14.12-39.34 14.12z"/><path style="fill:none;stroke:#eb8f00;stroke-width:3;stroke-linejoin:round;stroke-dasharray:11.7273,11.7273" d="M63.6 117.34c-27.17 0-56.48-17.04-56.48-54.44S36.43 8.46 63.6 8.46c15.09 0 29.02 4.97 39.34 14.02 11.2 9.93 17.14 23.96 17.14 40.42s-5.94 30.38-17.14 40.32c-10.32 9.05-24.34 14.12-39.34 14.12z"/><path d="M79 88H49c-2.21 0-4-1.79-4-4s1.79-4 4-4h30c2.21 0 4 1.79 4 4s-1.79 4-4 4zM44.67 45.94c-4.19 0-8 3.54-8 9.42s3.81 9.42 8 9.42c4.19 0 8-3.54 8-9.42s-3.81-9.42-8-9.42z"/><path style="fill:#896024" d="M44.28 49.87c-1.03-.72-2.58-.49-3.58.95-1 1.45-.67 2.97.36 3.69 1.03.72 2.58.49 3.58-.95 1-1.45.67-2.97-.36-3.69z"/><path d="M83.02 45.94c-4.19 0-8 3.54-8 9.42s3.81 9.42 8 9.42c4.19 0 8-3.54 8-9.42s-3.81-9.42-8-9.42z"/><path style="fill:#896024" d="M82.63 49.87c-1.03-.72-2.58-.49-3.58.95-1 1.45-.67 2.97.36 3.69 1.03.72 2.58.49 3.58-.95 1.01-1.45.68-2.97-.36-3.69z"/></svg>