<svg xmlns="http://www.w3.org/2000/svg" viewBox="0 0 128 128" style="enable-background:new 0 0 128 128" xml:space="preserve"><path style="fill:#2f7889" d="m4.28 86.4-.27 4.37c-.14 2.48 1.71 3.38 3.51 3.38h112.95c1.8 0 3.66-.65 3.53-3.53l-.27-4.22H4.28z"/><path style="fill:#c3d2d9" d="M120.47 90.79H7.53c-1.8 0-3.32-1.52-3.32-3.32l2.94-50.31c0-1.9 1.52-3.32 3.32-3.32h107.07c1.8 0 3.32 1.52 3.32 3.32l2.94 50.31c0 1.8-1.52 3.32-3.33 3.32z"/><path style="fill:#2f7889" d="M12.47 47.95c0 .98.69 1.67 1.57 1.67h4.67c.88 0 1.57-.78 1.57-1.67l.14-2.3h-7.74l-.21 2.3zM24.23 47.95c0 .98.69 1.67 1.57 1.67h4.6c.99 0 1.57-.7 1.57-1.67v-2.3h-7.71l-.03 2.3zM35.3 47.95c0 .98.78 1.67 1.67 1.67h4.6c.88 0 1.67-.65 1.67-1.67v-2.3H35.3v2.3zM46.56 47.95c0 .98.78 1.67 1.67 1.67h4.6c.88 0 1.67-.6 1.67-1.67v-2.3h-7.94v2.3zM57.73 47.95c0 .98.65 1.67 1.67 1.67H64c.88 0 1.67-.51 1.67-1.67v-2.3h-7.94v2.3zM69 47.95c0 .98.78 1.67 1.67 1.67h4.6c.88 0 1.67-.51 1.67-1.67v-2.3H69v2.3zM80.17 47.95c0 .98.78 1.67 1.67 1.67h4.6c.88 0 1.62-.42 1.67-1.67v-2.3h-7.94v2.3zM91.33 47.95c0 .98.78 1.67 1.67 1.67h4.81c1.03 0 1.85-.68 1.76-1.76l-.13-2.21h-8.11v2.3zM103.09 47.95c0 .98.78 1.67 1.67 1.67h8.87c.88 0 1.67-.69 1.67-1.67l-.16-2.3H103.1v2.3zM107.23 59.7c0 .88.78 1.67 1.67 1.67h5.44c.88 0 1.67-.69 1.67-1.67l-.1-1.49h-8.67v1.49zM95.84 59.7c0 .88.69 1.67 1.67 1.67h4.6c.88 0 1.67-.69 1.67-1.67v-1.49h-7.94v1.49zM84.57 59.7c.1.88.78 1.67 1.67 1.67h4.6c.88 0 1.67-.69 1.67-1.67v-1.49h-7.94v1.49zM73.41 59.7c0 .88.78 1.67 1.67 1.67h4.6c.88 0 1.67-.69 1.67-1.67v-1.49h-7.94v1.49zM62.14 59.7c.1.88.78 1.67 1.67 1.67h4.6c.88 0 1.67-.69 1.67-1.67v-1.49h-7.94v1.49zM50.97 59.7c0 .88.78 1.67 1.67 1.67h4.6c.88 0 1.67-.69 1.67-1.67v-1.49h-7.94v1.49zM39.8 59.7c0 .88.78 1.67 1.67 1.67h4.6c.88 0 1.67-.69 1.67-1.67v-1.49H39.8v1.49zM28.63 59.7c0 .88.69 1.67 1.57 1.67h4.6c.88 0 1.67-.69 1.67-1.67v-1.49h-7.84v1.49zM11.82 59.7c0 .88.69 1.67 1.57 1.67h9.66c.88 0 1.57-.69 1.57-1.67v-1.49l-12.79-.03-.01 1.52zM79.68 71.76c0 .81.69 1.62 1.57 1.62h4.6c.88 0 1.57-.71 1.57-1.62v-1.37h-7.74v1.37zM67.92 71.76c0 .81.69 1.62 1.57 1.62h4.6c.88 0 1.57-.71 1.57-1.62l-.01-1.37h-7.73v1.37zM56.16 71.76c0 .81.69 1.62 1.57 1.62h4.6c.88 0 1.57-.71 1.57-1.62v-1.37h-7.74v1.37zM44.41 71.76c-.1.81.69 1.62 1.57 1.62h4.6c.88 0 1.57-.71 1.57-1.62v-1.37h-7.74v1.37zM32.65 71.76c-.1.81.69 1.62 1.57 1.62h4.6c.88 0 1.57-.71 1.57-1.62v-1.1h-7.74v1.1zM11.39 71.66c0 .91.69 1.72 1.57 1.72h13.49c.88 0 1.57-.71 1.57-1.72l.12-1.31H11.41l-.02 1.31zM91.95 71.76c.1 1.01.78 1.72 1.67 1.72h21.33c.88 0 1.67-.71 1.67-1.72l-.01-1.41-24.68.05.02 1.36zM109.38 85.23h6.13c.88 0 1.67-.72 1.67-1.74v-1.55h-9.47v1.55c0 .93.79 1.74 1.67 1.74zM96.53 85.23h5.2c.88 0 1.67-.72 1.67-1.74v-1.63l-8.53.08v1.55c-.01.93.68 1.74 1.66 1.74zM38.92 85.23h49.96c.88 0 1.67-.72 1.67-1.74v-1.55h-53.3l.01 1.55c0 1.19.78 1.74 1.66 1.74zM26.32 85.23h5.06c.88 0 1.67-.72 1.67-1.74v-1.55l-8.2.18.01 1.37c-.04.99.58 1.74 1.46 1.74zM12.18 85.23h6.41c.88 0 1.57-.72 1.57-1.74v-1.55h-9.54v1.55c-.01.93.67 1.74 1.56 1.74z"/><path style="fill:#fff" d="M18.78 47.9h-4.6c-.88 0-1.57-.65-1.57-1.59l.45-4.39c0-.84.69-1.59 1.57-1.59h4.6c.88 0 1.57.65 1.57 1.59l-.45 4.39c0 .84-.69 1.59-1.57 1.59zM30.4 47.9h-4.6c-.88 0-1.57-.65-1.57-1.59l.17-4.39c0-.84.69-1.59 1.57-1.59h4.43c.88 0 1.57.65 1.57 1.59v4.39c0 .98-.59 1.59-1.57 1.59zM41.57 47.9h-4.6c-.88 0-1.67-.65-1.67-1.59v-4.39c0-.84.69-1.59 1.67-1.59h4.6c.88 0 1.67.65 1.67 1.59v4.39c-.01.84-.79 1.59-1.67 1.59zM52.83 47.9h-4.6c-.88 0-1.67-.65-1.67-1.59v-4.39c0-.84.69-1.59 1.67-1.59h4.6c.88 0 1.67.65 1.67 1.59v4.39c0 .95-.79 1.59-1.67 1.59zM64 47.9h-4.6c-.88 0-1.67-.65-1.67-1.59v-4.39c0-.84.69-1.59 1.67-1.59H64c.88 0 1.67.65 1.67 1.59v4.39c0 .84-.79 1.59-1.67 1.59zM75.27 47.9h-4.6c-.88 0-1.67-.65-1.67-1.59v-4.39c0-.84.69-1.59 1.67-1.59h4.6c.88 0 1.67.65 1.67 1.59v4.39c-.01.99-.79 1.59-1.67 1.59zM86.44 47.9h-4.6c-.88 0-1.67-.65-1.67-1.59v-4.39c0-.84.69-1.59 1.67-1.59h4.6c.88 0 1.67.65 1.67 1.59v4.39c-.01 1.01-.79 1.59-1.67 1.59zM97.81 47.9H93c-.88 0-1.67-.65-1.67-1.59v-4.39c0-.84.69-1.59 1.67-1.59h4.6c.88 0 1.67.65 1.67 1.59l.2 4.39c0 .84-.78 1.59-1.66 1.59zM113.5 47.9h-8.74c-.88 0-1.67-.65-1.67-1.59v-4.39c0-.84.69-1.59 1.67-1.59h8.52c.88 0 1.67.65 1.67 1.59l.22 4.39c-.01.84-.79 1.59-1.67 1.59zM108.89 59.78h5.44c.88 0 1.67-.65 1.67-1.59l-.31-4.39c0-.84-.69-1.59-1.67-1.59h-5.12c-.88 0-1.67.65-1.67 1.59v4.39c0 .84.78 1.59 1.66 1.59zM97.51 59.78h4.6c.88 0 1.67-.65 1.67-1.59V53.8c0-.84-.69-1.59-1.67-1.59h-4.6c-.88 0-1.67.65-1.67 1.59v4.39c0 .84.69 1.59 1.67 1.59zM86.24 59.78h4.6c.88 0 1.67-.65 1.67-1.59V53.8c0-.84-.69-1.59-1.67-1.59h-4.6c-.88 0-1.67.65-1.67 1.59v4.39c.1.84.79 1.59 1.67 1.59zM75.07 59.78h4.6c.88 0 1.67-.65 1.67-1.59V53.8c0-.84-.69-1.59-1.67-1.59h-4.6c-.88 0-1.67.65-1.67 1.59v4.39c.01.84.79 1.59 1.67 1.59zM63.81 59.78h4.6c.88 0 1.67-.65 1.67-1.59V53.8c0-.84-.69-1.59-1.67-1.59h-4.6c-.88 0-1.67.65-1.67 1.59v4.39c.1.84.78 1.59 1.67 1.59zM52.64 59.78h4.6c.88 0 1.67-.65 1.67-1.59V53.8c0-.84-.69-1.59-1.67-1.59h-4.6c-.88 0-1.67.65-1.67 1.59v4.39c0 .84.79 1.59 1.67 1.59zM41.47 59.78h4.6c.88 0 1.67-.65 1.67-1.59V53.8c0-.84-.69-1.59-1.67-1.59h-4.6c-.88 0-1.67.65-1.67 1.59v4.39c0 .84.79 1.59 1.67 1.59zM30.2 59.78h4.6c.88 0 1.67-.65 1.67-1.59V53.8c0-.84-.69-1.59-1.67-1.59h-4.6c-.88 0-1.57.65-1.57 1.59v4.39c0 .84.69 1.59 1.57 1.59zM13.39 59.78h9.66c.88 0 1.57-.65 1.57-1.59V53.8c0-.84-.69-1.59-1.57-1.59h-9.31c-.88 0-1.57.65-1.57 1.59l-.35 4.39c0 .84.69 1.59 1.57 1.59zM81.24 71.7h4.6c.88 0 1.57-.65 1.57-1.49v-4.39c0-.84-.69-1.49-1.57-1.49h-4.6c-.88 0-1.57.65-1.57 1.49v4.39c.01.74.69 1.49 1.57 1.49zM69.49 71.7h4.6c.88 0 1.57-.65 1.57-1.49v-4.39c0-.84-.69-1.49-1.57-1.49h-4.6c-.88 0-1.57.65-1.57 1.49v4.39c0 .74.69 1.49 1.57 1.49zM57.73 71.7h4.6c.88 0 1.57-.65 1.57-1.49v-4.39c0-.84-.69-1.49-1.57-1.49h-4.6c-.88 0-1.57.65-1.57 1.49v4.39c0 .74.69 1.49 1.57 1.49zM45.97 71.7h4.6c.88 0 1.57-.65 1.57-1.49v-4.39c0-.84-.69-1.49-1.57-1.49h-4.6c-.88 0-1.57.65-1.57 1.49v4.39c.01.78.69 1.49 1.57 1.49zM34.22 71.7h4.6c.88 0 1.57-.65 1.57-1.49v-4.39c0-.84-.69-1.49-1.57-1.49h-4.6c-.88 0-1.57.65-1.57 1.49v4.39c-.1.74.69 1.49 1.57 1.49zM12.96 71.7h13.62c.88 0 1.57-.65 1.57-1.59l.29-4.39c0-.84-.69-1.59-1.57-1.59H13.19c-.88 0-1.57.65-1.57 1.59l-.23 4.39c0 .84.69 1.59 1.57 1.59zM93.56 71.79h21.38c.88 0 1.67-.65 1.67-1.59l-.34-4.67c0-.84-.69-1.59-1.67-1.59H93.31c-.88 0-1.67.65-1.67 1.59l.25 4.67c.1.94.79 1.59 1.67 1.59zM109.38 83.53h6.13c.88 0 1.67-.65 1.67-1.59l-.29-4.39c0-.84-.69-1.59-1.67-1.59h-5.84c-.88 0-1.67.65-1.67 1.59v4.39c0 .84.79 1.59 1.67 1.59zM96.53 83.53h5.2c.88 0 1.67-.65 1.67-1.59v-4.39c0-.84-.69-1.59-1.67-1.59h-5.2c-.88 0-1.67.65-1.67 1.59v4.39c0 .84.69 1.59 1.67 1.59zM38.92 83.53h49.96c.88 0 1.67-.65 1.67-1.59v-4.39c0-.84-.69-1.59-1.67-1.59H38.92c-.88 0-1.67.65-1.67 1.59v4.39c-.08 1.02.79 1.59 1.67 1.59zM26.32 83.53h5.06c.88 0 1.67-.65 1.67-1.59v-4.39c0-.84-.69-1.59-1.57-1.59l-5.09.02c-.88 0-1.57.65-1.57 1.59l.03 4.37c-.03.89.59 1.59 1.47 1.59zM12.18 83.53h6.41c.88 0 1.57-.65 1.57-1.59v-4.39c0-.84-.69-1.59-1.57-1.59h-5.98c-.88 0-1.57.65-1.57 1.59l-.43 4.39c0 .84.68 1.59 1.57 1.59z"/></svg>