<svg width="128" height="128" xmlns="http://www.w3.org/2000/svg"><defs><radialGradient cx="57.641%" cy="35.04%" fx="57.641%" fy="35.04%" r="75.704%" gradientTransform="scale(.77692 1) rotate(-28.595 .66 .026)" id="a"><stop stop-color="#E1F5FE" offset="33.4%"/><stop stop-color="#B3E5FC" offset="100%"/></radialGradient><radialGradient cx="40.601%" cy="59.488%" fx="40.601%" fy="59.488%" r="194.731%" gradientTransform="matrix(.59958 -.4625 .31278 .88662 -.023 .255)" id="b"><stop stop-color="#FFF" offset="21.4%"/><stop stop-color="#B3E5FC" offset="100%"/></radialGradient><radialGradient cx="5.964%" cy="43.88%" fx="5.964%" fy="43.88%" r="57.443%" gradientTransform="matrix(1 0 0 .78094 0 .096)" id="e"><stop stop-color="#616161" offset="0%"/><stop stop-color="#6E6E6E" offset="57%"/><stop stop-color="#7B7B7B" offset="100%"/></radialGradient><radialGradient cx="15.703%" cy="79.815%" fx="15.703%" fy="79.815%" r="51.183%" gradientTransform="matrix(.95526 0 0 1 .007 0)" id="h"><stop stop-color="#F78C1F" offset="36.2%"/><stop stop-color="#F37F21" offset="67.8%"/><stop stop-color="#ED6D23" offset="100%"/></radialGradient><radialGradient cx="40.132%" cy="22.703%" fx="40.132%" fy="22.703%" r="91.976%" gradientTransform="matrix(.44927 0 0 1 .221 0)" id="i"><stop stop-color="#F78C1F" offset="36.3%"/><stop stop-color="#F37F21" offset="67.8%"/><stop stop-color="#ED6D23" offset="100%"/></radialGradient><radialGradient cx="43.177%" cy="28.873%" fx="43.177%" fy="28.873%" r="64.349%" gradientTransform="matrix(1 0 0 .72071 0 .08)" id="j"><stop stop-color="#F78C1F" offset="36.6%"/><stop stop-color="#F37F21" offset="67.9%"/><stop stop-color="#ED6D23" offset="100%"/></radialGradient><linearGradient x1="-.001%" y1="50.008%" x2="100%" y2="50.008%" id="c"><stop stop-color="#FB8C00" offset="17.1%"/><stop stop-color="#F67F00" offset="56.3%"/><stop stop-color="#EF6C00" offset="98.3%"/></linearGradient><linearGradient x1="0%" y1="49.994%" x2="100.003%" y2="49.994%" id="d"><stop stop-color="#90CAF9" offset="36.5%"/><stop stop-color="#42A5F5" offset="98.7%"/></linearGradient><linearGradient x1="18.462%" y1="57.374%" x2="98.259%" y2="38.715%" id="f"><stop stop-color="#EF6C00" offset="26.7%"/><stop stop-color="#F67F00" offset="54.6%"/><stop stop-color="#FB8C00" offset="80.6%"/></linearGradient><linearGradient x1="10.359%" y1="68.184%" x2="78.675%" y2="29.441%" id="g"><stop stop-color="#FFCA28" offset="50%"/><stop stop-color="#FFB300" offset="100%"/></linearGradient></defs><g fill="none"><path d="M97.71 36.2C84.15 50.36 79.05 53.61 43.15 70.97c-10.22 4.94-20.52 7.2-28.79 9.03C8.28 81.34 3.48 82.4.88 84.08c-.3.2-.59.39-.87.58v18.44c.15.03.26.05.26.05h46.38l73.27-28.94V9.99c-5.28 7.01-12.9 16.5-22.21 26.21Z" fill="url(#a)" transform="matrix(-1 0 0 1 123.97 14.74)"/><path d="m4.06 88.41 73.37 28.98 46.2.01c.01 0 .14-.02.34-.06v1.01c-.12.02-.22.04-.26.04H77.33c-.06 0-.12-.01-.18-.04L4.06 89.48v-1.07Z" fill="#B3E5FC"/><path d="M119.91 28.13c-5.93 3.16-12.55 7.35-17.68 12.37-30.62 30.03-58.27 31.81-77 42.81C14.79 89.45 5.2 95.27 0 98.45v10.77h119.91V28.13Z" fill="url(#b)" transform="matrix(-1 0 0 1 123.97 14.74)"/><path d="M4.06 69.26v-8.58c24.42 13.48 48.85 26.98 73.27 40.46 3.67 2.03 7.33 4.05 11 6.08 4.23 2.34.45 8.82-3.79 6.48C58.71 99.44 32.88 85.17 7.05 70.91c-1-.55-1.99-1.1-2.99-1.65Z" fill="#B3E5FC"/><path d="M111.83 52.63a2.334 2.334 0 0 0-3.17-.92L35.07 92.39c-.7.39-2.6-.55-3.99-1.24-1.07-.53-2-.99-2.67-1.07-1.85-.24-3.55.93-3.88 2.66-.17.91.03 1.82.57 2.57.53.74 1.31 1.21 2.21 1.35.88.31 4.19 1.44 6.38 1.44.59 0 1.09-.08 1.45-.28l75.77-42.02c1.13-.61 1.54-2.04.92-3.17Z" fill="url(#c)" transform="matrix(-1 0 0 1 123.97 14.74)"/><path d="M84.54 17.9c2.67-2.18 5.9-3.16 9.16-3.16 3.25 0 6.54.97 9.37 2.7 8.5 5.19 7.18 13.99 7.18 13.99s1.56 2.64 1.88 4.66c.17 1.13-.21 1.89-.76 1.89-.16 0-.33-.06-.5-.2l-9.99-7.22a2.63 2.63 0 0 0-.83-.14c-3.62 0-8.36 7-11.3 7-.17 0-.33-.02-.49-.07l1.85-5.33s-.38-.07-.94-.07c-1.33 0-3.66.41-3.99 3.22-.29 2.45-2.17 3.53-3.94 4.83-2.97-7.02-3.02-16.94 3.3-22.1Z" fill="#039BE5"/><path d="M79.23 29.12c.21-.88.43-3.49 1.36-3.95.14-.06.27-.09.4-.09.79 0 1.51 1.11 2.13 1.54 1.18.83 2.46 1.51 3.75 2.13 2.52 1.22 5.16 2.22 7.53 3.73.82.52 1.78.93 2.5 1.58.67.6 1.23 1.35 1.88 1.97a87.362 87.362 0 0 0 5.39 4.79c.79.64 2.76 2.23 2.76 2.23s-.73 1.02-.36 2.98c.18.96-.42 1.92-1.27 2.1-1.59.34-2.15-.16-3.39.92-1.1.95-2.17 1.8-3.69 1.88-.08 0-.16.01-.24.01-1.44 0-2.81-.67-4.15-1.24a35.085 35.085 0 0 0-9.8-2.61c.08 0 .04-5.38-.12-5.9-.38-1.21-1.55-2.31-2.43-3.2-1.05-1.07-3.35-1.91-3.94-3.33-.58-1.37 1.35-4.11 1.69-5.54Z" fill="#4568AD"/><path d="m89.2 33.76-9.18-7.47a1.343 1.343 0 0 1 1.52-2.21l9.78 6.17.56-.92a2.856 2.856 0 0 1 3.74-1.06l4.32 2.21-6.97 12.81-4.47-3.64c-1.1-.9-1.37-2.47-.64-3.69l1.34-2.2Z" fill="#444"/><path d="M110.87 37.78c-.31-.22-6.8-4.85-10.47-7.45a2.724 2.724 0 0 0-3.95.87l-4.22 7.35c-.92 1.6-.38 3.64 1.2 4.59l4.2 2.51c2.69 1.24 6.02-.89 6.02-.89.92-.57 2.05-.66 3.05-.26l.18.07.31.22 1.17-1.81-.4-.25 1.75-2.99.4.26 1.23-1.89-.47-.33Z" fill="#E3F2FD"/><path d="M14.24 25.02c.3-.22 4.67-3.15 7.44-5.03 1.06-.72 2.5-.39 3.15.71l2 3.4c.61 1.04.28 2.38-.75 3.01l-1.91 1.09c-.64.39-1.43.44-2.11.15 0 0-3.83-1.97-6.02-.38l-1.8-2.95Z" fill="url(#d)" transform="matrix(-1 0 0 1 123.97 14.74)"/><path d="m82.52 23.64-1.01-1.4-28.73 14.2.03.04c-.91.25-1.78.68-2.55 1.32-2.91 2.41-3.32 6.73-.91 9.64.13.16.27.3.41.45l-.95.51L60.6 69.92l12.27-6.69-7.95-16.78 14.05-5.74c6.27-2.5 8.02-10.92 3.55-17.07Z" fill="url(#e)" transform="matrix(-1 0 0 1 123.97 14.74)"/><path d="M33.8 55.46c-.56 0-1.1-.31-1.35-.85-.36-.75-.04-1.64.71-2l70.93-33.87c.75-.36 1.64-.04 2 .71.36.75.04 1.64-.71 2L34.45 55.31c-.21.1-.43.15-.65.15Z" fill="url(#f)" transform="matrix(-1 0 0 1 123.97 14.74)"/><path d="m22.95 43.13 4.66-3.71c.26-.21.4-.54.37-.87l-.52-5.75c-.09-1.03-1.5-1.26-1.91-.31l-4.14 9.46c-.42.95.72 1.83 1.54 1.18Z" fill="#616161"/><path d="m40.3 55.67-3.83-6.6a.49.49 0 0 0-.54-.24l-.38.08-4.19-1.41a1.7 1.7 0 0 0-1.18.04l-.11.04c-.04.02-.09.04-.11.06-.38.18-.67.46-.83.78L28.26 50c-.14.3-.27.91-.24 1.4-1.15.75-1.84 1.37-2.06 1.84-.42.9-.51 1.56-.27 2.03.79 1.52 3.19 5.62 4.81 6.31.52.22 1.05.33 1.58.33.66 0 1.33-.17 2.01-.5 2.21-.83 5.99-4.97 6.15-5.15.14-.16.17-.4.06-.59Z" fill="url(#g)" transform="matrix(-1 0 0 1 123.97 14.74)"/><path d="M49.2 17.35c-.23-.03-1.39-.84-2.59-1.66-1.19-.81-.35-3.17-1.79-3.17h-.04c-1.1.03-8.21 5.54-10.75 7.42-3.87 2.85-11.18 11.14-9.56 16.81.02.08.11.12.26.12 1.14 0 5.86-2.25 12.22-2.25 1.16 0 2.37.07 3.62.25.66-3.06 1.21-5.32 2.8-8.05 1.8-3.08 8.23-9.2 5.83-9.47Z" fill="url(#h)" transform="matrix(-1 0 0 1 123.97 14.74)"/><path d="M77.84 19.82c0 .01-9.5-2.83-21.46-2.83v.49-.49c-5.33 0-11.14.56-16.83 2.19-2.07.59-6.43 4.79-2.56 9.3 3.87 4.51 16.19 10.02 16.19 10.02l30.14-13.63c-.77-1.82-3.05-4.18-5.48-5.05Z" fill="url(#i)" transform="matrix(-1 0 0 1 123.97 14.74)"/><path d="M58.95 39c-.29-.56-10.12-19.25-19.01-19.25-1.46 0-2.89.5-4.24 1.66-7.59 6.48 4.11 16.69 9.5 20.78l-8.03 4.21c-2.08 1.37-2.57 5.16-1.2 7.25 1 1.52 3.35 2.73 5.35 2.73.73 0 1.42-.16 1.98-.53l13.85-8.97c.38-.25.67-.57.87-.92 1.66-1.86 2.11-4.6.93-6.96Z" fill="url(#j)" transform="matrix(-1 0 0 1 123.97 14.74)"/><path d="m46.8 82.95 8.86-15.65 13.79 7.8-4.08 7.16c-.39.68-.19 1.54.46 1.98l4.14 2.7c3.12 2.51 1.09 5.65 1.09 5.65l-1.69 2.97a1.99 1.99 0 0 1-1.74 1.01c-.33 0-.66-.08-.97-.25l-19.1-10.64a2 2 0 0 1-.76-2.73Z" fill="#4568AD"/><path d="M23.54 77.78c-.01-.01-.02-.01-.03-.03-1.23-1.08-.39-3.2 1.31-2.93.05 0 .09.01.13.02.98.24 1.63 1.08 1.91 2.01.14.48.26.96.36 1.45.05.24.11.49.13.73.01.14-.06.39-.22.42-.23.05-.65-.14-.87-.22-.98-.31-1.94-.75-2.72-1.45Zm-12.03-11.9c-.01-.01-.01-.02-.03-.03-1.1-1.22-3.21-.35-2.91 1.35 0 .04.02.09.03.13.25.98 1.1 1.62 2.04 1.89.48.14.97.25 1.46.34.24.05.49.1.73.12.14.01.39-.07.42-.23.05-.23-.15-.65-.23-.86-.34-.98-.8-1.94-1.51-2.71Zm17.97-.75c-.01-.01-.01-.02-.01-.04-.68-1.69 1.22-3.38 2.77-2.25l.12.09c.85.72 1.09 1.89.9 2.96-.1.55-.22 1.09-.37 1.62-.08.26-.14.54-.24.79-.06.14-.26.35-.43.31-.26-.06-.57-.46-.75-.65-.82-.83-1.55-1.76-1.99-2.83Zm-13.34-9.3c-.01-.01-.01-.02-.02-.03-1.1-1.16-.1-3.14 1.53-2.73.04.01.09.02.13.04.93.31 1.49 1.19 1.68 2.11.1.48.17.96.23 1.44.02.24.06.48.06.72 0 .13-.1.37-.25.39-.23.03-.61-.19-.82-.28-.95-.41-1.84-.92-2.54-1.66Zm1.26 9.13-.03-.03c-1.37-1.48-.07-3.96 1.97-3.41.05.01.11.03.16.05 1.16.41 1.86 1.53 2.08 2.7.11.6.2 1.21.25 1.82.03.3.07.61.07.91-.01.16-.13.46-.32.48-.29.04-.78-.25-1.03-.37-1.16-.54-2.28-1.21-3.15-2.15Z" fill="#FFF"/></g></svg>