<svg width="128" height="128" xmlns="http://www.w3.org/2000/svg"><defs><radialGradient cx="-1.369%" cy="61.819%" fx="-1.369%" fy="61.819%" r="101.475%" gradientTransform="matrix(.95397 .23541 -.2999 .74886 .185 .158)" id="c"><stop stop-color="#BFA055" stop-opacity="0" offset="45%"/><stop stop-color="#BFA055" offset="100%"/></radialGradient><radialGradient cx="4.32%" cy="70.313%" fx="4.32%" fy="70.313%" r="102.332%" gradientTransform="scale(1 .5903) rotate(-10.533 2.69 .947)" id="d"><stop stop-color="#BFA055" stop-opacity="0" offset="45%"/><stop stop-color="#BFA055" offset="100%"/></radialGradient><radialGradient cx="59.131%" cy="69.729%" fx="59.131%" fy="69.729%" r="97.158%" gradientTransform="matrix(.6497 -.2016 .13372 .97947 .114 .134)" id="e"><stop stop-color="#BFA055" stop-opacity="0" offset="45%"/><stop stop-color="#BFA055" offset="100%"/></radialGradient><radialGradient cx="56.362%" cy="29.525%" fx="56.362%" fy="29.525%" r="120.794%" gradientTransform="scale(.67975 1) rotate(11.449 .696 1.62)" id="f"><stop stop-color="#BFA055" stop-opacity="0" offset="45%"/><stop stop-color="#BFA055" offset="100%"/></radialGradient><radialGradient cx="33.707%" cy="37.882%" fx="33.707%" fy="37.882%" r="60.662%" gradientTransform="matrix(1 0 0 .71726 0 .107)" id="h"><stop stop-color="#F78C1F" offset="36.7%"/><stop stop-color="#F37F21" offset="68%"/><stop stop-color="#ED6D23" offset="100%"/></radialGradient><radialGradient cx="32.211%" cy="32.694%" fx="32.211%" fy="32.694%" r="55.544%" gradientTransform="matrix(.97167 0 0 1 .01 0)" id="j"><stop stop-color="#FB8C00" offset="1.7%"/><stop stop-color="#F47900" offset="44.2%"/><stop stop-color="#D95A1E" offset="83.8%"/></radialGradient><radialGradient cx="10.529%" cy="13.923%" fx="10.529%" fy="13.923%" r="283.655%" gradientTransform="matrix(1 0 0 .33073 0 .093)" id="k"><stop stop-color="#FFA726" offset="1.7%"/><stop stop-color="#FC950D" offset="49.4%"/><stop stop-color="#FB8C00" offset="83.8%"/></radialGradient><radialGradient cx="9.226%" cy="72%" fx="9.226%" fy="72%" r="590.384%" gradientTransform="matrix(.26662 0 0 1 .068 0)" id="l"><stop stop-color="#FFA726" offset="1.7%"/><stop stop-color="#FC950D" offset="49.4%"/><stop stop-color="#FB8C00" offset="83.8%"/></radialGradient><radialGradient cx="24.836%" cy="-42.968%" fx="24.836%" fy="-42.968%" r="179.096%" gradientTransform="matrix(.57323 0 0 1 .106 0)" id="m"><stop stop-color="#FFA726" offset="1.7%"/><stop stop-color="#FC950D" offset="49.4%"/><stop stop-color="#FB8C00" offset="83.8%"/></radialGradient><radialGradient cx="21.285%" cy="-23.473%" fx="21.285%" fy="-23.473%" r="244.506%" gradientTransform="matrix(.37874 0 0 1 .132 0)" id="n"><stop stop-color="#FFA726" offset="1.7%"/><stop stop-color="#FC950D" offset="49.4%"/><stop stop-color="#FB8C00" offset="83.8%"/></radialGradient><linearGradient x1="6.355%" y1="85.601%" x2="67.862%" y2="40.625%" id="a"><stop stop-color="#E0BB95" offset="0%"/><stop stop-color="#CCA47A" offset="100%"/></linearGradient><linearGradient x1="106.099%" y1="48.653%" x2="19.553%" y2="51.778%" id="b"><stop stop-color="#E0BB95" offset="0%"/><stop stop-color="#CCA47A" offset="100%"/></linearGradient><linearGradient x1="50.444%" y1="25.916%" x2="45.932%" y2="82.692%" id="g"><stop stop-color="#CCA47A" offset="0%"/><stop stop-color="#E0BB95" offset="100%"/></linearGradient><linearGradient x1=".006%" y1="49.99%" x2="100.007%" y2="49.99%" id="i"><stop stop-color="#CCA47A" offset=".7%"/><stop stop-color="#E0BB95" offset="100%"/></linearGradient></defs><g transform="matrix(-1 0 0 1 117.22 3.532)" fill="none"><path d="m25.91 58.338-.37-1.34c-.07-.24-.3-.4-.55-.36-3.61.49-12.1 1.71-12.86 2.4-.43.39-.58.9-.43 1.4.17.56.71 1.01 1.31 1.09.36.06.83.08 1.23.1-.04.2-.03.39.02.58.11.38.4.65.78.73.17.04.35.05.55.05 2.97 0 9.33-3.64 10.08-4.08.21-.12.3-.35.24-.57Z" fill="#BA8F63"/><path d="m37.11 39.278-6.25 11.81c-.01 0-.01.01-.02.01l-10.74 5.71c-1.84.88-.01 5.63 1.86 5.63.16 0 .32-.04.48-.11l12.27-4.92-.01-.02c.76-.34 1.37-.9 1.76-1.59l.03.02 7.12-13.09-6.5-3.45Z" fill="url(#a)"/><path d="M25.01 56.978c-1.26-1.48-2.21-1.4-3.52-1.11-.3.07-.61.15-.95.24-.96.25-2.16.56-4.09.79-2.57.3-5.7.18-5.73.18-.05-.01-.1 0-.15.01-.56.14-.98.53-1.13 1.03-.14.47-.02.96.32 1.32.96 1.02 4.46 1.21 6.58 1.08.6-.04 1.65-.08 2.49-.11.12-.03.21.09.23.14.02.05.05.15-.03.25-.39.45-.89.86-1.48 1.2-.75.43-1.11.9-1.08 1.43.02.53.44.98 1.19 1.32.22.1.47.14.75.14 1.75 0 4.43-1.72 5.34-2.61 1.13-1.12 2.51-3.84 1.26-5.3Z" fill="url(#b)"/><path d="m43.83 35.368-1.07-.54a5.04 5.04 0 0 0-2.33-.57c-1.89 0-3.71 1.04-4.62 2.84l-4.91 9.69 10.29 5.22 4.91-9.69c1.29-2.55.27-5.66-2.27-6.95Z" fill="#ED6D23"/><path d="m74.21 79.078-14.65-21.66-10.82 7.9 17.4 22.12h.01c.95 1.3 2.35 2.07 3.83 2.27l-.01.06 26.81 3.36 1.63-8.75-24.2-5.3Z" fill="#BA8F63"/><path fill="#BDBDBD" d="m90.83 82.708-1.76 9.44 7.7.96 1.63-8.75z"/><path d="M48.68 8.648c-2.71-3.93-8.54-6.81-13.21-5.8-5.23 1.12-7.88 5.06-8.39 9.91-.19 1.76-.05 3.49.31 4.71.04.15.39 1.2.42 1.54.26 1.29-2.19 2.7-2.41 4.15-.17 1.09 2.11 1.66 2.3 1.85.93.92-.24 5.6 5.95 5.75 2.38.06 1.91-.06 2.62.17 1.11.36 2.51 3.6 2.51 3.6s-.52 4.41 3.5 2.95c4.58-1.67 5.61-5.82 5.61-5.82s-2.96-3.66-.41-8.57c2.03-3.93 2.94-11.91 1.2-14.44Z" fill="#E0BB95"/><path d="M28.46 27.548c.86.01 1.69-.24 2.39-.81.76-.62.19-1.25-.7-.82-.53.26-1.3.41-2.01.32l.32 1.31Z" fill="#6D4C41"/><ellipse fill="#5D4037" transform="rotate(-4.611 31.67 19.548)" cx="31.67" cy="19.548" rx="1.13" ry="1.74"/><path d="M30.67 17.018c-1.1.32-1.36-.41-.99-1 .27-.43.94-.79 2.23-.53 1.21.25 1.71.95 2.04 1.37.32.43.28.85 0 .89-.38.06-1.91-1.12-3.28-.73Z" fill="#AB872F"/><path d="M52.18 8.668c-1.48-3.24-4.21-4.11-5.1-4.31-.47-1.18-2.76-5.62-10.21-4.01-1.81.39-3.1 1.33-4.25 2.15-.49.36-.95.69-1.39.93-.36.19-.99.38-1.53.23-1.23-.34-.94-2.19-.94-2.19s-4.39 1.09-2.27 5.29c-1.45.73-2.07 2.35-2.26 3.84-.26 2.05.82 3.92 2.81 4.7 0 0-.55-3.24 4.16-3.28 1.46-.01 3 .14 4.32-.47.51-.23.97-.58 1.46-.86.12-.01.18-.01.18-.01 1.83.87-.31 5.18 1.79 7.54.42.47.73.27.73.27l.74-1.2c.56-.83 1.08-1.55 1.83-1.42 2.24.38 2.03 4.35-.55 5.35-.26.1.57 4.48 6.01 4.21 2.81-.14 3.69-2.52 3.69-2.52s-1.19.36-1.5-.65c-.16-.52.29-1.26 1.13-2.09 2.42-2.39 1.38-4.93.97-5.72.39-.77 1.34-3.24.18-5.78Z" fill="#AB872F"/><path d="M52.04 14.448c.04-.09-.69 2.04-4.3 1.88-1.48.07-3.36 3.74-1.08 5.99 2.02 1.99 4.78.59 4.78.59s-.38.13-.96-.04c-.38-.11-.53-.59-.54-.61-.16-.52.29-1.26 1.13-2.09 2.42-2.39 1.38-4.94.97-5.72Z" fill="url(#c)"/><path d="M52.18 8.668c-.78-1.71-2.12-3.11-3.84-3.88-.25-.11-.86-.37-1.27-.43.24.76.25 1.59-.03 2.46-.01.03-.33 1.32-1.36 2.38.85 1.06 1.31 2.37 1.75 3.65.38 1.12.76 2.36.31 3.46.69-.08 1.79.06 2.97-.54 1.13-.58 1.67-1.94 1.9-3.15.25-1.32.13-2.71-.43-3.95Z" fill="url(#d)"/><path d="M47.03 6.828c.76-2.27-.57-4.27-2.49-5.55-2.25-1.5-5.12-1.48-7.67-.93-1.81.39-3.1 1.33-4.25 2.15-.49.36-.95.69-1.39.93-.36.19-.99.38-1.53.23-1.23-.34-.94-2.19-.94-2.19s-4.39 1.09-2.27 5.29c-1.45.73-2.07 2.35-2.26 3.84-.26 2.05.82 3.92 2.81 4.7 0 0-.55-3.24 4.16-3.28 1.46-.01 3 .14 4.32-.47 1.17-.54 1.55-1.21 2.89-1.2 1.45.01 3.4.47 4.88.16 3-.61 3.73-3.64 3.74-3.68Z" fill="url(#e)"/><path d="M46.65 22.308c-1.02-.98-1.36-2.67-2.92-3.5-.23 1-.9 1.97-2 2.4-.26.1.57 4.48 6.01 4.21 2.81-.14 3.69-2.52 3.69-2.52s-2.73 1.38-4.78-.59Z" fill="url(#f)"/><path d="m48.84 57.978-12.65 21.11a17.258 17.258 0 0 0-2.35 10.78l2.74 24.78 7.61.02.86-27.53 15.1-21.97-11.31-7.19Z" fill="url(#g)"/><path fill="#E0E0E0" d="m35.51 104.688.77 8.43 7.9.02.39-8.43z"/><path d="M60.51 56.548a7.96 7.96 0 0 0-6.44-3.26c-1.63 0-3.27.5-4.69 1.53-3.55 2.59-4.33 7.58-1.74 11.13l8.97 11.66 12.27-8.96-8.37-12.1Z" fill="#646464"/><path d="M58.86 54.728a8.032 8.032 0 0 0-4.28-1.24c-2.63 0-5.21 1.31-6.73 3.69l-7.57 12.61 12.82 8.15 8.21-12.21c2.36-3.71 1.26-8.64-2.45-11Z" fill="#7C7C7C"/><path d="M62.46 57.838c-1.95-7.87-5.37-15.74-8.89-23.61-1.18-2.97-4.22-4.74-7.24-4.74-.86 0-1.71.14-2.52.44-4.97 1.84-7.53 6.41-5.97 11.9 2.3 8.12 3.44 12.94 4.29 20.93.11 1.03 1.01 1.77 2.03 1.77.18 0 .36-.02.55-.07 5.19-1.38 11.04-2.83 16.32-4.23 1.04-.28 1.69-1.34 1.43-2.39Z" fill="url(#h)"/><path d="M84.9 56.368c-.32-.8-.8-1.59-1.41-2.6-.47-.77-3.99-4.78-5.45-5.48-.88-1.48-5.73-7.51-7.9-10.19-.51-.63-1.19-1.1-1.97-1.36l-14.28-4.5a.5.5 0 0 0-.63.33l-2.18 7.08a.5.5 0 0 0 .33.62l13.05 4.03c2.11 2.03 7.18 6.92 7.88 7.6.35 1.17.27 2.65.21 3.96-.07 1.42-.13 2.54.33 3.16.44.59.94.62 1.2.59.69-.09 1.19-.74 1.41-1.28.29-.7.28-1.42.27-1.95v-.3c.62.42.85 2.05 1.03 3.37.24 1.7.44 3.17 1.47 3.35.05.01.1.01.15.01.21 0 .4-.08.56-.23.51-.48.55-1.74.51-2.65.07.31.09.62.11.93.06.77.14 1.81 1.23 1.85.33.01.55-.11.73-.34.31-.38.37-1.03.33-1.69.26.52.57.82 1.06.66.18-.06.44-.21.61-.59.16-.35.22-.83.2-1.33.06.06.12.11.2.14.12.05.3.06.42.02.2-.07.47-.23.65-.63.31-.63.25-1.62-.12-2.58Z" fill="url(#i)"/><path d="M50.63 29.668c-.47-.14-.96-.21-1.43-.21-2.25 0-4.31 1.47-4.97 3.74l-.36 1.23c-.79 2.74.79 5.61 3.53 6.4l10.54 3.04 3.22-11.17-10.53-3.03Z" fill="#ED6D23"/><path d="M44.26 112.288h-7.93l-5.48 2.07c-1.54.6-2.55 2.06-2.57 3.69l-.01 1.27c0 .55.45 1 1.01 1l15.76-.02c.64 0 1.16-.51 1.16-1.15v-2.8c.01-1.89-1.94-4.06-1.94-4.06Z" fill="#4568AD"/><path d="m104.59 83.898-2.75-.51c-.21-.04-.41-.05-.62-.05-1.76 0-3.76 1.22-3.76 1.22l-1.46 7.8 1.03 5.76c.3 1.62 1.55 2.89 3.16 3.2l1.24.24c.06.01.13.02.19.02.47 0 .9-.34.99-.83l2.89-15.5c.12-.63-.29-1.23-.91-1.35Z" fill="#325599"/><path d="M23.65 77.428c0 6.34-5.3 11.49-11.83 11.49S0 83.768 0 77.428s5.3-11.49 11.82-11.49c6.54 0 11.83 5.14 11.83 11.49Z" fill="url(#j)"/><path d="M12.13 88.908c-.1.01-.21.01-.31.01-1.16 0-2.29-.17-3.34-.47h-.01c-1.43-1.98-4.09-6.5-3.93-12.54.01-.46.04-.94.09-1.42.05-.62.15-1.24.27-1.88.07-.38.16-.76.26-1.15l.03-.09c.11-.46.26-.88.43-1.26h.01c.14-.35.29-.66.46-.95h.01c.8-1.41 1.85-2.29 2.64-2.81.93-.25 1.91-.39 2.91-.4-1.01.37-2.8 1.24-4.04 3.18-.21.31-.4.66-.55 1.03h-.01c-.15.33-.28.7-.4 1.09a8.08 8.08 0 0 0-.28 1.24c-.1.63-.17 1.23-.2 1.83-.03.48-.03.96 0 1.43.24 6.3 4.13 11.19 5.96 13.16Z" fill="url(#k)"/><path d="M17.76 67.498c-3.44-.05-6.28 2.42-10.69 2.65h-.01c-.22.01-.43.02-.66.02-.29 0-.53-.02-.76-.07h-.01c-1.09-.2-1.45-.86-1.56-1.34.3-.26.62-.5.94-.72-.03.44.15.94 1.09 1.11h.01c.21.03.45.04.74.04.24 0 .5-.03.77-.07 2.53-.36 5.95-2.1 6.99-2.43.3-.09.62-.15.91-.17.79.25 1.54.57 2.24.98Z" fill="url(#l)"/><path d="M21.11 84.538c-.53.66-1.14 1.26-1.82 1.81-.92-1.65-2.7-4.3-6.03-7.39-1.88-1.75-4.42-3.17-7.08-3.22-.3-.02-.61-.01-.91.02-.26.02-.5.07-.73.15-2.65.79-3.25 4.31-3.36 6.51-.51-1.02-.88-2.12-1.06-3.28.64-1.7 1.96-4.05 4.51-4.65.21-.05.42-.09.65-.11.3-.03.61-.05.9-.06 3.48-.07 6.04 1.64 8.49 3.43 3.33 2.4 5.44 5.27 6.44 6.79Z" fill="url(#m)"/><path d="M23.65 77.278v.15c0 .9-.1 1.76-.31 2.6-3.14-2.91-9.53-7.8-16.96-7.55-.492.017-.982.057-1.47.12-2.25.31-3.67 1.17-4.53 1.95.18-.69.43-1.35.73-1.98.95-.5 2.29-1 4.09-1.21.19-.03.38-.04.57-.06l.89-.06c8.26-.38 14.52 3.99 16.99 6.04Z" fill="url(#n)"/></g></svg>