<svg xmlns="http://www.w3.org/2000/svg" width="160" height="160" fill="none"><g clip-path="url(#a)"><path fill="#312920" d="m108.453 135.745-68.614-8.794a5.69 5.69 0 0 1-4.949-6.34L47.176 19.645a5.69 5.69 0 0 1 6.34-4.95l68.886 8.892c3.116.384 5.571 3.006 5.187 6.122l-12.797 101.096a5.68 5.68 0 0 1-6.339 4.94"/><path fill="#000" fill-opacity=".3" d="m108.453 135.745-68.614-8.794a5.69 5.69 0 0 1-4.949-6.34L47.176 19.645a5.69 5.69 0 0 1 6.34-4.95l68.886 8.892c3.116.384 5.571 3.006 5.187 6.122l-12.797 101.096a5.68 5.68 0 0 1-6.339 4.94"/><path fill="#D24C4C" d="M42.244 93.3s8.474-67.947 8.843-70.276c.37-2.33 2.216-3.844 4.482-3.638s61.421 7.642 63.21 7.862c1.788.22 4.376 1.09 4.136 4.306s-8.351 63.305-8.351 63.305-10.874-8.556-25.542-10.427C66.43 81.547 42.244 93.3 42.244 93.3"/><path fill="#000" fill-opacity=".3" d="M42.244 93.3s8.474-67.947 8.843-70.276c.37-2.33 2.216-3.844 4.482-3.638s61.421 7.642 63.21 7.862c1.788.22 4.376 1.09 4.136 4.306s-8.351 63.305-8.351 63.305-10.874-8.556-25.542-10.427C66.43 81.547 42.244 93.3 42.244 93.3"/><path fill="#312920" d="m123.327 126.499-68.526 9.457a5.69 5.69 0 0 1-6.434-4.825L33.817 30.466a5.69 5.69 0 0 1 4.826-6.435l68.814-9.434c3.107-.445 6.163 1.444 6.607 4.552l14.089 100.924a5.68 5.68 0 0 1-4.826 6.426"/><path fill="#000" fill-opacity=".15" d="m123.327 126.499-68.526 9.457a5.69 5.69 0 0 1-6.434-4.825L33.817 30.466a5.69 5.69 0 0 1 4.826-6.435l68.814-9.434c3.107-.445 6.163 1.444 6.607 4.552l14.089 100.924a5.68 5.68 0 0 1-4.826 6.426"/><path fill="#D24C4C" d="M48.321 102.847s-9.592-67.798-9.844-70.143c-.253-2.344 1.133-4.289 3.375-4.683s61.282-8.688 63.065-8.943 4.509-.093 5.118 3.074 8.497 63.285 8.497 63.285-12.733-5.413-27.38-3.384c-22.56 3.125-42.83 20.794-42.83 20.794"/><path fill="#000" fill-opacity=".15" d="M48.321 102.847s-9.592-67.798-9.844-70.143c-.253-2.344 1.133-4.289 3.375-4.683s61.282-8.688 63.065-8.943 4.509-.093 5.118 3.074 8.497 63.285 8.497 63.285-12.733-5.413-27.38-3.384c-22.56 3.125-42.83 20.794-42.83 20.794"/><path fill="#D9CDC9" d="m117.8 139.376-64.074-22.832a6.253 6.253 0 0 1-3.833-7.965l39.323-75.368 66.026-.377c5.894 1.715 5.279 4.53 4.139 7.786l-33.632 94.908a6.22 6.22 0 0 1-7.949 3.848"/><path fill="#F1EDEC" d="M118.48 136.044s-47.287-15.523-64.595-22.708c-3.313-1.372-4.495-3.291-3.996-4.748l33.056-94.897a6.25 6.25 0 0 1 7.965-3.833l63.732 22.66c3.256 1.14 3.547 4.273 2.407 7.529l-32.733 91.736c-1.159 3.25-2.58 5.401-5.836 4.261"/><path fill="#D9CDC9" d="M83.373 27.213c2.418.343 4.405-.98 6.555-3.255.508 1.449 1.109 2.15 2.685 2.211 1.147.045 3.788-.456 4.531-3.584s-.758-5.952-3.037-6.414-3.827.265-5.674 2.828-1.75 5.01-5.06 8.214M123.854 118.787c-2.419-.343-4.405.98-6.555 3.255-.509-1.449-1.109-2.149-2.686-2.211-1.147-.045-3.788.456-4.531 3.584s.759 5.952 3.037 6.414 3.827-.265 5.675-2.828 1.749-5.01 5.06-8.214"/><path fill="#FD8F01" d="M118.014 42.08c-1.682-.651-3.793-.64-5.085 1.978-1.16 2.344.459 4.527 2.11 5.168 2.745 1.06 4.692-.473 5.424-2.565.641-1.829-.679-3.898-2.449-4.58"/><path fill="#00C1EC" d="m111.446 72.922 5.16 4.691s3.117-6.096 6.905-7.43c4.352-1.538 6.205.155 6.205.155l2.931-1.536s-.854-5.798-7.38-7.048c-6.016-1.152-9.715 2.017-9.715 2.017s-.479 1.877-1.885 4.849c-1.189 2.476-2.221 4.302-2.221 4.302"/><path fill="#016AA9" d="M130.197 68.328c-2.064.92-3.025 3.843-1.582 5.92 1.338 1.941 4.066 2.843 6.055 1.191 1.846-1.523 2.266-4.25.963-5.707-1.562-1.734-3.175-2.406-5.436-1.404"/><path fill="#312920" d="m114.016 133.422-69.174-.336a5.69 5.69 0 0 1-5.687-5.688L39 25.688A5.69 5.69 0 0 1 44.687 20l69.457.4c3.139 0 5.896 2.303 5.896 5.442l-.337 101.902a5.68 5.68 0 0 1-5.687 5.678"/><path fill="#D24C4C" d="M43.113 99.393s.1-68.474.182-70.83c.082-2.357 1.729-4.086 4.004-4.159s61.894.073 63.696.073 4.477.546 4.632 3.767-.546 63.851-.546 63.851-11.839-7.161-26.625-7.225c-22.776-.1-45.343 14.523-45.343 14.523"/><path fill="#F1D2A7" d="M69.493 33.595c-12.585 0-20.402 8.58-20.201 20.965.19 12.011 8.444 19.636 19.782 19.636 10.865 0 19.764-7.816 19.955-20.11.191-12.293-8.572-20.491-19.536-20.491"/><path fill="#D9CDC9" d="m99.953 128.64-65.798 17.247a6.25 6.25 0 0 1-7.655-4.419l-9.99-84.421 54.33-37.52c5.836-1.906 6.914.766 7.807 4.099l25.703 97.355a6.22 6.22 0 0 1-4.397 7.659"/><path fill="#F1EDEC" d="M98.636 125.504s-47.81 13.825-66.157 17.644c-3.51.733-5.568-.186-5.976-1.671L.33 44.456A6.25 6.25 0 0 1 4.75 36.8l65.417-17.197c3.333-.893 5.338 1.53 6.231 4.863l24.659 94.228c.873 3.338.912 5.916-2.42 6.809"/><path fill="#D9CDC9" d="M94.108 107.477c-2.19 1.08-3.086 3.292-3.58 6.383-1.237-.91-2.128-1.151-3.465-.313-.973.609-2.872 2.512-1.723 5.514s3.98 4.49 6.123 3.587c2.142-.903 3.012-2.375 3.094-5.534.083-3.158-1.378-5.124-.449-9.637"/><g clip-path="url(#b)"><path fill="#9A9A9A" d="m74.87 84.989 3.856-1.068-2.186-8.39 2.452-.623s2.344 8.976 2.511 9.593c.168.623-.054 1.345-.575 1.568-.521.222-4.787 1.375-4.787 1.375z"/><path fill="#DB0D2B" d="M73.555 73.482c.451 1.897 2.072 3.426 4.589 2.72 2.516-.705 2.978-2.466 2.523-4.356-.41-1.705-2.045-3.51-4.572-2.751-2.286.689-2.917 2.807-2.54 4.387"/><path fill="#fff" d="M74.926 73.652c.981.143.746-.88 1.045-1.68.302-.805 1.039-1.284.44-1.709-.371-.261-1.38-.33-1.966 1.082-.403.96-.348 2.184.48 2.307"/><path fill="#CACACA" d="M28.862 102.221s-5.34-19.758-6.055-23.179c-.716-3.42-.206-13.361 10.003-20.081s21.857-5.454 26.991-2.983c9.43 4.542 10.964 10.73 10.964 10.73l6.02 22.005s2.018 1.529 2.158 2.047c.14.517.448 1.694.448 1.694L28.32 106.4s-.42-1.365-.321-2.019.863-2.16.863-2.16"/><path fill="#DB0A27" d="M40.098 50.43c-2.314.626-3.376 2.56-3.525 3.838-.127 1.115.2 2.46.2 2.46s1.29-.074 4.84-1.033c3.548-.96 4.393-1.55 4.393-1.55s-.222-1.48-1.03-2.321c-.923-.964-2.455-2.048-4.878-1.394"/><path fill="#FF4E23" d="M37.328 55.328c.806.568 1.953-.186 2.84-1.394.733-1.004 1.395-2.702.716-3.028-.977-.465-2.208.357-3.15 1.606-.584.78-1.122 2.317-.406 2.816"/><path fill="#FFFDFD" d="M37.812 54.591c.456.198.833-.485 1.38-1.27.464-.66 1.217-1.42.756-1.749-.467-.333-1.298.31-1.826 1.034-.472.632-1.02 1.677-.31 1.985"/><path fill="#9A9A9A" d="M28.026 104.842c-.122.472 1.588 7.269 2.262 7.54.675.271 11.274-2.97 25.407-6.79s24.451-6.685 24.774-7.45c.462-1.104-1.22-7.195-1.53-7.489-.592-.573-13.216 3.476-25.5 6.873-12.643 3.488-25.221 6.572-25.413 7.316"/><path fill="#858585" d="M31.115 105.67c-.438.342.542 4.232 1.14 4.218.73-.014 16.125-4.312 22.596-6.061 6.47-1.749 22.558-5.842 23.038-6.574.48-.73-.404-3.78-.96-4.16-.557-.38-16.987 4.485-23.178 6.158-6.19 1.673-21.742 5.708-22.636 6.419"/><path fill="#6F7178" d="M25.084 78.32c-.01.532 5.645 21.714 5.892 21.8s42.831-11.275 43.14-11.812c.308-.538-5.617-21.345-5.802-21.749-.186-.403-22.118 5-22.118 5z"/><path fill="#3A3839" d="M26.978 79.5c-.022.24 5.112 18.744 5.367 18.894.26.15 39.892-10.869 40.053-11.085s-4.891-18.737-5.091-18.836c-.201-.104-40.31 10.777-40.329 11.027"/><path fill="#FFDB8B" d="M42.557 56.775c-9.553 2.49-14.205 8.422-15.907 12.664-1.703 4.243-2.277 7.89-1.571 8.882.19.27 7-1.862 20.93-5.565s22.186-5.711 22.3-6.196c.119-.485-2.124-5.012-8.5-8.065-5.121-2.46-10.652-3.443-17.252-1.72"/><path fill="#FFAF29" d="M26.253 76.536s1.14-14.51 16.187-18.44c16.48-4.301 23.294 7.667 23.294 7.667z"/><path fill="#FFD61C" d="M31.622 68.09c-2.14 3.342-2.66 6.337-2.66 6.337s10.633-2.64 10.618-2.809c-.022-.213-7.958-3.528-7.958-3.528m5.502-5.672a18.5 18.5 0 0 0-4.235 3.796c2.237 1.148 8.226 3.598 9.03 3.895.958.353 1.307.59 1.458.432.124-.125-.478-.768-.69-1.042-.37-.486-4.329-5.324-5.563-7.08m8.75-3.063c-1.02.112-2.279.3-3.36.602-1.317.367-2.18.742-3.258 1.278 0 0 6.246 8.248 6.387 8.449.146.2.398.377.38-.103-.02-.473-.149-10.226-.149-10.226m6.573 8.872c.107.13 10.26-2.706 10.26-2.706s-2.203-2.377-5.97-4.203c0-.005-4.489 6.662-4.29 6.91m2.088-7.91a19.5 19.5 0 0 0-6.268-1.18c.013 2.443.186 8.325.242 9.059.018.275-.017.881.14.951.162.073.558-.365.864-.876.347-.583 5.022-7.954 5.022-7.954"/><path fill="#fff" d="M42.268 85.45c-1.296-4.456-.846-7.356-.533-8.537l-10.276 2.793s-1.683 3.845-.487 8.44c1.196 4.597 4.713 7.898 4.713 7.898l10.398-2.856c-.782-.91-2.527-3.314-3.815-7.737"/><path fill="#fff" d="M55.855 81.778c-.976-4.176-2.744-6.7-3.592-7.725l-9.445 2.568c-.206 1.539-.433 4.812.636 8.427 1.163 3.943 3.05 6.797 3.792 7.825l9.734-2.671c-.017-1.362-.18-4.361-1.125-8.424"/><path fill="#fff" d="m63.894 70.894-10.33 2.807c1.026 1.36 2.872 4.21 3.691 7.995.82 3.81.93 6.89.929 8.17l9.78-2.69s1.675-3.7.624-8.477c-1.057-4.776-4.694-7.805-4.694-7.805"/><path fill="#FAB037" d="m37.876 95.452 4.691-1.294s-.718-1.223-2.49-.693c-1.81.55-2.201 1.987-2.201 1.987"/><path fill="#FFD429" d="m50.417 92.006 3.596-.992s-.327-1.08-2.083-.58c-1.516.43-1.484 1.432-1.513 1.572"/><path fill="#A75FB7" d="m62.02 88.819 4.16-1.15s-.108-1.245-1.207-1.05c-.934.166-.927 1.076-.927 1.076s-.366-.558-1.163-.358c-.96.239-.945 1.351-.864 1.482"/><path fill="#FEBF21" d="m56.78 72.827 5.465-1.487s.493 1.691-1.628 2.31c-3.024.884-3.837-.823-3.837-.823"/><path fill="#5B6467" d="M45.656 75.843s-.03 1.268.275 1.43c.355.184 4.198-.798 4.377-1.193.178-.4-.444-1.379-.444-1.379z"/><path fill="#4E9226" d="m33.3 79.199 5.46-1.486s.428 1.377-2.02 2.07c-2.774.79-3.44-.584-3.44-.584"/><path fill="#FF2B26" d="M46.037 80.4c-.2.07-.739-.713-1.082-.533s-.826.416-.084 2.744c.74 2.328.975 2.48 1.436 2.334.46-.144.806-1.696.806-1.696s.44-.348.781-.466c.342-.113.673.134 1.14.161s1.079-.118 1.079-.118-1.111 1.605-1.178 3.3.33 3.24.48 3.306c.151.066 3.873-.894 3.989-1.032s-1.224-4.282-.83-5.801c.396-1.519.98-3.374.98-3.374s-.665-.932-1.02-.964c-.356-.036-.908.659-1.773.852-.862.187-2.088-.39-2.632-.4-.923-.02-1.496 1.48-2.092 1.687m-12.844 3.364c-.2.07-.672-.542-1.054-.464-.44.088-.74.24-.133 2.6.6 2.315 1.047 2.704 1.507 2.56.46-.146.778-1.781.778-1.781s.316-.34.705-.318c.357.02.671.165 1.19.102.462-.06.986-.12.986-.12s-.989 1.527-1.057 3.218c-.062 1.693.33 3.24.48 3.305.151.067 3.873-.893 3.989-1.031.115-.139-1.096-4.165-.702-5.688.394-1.524.855-3.494.855-3.494s-.664-.932-1.02-.963c-.356-.036-1.092.596-1.954.783s-2-.342-2.542-.276c-1.008.119-1.43 1.365-2.028 1.567m25.684-7.196c-.2.07-.758-.56-1.098-.382-.344.18-.716.387-.084 2.745.529 1.973.965 2.436 1.437 2.334.75-.167.791-1.58.791-1.58s.468-.325.805-.437c.341-.113.66-.005 1.127.022a5.6 5.6 0 0 0 1.009-.059s-1.045 1.547-1.107 3.24c-.062 1.695.33 3.24.48 3.307s3.872-.894 3.988-1.032-1.146-4.09-.751-5.608c.395-1.52 1.053-3.084.976-3.369s-.84-1.22-1.201-1.255c-.357-.037-.83.627-1.69.818-.862.188-2.098-.33-2.642-.341-.923-.02-1.44 1.388-2.04 1.597"/></g><path fill="#D9CDC9" d="M7.623 55.5c2.191-1.08 3.087-3.293 3.582-6.383 1.236.91 2.127 1.15 3.464.313.973-.61 2.872-2.512 1.723-5.515s-3.98-4.49-6.123-3.587c-2.142.903-3.012 2.376-3.095 5.534-.082 3.159 1.379 5.124.45 9.637"/></g><defs><clipPath id="a"><path fill="#fff" d="M0 0h160v160H0z"/></clipPath><clipPath id="b"><path fill="#fff" d="m12.952 55.387 60.807-16.435 16.435 60.807-60.807 16.435z"/></clipPath></defs></svg>